<?xml version="1.0" encoding="UTF-8" standalone="no"?>
<!DOCTYPE svg PUBLIC "-//W3C//DTD SVG 1.1//EN"
 "http://www.w3.org/Graphics/SVG/1.1/DTD/svg11.dtd">
<!-- Generated by graphviz version 14.1.4 (20260321.0153)
 -->
<!-- Title: TestCore::testControllerAtualizarStatusSucesso Pages: 1 -->
<svg width="323pt" height="104pt"
 viewBox="0.00 0.00 323.00 104.00" xmlns="http://www.w3.org/2000/svg" xmlns:xlink="http://www.w3.org/1999/xlink">
<g id="graph0" class="graph" transform="scale(1 1) rotate(0) translate(4 100)">
<title>TestCore::testControllerAtualizarStatusSucesso</title>
<!-- Node1 -->
<g id="Node000001" class="node">
<title>Node1</title>
<g id="a_Node000001"><a xlink:title=" ">
<polygon fill="#999999" stroke="#666666" points="121,-64 0,-64 0,-32 121,-32 121,-64"/>
<text xml:space="preserve" text-anchor="start" x="8" y="-50.5" font-family="Helvetica,sans-Serif" font-size="10.00">TestCore::testController</text>
<text xml:space="preserve" text-anchor="middle" x="60.5" y="-38.5" font-family="Helvetica,sans-Serif" font-size="10.00">AtualizarStatusSucesso</text>
</a>
</g>
</g>
<!-- Node2 -->
<g id="Node000002" class="node">
<title>Node2</title>
<g id="a_Node000002"><a xlink:href="classOSController.html#a331fb5661fbccd504b6371caf1fc87e0" target="_top" xlink:title="Atualiza o status da OS e registra no histórico.">
<polygon fill="white" stroke="#666666" points="314.75,-96 157,-96 157,-76 314.75,-76 314.75,-96"/>
<text xml:space="preserve" text-anchor="middle" x="235.88" y="-82.5" font-family="Helvetica,sans-Serif" font-size="10.00">OSController::atualizarStatusOS</text>
</a>
</g>
</g>
<!-- Node1&#45;&gt;Node2 -->
<g id="edge1_Node000001_Node000002" class="edge">
<title>Node1&#45;&gt;Node2</title>
<g id="a_edge1_Node000001_Node000002"><a xlink:title=" ">
<path fill="none" stroke="#63b8ff" d="M121.17,-61.08C138.93,-64.97 158.37,-69.23 176.08,-73.11"/>
<polygon fill="#63b8ff" stroke="#63b8ff" points="175.14,-76.49 185.66,-75.21 176.64,-69.65 175.14,-76.49"/>
</a>
</g>
</g>
<!-- Node3 -->
<g id="Node000003" class="node">
<title>Node3</title>
<g id="a_Node000003"><a xlink:href="classOSController.html#a3361b93effeed435c51858d24117f7f0" target="_top" xlink:title="Cadastra uma nova OS aplicando as regras de negócio.">
<polygon fill="white" stroke="#666666" points="302.38,-58 169.38,-58 169.38,-38 302.38,-38 302.38,-58"/>
<text xml:space="preserve" text-anchor="middle" x="235.88" y="-44.5" font-family="Helvetica,sans-Serif" font-size="10.00">OSController::cadastrarOS</text>
</a>
</g>
</g>
<!-- Node1&#45;&gt;Node3 -->
<g id="edge2_Node000001_Node000003" class="edge">
<title>Node1&#45;&gt;Node3</title>
<g id="a_edge2_Node000001_Node000003"><a xlink:title=" ">
<path fill="none" stroke="#63b8ff" d="M121.17,-48C133.01,-48 145.61,-48 157.94,-48"/>
<polygon fill="#63b8ff" stroke="#63b8ff" points="157.65,-51.5 167.65,-48 157.65,-44.5 157.65,-51.5"/>
</a>
</g>
</g>
<!-- Node4 -->
<g id="Node000004" class="node">
<title>Node4</title>
<g id="a_Node000004"><a xlink:href="classOSController.html#a7a8750890ab20b20979b8a1c9e7208b0" target="_top" xlink:title="Recupera o histórico de uma OS específica.">
<polygon fill="white" stroke="#666666" points="305.38,-20 166.38,-20 166.38,0 305.38,0 305.38,-20"/>
<text xml:space="preserve" text-anchor="middle" x="235.88" y="-6.5" font-family="Helvetica,sans-Serif" font-size="10.00">OSController::obterHistorico</text>
</a>
</g>
</g>
<!-- Node1&#45;&gt;Node4 -->
<g id="edge3_Node000001_Node000004" class="edge">
<title>Node1&#45;&gt;Node4</title>
<g id="a_edge3_Node000001_Node000004"><a xlink:title=" ">
<path fill="none" stroke="#63b8ff" d="M121.17,-34.92C138.93,-31.03 158.37,-26.77 176.08,-22.89"/>
<polygon fill="#63b8ff" stroke="#63b8ff" points="176.64,-26.35 185.66,-20.79 175.14,-19.51 176.64,-26.35"/>
</a>
</g>
</g>
</g>
</svg>
