<?xml version="1.0" encoding="UTF-8" standalone="no"?>
<!DOCTYPE svg PUBLIC "-//W3C//DTD SVG 1.1//EN"
 "http://www.w3.org/Graphics/SVG/1.1/DTD/svg11.dtd">
<!-- Generated by graphviz version 14.1.4 (20260321.0153)
 -->
<!-- Title: MarmoManagerApp::salvarOS Pages: 1 -->
<svg width="605pt" height="28pt"
 viewBox="0.00 0.00 605.00 28.00" xmlns="http://www.w3.org/2000/svg" xmlns:xlink="http://www.w3.org/1999/xlink">
<g id="graph0" class="graph" transform="scale(1 1) rotate(0) translate(4 24)">
<title>MarmoManagerApp::salvarOS</title>
<!-- Node1 -->
<g id="Node000001" class="node">
<title>Node1</title>
<g id="a_Node000001"><a xlink:title=" ">
<polygon fill="#999999" stroke="#666666" points="597,-20 449.75,-20 449.75,0 597,0 597,-20"/>
<text xml:space="preserve" text-anchor="middle" x="523.38" y="-6.5" font-family="Helvetica,sans-Serif" font-size="10.00">MarmoManagerApp::salvarOS</text>
</a>
</g>
</g>
<!-- Node2 -->
<g id="Node000002" class="node">
<title>Node2</title>
<g id="a_Node000002"><a xlink:href="classMarmoManagerApp.html#aad97cb1b8b318c55b65b8e97fb2c926d" target="_top" xlink:title=" ">
<polygon fill="white" stroke="#666666" points="413.75,-20 227.5,-20 227.5,0 413.75,0 413.75,-20"/>
<text xml:space="preserve" text-anchor="middle" x="320.62" y="-6.5" font-family="Helvetica,sans-Serif" font-size="10.00">MarmoManagerApp::setupCadastroTab</text>
</a>
</g>
</g>
<!-- Node1&#45;&gt;Node2 -->
<g id="edge1_Node000001_Node000002" class="edge">
<title>Node1&#45;&gt;Node2</title>
<g id="a_edge1_Node000001_Node000002"><a xlink:title=" ">
<path fill="none" stroke="#63b8ff" d="M437.93,-10C430.07,-10 422.08,-10 414.15,-10"/>
<polygon fill="#63b8ff" stroke="#63b8ff" points="437.82,-13.5 447.82,-10 437.82,-6.5 437.82,-13.5"/>
</a>
</g>
</g>
<!-- Node3 -->
<g id="Node000003" class="node">
<title>Node3</title>
<g id="a_Node000003"><a xlink:href="classMarmoManagerApp.html#a43323a0e85c1887feb435874b2bcc055" target="_top" xlink:title=" ">
<polygon fill="white" stroke="#666666" points="191.5,-20 0,-20 0,0 191.5,0 191.5,-20"/>
<text xml:space="preserve" text-anchor="middle" x="95.75" y="-6.5" font-family="Helvetica,sans-Serif" font-size="10.00">MarmoManagerApp::MarmoManagerApp</text>
</a>
</g>
</g>
<!-- Node2&#45;&gt;Node3 -->
<g id="edge2_Node000002_Node000003" class="edge">
<title>Node2&#45;&gt;Node3</title>
<g id="a_edge2_Node000002_Node000003"><a xlink:title=" ">
<path fill="none" stroke="#63b8ff" d="M215.55,-10C207.67,-10 199.74,-10 191.92,-10"/>
<polygon fill="#63b8ff" stroke="#63b8ff" points="215.53,-13.5 225.53,-10 215.53,-6.5 215.53,-13.5"/>
</a>
</g>
</g>
</g>
</svg>
