<?xml version="1.0" encoding="UTF-8" standalone="no"?>
<!DOCTYPE svg PUBLIC "-//W3C//DTD SVG 1.1//EN"
 "http://www.w3.org/Graphics/SVG/1.1/DTD/svg11.dtd">
<!-- Generated by graphviz version 14.1.4 (20260321.0153)
 -->
<!-- Title: StatusHistoryDialog Pages: 1 -->
<svg width="120pt" height="196pt"
 viewBox="0.00 0.00 120.00 196.00" xmlns="http://www.w3.org/2000/svg" xmlns:xlink="http://www.w3.org/1999/xlink">
<g id="graph0" class="graph" transform="scale(1 1) rotate(0) translate(4 192)">
<title>StatusHistoryDialog</title>
<!-- Node1 -->
<g id="Node000001" class="node">
<title>Node1</title>
<g id="a_Node000001"><a xlink:title="Dialog (janela modal) para exibir o histórico da OS.">
<polygon fill="#999999" stroke="none" points="111.75,-100 0,-100 0,0 111.75,0 111.75,-100"/>
<text xml:space="preserve" text-anchor="start" x="12" y="-86.25" font-family="Helvetica,sans-Serif" font-size="10.00">StatusHistoryDialog</text>
<text xml:space="preserve" text-anchor="start" x="5.5" y="-70.25" font-family="Helvetica,sans-Serif" font-size="10.00">&#45;</text>
<text xml:space="preserve" text-anchor="start" x="14" y="-70.25" font-family="Helvetica,sans-Serif" font-size="10.00">m_osId</text>
<text xml:space="preserve" text-anchor="start" x="5.5" y="-54.25" font-family="Helvetica,sans-Serif" font-size="10.00">&#45;</text>
<text xml:space="preserve" text-anchor="start" x="14" y="-54.25" font-family="Helvetica,sans-Serif" font-size="10.00">m_controller</text>
<text xml:space="preserve" text-anchor="start" x="5.5" y="-38.25" font-family="Helvetica,sans-Serif" font-size="10.00">&#45;</text>
<text xml:space="preserve" text-anchor="start" x="14" y="-38.25" font-family="Helvetica,sans-Serif" font-size="10.00">m_table</text>
<text xml:space="preserve" text-anchor="start" x="4" y="-22.25" font-family="Helvetica,sans-Serif" font-size="10.00">+</text>
<text xml:space="preserve" text-anchor="start" x="14" y="-22.25" font-family="Helvetica,sans-Serif" font-size="10.00">StatusHistoryDialog()</text>
<text xml:space="preserve" text-anchor="start" x="5.5" y="-6.25" font-family="Helvetica,sans-Serif" font-size="10.00">&#45;</text>
<text xml:space="preserve" text-anchor="start" x="14" y="-6.25" font-family="Helvetica,sans-Serif" font-size="10.00">loadHistory()</text>
<polygon fill="#666666" stroke="#666666" points="0,-82 0,-82 111.75,-82 111.75,-82 0,-82"/>
<polygon fill="#666666" stroke="#666666" points="0,-34 0,-34 12,-34 12,-34 0,-34"/>
<polygon fill="#666666" stroke="#666666" points="12,-34 12,-34 111.75,-34 111.75,-34 12,-34"/>
<polygon fill="none" stroke="#666666" points="0,0 0,-100 111.75,-100 111.75,0 0,0"/>
</a>
</g>
</g>
<!-- Node2 -->
<g id="Node000002" class="node">
<title>Node2</title>
<g id="a_Node000002"><a xlink:title=" ">
<polygon fill="white" stroke="none" points="77.5,-188 34.25,-188 34.25,-136 77.5,-136 77.5,-188"/>
<text xml:space="preserve" text-anchor="start" x="38.25" y="-174.25" font-family="Helvetica,sans-Serif" font-size="10.00">QDialog</text>
<text xml:space="preserve" text-anchor="start" x="54.38" y="-158.25" font-family="Helvetica,sans-Serif" font-size="10.00"> </text>
<text xml:space="preserve" text-anchor="start" x="54.38" y="-142.25" font-family="Helvetica,sans-Serif" font-size="10.00"> </text>
<polygon fill="#666666" stroke="#666666" points="34.25,-170 34.25,-170 77.5,-170 77.5,-170 34.25,-170"/>
<polygon fill="#666666" stroke="#666666" points="34.25,-154 34.25,-154 77.5,-154 77.5,-154 34.25,-154"/>
<polygon fill="none" stroke="#666666" points="34.25,-136 34.25,-188 77.5,-188 77.5,-136 34.25,-136"/>
</a>
</g>
</g>
<!-- Node2&#45;&gt;Node1 -->
<g id="edge1_Node000001_Node000002" class="edge">
<title>Node2&#45;&gt;Node1</title>
<g id="a_edge1_Node000001_Node000002"><a xlink:title=" ">
<path fill="none" stroke="#63b8ff" d="M55.88,-124.53C55.88,-116.58 55.88,-108.05 55.88,-99.72"/>
<polygon fill="none" stroke="#63b8ff" points="52.38,-124.53 55.88,-134.53 59.38,-124.53 52.38,-124.53"/>
</a>
</g>
</g>
</g>
</svg>
