<?xml version="1.0" encoding="UTF-8" standalone="no"?>
<!DOCTYPE svg PUBLIC "-//W3C//DTD SVG 1.1//EN"
 "http://www.w3.org/Graphics/SVG/1.1/DTD/svg11.dtd">
<!-- Generated by graphviz version 14.1.4 (20260321.0153)
 -->
<!-- Title: Database::setDbName Pages: 1 -->
<svg width="277pt" height="66pt"
 viewBox="0.00 0.00 277.00 66.00" xmlns="http://www.w3.org/2000/svg" xmlns:xlink="http://www.w3.org/1999/xlink">
<g id="graph0" class="graph" transform="scale(1 1) rotate(0) translate(4 62)">
<title>Database::setDbName</title>
<!-- Node1 -->
<g id="Node000001" class="node">
<title>Node1</title>
<g id="a_Node000001"><a xlink:title="Define um nome customizado para o banco (útil para testes).">
<polygon fill="#999999" stroke="#666666" points="269,-39 152.5,-39 152.5,-19 269,-19 269,-39"/>
<text xml:space="preserve" text-anchor="middle" x="210.75" y="-25.5" font-family="Helvetica,sans-Serif" font-size="10.00">Database::setDbName</text>
</a>
</g>
</g>
<!-- Node2 -->
<g id="Node000002" class="node">
<title>Node2</title>
<g id="a_Node000002"><a xlink:href="classTestCore.html#aea614e8fdb8b52361fcd091fb9b4d4be" target="_top" xlink:title=" ">
<polygon fill="white" stroke="#666666" points="116.5,-58 0,-58 0,-38 116.5,-38 116.5,-58"/>
<text xml:space="preserve" text-anchor="middle" x="58.25" y="-44.5" font-family="Helvetica,sans-Serif" font-size="10.00">TestCore::initTestCase</text>
</a>
</g>
</g>
<!-- Node1&#45;&gt;Node2 -->
<g id="edge1_Node000001_Node000002" class="edge">
<title>Node1&#45;&gt;Node2</title>
<g id="a_edge1_Node000001_Node000002"><a xlink:title=" ">
<path fill="none" stroke="#63b8ff" d="M141.1,-37.67C133.02,-38.69 124.83,-39.72 116.92,-40.72"/>
<polygon fill="#63b8ff" stroke="#63b8ff" points="141.44,-41.15 150.92,-36.43 140.56,-34.21 141.44,-41.15"/>
</a>
</g>
</g>
<!-- Node3 -->
<g id="Node000003" class="node">
<title>Node3</title>
<g id="a_Node000003"><a xlink:href="classTestGUI.html#aaa61b840697cab3dfe8b63088bff135d" target="_top" xlink:title=" ">
<polygon fill="white" stroke="#666666" points="115,-20 1.5,-20 1.5,0 115,0 115,-20"/>
<text xml:space="preserve" text-anchor="middle" x="58.25" y="-6.5" font-family="Helvetica,sans-Serif" font-size="10.00">TestGUI::initTestCase</text>
</a>
</g>
</g>
<!-- Node1&#45;&gt;Node3 -->
<g id="edge2_Node000001_Node000003" class="edge">
<title>Node1&#45;&gt;Node3</title>
<g id="a_edge2_Node000001_Node000003"><a xlink:title=" ">
<path fill="none" stroke="#63b8ff" d="M141.19,-20.34C132.57,-19.26 123.83,-18.15 115.42,-17.09"/>
<polygon fill="#63b8ff" stroke="#63b8ff" points="140.56,-23.79 150.92,-21.57 141.44,-16.85 140.56,-23.79"/>
</a>
</g>
</g>
</g>
</svg>
