<?xml version="1.0" encoding="UTF-8" standalone="no"?>
<!DOCTYPE svg PUBLIC "-//W3C//DTD SVG 1.1//EN"
 "http://www.w3.org/Graphics/SVG/1.1/DTD/svg11.dtd">
<!-- Generated by graphviz version 14.1.4 (20260321.0153)
 -->
<!-- Title: Database::getConnection Pages: 1 -->
<svg width="469pt" height="280pt"
 viewBox="0.00 0.00 469.00 280.00" xmlns="http://www.w3.org/2000/svg" xmlns:xlink="http://www.w3.org/1999/xlink">
<g id="graph0" class="graph" transform="scale(1 1) rotate(0) translate(4 276)">
<title>Database::getConnection</title>
<!-- Node1 -->
<g id="Node000001" class="node">
<title>Node1</title>
<g id="a_Node000001"><a xlink:title="Recupera o objeto de conexão QSqlDatabase.">
<polygon fill="#999999" stroke="#666666" points="460.5,-153 333.5,-153 333.5,-133 460.5,-133 460.5,-153"/>
<text xml:space="preserve" text-anchor="middle" x="397" y="-139.5" font-family="Helvetica,sans-Serif" font-size="10.00">Database::getConnection</text>
</a>
</g>
</g>
<!-- Node2 -->
<g id="Node000002" class="node">
<title>Node2</title>
<g id="a_Node000002"><a xlink:href="classHistoricoRepository.html#adc29f7e094d6b1155ff82a08c77de8b9" target="_top" xlink:title="Cria um novo registro de histórico.">
<polygon fill="white" stroke="#666666" points="278,-272 175.75,-272 175.75,-240 278,-240 278,-272"/>
<text xml:space="preserve" text-anchor="start" x="183.75" y="-258.5" font-family="Helvetica,sans-Serif" font-size="10.00">HistoricoRepository</text>
<text xml:space="preserve" text-anchor="middle" x="226.88" y="-246.5" font-family="Helvetica,sans-Serif" font-size="10.00">::create</text>
</a>
</g>
</g>
<!-- Node1&#45;&gt;Node2 -->
<g id="edge1_Node000001_Node000002" class="edge">
<title>Node1&#45;&gt;Node2</title>
<g id="a_edge1_Node000001_Node000002"><a xlink:title=" ">
<path fill="none" stroke="#63b8ff" d="M379.22,-161.78C360.83,-181.37 329.65,-211.86 297.5,-231 291.54,-234.55 285,-237.71 278.38,-240.49"/>
<polygon fill="#63b8ff" stroke="#63b8ff" points="381.73,-164.22 385.92,-154.49 376.57,-159.48 381.73,-164.22"/>
</a>
</g>
</g>
<!-- Node4 -->
<g id="Node000004" class="node">
<title>Node4</title>
<g id="a_Node000004"><a xlink:href="classOSRepository.html#af6139a9045e4f6c8ab9b04d9d4e0ee06" target="_top" xlink:title="Cria uma nova Ordem de Serviço (OS).">
<polygon fill="white" stroke="#666666" points="282.12,-134 171.62,-134 171.62,-114 282.12,-114 282.12,-134"/>
<text xml:space="preserve" text-anchor="middle" x="226.88" y="-120.5" font-family="Helvetica,sans-Serif" font-size="10.00">OSRepository::create</text>
</a>
</g>
</g>
<!-- Node1&#45;&gt;Node4 -->
<g id="edge3_Node000001_Node000004" class="edge">
<title>Node1&#45;&gt;Node4</title>
<g id="a_edge3_Node000001_Node000004"><a xlink:title=" ">
<path fill="none" stroke="#63b8ff" d="M322.29,-134.67C308.92,-133.16 295.21,-131.61 282.51,-130.17"/>
<polygon fill="#63b8ff" stroke="#63b8ff" points="321.56,-138.11 331.89,-135.76 322.35,-131.15 321.56,-138.11"/>
</a>
</g>
</g>
<!-- Node6 -->
<g id="Node000006" class="node">
<title>Node6</title>
<g id="a_Node000006"><a xlink:href="classOSRepository.html#af02690680d93fe471b48a07ac58587a4" target="_top" xlink:title="Busca todas as OS que coincidem com os critérios.">
<polygon fill="white" stroke="#666666" points="285.12,-96 168.62,-96 168.62,-76 285.12,-76 285.12,-96"/>
<text xml:space="preserve" text-anchor="middle" x="226.88" y="-82.5" font-family="Helvetica,sans-Serif" font-size="10.00">OSRepository::fetchAll</text>
</a>
</g>
</g>
<!-- Node1&#45;&gt;Node6 -->
<g id="edge6_Node000001_Node000006" class="edge">
<title>Node1&#45;&gt;Node6</title>
<g id="a_edge6_Node000001_Node000006"><a xlink:title=" ">
<path fill="none" stroke="#63b8ff" d="M360.51,-128.3C341.91,-120.86 318.65,-111.95 297.5,-105 288.33,-101.99 278.38,-99.07 268.95,-96.46"/>
<polygon fill="#63b8ff" stroke="#63b8ff" points="359.17,-131.53 369.75,-132.04 361.79,-125.05 359.17,-131.53"/>
</a>
</g>
</g>
<!-- Node7 -->
<g id="Node000007" class="node">
<title>Node7</title>
<g id="a_Node000007"><a xlink:href="classHistoricoRepository.html#ae1c14be64e7574ab5b919e6ab5fe6e83" target="_top" xlink:title="Busca o histórico para uma dada OS.">
<polygon fill="white" stroke="#666666" points="278,-222 175.75,-222 175.75,-190 278,-190 278,-222"/>
<text xml:space="preserve" text-anchor="start" x="183.75" y="-208.5" font-family="Helvetica,sans-Serif" font-size="10.00">HistoricoRepository</text>
<text xml:space="preserve" text-anchor="middle" x="226.88" y="-196.5" font-family="Helvetica,sans-Serif" font-size="10.00">::getByOsId</text>
</a>
</g>
</g>
<!-- Node1&#45;&gt;Node7 -->
<g id="edge8_Node000001_Node000007" class="edge">
<title>Node1&#45;&gt;Node7</title>
<g id="a_edge8_Node000001_Node000007"><a xlink:title=" ">
<path fill="none" stroke="#63b8ff" d="M358.73,-157.62C340.34,-164.77 317.79,-173.44 297.5,-181 289.92,-183.82 281.85,-186.77 274,-189.61"/>
<polygon fill="#63b8ff" stroke="#63b8ff" points="359.85,-160.93 367.9,-154.04 357.31,-154.41 359.85,-160.93"/>
</a>
</g>
</g>
<!-- Node8 -->
<g id="Node000008" class="node">
<title>Node8</title>
<g id="a_Node000008"><a xlink:href="classDatabase.html#a6747ce1b1f980cd917c9c006545e2b2a" target="_top" xlink:title="Inicializa o banco de dados criando as tabelas necessárias.">
<polygon fill="white" stroke="#666666" points="271.62,-58 182.12,-58 182.12,-38 271.62,-38 271.62,-58"/>
<text xml:space="preserve" text-anchor="middle" x="226.88" y="-44.5" font-family="Helvetica,sans-Serif" font-size="10.00">Database::initDb</text>
</a>
</g>
</g>
<!-- Node1&#45;&gt;Node8 -->
<g id="edge10_Node000001_Node000008" class="edge">
<title>Node1&#45;&gt;Node8</title>
<g id="a_edge10_Node000001_Node000008"><a xlink:title=" ">
<path fill="none" stroke="#63b8ff" d="M377.22,-124.84C358.46,-107.63 328.08,-82.22 297.5,-67 289.54,-63.04 280.63,-59.81 271.93,-57.22"/>
<polygon fill="#63b8ff" stroke="#63b8ff" points="374.66,-127.23 384.35,-131.51 379.44,-122.12 374.66,-127.23"/>
</a>
</g>
</g>
<!-- Node12 -->
<g id="Node000012" class="node">
<title>Node12</title>
<g id="a_Node000012"><a xlink:href="classOSRepository.html#a216ac5a1b6bd12065a6d6f7edaddbcd2" target="_top" xlink:title="Atualiza o status de uma OS existente.">
<polygon fill="white" stroke="#666666" points="297.5,-172 156.25,-172 156.25,-152 297.5,-152 297.5,-172"/>
<text xml:space="preserve" text-anchor="middle" x="226.88" y="-158.5" font-family="Helvetica,sans-Serif" font-size="10.00">OSRepository::updateStatus</text>
</a>
</g>
</g>
<!-- Node1&#45;&gt;Node12 -->
<g id="edge14_Node000001_Node000012" class="edge">
<title>Node1&#45;&gt;Node12</title>
<g id="a_edge14_Node000001_Node000012"><a xlink:title=" ">
<path fill="none" stroke="#63b8ff" d="M322.12,-151.35C314.07,-152.26 305.89,-153.18 297.88,-154.09"/>
<polygon fill="#63b8ff" stroke="#63b8ff" points="322.35,-154.85 331.89,-150.24 321.56,-147.89 322.35,-154.85"/>
</a>
</g>
</g>
<!-- Node3 -->
<g id="Node000003" class="node">
<title>Node3</title>
<g id="a_Node000003"><a xlink:href="classTestCore.html#ad8f858a033c4cc62db06412cfb93748c" target="_top" xlink:title=" ">
<polygon fill="white" stroke="#666666" points="118.75,-194 1.5,-194 1.5,-174 118.75,-174 118.75,-194"/>
<text xml:space="preserve" text-anchor="middle" x="60.12" y="-180.5" font-family="Helvetica,sans-Serif" font-size="10.00">TestCore::testHistorico</text>
</a>
</g>
</g>
<!-- Node2&#45;&gt;Node3 -->
<g id="edge2_Node000002_Node000003" class="edge">
<title>Node2&#45;&gt;Node3</title>
<g id="a_edge2_Node000002_Node000003"><a xlink:title=" ">
<path fill="none" stroke="#63b8ff" d="M167.34,-235.53C163.57,-234.05 159.85,-232.53 156.25,-231 129.46,-219.62 99.51,-204.38 80.5,-194.39"/>
<polygon fill="#63b8ff" stroke="#63b8ff" points="166.03,-238.78 176.62,-239.09 168.53,-232.24 166.03,-238.78"/>
</a>
</g>
</g>
<!-- Node4&#45;&gt;Node3 -->
<g id="edge5_Node000004_Node000003" class="edge">
<title>Node4&#45;&gt;Node3</title>
<g id="a_edge5_Node000004_Node000003"><a xlink:title=" ">
<path fill="none" stroke="#63b8ff" d="M173.06,-137.57C167.35,-139.29 161.65,-141.11 156.25,-143 130.45,-152.03 101.75,-164.79 82.69,-173.67"/>
<polygon fill="#63b8ff" stroke="#63b8ff" points="173.89,-140.97 182.52,-134.83 171.95,-134.25 173.89,-140.97"/>
</a>
</g>
</g>
<!-- Node5 -->
<g id="Node000005" class="node">
<title>Node5</title>
<g id="a_Node000005"><a xlink:href="classTestCore.html#afe230280f7222da40f40f509be5874e9" target="_top" xlink:title=" ">
<polygon fill="white" stroke="#666666" points="120.25,-134 0,-134 0,-114 120.25,-114 120.25,-134"/>
<text xml:space="preserve" text-anchor="middle" x="60.12" y="-120.5" font-family="Helvetica,sans-Serif" font-size="10.00">TestCore::testCreateOs</text>
</a>
</g>
</g>
<!-- Node4&#45;&gt;Node5 -->
<g id="edge4_Node000004_Node000005" class="edge">
<title>Node4&#45;&gt;Node5</title>
<g id="a_edge4_Node000004_Node000005"><a xlink:title=" ">
<path fill="none" stroke="#63b8ff" d="M160.17,-124C147.09,-124 133.43,-124 120.58,-124"/>
<polygon fill="#63b8ff" stroke="#63b8ff" points="159.96,-127.5 169.96,-124 159.96,-120.5 159.96,-127.5"/>
</a>
</g>
</g>
<!-- Node6&#45;&gt;Node5 -->
<g id="edge7_Node000006_Node000005" class="edge">
<title>Node6&#45;&gt;Node5</title>
<g id="a_edge7_Node000006_Node000005"><a xlink:title=" ">
<path fill="none" stroke="#63b8ff" d="M169.3,-99.05C148.77,-103.78 125.86,-109.07 106.43,-113.55"/>
<polygon fill="#63b8ff" stroke="#63b8ff" points="169.99,-102.48 178.95,-96.82 168.41,-95.66 169.99,-102.48"/>
</a>
</g>
</g>
<!-- Node7&#45;&gt;Node3 -->
<g id="edge9_Node000007_Node000003" class="edge">
<title>Node7&#45;&gt;Node3</title>
<g id="a_edge9_Node000007_Node000003"><a xlink:title=" ">
<path fill="none" stroke="#63b8ff" d="M164.45,-197.8C149.65,-195.82 133.87,-193.71 119.22,-191.76"/>
<polygon fill="#63b8ff" stroke="#63b8ff" points="163.67,-201.22 174.05,-199.08 164.6,-194.29 163.67,-201.22"/>
</a>
</g>
</g>
<!-- Node9 -->
<g id="Node000009" class="node">
<title>Node9</title>
<g id="a_Node000009"><a xlink:href="classTestCore.html#aea614e8fdb8b52361fcd091fb9b4d4be" target="_top" xlink:title=" ">
<polygon fill="white" stroke="#666666" points="118.38,-96 1.88,-96 1.88,-76 118.38,-76 118.38,-96"/>
<text xml:space="preserve" text-anchor="middle" x="60.12" y="-82.5" font-family="Helvetica,sans-Serif" font-size="10.00">TestCore::initTestCase</text>
</a>
</g>
</g>
<!-- Node8&#45;&gt;Node9 -->
<g id="edge11_Node000008_Node000009" class="edge">
<title>Node8&#45;&gt;Node9</title>
<g id="a_edge11_Node000008_Node000009"><a xlink:title=" ">
<path fill="none" stroke="#63b8ff" d="M170.77,-60.71C149.91,-65.52 126.42,-70.94 106.55,-75.52"/>
<polygon fill="#63b8ff" stroke="#63b8ff" points="171.29,-64.18 180.25,-58.52 169.72,-57.36 171.29,-64.18"/>
</a>
</g>
</g>
<!-- Node10 -->
<g id="Node000010" class="node">
<title>Node10</title>
<g id="a_Node000010"><a xlink:href="classTestGUI.html#aaa61b840697cab3dfe8b63088bff135d" target="_top" xlink:title=" ">
<polygon fill="white" stroke="#666666" points="116.88,-58 3.38,-58 3.38,-38 116.88,-38 116.88,-58"/>
<text xml:space="preserve" text-anchor="middle" x="60.12" y="-44.5" font-family="Helvetica,sans-Serif" font-size="10.00">TestGUI::initTestCase</text>
</a>
</g>
</g>
<!-- Node8&#45;&gt;Node10 -->
<g id="edge12_Node000008_Node000010" class="edge">
<title>Node8&#45;&gt;Node10</title>
<g id="a_edge12_Node000008_Node000010"><a xlink:title=" ">
<path fill="none" stroke="#63b8ff" d="M170.21,-48C153.13,-48 134.33,-48 117.22,-48"/>
<polygon fill="#63b8ff" stroke="#63b8ff" points="170.21,-51.5 180.21,-48 170.21,-44.5 170.21,-51.5"/>
</a>
</g>
</g>
<!-- Node11 -->
<g id="Node000011" class="node">
<title>Node11</title>
<g id="a_Node000011"><a xlink:href="main_8cpp.html#a0ddf1224851353fc92bfbff6f499fa97" target="_top" xlink:title=" ">
<polygon fill="white" stroke="#666666" points="78.62,-20 41.62,-20 41.62,0 78.62,0 78.62,-20"/>
<text xml:space="preserve" text-anchor="middle" x="60.12" y="-6.5" font-family="Helvetica,sans-Serif" font-size="10.00">main</text>
</a>
</g>
</g>
<!-- Node8&#45;&gt;Node11 -->
<g id="edge13_Node000008_Node000011" class="edge">
<title>Node8&#45;&gt;Node11</title>
<g id="a_edge13_Node000008_Node000011"><a xlink:title=" ">
<path fill="none" stroke="#63b8ff" d="M170.72,-35.28C138.77,-27.91 100.68,-19.12 78.85,-14.09"/>
<polygon fill="#63b8ff" stroke="#63b8ff" points="169.72,-38.64 180.25,-37.48 171.29,-31.82 169.72,-38.64"/>
</a>
</g>
</g>
<!-- Node12&#45;&gt;Node3 -->
<g id="edge15_Node000012_Node000003" class="edge">
<title>Node12&#45;&gt;Node3</title>
<g id="a_edge15_Node000012_Node000003"><a xlink:title=" ">
<path fill="none" stroke="#63b8ff" d="M144.71,-172.84C136.08,-173.99 127.44,-175.14 119.16,-176.25"/>
<polygon fill="#63b8ff" stroke="#63b8ff" points="145.06,-176.32 154.51,-171.53 144.13,-169.38 145.06,-176.32"/>
</a>
</g>
</g>
</g>
</svg>
