<?xml version="1.0" encoding="UTF-8" standalone="no"?>
<!DOCTYPE svg PUBLIC "-//W3C//DTD SVG 1.1//EN"
 "http://www.w3.org/Graphics/SVG/1.1/DTD/svg11.dtd">
<!-- Generated by graphviz version 14.1.4 (20260321.0153)
 -->
<!-- Title: MarmoManagerApp::loadOSData Pages: 1 -->
<svg width="797pt" height="116pt"
 viewBox="0.00 0.00 797.00 116.00" xmlns="http://www.w3.org/2000/svg" xmlns:xlink="http://www.w3.org/1999/xlink">
<g id="graph0" class="graph" transform="scale(1 1) rotate(0) translate(4 112)">
<title>MarmoManagerApp::loadOSData</title>
<!-- Node1 -->
<g id="Node000001" class="node">
<title>Node1</title>
<g id="a_Node000001"><a xlink:title=" ">
<polygon fill="#999999" stroke="#666666" points="788.5,-58 628.5,-58 628.5,-38 788.5,-38 788.5,-58"/>
<text xml:space="preserve" text-anchor="middle" x="708.5" y="-44.5" font-family="Helvetica,sans-Serif" font-size="10.00">MarmoManagerApp::loadOSData</text>
</a>
</g>
</g>
<!-- Node2 -->
<g id="Node000002" class="node">
<title>Node2</title>
<g id="a_Node000002"><a xlink:href="classMarmoManagerApp.html#ae9274b8e82144862ae92889e0546eaa2" target="_top" xlink:title=" ">
<polygon fill="white" stroke="#666666" points="592.5,-108 449,-108 449,-76 592.5,-76 592.5,-108"/>
<text xml:space="preserve" text-anchor="start" x="457" y="-94.5" font-family="Helvetica,sans-Serif" font-size="10.00">MarmoManagerApp::atualizar</text>
<text xml:space="preserve" text-anchor="middle" x="520.75" y="-82.5" font-family="Helvetica,sans-Serif" font-size="10.00">Status</text>
</a>
</g>
</g>
<!-- Node1&#45;&gt;Node2 -->
<g id="edge1_Node000001_Node000002" class="edge">
<title>Node1&#45;&gt;Node2</title>
<g id="a_edge1_Node000001_Node000002"><a xlink:title=" ">
<path fill="none" stroke="#63b8ff" d="M652.5,-61.03C633.29,-65.58 611.47,-70.75 591.23,-75.54"/>
<polygon fill="#63b8ff" stroke="#63b8ff" points="653.08,-64.49 662.01,-58.78 651.47,-57.68 653.08,-64.49"/>
</a>
</g>
</g>
<!-- Node3 -->
<g id="Node000003" class="node">
<title>Node3</title>
<g id="a_Node000003"><a xlink:href="classMarmoManagerApp.html#aaa4093f9a540417273a7a5849da18c27" target="_top" xlink:title=" ">
<polygon fill="white" stroke="#666666" points="413,-58 227.5,-58 227.5,-38 413,-38 413,-58"/>
<text xml:space="preserve" text-anchor="middle" x="320.25" y="-44.5" font-family="Helvetica,sans-Serif" font-size="10.00">MarmoManagerApp::setupConsultaTab</text>
</a>
</g>
</g>
<!-- Node1&#45;&gt;Node3 -->
<g id="edge6_Node000001_Node000003" class="edge">
<title>Node1&#45;&gt;Node3</title>
<g id="a_edge6_Node000001_Node000003"><a xlink:title=" ">
<path fill="none" stroke="#63b8ff" d="M617.2,-48C555.93,-48 475.16,-48 413.48,-48"/>
<polygon fill="#63b8ff" stroke="#63b8ff" points="616.89,-51.5 626.89,-48 616.89,-44.5 616.89,-51.5"/>
</a>
</g>
</g>
<!-- Node5 -->
<g id="Node000005" class="node">
<title>Node5</title>
<g id="a_Node000005"><a xlink:href="classMarmoManagerApp.html#a10a26a55d69244fde9fb76f14184fdb8" target="_top" xlink:title=" ">
<polygon fill="white" stroke="#666666" points="406.25,-20 234.25,-20 234.25,0 406.25,0 406.25,-20"/>
<text xml:space="preserve" text-anchor="middle" x="320.25" y="-6.5" font-family="Helvetica,sans-Serif" font-size="10.00">MarmoManagerApp::onTabChanged</text>
</a>
</g>
</g>
<!-- Node1&#45;&gt;Node5 -->
<g id="edge4_Node000001_Node000005" class="edge">
<title>Node1&#45;&gt;Node5</title>
<g id="a_edge4_Node000001_Node000005"><a xlink:title=" ">
<path fill="none" stroke="#63b8ff" d="M617.19,-39.12C553.61,-32.86 469.06,-24.54 406.61,-18.4"/>
<polygon fill="#63b8ff" stroke="#63b8ff" points="616.6,-42.57 626.9,-40.07 617.29,-35.61 616.6,-42.57"/>
</a>
</g>
</g>
<!-- Node2&#45;&gt;Node3 -->
<g id="edge2_Node000002_Node000003" class="edge">
<title>Node2&#45;&gt;Node3</title>
<g id="a_edge2_Node000002_Node000003"><a xlink:title=" ">
<path fill="none" stroke="#63b8ff" d="M437.6,-73.79C414.09,-68.58 389.26,-63.08 368.61,-58.5"/>
<polygon fill="#63b8ff" stroke="#63b8ff" points="436.65,-77.16 447.17,-75.91 438.16,-70.33 436.65,-77.16"/>
</a>
</g>
</g>
<!-- Node4 -->
<g id="Node000004" class="node">
<title>Node4</title>
<g id="a_Node000004"><a xlink:href="classMarmoManagerApp.html#a43323a0e85c1887feb435874b2bcc055" target="_top" xlink:title=" ">
<polygon fill="white" stroke="#666666" points="191.5,-39 0,-39 0,-19 191.5,-19 191.5,-39"/>
<text xml:space="preserve" text-anchor="middle" x="95.75" y="-25.5" font-family="Helvetica,sans-Serif" font-size="10.00">MarmoManagerApp::MarmoManagerApp</text>
</a>
</g>
</g>
<!-- Node3&#45;&gt;Node4 -->
<g id="edge3_Node000003_Node000004" class="edge">
<title>Node3&#45;&gt;Node4</title>
<g id="a_edge3_Node000003_Node000004"><a xlink:title=" ">
<path fill="none" stroke="#63b8ff" d="M215.81,-39.17C207.76,-38.48 199.65,-37.79 191.66,-37.1"/>
<polygon fill="#63b8ff" stroke="#63b8ff" points="215.38,-42.64 225.64,-40.01 215.97,-35.67 215.38,-42.64"/>
</a>
</g>
</g>
<!-- Node5&#45;&gt;Node4 -->
<g id="edge5_Node000005_Node000004" class="edge">
<title>Node5&#45;&gt;Node4</title>
<g id="a_edge5_Node000005_Node000004"><a xlink:title=" ">
<path fill="none" stroke="#63b8ff" d="M222.5,-18.26C212.35,-19.13 202.04,-20.01 191.92,-20.87"/>
<polygon fill="#63b8ff" stroke="#63b8ff" points="222.69,-21.76 232.35,-17.42 222.09,-14.78 222.69,-21.76"/>
</a>
</g>
</g>
</g>
</svg>
