<?xml version="1.0" encoding="UTF-8" standalone="no"?>
<!DOCTYPE svg PUBLIC "-//W3C//DTD SVG 1.1//EN"
 "http://www.w3.org/Graphics/SVG/1.1/DTD/svg11.dtd">
<!-- Generated by graphviz version 14.1.4 (20260321.0153)
 -->
<!-- Title: MarmoManagerApp Pages: 1 -->
<!--zoomable 944 -->

<svg id="main" version="1.1" xmlns="http://www.w3.org/2000/svg" xmlns:xlink="http://www.w3.org/1999/xlink" xml:space="preserve" onload="init(evt)">

<style type="text/css"><![CDATA[
.node, .edge {opacity: 0.7;}
.node.selected, .edge.selected {opacity: 1;}
.edge:hover path { stroke: red; }
.edge:hover polygon { stroke: red; fill: red; }
]]></style>

<defs>
  <circle id="rim" cx="0" cy="0" r="7"/>
  <circle id="rim2" cx="0" cy="0" r="3.5"/>
  <g id="zoomPlus">
    <use xlink:href="#rim" fill="#404040"><set attributeName="fill" to="#808080" begin="zoomplus.mouseover" end="zoomplus.mouseout"/></use>
    <path d="M-4,0h8M0,-4v8" fill="none" stroke="white" stroke-width="1.5" pointer-events="none"/>
  </g>
  <g id="zoomMin">
    <use xlink:href="#rim" fill="#404040"><set attributeName="fill" to="#808080" begin="zoomminus.mouseover" end="zoomminus.mouseout"/></use>
    <path d="M-4,0h8" fill="none" stroke="white" stroke-width="1.5" pointer-events="none"/>
  </g>
  <g id="arrowUp" transform="translate(30 24)">
    <use xlink:href="#rim"/>
    <path pointer-events="none" fill="none" stroke="white" stroke-width="1.5" d="M0,-3.0v7 M-2.5,-0.5L0,-3.0L2.5,-0.5"/>
  </g>
  <g id="arrowRight" transform="rotate(90) translate(36 -43)">
    <use xlink:href="#rim"/>
    <path pointer-events="none" fill="none" stroke="white" stroke-width="1.5" d="M0,-3.0v7 M-2.5,-0.5L0,-3.0L2.5,-0.5"/>
  </g>
  <g id="arrowDown" transform="rotate(180) translate(-30 -48)">
    <use xlink:href="#rim"/>
    <path pointer-events="none" fill="none" stroke="white" stroke-width="1.5" d="M0,-3.0v7 M-2.5,-0.5L0,-3.0L2.5,-0.5"/>
  </g>
  <g id="arrowLeft" transform="rotate(270) translate(-36 17)">
    <use xlink:href="#rim"/>
    <path pointer-events="none" fill="none" stroke="white" stroke-width="1.5" d="M0,-3.0v7 M-2.5,-0.5L0,-3.0L2.5,-0.5"/>
  </g>
  <g id="resetDef">
    <use xlink:href="#rim2" fill="#404040"><set attributeName="fill" to="#808080" begin="reset.mouseover" end="reset.mouseout"/></use>
  </g>
</defs>
<script type="application/ecmascript">
var viewWidth = 272;
var viewHeight = 944;
var sectionId = 'dynsection-1';
</script>
<script type="application/ecmascript" xlink:href="svg.min.js"/>
<svg id="graph" class="graph">
<g id="viewport">
<title>MarmoManagerApp</title>
<!-- Node1 -->
<g id="Node000001" class="node">
<title>Node1</title>
<g id="a_Node000001"><a xlink:title="Classe principal de Interface Gráfica (View) para a aplicação.">
<polygon fill="#999999" stroke="none" points="120.75,-612 0,-612 0,0 120.75,0 120.75,-612"/>
<text xml:space="preserve" text-anchor="start" x="18" y="-598.25" font-family="Helvetica,sans-Serif" font-size="10.00">MarmoManagerApp</text>
<text xml:space="preserve" text-anchor="start" x="5.5" y="-582.25" font-family="Helvetica,sans-Serif" font-size="10.00">&#45;</text>
<text xml:space="preserve" text-anchor="start" x="14" y="-582.25" font-family="Helvetica,sans-Serif" font-size="10.00">m_tabs</text>
<text xml:space="preserve" text-anchor="start" x="5.5" y="-566.25" font-family="Helvetica,sans-Serif" font-size="10.00">&#45;</text>
<text xml:space="preserve" text-anchor="start" x="14" y="-566.25" font-family="Helvetica,sans-Serif" font-size="10.00">m_tabCadastro</text>
<text xml:space="preserve" text-anchor="start" x="5.5" y="-550.25" font-family="Helvetica,sans-Serif" font-size="10.00">&#45;</text>
<text xml:space="preserve" text-anchor="start" x="14" y="-550.25" font-family="Helvetica,sans-Serif" font-size="10.00">m_tabConsulta</text>
<text xml:space="preserve" text-anchor="start" x="5.5" y="-534.25" font-family="Helvetica,sans-Serif" font-size="10.00">&#45;</text>
<text xml:space="preserve" text-anchor="start" x="14" y="-534.25" font-family="Helvetica,sans-Serif" font-size="10.00">m_cadCliente</text>
<text xml:space="preserve" text-anchor="start" x="5.5" y="-518.25" font-family="Helvetica,sans-Serif" font-size="10.00">&#45;</text>
<text xml:space="preserve" text-anchor="start" x="14" y="-518.25" font-family="Helvetica,sans-Serif" font-size="10.00">m_cadContato</text>
<text xml:space="preserve" text-anchor="start" x="5.5" y="-502.25" font-family="Helvetica,sans-Serif" font-size="10.00">&#45;</text>
<text xml:space="preserve" text-anchor="start" x="14" y="-502.25" font-family="Helvetica,sans-Serif" font-size="10.00">m_cadDescricao</text>
<text xml:space="preserve" text-anchor="start" x="5.5" y="-486.25" font-family="Helvetica,sans-Serif" font-size="10.00">&#45;</text>
<text xml:space="preserve" text-anchor="start" x="14" y="-486.25" font-family="Helvetica,sans-Serif" font-size="10.00">m_cadMedidas</text>
<text xml:space="preserve" text-anchor="start" x="5.5" y="-470.25" font-family="Helvetica,sans-Serif" font-size="10.00">&#45;</text>
<text xml:space="preserve" text-anchor="start" x="14" y="-470.25" font-family="Helvetica,sans-Serif" font-size="10.00">m_cadMaterial</text>
<text xml:space="preserve" text-anchor="start" x="5.5" y="-454.25" font-family="Helvetica,sans-Serif" font-size="10.00">&#45;</text>
<text xml:space="preserve" text-anchor="start" x="14" y="-454.25" font-family="Helvetica,sans-Serif" font-size="10.00">m_cadPrazo</text>
<text xml:space="preserve" text-anchor="start" x="5.5" y="-438.25" font-family="Helvetica,sans-Serif" font-size="10.00">&#45;</text>
<text xml:space="preserve" text-anchor="start" x="14" y="-438.25" font-family="Helvetica,sans-Serif" font-size="10.00">m_cadStatus</text>
<text xml:space="preserve" text-anchor="start" x="5.5" y="-422.25" font-family="Helvetica,sans-Serif" font-size="10.00">&#45;</text>
<text xml:space="preserve" text-anchor="start" x="14" y="-422.25" font-family="Helvetica,sans-Serif" font-size="10.00">m_grupoPrioridade</text>
<text xml:space="preserve" text-anchor="start" x="5.5" y="-406.25" font-family="Helvetica,sans-Serif" font-size="10.00">&#45;</text>
<text xml:space="preserve" text-anchor="start" x="14" y="-406.25" font-family="Helvetica,sans-Serif" font-size="10.00">m_prioAlta</text>
<text xml:space="preserve" text-anchor="start" x="5.5" y="-390.25" font-family="Helvetica,sans-Serif" font-size="10.00">&#45;</text>
<text xml:space="preserve" text-anchor="start" x="14" y="-390.25" font-family="Helvetica,sans-Serif" font-size="10.00">m_prioMedia</text>
<text xml:space="preserve" text-anchor="start" x="5.5" y="-374.25" font-family="Helvetica,sans-Serif" font-size="10.00">&#45;</text>
<text xml:space="preserve" text-anchor="start" x="14" y="-374.25" font-family="Helvetica,sans-Serif" font-size="10.00">m_prioBaixa</text>
<text xml:space="preserve" text-anchor="start" x="5.5" y="-358.25" font-family="Helvetica,sans-Serif" font-size="10.00">&#45;</text>
<text xml:space="preserve" text-anchor="start" x="14" y="-358.25" font-family="Helvetica,sans-Serif" font-size="10.00">m_grupoDificuldade</text>
<text xml:space="preserve" text-anchor="start" x="5.5" y="-342.25" font-family="Helvetica,sans-Serif" font-size="10.00">&#45;</text>
<text xml:space="preserve" text-anchor="start" x="14" y="-342.25" font-family="Helvetica,sans-Serif" font-size="10.00">m_difAlta</text>
<text xml:space="preserve" text-anchor="start" x="5.5" y="-326.25" font-family="Helvetica,sans-Serif" font-size="10.00">&#45;</text>
<text xml:space="preserve" text-anchor="start" x="14" y="-326.25" font-family="Helvetica,sans-Serif" font-size="10.00">m_difMedia</text>
<text xml:space="preserve" text-anchor="start" x="5.5" y="-310.25" font-family="Helvetica,sans-Serif" font-size="10.00">&#45;</text>
<text xml:space="preserve" text-anchor="start" x="14" y="-310.25" font-family="Helvetica,sans-Serif" font-size="10.00">m_difBaixa</text>
<text xml:space="preserve" text-anchor="start" x="5.5" y="-294.25" font-family="Helvetica,sans-Serif" font-size="10.00">&#45;</text>
<text xml:space="preserve" text-anchor="start" x="14" y="-294.25" font-family="Helvetica,sans-Serif" font-size="10.00">m_searchInput</text>
<text xml:space="preserve" text-anchor="start" x="5.5" y="-278.25" font-family="Helvetica,sans-Serif" font-size="10.00">&#45;</text>
<text xml:space="preserve" text-anchor="start" x="14" y="-278.25" font-family="Helvetica,sans-Serif" font-size="10.00">m_searchStatus</text>
<text xml:space="preserve" text-anchor="start" x="5.5" y="-262.25" font-family="Helvetica,sans-Serif" font-size="10.00">&#45;</text>
<text xml:space="preserve" text-anchor="start" x="14" y="-262.25" font-family="Helvetica,sans-Serif" font-size="10.00">m_searchUseDate</text>
<text xml:space="preserve" text-anchor="start" x="5.5" y="-246.25" font-family="Helvetica,sans-Serif" font-size="10.00">&#45;</text>
<text xml:space="preserve" text-anchor="start" x="14" y="-246.25" font-family="Helvetica,sans-Serif" font-size="10.00">m_searchDataInicio</text>
<text xml:space="preserve" text-anchor="start" x="5.5" y="-230.25" font-family="Helvetica,sans-Serif" font-size="10.00">&#45;</text>
<text xml:space="preserve" text-anchor="start" x="14" y="-230.25" font-family="Helvetica,sans-Serif" font-size="10.00">m_searchDataFim</text>
<text xml:space="preserve" text-anchor="start" x="5.5" y="-214.25" font-family="Helvetica,sans-Serif" font-size="10.00">&#45;</text>
<text xml:space="preserve" text-anchor="start" x="14" y="-214.25" font-family="Helvetica,sans-Serif" font-size="10.00">m_osTable</text>
<text xml:space="preserve" text-anchor="start" x="5.5" y="-198.25" font-family="Helvetica,sans-Serif" font-size="10.00">&#45;</text>
<text xml:space="preserve" text-anchor="start" x="14" y="-198.25" font-family="Helvetica,sans-Serif" font-size="10.00">m_updateStatusCombo</text>
<text xml:space="preserve" text-anchor="start" x="5.5" y="-182.25" font-family="Helvetica,sans-Serif" font-size="10.00">&#45;</text>
<text xml:space="preserve" text-anchor="start" x="14" y="-182.25" font-family="Helvetica,sans-Serif" font-size="10.00">m_updateResponsavel</text>
<text xml:space="preserve" text-anchor="start" x="4" y="-166.25" font-family="Helvetica,sans-Serif" font-size="10.00">+</text>
<text xml:space="preserve" text-anchor="start" x="14" y="-166.25" font-family="Helvetica,sans-Serif" font-size="10.00">MarmoManagerApp()</text>
<text xml:space="preserve" text-anchor="start" x="5.5" y="-150.25" font-family="Helvetica,sans-Serif" font-size="10.00">&#45;</text>
<text xml:space="preserve" text-anchor="start" x="14" y="-150.25" font-family="Helvetica,sans-Serif" font-size="10.00">setupCadastroTab()</text>
<text xml:space="preserve" text-anchor="start" x="5.5" y="-134.25" font-family="Helvetica,sans-Serif" font-size="10.00">&#45;</text>
<text xml:space="preserve" text-anchor="start" x="14" y="-134.25" font-family="Helvetica,sans-Serif" font-size="10.00">setupConsultaTab()</text>
<text xml:space="preserve" text-anchor="start" x="5.5" y="-118.25" font-family="Helvetica,sans-Serif" font-size="10.00">&#45;</text>
<text xml:space="preserve" text-anchor="start" x="14" y="-118.25" font-family="Helvetica,sans-Serif" font-size="10.00">clearCadastroForm()</text>
<text xml:space="preserve" text-anchor="start" x="5.5" y="-102.25" font-family="Helvetica,sans-Serif" font-size="10.00">&#45;</text>
<text xml:space="preserve" text-anchor="start" x="14" y="-102.25" font-family="Helvetica,sans-Serif" font-size="10.00">getSelectedOsId()</text>
<text xml:space="preserve" text-anchor="start" x="5.5" y="-86.25" font-family="Helvetica,sans-Serif" font-size="10.00">&#45;</text>
<text xml:space="preserve" text-anchor="start" x="14" y="-86.25" font-family="Helvetica,sans-Serif" font-size="10.00">getSelectedOsStatus()</text>
<text xml:space="preserve" text-anchor="start" x="5.5" y="-70.25" font-family="Helvetica,sans-Serif" font-size="10.00">&#45;</text>
<text xml:space="preserve" text-anchor="start" x="14" y="-70.25" font-family="Helvetica,sans-Serif" font-size="10.00">salvarOS()</text>
<text xml:space="preserve" text-anchor="start" x="5.5" y="-54.25" font-family="Helvetica,sans-Serif" font-size="10.00">&#45;</text>
<text xml:space="preserve" text-anchor="start" x="14" y="-54.25" font-family="Helvetica,sans-Serif" font-size="10.00">loadOSData()</text>
<text xml:space="preserve" text-anchor="start" x="5.5" y="-38.25" font-family="Helvetica,sans-Serif" font-size="10.00">&#45;</text>
<text xml:space="preserve" text-anchor="start" x="14" y="-38.25" font-family="Helvetica,sans-Serif" font-size="10.00">atualizarStatus()</text>
<text xml:space="preserve" text-anchor="start" x="5.5" y="-22.25" font-family="Helvetica,sans-Serif" font-size="10.00">&#45;</text>
<text xml:space="preserve" text-anchor="start" x="14" y="-22.25" font-family="Helvetica,sans-Serif" font-size="10.00">verHistorico()</text>
<text xml:space="preserve" text-anchor="start" x="5.5" y="-6.25" font-family="Helvetica,sans-Serif" font-size="10.00">&#45;</text>
<text xml:space="preserve" text-anchor="start" x="14" y="-6.25" font-family="Helvetica,sans-Serif" font-size="10.00">onTabChanged()</text>
<polygon fill="#666666" stroke="#666666" points="0,-594 0,-594 120.75,-594 120.75,-594 0,-594"/>
<polygon fill="#666666" stroke="#666666" points="0,-178 0,-178 12,-178 12,-178 0,-178"/>
<polygon fill="#666666" stroke="#666666" points="12,-178 12,-178 120.75,-178 120.75,-178 12,-178"/>
<polygon fill="none" stroke="#666666" points="0,0 0,-612 120.75,-612 120.75,0 0,0"/>
</a>
</g>
</g>
<!-- Node2 -->
<g id="Node000002" class="node">
<title>Node2</title>
<g id="a_Node000002"><a xlink:title=" ">
<polygon fill="white" stroke="none" points="80.25,-750 8.5,-750 8.5,-698 80.25,-698 80.25,-750"/>
<text xml:space="preserve" text-anchor="start" x="12.5" y="-736.25" font-family="Helvetica,sans-Serif" font-size="10.00">QMainWindow</text>
<text xml:space="preserve" text-anchor="start" x="42.88" y="-720.25" font-family="Helvetica,sans-Serif" font-size="10.00"> </text>
<text xml:space="preserve" text-anchor="start" x="42.88" y="-704.25" font-family="Helvetica,sans-Serif" font-size="10.00"> </text>
<polygon fill="#666666" stroke="#666666" points="8.5,-732 8.5,-732 80.25,-732 80.25,-732 8.5,-732"/>
<polygon fill="#666666" stroke="#666666" points="8.5,-716 8.5,-716 80.25,-716 80.25,-716 8.5,-716"/>
<polygon fill="none" stroke="#666666" points="8.5,-698 8.5,-750 80.25,-750 80.25,-698 8.5,-698"/>
</a>
</g>
</g>
<!-- Node2&#45;&gt;Node1 -->
<g id="edge1_Node000001_Node000002" class="edge">
<title>Node2&#45;&gt;Node1</title>
<g id="a_edge1_Node000001_Node000002"><a xlink:title=" ">
<path fill="none" stroke="#63b8ff" d="M45.76,-686.93C46.51,-667.37 47.52,-641.16 48.66,-611.6"/>
<polygon fill="none" stroke="#63b8ff" points="42.27,-686.58 45.39,-696.71 49.27,-686.85 42.27,-686.58"/>
</a>
</g>
</g>
<!-- Node3 -->
<g id="Node000003" class="node">
<title>Node3</title>
<g id="a_Node000003"><a xlink:href="classOSController.html" target="_top" xlink:title="Classe Controller na arquitetura MVC. Gerencia toda a lógica de negócios da aplicação.">
<polygon fill="white" stroke="none" points="202.12,-782 98.62,-782 98.62,-666 202.12,-666 202.12,-782"/>
<text xml:space="preserve" text-anchor="start" x="122.25" y="-768.25" font-family="Helvetica,sans-Serif" font-size="10.00">OSController</text>
<text xml:space="preserve" text-anchor="start" x="148.88" y="-752.25" font-family="Helvetica,sans-Serif" font-size="10.00"> </text>
<text xml:space="preserve" text-anchor="start" x="102.62" y="-736.25" font-family="Helvetica,sans-Serif" font-size="10.00">+</text>
<text xml:space="preserve" text-anchor="start" x="112.62" y="-736.25" font-family="Helvetica,sans-Serif" font-size="10.00">OSController()</text>
<text xml:space="preserve" text-anchor="start" x="102.62" y="-720.25" font-family="Helvetica,sans-Serif" font-size="10.00">+</text>
<text xml:space="preserve" text-anchor="start" x="112.62" y="-720.25" font-family="Helvetica,sans-Serif" font-size="10.00">cadastrarOS()</text>
<text xml:space="preserve" text-anchor="start" x="102.62" y="-704.25" font-family="Helvetica,sans-Serif" font-size="10.00">+</text>
<text xml:space="preserve" text-anchor="start" x="112.62" y="-704.25" font-family="Helvetica,sans-Serif" font-size="10.00">atualizarStatusOS()</text>
<text xml:space="preserve" text-anchor="start" x="102.62" y="-688.25" font-family="Helvetica,sans-Serif" font-size="10.00">+</text>
<text xml:space="preserve" text-anchor="start" x="112.62" y="-688.25" font-family="Helvetica,sans-Serif" font-size="10.00">listarOS()</text>
<text xml:space="preserve" text-anchor="start" x="102.62" y="-672.25" font-family="Helvetica,sans-Serif" font-size="10.00">+</text>
<text xml:space="preserve" text-anchor="start" x="112.62" y="-672.25" font-family="Helvetica,sans-Serif" font-size="10.00">obterHistorico()</text>
<polygon fill="#666666" stroke="#666666" points="98.62,-764 98.62,-764 202.12,-764 202.12,-764 98.62,-764"/>
<polygon fill="#666666" stroke="#666666" points="98.62,-748 98.62,-748 202.12,-748 202.12,-748 98.62,-748"/>
<polygon fill="none" stroke="#666666" points="98.62,-666 98.62,-782 202.12,-782 202.12,-666 98.62,-666"/>
</a>
</g>
</g>
<!-- Node3&#45;&gt;Node1 -->
<g id="edge2_Node000001_Node000003" class="edge">
<title>Node3&#45;&gt;Node1</title>
<g id="a_edge2_Node000001_Node000003"><a xlink:title=" ">
<path fill="none" stroke="#63b8ff" d="M138.05,-666.03C133.85,-646.62 128.83,-623.4 123.38,-598.24"/>
<polygon fill="none" stroke="#63b8ff" points="123.41,-598.35 118.23,-593.33 120.87,-586.62 126.05,-591.64 123.41,-598.35"/>
</a>
</g>
<text xml:space="preserve" text-anchor="start" x="136.16" y="-635.25" font-family="Helvetica,sans-Serif" font-size="10.00" fill="grey">&#45;m_controller</text>
</g>
<!-- Node4 -->
<g id="Node000004" class="node">
<title>Node4</title>
<g id="a_Node000004"><a xlink:href="classOSRepository.html" target="_top" xlink:title="Data Access Object (DAO) para as entidades OS.">
<polygon fill="white" stroke="none" points="135.12,-936 49.62,-936 49.62,-836 135.12,-836 135.12,-936"/>
<text xml:space="preserve" text-anchor="start" x="61.62" y="-922.25" font-family="Helvetica,sans-Serif" font-size="10.00">OSRepository</text>
<text xml:space="preserve" text-anchor="start" x="90.88" y="-906.25" font-family="Helvetica,sans-Serif" font-size="10.00"> </text>
<text xml:space="preserve" text-anchor="start" x="53.62" y="-890.25" font-family="Helvetica,sans-Serif" font-size="10.00">+</text>
<text xml:space="preserve" text-anchor="start" x="63.62" y="-890.25" font-family="Helvetica,sans-Serif" font-size="10.00">OSRepository()</text>
<text xml:space="preserve" text-anchor="start" x="53.62" y="-874.25" font-family="Helvetica,sans-Serif" font-size="10.00">+</text>
<text xml:space="preserve" text-anchor="start" x="63.62" y="-874.25" font-family="Helvetica,sans-Serif" font-size="10.00">create()</text>
<text xml:space="preserve" text-anchor="start" x="53.62" y="-858.25" font-family="Helvetica,sans-Serif" font-size="10.00">+</text>
<text xml:space="preserve" text-anchor="start" x="63.62" y="-858.25" font-family="Helvetica,sans-Serif" font-size="10.00">updateStatus()</text>
<text xml:space="preserve" text-anchor="start" x="53.62" y="-842.25" font-family="Helvetica,sans-Serif" font-size="10.00">+</text>
<text xml:space="preserve" text-anchor="start" x="63.62" y="-842.25" font-family="Helvetica,sans-Serif" font-size="10.00">fetchAll()</text>
<polygon fill="#666666" stroke="#666666" points="49.62,-918 49.62,-918 135.12,-918 135.12,-918 49.62,-918"/>
<polygon fill="#666666" stroke="#666666" points="49.62,-902 49.62,-902 135.12,-902 135.12,-902 49.62,-902"/>
<polygon fill="none" stroke="#666666" points="49.62,-836 49.62,-936 135.12,-936 135.12,-836 49.62,-836"/>
</a>
</g>
</g>
<!-- Node4&#45;&gt;Node3 -->
<g id="edge3_Node000003_Node000004" class="edge">
<title>Node4&#45;&gt;Node3</title>
<g id="a_edge3_Node000003_Node000004"><a xlink:title=" ">
<path fill="none" stroke="#63b8ff" d="M110.09,-836.13C114.88,-822.9 120.16,-808.34 125.28,-794.23"/>
<polygon fill="none" stroke="#63b8ff" points="125.32,-794.12 123.6,-787.12 129.41,-782.84 131.12,-789.85 125.32,-794.12"/>
</a>
</g>
<text xml:space="preserve" text-anchor="start" x="126.11" y="-805.25" font-family="Helvetica,sans-Serif" font-size="10.00" fill="grey">&#45;m_osRepo</text>
</g>
<!-- Node5 -->
<g id="Node000005" class="node">
<title>Node5</title>
<g id="a_Node000005"><a xlink:href="classHistoricoRepository.html" target="_top" xlink:title="Data Access Object (DAO) para o Histórico de OS.">
<polygon fill="white" stroke="none" points="263.5,-928 153.25,-928 153.25,-844 263.5,-844 263.5,-928"/>
<text xml:space="preserve" text-anchor="start" x="165.25" y="-914.25" font-family="Helvetica,sans-Serif" font-size="10.00">HistoricoRepository</text>
<text xml:space="preserve" text-anchor="start" x="206.88" y="-898.25" font-family="Helvetica,sans-Serif" font-size="10.00"> </text>
<text xml:space="preserve" text-anchor="start" x="157.25" y="-882.25" font-family="Helvetica,sans-Serif" font-size="10.00">+</text>
<text xml:space="preserve" text-anchor="start" x="167.25" y="-882.25" font-family="Helvetica,sans-Serif" font-size="10.00">HistoricoRepository()</text>
<text xml:space="preserve" text-anchor="start" x="157.25" y="-866.25" font-family="Helvetica,sans-Serif" font-size="10.00">+</text>
<text xml:space="preserve" text-anchor="start" x="167.25" y="-866.25" font-family="Helvetica,sans-Serif" font-size="10.00">create()</text>
<text xml:space="preserve" text-anchor="start" x="157.25" y="-850.25" font-family="Helvetica,sans-Serif" font-size="10.00">+</text>
<text xml:space="preserve" text-anchor="start" x="167.25" y="-850.25" font-family="Helvetica,sans-Serif" font-size="10.00">getByOsId()</text>
<polygon fill="#666666" stroke="#666666" points="153.25,-910 153.25,-910 263.5,-910 263.5,-910 153.25,-910"/>
<polygon fill="#666666" stroke="#666666" points="153.25,-894 153.25,-894 263.5,-894 263.5,-894 153.25,-894"/>
<polygon fill="none" stroke="#666666" points="153.25,-844 153.25,-928 263.5,-928 263.5,-844 153.25,-844"/>
</a>
</g>
</g>
<!-- Node5&#45;&gt;Node3 -->
<g id="edge4_Node000003_Node000005" class="edge">
<title>Node5&#45;&gt;Node3</title>
<g id="a_edge4_Node000003_Node000005"><a xlink:title=" ">
<path fill="none" stroke="#63b8ff" d="M197.47,-844.01C193.42,-829.93 188.55,-814.16 183.38,-800 182.59,-797.84 181.76,-795.65 180.92,-793.45"/>
<polygon fill="none" stroke="#63b8ff" points="180.97,-793.59 175.04,-789.5 176.53,-782.45 182.47,-786.54 180.97,-793.59"/>
</a>
</g>
<text xml:space="preserve" text-anchor="start" x="191.91" y="-805.25" font-family="Helvetica,sans-Serif" font-size="10.00" fill="grey">&#45;m_histRepo</text>
</g>
</g>
</svg>

<g id="navigator" transform="translate(0 0)" fill="#404254">
  <rect fill="#f2f5e9" fill-opacity="0.5" stroke="#606060" stroke-width=".5" x="0" y="0" width="60" height="60"/>
  <use id="zoomplus" xlink:href="#zoomPlus" x="17" y="9" onmousedown="handleZoom(evt,'in')"/>
  <use id="zoomminus" xlink:href="#zoomMin" x="42" y="9" onmousedown="handleZoom(evt,'out')"/>
  <use id="reset" xlink:href="#resetDef" x="30" y="36" onmousedown="handleReset()"/>
   <use id="arrowup" xlink:href="#arrowUp" x="0" y="0" onmousedown="handlePan(0,-1)"/>
  <use id="arrowright" xlink:href="#arrowRight" x="0" y="0" onmousedown="handlePan(1,0)"/>
  <use id="arrowdown" xlink:href="#arrowDown" x="0" y="0" onmousedown="handlePan(0,1)"/>
  <use id="arrowleft" xlink:href="#arrowLeft" x="0" y="0" onmousedown="handlePan(-1,0)"/>
</g>
<svg viewBox="0 0 15 15" width="100%" height="30px" preserveAspectRatio="xMaxYMin meet">
 <g id="arrow_out" transform="scale(0.3 0.3)">
  <a xlink:href="classMarmoManagerApp__coll__graph_org.svg" target="_base">
   <rect id="button" ry="5" rx="5" y="6" x="6" height="38" width="38"
        fill="#f2f5e9" fill-opacity="0.5" stroke="#606060" stroke-width="1.0"/>
   <path id="arrow"
     d="M 11.500037,31.436501 C 11.940474,20.09759 22.043105,11.32322 32.158766,21.979434 L 37.068811,17.246167 C 37.068811,17.246167 37.088388,32 37.088388,32 L 22.160133,31.978069 C 22.160133,31.978069 26.997745,27.140456 26.997745,27.140456 C 18.528582,18.264221 13.291696,25.230495 11.500037,31.436501 z"
     style="fill:#404040;"/>
  </a>
 </g>
</svg>

<style type='text/css'>
<![CDATA[
[data-mouse-over-selected='false'] { opacity: 0.7; }
[data-mouse-over-selected='true']  { opacity: 1.0; }
]]>
</style>
<script type="application/ecmascript"><![CDATA[
document.addEventListener('DOMContentLoaded', (event) => {
  highlightEdges();
  highlightAdjacentNodes();
});
]]></script>
</svg>
