<?xml version="1.0" encoding="UTF-8" standalone="no"?>
<!DOCTYPE svg PUBLIC "-//W3C//DTD SVG 1.1//EN"
 "http://www.w3.org/Graphics/SVG/1.1/DTD/svg11.dtd">
<!-- Generated by graphviz version 14.1.4 (20260321.0153)
 -->
<!-- Title: TestCore::testHistorico Pages: 1 -->
<svg width="608pt" height="166pt"
 viewBox="0.00 0.00 608.00 166.00" xmlns="http://www.w3.org/2000/svg" xmlns:xlink="http://www.w3.org/1999/xlink">
<g id="graph0" class="graph" transform="scale(1 1) rotate(0) translate(4 162)">
<title>TestCore::testHistorico</title>
<!-- Node1 -->
<g id="Node000001" class="node">
<title>Node1</title>
<g id="a_Node000001"><a xlink:title=" ">
<polygon fill="#999999" stroke="#666666" points="117.25,-86 0,-86 0,-66 117.25,-66 117.25,-86"/>
<text xml:space="preserve" text-anchor="middle" x="58.62" y="-72.5" font-family="Helvetica,sans-Serif" font-size="10.00">TestCore::testHistorico</text>
</a>
</g>
</g>
<!-- Node2 -->
<g id="Node000002" class="node">
<title>Node2</title>
<g id="a_Node000002"><a xlink:href="classHistoricoRepository.html#adc29f7e094d6b1155ff82a08c77de8b9" target="_top" xlink:title="Cria um novo registro de histórico.">
<polygon fill="white" stroke="#666666" points="275,-70 172.75,-70 172.75,-38 275,-38 275,-70"/>
<text xml:space="preserve" text-anchor="start" x="180.75" y="-56.5" font-family="Helvetica,sans-Serif" font-size="10.00">HistoricoRepository</text>
<text xml:space="preserve" text-anchor="middle" x="223.88" y="-44.5" font-family="Helvetica,sans-Serif" font-size="10.00">::create</text>
</a>
</g>
</g>
<!-- Node1&#45;&gt;Node2 -->
<g id="edge1_Node000001_Node000002" class="edge">
<title>Node1&#45;&gt;Node2</title>
<g id="a_edge1_Node000001_Node000002"><a xlink:title=" ">
<path fill="none" stroke="#63b8ff" d="M117.64,-68.18C131.74,-66.28 146.87,-64.24 161.14,-62.32"/>
<polygon fill="#63b8ff" stroke="#63b8ff" points="161.42,-65.81 170.86,-61.01 160.48,-58.88 161.42,-65.81"/>
</a>
</g>
</g>
<!-- Node6 -->
<g id="Node000006" class="node">
<title>Node6</title>
<g id="a_Node000006"><a xlink:href="classOSRepository.html#af6139a9045e4f6c8ab9b04d9d4e0ee06" target="_top" xlink:title="Cria uma nova Ordem de Serviço (OS).">
<polygon fill="white" stroke="#666666" points="279.12,-20 168.62,-20 168.62,0 279.12,0 279.12,-20"/>
<text xml:space="preserve" text-anchor="middle" x="223.88" y="-6.5" font-family="Helvetica,sans-Serif" font-size="10.00">OSRepository::create</text>
</a>
</g>
</g>
<!-- Node1&#45;&gt;Node6 -->
<g id="edge5_Node000001_Node000006" class="edge">
<title>Node1&#45;&gt;Node6</title>
<g id="a_edge5_Node000001_Node000006"><a xlink:title=" ">
<path fill="none" stroke="#63b8ff" d="M77.78,-65.52C96.3,-55.17 126.08,-39.41 153.25,-29 158.18,-27.11 163.38,-25.33 168.62,-23.67"/>
<polygon fill="#63b8ff" stroke="#63b8ff" points="169.34,-27.11 177.91,-20.88 167.33,-20.4 169.34,-27.11"/>
</a>
</g>
</g>
<!-- Node7 -->
<g id="Node000007" class="node">
<title>Node7</title>
<g id="a_Node000007"><a xlink:href="classHistoricoRepository.html#ae1c14be64e7574ab5b919e6ab5fe6e83" target="_top" xlink:title="Busca o histórico para uma dada OS.">
<polygon fill="white" stroke="#666666" points="275,-158 172.75,-158 172.75,-126 275,-126 275,-158"/>
<text xml:space="preserve" text-anchor="start" x="180.75" y="-144.5" font-family="Helvetica,sans-Serif" font-size="10.00">HistoricoRepository</text>
<text xml:space="preserve" text-anchor="middle" x="223.88" y="-132.5" font-family="Helvetica,sans-Serif" font-size="10.00">::getByOsId</text>
</a>
</g>
</g>
<!-- Node1&#45;&gt;Node7 -->
<g id="edge8_Node000001_Node000007" class="edge">
<title>Node1&#45;&gt;Node7</title>
<g id="a_edge8_Node000001_Node000007"><a xlink:title=" ">
<path fill="none" stroke="#63b8ff" d="M82.15,-86.38C101,-94.94 128.68,-107.22 153.25,-117 157.12,-118.54 161.12,-120.09 165.16,-121.62"/>
<polygon fill="#63b8ff" stroke="#63b8ff" points="163.89,-124.88 174.48,-125.1 166.33,-118.32 163.89,-124.88"/>
</a>
</g>
</g>
<!-- Node8 -->
<g id="Node000008" class="node">
<title>Node8</title>
<g id="a_Node000008"><a xlink:href="classOSRepository.html#a216ac5a1b6bd12065a6d6f7edaddbcd2" target="_top" xlink:title="Atualiza o status de uma OS existente.">
<polygon fill="white" stroke="#666666" points="294.5,-108 153.25,-108 153.25,-88 294.5,-88 294.5,-108"/>
<text xml:space="preserve" text-anchor="middle" x="223.88" y="-94.5" font-family="Helvetica,sans-Serif" font-size="10.00">OSRepository::updateStatus</text>
</a>
</g>
</g>
<!-- Node1&#45;&gt;Node8 -->
<g id="edge11_Node000001_Node000008" class="edge">
<title>Node1&#45;&gt;Node8</title>
<g id="a_edge11_Node000001_Node000008"><a xlink:title=" ">
<path fill="none" stroke="#63b8ff" d="M117.64,-83.82C125.43,-84.87 133.53,-85.96 141.62,-87.05"/>
<polygon fill="#63b8ff" stroke="#63b8ff" points="141.15,-90.52 151.53,-88.39 142.09,-83.58 141.15,-90.52"/>
</a>
</g>
</g>
<!-- Node3 -->
<g id="Node000003" class="node">
<title>Node3</title>
<g id="a_Node000003"><a xlink:href="classDatabase.html#aaf21db9254c8ed77d4d800802c987d87" target="_top" xlink:title="Recupera o objeto de conexão QSqlDatabase.">
<polygon fill="white" stroke="#666666" points="457.5,-106 330.5,-106 330.5,-86 457.5,-86 457.5,-106"/>
<text xml:space="preserve" text-anchor="middle" x="394" y="-92.5" font-family="Helvetica,sans-Serif" font-size="10.00">Database::getConnection</text>
</a>
</g>
</g>
<!-- Node2&#45;&gt;Node3 -->
<g id="edge2_Node000002_Node000003" class="edge">
<title>Node2&#45;&gt;Node3</title>
<g id="a_edge2_Node000002_Node000003"><a xlink:title=" ">
<path fill="none" stroke="#63b8ff" d="M275.32,-66.6C295.72,-71.7 319.29,-77.59 339.95,-82.75"/>
<polygon fill="#63b8ff" stroke="#63b8ff" points="339.07,-86.13 349.62,-85.16 340.76,-79.34 339.07,-86.13"/>
</a>
</g>
</g>
<!-- Node4 -->
<g id="Node000004" class="node">
<title>Node4</title>
<g id="a_Node000004"><a xlink:href="classDatabase.html#aa04e547554cc34fa4b6c5a9390021eab" target="_top" xlink:title="Obtém a instância única do Banco de Dados.">
<polygon fill="white" stroke="#666666" points="451.5,-67 336.5,-67 336.5,-47 451.5,-47 451.5,-67"/>
<text xml:space="preserve" text-anchor="middle" x="394" y="-53.5" font-family="Helvetica,sans-Serif" font-size="10.00">Database::getInstance</text>
</a>
</g>
</g>
<!-- Node2&#45;&gt;Node4 -->
<g id="edge3_Node000002_Node000004" class="edge">
<title>Node2&#45;&gt;Node4</title>
<g id="a_edge3_Node000002_Node000004"><a xlink:title=" ">
<path fill="none" stroke="#63b8ff" d="M275.32,-54.9C290.88,-55.18 308.28,-55.49 324.83,-55.78"/>
<polygon fill="#63b8ff" stroke="#63b8ff" points="324.54,-59.28 334.6,-55.96 324.66,-52.28 324.54,-59.28"/>
</a>
</g>
</g>
<!-- Node5 -->
<g id="Node000005" class="node">
<title>Node5</title>
<g id="a_Node000005"><a xlink:href="classDatabase.html#a4703c80e6969d33565ea340f768fdadf" target="_top" xlink:title=" ">
<polygon fill="white" stroke="#666666" points="599.5,-67 493.5,-67 493.5,-47 599.5,-47 599.5,-67"/>
<text xml:space="preserve" text-anchor="middle" x="546.5" y="-53.5" font-family="Helvetica,sans-Serif" font-size="10.00">Database::Database</text>
</a>
</g>
</g>
<!-- Node4&#45;&gt;Node5 -->
<g id="edge4_Node000004_Node000005" class="edge">
<title>Node4&#45;&gt;Node5</title>
<g id="a_edge4_Node000004_Node000005"><a xlink:title=" ">
<path fill="none" stroke="#63b8ff" d="M451.9,-57C461.82,-57 472.19,-57 482.26,-57"/>
<polygon fill="#63b8ff" stroke="#63b8ff" points="481.96,-60.5 491.96,-57 481.96,-53.5 481.96,-60.5"/>
</a>
</g>
</g>
<!-- Node6&#45;&gt;Node3 -->
<g id="edge6_Node000006_Node000003" class="edge">
<title>Node6&#45;&gt;Node3</title>
<g id="a_edge6_Node000006_Node000003"><a xlink:title=" ">
<path fill="none" stroke="#63b8ff" d="M277.83,-20.46C283.71,-22.77 289.4,-25.58 294.5,-29 316.34,-43.68 308.98,-60.85 330.5,-76 332.99,-77.75 335.64,-79.36 338.39,-80.83"/>
<polygon fill="#63b8ff" stroke="#63b8ff" points="336.77,-83.93 347.32,-84.94 339.7,-77.58 336.77,-83.93"/>
</a>
</g>
</g>
<!-- Node6&#45;&gt;Node4 -->
<g id="edge7_Node000006_Node000004" class="edge">
<title>Node6&#45;&gt;Node4</title>
<g id="a_edge7_Node000006_Node000004"><a xlink:title=" ">
<path fill="none" stroke="#63b8ff" d="M263.56,-20.48C273.64,-23.23 284.48,-26.21 294.5,-29 311.2,-33.65 329.46,-38.82 345.68,-43.44"/>
<polygon fill="#63b8ff" stroke="#63b8ff" points="344.51,-46.74 355.08,-46.12 346.43,-40.01 344.51,-46.74"/>
</a>
</g>
</g>
<!-- Node7&#45;&gt;Node3 -->
<g id="edge9_Node000007_Node000003" class="edge">
<title>Node7&#45;&gt;Node3</title>
<g id="a_edge9_Node000007_Node000003"><a xlink:title=" ">
<path fill="none" stroke="#63b8ff" d="M275.32,-128.2C297.06,-122.25 322.4,-115.32 343.98,-109.41"/>
<polygon fill="#63b8ff" stroke="#63b8ff" points="344.71,-112.84 353.43,-106.83 342.86,-106.09 344.71,-112.84"/>
</a>
</g>
</g>
<!-- Node7&#45;&gt;Node4 -->
<g id="edge10_Node000007_Node000004" class="edge">
<title>Node7&#45;&gt;Node4</title>
<g id="a_edge10_Node000007_Node000004"><a xlink:title=" ">
<path fill="none" stroke="#63b8ff" d="M275.39,-127.25C282.08,-124.34 288.64,-120.94 294.5,-117 314.36,-103.67 310.41,-89.98 330.5,-77 333.37,-75.14 336.43,-73.45 339.59,-71.9"/>
<polygon fill="#63b8ff" stroke="#63b8ff" points="340.75,-75.21 348.55,-68.04 337.98,-68.78 340.75,-75.21"/>
</a>
</g>
</g>
<!-- Node8&#45;&gt;Node3 -->
<g id="edge12_Node000008_Node000003" class="edge">
<title>Node8&#45;&gt;Node3</title>
<g id="a_edge12_Node000008_Node000003"><a xlink:title=" ">
<path fill="none" stroke="#63b8ff" d="M294.71,-97.17C302.59,-97.08 310.65,-96.98 318.58,-96.89"/>
<polygon fill="#63b8ff" stroke="#63b8ff" points="318.62,-100.39 328.58,-96.77 318.54,-93.39 318.62,-100.39"/>
</a>
</g>
</g>
<!-- Node8&#45;&gt;Node4 -->
<g id="edge13_Node000008_Node000004" class="edge">
<title>Node8&#45;&gt;Node4</title>
<g id="a_edge13_Node000008_Node000004"><a xlink:title=" ">
<path fill="none" stroke="#63b8ff" d="M267.74,-87.55C289.47,-82.25 316.09,-75.75 339.2,-70.12"/>
<polygon fill="#63b8ff" stroke="#63b8ff" points="339.86,-73.56 348.75,-67.79 338.2,-66.76 339.86,-73.56"/>
</a>
</g>
</g>
</g>
</svg>
