<?xml version="1.0" encoding="UTF-8" standalone="no"?>
<!DOCTYPE svg PUBLIC "-//W3C//DTD SVG 1.1//EN"
 "http://www.w3.org/Graphics/SVG/1.1/DTD/svg11.dtd">
<!-- Generated by graphviz version 14.1.4 (20260321.0153)
 -->
<!-- Title: MarmoManagerApp::setupConsultaTab Pages: 1 -->
<svg width="604pt" height="116pt"
 viewBox="0.00 0.00 604.00 116.00" xmlns="http://www.w3.org/2000/svg" xmlns:xlink="http://www.w3.org/1999/xlink">
<g id="graph0" class="graph" transform="scale(1 1) rotate(0) translate(4 112)">
<title>MarmoManagerApp::setupConsultaTab</title>
<!-- Node1 -->
<g id="Node000001" class="node">
<title>Node1</title>
<g id="a_Node000001"><a xlink:title=" ">
<polygon fill="#999999" stroke="#666666" points="185.5,-64 0,-64 0,-44 185.5,-44 185.5,-64"/>
<text xml:space="preserve" text-anchor="middle" x="92.75" y="-50.5" font-family="Helvetica,sans-Serif" font-size="10.00">MarmoManagerApp::setupConsultaTab</text>
</a>
</g>
</g>
<!-- Node2 -->
<g id="Node000002" class="node">
<title>Node2</title>
<g id="a_Node000002"><a xlink:href="classMarmoManagerApp.html#ae9274b8e82144862ae92889e0546eaa2" target="_top" xlink:title=" ">
<polygon fill="white" stroke="#666666" points="372.88,-70 229.38,-70 229.38,-38 372.88,-38 372.88,-70"/>
<text xml:space="preserve" text-anchor="start" x="237.38" y="-56.5" font-family="Helvetica,sans-Serif" font-size="10.00">MarmoManagerApp::atualizar</text>
<text xml:space="preserve" text-anchor="middle" x="301.12" y="-44.5" font-family="Helvetica,sans-Serif" font-size="10.00">Status</text>
</a>
</g>
</g>
<!-- Node1&#45;&gt;Node2 -->
<g id="edge1_Node000001_Node000002" class="edge">
<title>Node1&#45;&gt;Node2</title>
<g id="a_edge1_Node000001_Node000002"><a xlink:title=" ">
<path fill="none" stroke="#63b8ff" d="M185.77,-54C196.43,-54 207.24,-54 217.76,-54"/>
<polygon fill="#63b8ff" stroke="#63b8ff" points="217.52,-57.5 227.52,-54 217.52,-50.5 217.52,-57.5"/>
</a>
</g>
</g>
<!-- Node5 -->
<g id="Node000005" class="node">
<title>Node5</title>
<g id="a_Node000005"><a xlink:href="classMarmoManagerApp.html#a980978dc7049dfaddeed39eb809219e8" target="_top" xlink:title=" ">
<polygon fill="white" stroke="#666666" points="586.5,-20 426.5,-20 426.5,0 586.5,0 586.5,-20"/>
<text xml:space="preserve" text-anchor="middle" x="506.5" y="-6.5" font-family="Helvetica,sans-Serif" font-size="10.00">MarmoManagerApp::loadOSData</text>
</a>
</g>
</g>
<!-- Node1&#45;&gt;Node5 -->
<g id="edge5_Node000001_Node000005" class="edge">
<title>Node1&#45;&gt;Node5</title>
<g id="a_edge5_Node000001_Node000005"><a xlink:title=" ">
<path fill="none" stroke="#63b8ff" d="M139.64,-43.56C163.87,-38.42 194.16,-32.57 221.5,-29 285.91,-20.58 359.05,-15.8 414.97,-13.14"/>
<polygon fill="#63b8ff" stroke="#63b8ff" points="414.93,-16.64 424.76,-12.68 414.61,-9.65 414.93,-16.64"/>
</a>
</g>
</g>
<!-- Node6 -->
<g id="Node000006" class="node">
<title>Node6</title>
<g id="a_Node000006"><a xlink:href="classMarmoManagerApp.html#af9faa6ff4f367eb34150c48b131f03a0" target="_top" xlink:title=" ">
<polygon fill="white" stroke="#666666" points="380.75,-108 221.5,-108 221.5,-88 380.75,-88 380.75,-108"/>
<text xml:space="preserve" text-anchor="middle" x="301.12" y="-94.5" font-family="Helvetica,sans-Serif" font-size="10.00">MarmoManagerApp::verHistorico</text>
</a>
</g>
</g>
<!-- Node1&#45;&gt;Node6 -->
<g id="edge6_Node000001_Node000006" class="edge">
<title>Node1&#45;&gt;Node6</title>
<g id="a_edge6_Node000001_Node000006"><a xlink:title=" ">
<path fill="none" stroke="#63b8ff" d="M142.92,-64.48C172.01,-70.69 209.09,-78.59 239.92,-85.16"/>
<polygon fill="#63b8ff" stroke="#63b8ff" points="238.98,-88.54 249.49,-87.21 240.44,-81.7 238.98,-88.54"/>
</a>
</g>
</g>
<!-- Node3 -->
<g id="Node000003" class="node">
<title>Node3</title>
<g id="a_Node000003"><a xlink:href="classMarmoManagerApp.html#a871003c283fb550e298bafb52ce14c1a" target="_top" xlink:title=" ">
<polygon fill="white" stroke="#666666" points="596.25,-108 416.75,-108 416.75,-88 596.25,-88 596.25,-108"/>
<text xml:space="preserve" text-anchor="middle" x="506.5" y="-94.5" font-family="Helvetica,sans-Serif" font-size="10.00">MarmoManagerApp::getSelectedOsId</text>
</a>
</g>
</g>
<!-- Node2&#45;&gt;Node3 -->
<g id="edge2_Node000002_Node000003" class="edge">
<title>Node2&#45;&gt;Node3</title>
<g id="a_edge2_Node000002_Node000003"><a xlink:title=" ">
<path fill="none" stroke="#63b8ff" d="M373.35,-69.58C387.72,-72.71 402.71,-75.97 416.75,-79 426.05,-81.01 435.9,-83.13 445.52,-85.19"/>
<polygon fill="#63b8ff" stroke="#63b8ff" points="444.67,-88.59 455.19,-87.26 446.14,-81.75 444.67,-88.59"/>
</a>
</g>
</g>
<!-- Node4 -->
<g id="Node000004" class="node">
<title>Node4</title>
<g id="a_Node000004"><a xlink:href="classMarmoManagerApp.html#a55126ad8dac77503a4c3eb0741e739cd" target="_top" xlink:title=" ">
<polygon fill="white" stroke="#666666" points="585.75,-70 427.25,-70 427.25,-38 585.75,-38 585.75,-70"/>
<text xml:space="preserve" text-anchor="start" x="435.25" y="-56.5" font-family="Helvetica,sans-Serif" font-size="10.00">MarmoManagerApp::getSelected</text>
<text xml:space="preserve" text-anchor="middle" x="506.5" y="-44.5" font-family="Helvetica,sans-Serif" font-size="10.00">OsStatus</text>
</a>
</g>
</g>
<!-- Node2&#45;&gt;Node4 -->
<g id="edge3_Node000002_Node000004" class="edge">
<title>Node2&#45;&gt;Node4</title>
<g id="a_edge3_Node000002_Node000004"><a xlink:title=" ">
<path fill="none" stroke="#63b8ff" d="M373.26,-54C386.9,-54 401.36,-54 415.51,-54"/>
<polygon fill="#63b8ff" stroke="#63b8ff" points="415.26,-57.5 425.26,-54 415.26,-50.5 415.26,-57.5"/>
</a>
</g>
</g>
<!-- Node2&#45;&gt;Node5 -->
<g id="edge4_Node000002_Node000005" class="edge">
<title>Node2&#45;&gt;Node5</title>
<g id="a_edge4_Node000002_Node000005"><a xlink:title=" ">
<path fill="none" stroke="#63b8ff" d="M373.35,-38.42C387.72,-35.29 402.71,-32.03 416.75,-29 426.05,-26.99 435.9,-24.87 445.52,-22.81"/>
<polygon fill="#63b8ff" stroke="#63b8ff" points="446.14,-26.25 455.19,-20.74 444.67,-19.41 446.14,-26.25"/>
</a>
</g>
</g>
<!-- Node6&#45;&gt;Node3 -->
<g id="edge7_Node000006_Node000003" class="edge">
<title>Node6&#45;&gt;Node3</title>
<g id="a_edge7_Node000006_Node000003"><a xlink:title=" ">
<path fill="none" stroke="#63b8ff" d="M381.05,-98C388.94,-98 397.02,-98 405.1,-98"/>
<polygon fill="#63b8ff" stroke="#63b8ff" points="404.97,-101.5 414.97,-98 404.97,-94.5 404.97,-101.5"/>
</a>
</g>
</g>
</g>
</svg>
