<?xml version="1.0" encoding="UTF-8" standalone="no"?>
<!DOCTYPE svg PUBLIC "-//W3C//DTD SVG 1.1//EN"
 "http://www.w3.org/Graphics/SVG/1.1/DTD/svg11.dtd">
<!-- Generated by graphviz version 14.1.4 (20260321.0153)
 -->
<!-- Title: MarmoManagerApp::MarmoManagerApp Pages: 1 -->
<!--zoomable 192 -->

<svg id="main" version="1.1" xmlns="http://www.w3.org/2000/svg" xmlns:xlink="http://www.w3.org/1999/xlink" xml:space="preserve" onload="init(evt)">

<style type="text/css"><![CDATA[
.node, .edge {opacity: 0.7;}
.node.selected, .edge.selected {opacity: 1;}
.edge:hover path { stroke: red; }
.edge:hover polygon { stroke: red; fill: red; }
]]></style>

<defs>
  <circle id="rim" cx="0" cy="0" r="7"/>
  <circle id="rim2" cx="0" cy="0" r="3.5"/>
  <g id="zoomPlus">
    <use xlink:href="#rim" fill="#404040"><set attributeName="fill" to="#808080" begin="zoomplus.mouseover" end="zoomplus.mouseout"/></use>
    <path d="M-4,0h8M0,-4v8" fill="none" stroke="white" stroke-width="1.5" pointer-events="none"/>
  </g>
  <g id="zoomMin">
    <use xlink:href="#rim" fill="#404040"><set attributeName="fill" to="#808080" begin="zoomminus.mouseover" end="zoomminus.mouseout"/></use>
    <path d="M-4,0h8" fill="none" stroke="white" stroke-width="1.5" pointer-events="none"/>
  </g>
  <g id="arrowUp" transform="translate(30 24)">
    <use xlink:href="#rim"/>
    <path pointer-events="none" fill="none" stroke="white" stroke-width="1.5" d="M0,-3.0v7 M-2.5,-0.5L0,-3.0L2.5,-0.5"/>
  </g>
  <g id="arrowRight" transform="rotate(90) translate(36 -43)">
    <use xlink:href="#rim"/>
    <path pointer-events="none" fill="none" stroke="white" stroke-width="1.5" d="M0,-3.0v7 M-2.5,-0.5L0,-3.0L2.5,-0.5"/>
  </g>
  <g id="arrowDown" transform="rotate(180) translate(-30 -48)">
    <use xlink:href="#rim"/>
    <path pointer-events="none" fill="none" stroke="white" stroke-width="1.5" d="M0,-3.0v7 M-2.5,-0.5L0,-3.0L2.5,-0.5"/>
  </g>
  <g id="arrowLeft" transform="rotate(270) translate(-36 17)">
    <use xlink:href="#rim"/>
    <path pointer-events="none" fill="none" stroke="white" stroke-width="1.5" d="M0,-3.0v7 M-2.5,-0.5L0,-3.0L2.5,-0.5"/>
  </g>
  <g id="resetDef">
    <use xlink:href="#rim2" fill="#404040"><set attributeName="fill" to="#808080" begin="reset.mouseover" end="reset.mouseout"/></use>
  </g>
</defs>
<script type="application/ecmascript">
var viewWidth = 843;
var viewHeight = 192;
var sectionId = 'dynsection-2';
</script>
<script type="application/ecmascript" xlink:href="svg.min.js"/>
<svg id="graph" class="graph">
<g id="viewport">
<title>MarmoManagerApp::MarmoManagerApp</title>
<!-- Node1 -->
<g id="Node000001" class="node">
<title>Node1</title>
<g id="a_Node000001"><a xlink:title=" ">
<polygon fill="#999999" stroke="#666666" points="191.5,-146 0,-146 0,-126 191.5,-126 191.5,-146"/>
<text xml:space="preserve" text-anchor="middle" x="95.75" y="-132.5" font-family="Helvetica,sans-Serif" font-size="10.00">MarmoManagerApp::MarmoManagerApp</text>
</a>
</g>
</g>
<!-- Node2 -->
<g id="Node000002" class="node">
<title>Node2</title>
<g id="a_Node000002"><a xlink:href="classMarmoManagerApp.html#a10a26a55d69244fde9fb76f14184fdb8" target="_top" xlink:title=" ">
<polygon fill="white" stroke="#666666" points="406.62,-146 234.62,-146 234.62,-126 406.62,-126 406.62,-146"/>
<text xml:space="preserve" text-anchor="middle" x="320.62" y="-132.5" font-family="Helvetica,sans-Serif" font-size="10.00">MarmoManagerApp::onTabChanged</text>
</a>
</g>
</g>
<!-- Node1&#45;&gt;Node2 -->
<g id="edge1_Node000001_Node000002" class="edge">
<title>Node1&#45;&gt;Node2</title>
<g id="a_edge1_Node000001_Node000002"><a xlink:title=" ">
<path fill="none" stroke="#63b8ff" d="M191.92,-136C202.15,-136 212.56,-136 222.81,-136"/>
<polygon fill="#63b8ff" stroke="#63b8ff" points="222.78,-139.5 232.78,-136 222.78,-132.5 222.78,-139.5"/>
</a>
</g>
</g>
<!-- Node4 -->
<g id="Node000004" class="node">
<title>Node4</title>
<g id="a_Node000004"><a xlink:href="classMarmoManagerApp.html#aad97cb1b8b318c55b65b8e97fb2c926d" target="_top" xlink:title=" ">
<polygon fill="white" stroke="#666666" points="413.75,-184 227.5,-184 227.5,-164 413.75,-164 413.75,-184"/>
<text xml:space="preserve" text-anchor="middle" x="320.62" y="-170.5" font-family="Helvetica,sans-Serif" font-size="10.00">MarmoManagerApp::setupCadastroTab</text>
</a>
</g>
</g>
<!-- Node1&#45;&gt;Node4 -->
<g id="edge3_Node000001_Node000004" class="edge">
<title>Node1&#45;&gt;Node4</title>
<g id="a_edge3_Node000001_Node000004"><a xlink:title=" ">
<path fill="none" stroke="#63b8ff" d="M158.24,-146.48C185.77,-151.18 218.42,-156.74 247.13,-161.64"/>
<polygon fill="#63b8ff" stroke="#63b8ff" points="246.4,-165.06 256.84,-163.3 247.57,-158.16 246.4,-165.06"/>
</a>
</g>
</g>
<!-- Node7 -->
<g id="Node000007" class="node">
<title>Node7</title>
<g id="a_Node000007"><a xlink:href="classMarmoManagerApp.html#aaa4093f9a540417273a7a5849da18c27" target="_top" xlink:title=" ">
<polygon fill="white" stroke="#666666" points="413.38,-86 227.88,-86 227.88,-66 413.38,-66 413.38,-86"/>
<text xml:space="preserve" text-anchor="middle" x="320.62" y="-72.5" font-family="Helvetica,sans-Serif" font-size="10.00">MarmoManagerApp::setupConsultaTab</text>
</a>
</g>
</g>
<!-- Node1&#45;&gt;Node7 -->
<g id="edge6_Node000001_Node000007" class="edge">
<title>Node1&#45;&gt;Node7</title>
<g id="a_edge6_Node000001_Node000007"><a xlink:title=" ">
<path fill="none" stroke="#63b8ff" d="M135.57,-125.55C172.85,-115.51 229.33,-100.31 269.89,-89.39"/>
<polygon fill="#63b8ff" stroke="#63b8ff" points="270.67,-92.8 279.41,-86.83 268.85,-86.05 270.67,-92.8"/>
</a>
</g>
</g>
<!-- Node3 -->
<g id="Node000003" class="node">
<title>Node3</title>
<g id="a_Node000003"><a xlink:href="classMarmoManagerApp.html#a980978dc7049dfaddeed39eb809219e8" target="_top" xlink:title=" ">
<polygon fill="white" stroke="#666666" points="820,-108 660,-108 660,-88 820,-88 820,-108"/>
<text xml:space="preserve" text-anchor="middle" x="740" y="-94.5" font-family="Helvetica,sans-Serif" font-size="10.00">MarmoManagerApp::loadOSData</text>
</a>
</g>
</g>
<!-- Node2&#45;&gt;Node3 -->
<g id="edge2_Node000002_Node000003" class="edge">
<title>Node2&#45;&gt;Node3</title>
<g id="a_edge2_Node000002_Node000003"><a xlink:title=" ">
<path fill="none" stroke="#63b8ff" d="M407.09,-128.22C477.39,-121.82 576.74,-112.77 648.4,-106.25"/>
<polygon fill="#63b8ff" stroke="#63b8ff" points="648.5,-109.75 658.14,-105.36 647.87,-102.78 648.5,-109.75"/>
</a>
</g>
</g>
<!-- Node5 -->
<g id="Node000005" class="node">
<title>Node5</title>
<g id="a_Node000005"><a xlink:href="classMarmoManagerApp.html#abe6179ce37dbb78c1dc320a9ce6bb658" target="_top" xlink:title=" ">
<polygon fill="white" stroke="#666666" points="603,-184 455.75,-184 455.75,-164 603,-164 603,-184"/>
<text xml:space="preserve" text-anchor="middle" x="529.38" y="-170.5" font-family="Helvetica,sans-Serif" font-size="10.00">MarmoManagerApp::salvarOS</text>
</a>
</g>
</g>
<!-- Node4&#45;&gt;Node5 -->
<g id="edge4_Node000004_Node000005" class="edge">
<title>Node4&#45;&gt;Node5</title>
<g id="a_edge4_Node000004_Node000005"><a xlink:title=" ">
<path fill="none" stroke="#63b8ff" d="M414.12,-174C424.08,-174 434.19,-174 444.05,-174"/>
<polygon fill="#63b8ff" stroke="#63b8ff" points="443.99,-177.5 453.99,-174 443.99,-170.5 443.99,-177.5"/>
</a>
</g>
</g>
<!-- Node6 -->
<g id="Node000006" class="node">
<title>Node6</title>
<g id="a_Node000006"><a xlink:href="classMarmoManagerApp.html#abdb2159fa5062a8a4586def7783ca91d" target="_top" xlink:title=" ">
<polygon fill="white" stroke="#666666" points="835,-184 645,-184 645,-164 835,-164 835,-184"/>
<text xml:space="preserve" text-anchor="middle" x="740" y="-170.5" font-family="Helvetica,sans-Serif" font-size="10.00">MarmoManagerApp::clearCadastroForm</text>
</a>
</g>
</g>
<!-- Node5&#45;&gt;Node6 -->
<g id="edge5_Node000005_Node000006" class="edge">
<title>Node5&#45;&gt;Node6</title>
<g id="a_edge5_Node000005_Node000006"><a xlink:title=" ">
<path fill="none" stroke="#63b8ff" d="M603.34,-174C613.07,-174 623.21,-174 633.36,-174"/>
<polygon fill="#63b8ff" stroke="#63b8ff" points="633.29,-177.5 643.29,-174 633.29,-170.5 633.29,-177.5"/>
</a>
</g>
</g>
<!-- Node7&#45;&gt;Node3 -->
<g id="edge11_Node000007_Node000003" class="edge">
<title>Node7&#45;&gt;Node3</title>
<g id="a_edge11_Node000007_Node000003"><a xlink:title=" ">
<path fill="none" stroke="#63b8ff" d="M413.74,-80.86C483.55,-84.54 578.99,-89.57 648.42,-93.23"/>
<polygon fill="#63b8ff" stroke="#63b8ff" points="648.09,-96.71 658.26,-93.74 648.46,-89.72 648.09,-96.71"/>
</a>
</g>
</g>
<!-- Node8 -->
<g id="Node000008" class="node">
<title>Node8</title>
<g id="a_Node000008"><a xlink:href="classMarmoManagerApp.html#ae9274b8e82144862ae92889e0546eaa2" target="_top" xlink:title=" ">
<polygon fill="white" stroke="#666666" points="601.12,-70 457.62,-70 457.62,-38 601.12,-38 601.12,-70"/>
<text xml:space="preserve" text-anchor="start" x="465.62" y="-56.5" font-family="Helvetica,sans-Serif" font-size="10.00">MarmoManagerApp::atualizar</text>
<text xml:space="preserve" text-anchor="middle" x="529.38" y="-44.5" font-family="Helvetica,sans-Serif" font-size="10.00">Status</text>
</a>
</g>
</g>
<!-- Node7&#45;&gt;Node8 -->
<g id="edge7_Node000007_Node000008" class="edge">
<title>Node7&#45;&gt;Node8</title>
<g id="a_edge7_Node000007_Node000008"><a xlink:title=" ">
<path fill="none" stroke="#63b8ff" d="M413.81,-66.19C424.49,-65.05 435.33,-63.9 445.86,-62.78"/>
<polygon fill="#63b8ff" stroke="#63b8ff" points="446.07,-66.28 455.65,-61.74 445.33,-59.32 446.07,-66.28"/>
</a>
</g>
</g>
<!-- Node11 -->
<g id="Node000011" class="node">
<title>Node11</title>
<g id="a_Node000011"><a xlink:href="classMarmoManagerApp.html#af9faa6ff4f367eb34150c48b131f03a0" target="_top" xlink:title=" ">
<polygon fill="white" stroke="#666666" points="609,-20 449.75,-20 449.75,0 609,0 609,-20"/>
<text xml:space="preserve" text-anchor="middle" x="529.38" y="-6.5" font-family="Helvetica,sans-Serif" font-size="10.00">MarmoManagerApp::verHistorico</text>
</a>
</g>
</g>
<!-- Node7&#45;&gt;Node11 -->
<g id="edge12_Node000007_Node000011" class="edge">
<title>Node7&#45;&gt;Node11</title>
<g id="a_edge12_Node000007_Node000011"><a xlink:title=" ">
<path fill="none" stroke="#63b8ff" d="M347.34,-65.58C373,-55.41 413.7,-39.93 449.75,-29 456.36,-26.99 463.34,-25.06 470.3,-23.24"/>
<polygon fill="#63b8ff" stroke="#63b8ff" points="470.86,-26.71 479.69,-20.85 469.14,-19.92 470.86,-26.71"/>
</a>
</g>
</g>
<!-- Node8&#45;&gt;Node3 -->
<g id="edge10_Node000008_Node000003" class="edge">
<title>Node8&#45;&gt;Node3</title>
<g id="a_edge10_Node000008_Node000003"><a xlink:title=" ">
<path fill="none" stroke="#63b8ff" d="M601.57,-69.71C615.94,-72.83 630.95,-76.05 645,-79 654.93,-81.09 665.46,-83.26 675.74,-85.35"/>
<polygon fill="#63b8ff" stroke="#63b8ff" points="674.78,-88.73 685.28,-87.29 676.18,-81.87 674.78,-88.73"/>
</a>
</g>
</g>
<!-- Node9 -->
<g id="Node000009" class="node">
<title>Node9</title>
<g id="a_Node000009"><a xlink:href="classMarmoManagerApp.html#a871003c283fb550e298bafb52ce14c1a" target="_top" xlink:title=" ">
<polygon fill="white" stroke="#666666" points="829.75,-20 650.25,-20 650.25,0 829.75,0 829.75,-20"/>
<text xml:space="preserve" text-anchor="middle" x="740" y="-6.5" font-family="Helvetica,sans-Serif" font-size="10.00">MarmoManagerApp::getSelectedOsId</text>
</a>
</g>
</g>
<!-- Node8&#45;&gt;Node9 -->
<g id="edge8_Node000008_Node000009" class="edge">
<title>Node8&#45;&gt;Node9</title>
<g id="a_edge8_Node000008_Node000009"><a xlink:title=" ">
<path fill="none" stroke="#63b8ff" d="M601.57,-38.29C615.94,-35.17 630.95,-31.95 645,-29 654.93,-26.91 665.46,-24.74 675.74,-22.65"/>
<polygon fill="#63b8ff" stroke="#63b8ff" points="676.18,-26.13 685.28,-20.71 674.78,-19.27 676.18,-26.13"/>
</a>
</g>
</g>
<!-- Node10 -->
<g id="Node000010" class="node">
<title>Node10</title>
<g id="a_Node000010"><a xlink:href="classMarmoManagerApp.html#a55126ad8dac77503a4c3eb0741e739cd" target="_top" xlink:title=" ">
<polygon fill="white" stroke="#666666" points="819.25,-70 660.75,-70 660.75,-38 819.25,-38 819.25,-70"/>
<text xml:space="preserve" text-anchor="start" x="668.75" y="-56.5" font-family="Helvetica,sans-Serif" font-size="10.00">MarmoManagerApp::getSelected</text>
<text xml:space="preserve" text-anchor="middle" x="740" y="-44.5" font-family="Helvetica,sans-Serif" font-size="10.00">OsStatus</text>
</a>
</g>
</g>
<!-- Node8&#45;&gt;Node10 -->
<g id="edge9_Node000008_Node000010" class="edge">
<title>Node8&#45;&gt;Node10</title>
<g id="a_edge9_Node000008_Node000010"><a xlink:title=" ">
<path fill="none" stroke="#63b8ff" d="M601.59,-54C616.88,-54 633.23,-54 649.13,-54"/>
<polygon fill="#63b8ff" stroke="#63b8ff" points="649.09,-57.5 659.09,-54 649.09,-50.5 649.09,-57.5"/>
</a>
</g>
</g>
<!-- Node11&#45;&gt;Node9 -->
<g id="edge13_Node000011_Node000009" class="edge">
<title>Node11&#45;&gt;Node9</title>
<g id="a_edge13_Node000011_Node000009"><a xlink:title=" ">
<path fill="none" stroke="#63b8ff" d="M609.25,-10C618.78,-10 628.62,-10 638.42,-10"/>
<polygon fill="#63b8ff" stroke="#63b8ff" points="638.37,-13.5 648.37,-10 638.37,-6.5 638.37,-13.5"/>
</a>
</g>
</g>
</g>
</svg>

<g id="navigator" transform="translate(0 0)" fill="#404254">
  <rect fill="#f2f5e9" fill-opacity="0.5" stroke="#606060" stroke-width=".5" x="0" y="0" width="60" height="60"/>
  <use id="zoomplus" xlink:href="#zoomPlus" x="17" y="9" onmousedown="handleZoom(evt,'in')"/>
  <use id="zoomminus" xlink:href="#zoomMin" x="42" y="9" onmousedown="handleZoom(evt,'out')"/>
  <use id="reset" xlink:href="#resetDef" x="30" y="36" onmousedown="handleReset()"/>
   <use id="arrowup" xlink:href="#arrowUp" x="0" y="0" onmousedown="handlePan(0,-1)"/>
  <use id="arrowright" xlink:href="#arrowRight" x="0" y="0" onmousedown="handlePan(1,0)"/>
  <use id="arrowdown" xlink:href="#arrowDown" x="0" y="0" onmousedown="handlePan(0,1)"/>
  <use id="arrowleft" xlink:href="#arrowLeft" x="0" y="0" onmousedown="handlePan(-1,0)"/>
</g>
<svg viewBox="0 0 15 15" width="100%" height="30px" preserveAspectRatio="xMaxYMin meet">
 <g id="arrow_out" transform="scale(0.3 0.3)">
  <a xlink:href="classMarmoManagerApp_a43323a0e85c1887feb435874b2bcc055_cgraph_org.svg" target="_base">
   <rect id="button" ry="5" rx="5" y="6" x="6" height="38" width="38"
        fill="#f2f5e9" fill-opacity="0.5" stroke="#606060" stroke-width="1.0"/>
   <path id="arrow"
     d="M 11.500037,31.436501 C 11.940474,20.09759 22.043105,11.32322 32.158766,21.979434 L 37.068811,17.246167 C 37.068811,17.246167 37.088388,32 37.088388,32 L 22.160133,31.978069 C 22.160133,31.978069 26.997745,27.140456 26.997745,27.140456 C 18.528582,18.264221 13.291696,25.230495 11.500037,31.436501 z"
     style="fill:#404040;"/>
  </a>
 </g>
</svg>

<style type='text/css'>
<![CDATA[
[data-mouse-over-selected='false'] { opacity: 0.7; }
[data-mouse-over-selected='true']  { opacity: 1.0; }
]]>
</style>
<script type="application/ecmascript"><![CDATA[
document.addEventListener('DOMContentLoaded', (event) => {
  highlightEdges();
  highlightAdjacentNodes();
});
]]></script>
</svg>
