<?xml version="1.0" encoding="UTF-8" standalone="no"?>
<!DOCTYPE svg PUBLIC "-//W3C//DTD SVG 1.1//EN"
 "http://www.w3.org/Graphics/SVG/1.1/DTD/svg11.dtd">
<!-- Generated by graphviz version 14.1.4 (20260321.0153)
 -->
<!-- Title: TestCore::testCreateOs Pages: 1 -->
<svg width="586pt" height="66pt"
 viewBox="0.00 0.00 586.00 66.00" xmlns="http://www.w3.org/2000/svg" xmlns:xlink="http://www.w3.org/1999/xlink">
<g id="graph0" class="graph" transform="scale(1 1) rotate(0) translate(4 62)">
<title>TestCore::testCreateOs</title>
<!-- Node1 -->
<g id="Node000001" class="node">
<title>Node1</title>
<g id="a_Node000001"><a xlink:title=" ">
<polygon fill="#999999" stroke="#666666" points="120.25,-39 0,-39 0,-19 120.25,-19 120.25,-39"/>
<text xml:space="preserve" text-anchor="middle" x="60.12" y="-25.5" font-family="Helvetica,sans-Serif" font-size="10.00">TestCore::testCreateOs</text>
</a>
</g>
</g>
<!-- Node2 -->
<g id="Node000002" class="node">
<title>Node2</title>
<g id="a_Node000002"><a xlink:href="classOSRepository.html#af6139a9045e4f6c8ab9b04d9d4e0ee06" target="_top" xlink:title="Cria uma nova Ordem de Serviço (OS).">
<polygon fill="white" stroke="#666666" points="269.75,-58 159.25,-58 159.25,-38 269.75,-38 269.75,-58"/>
<text xml:space="preserve" text-anchor="middle" x="214.5" y="-44.5" font-family="Helvetica,sans-Serif" font-size="10.00">OSRepository::create</text>
</a>
</g>
</g>
<!-- Node1&#45;&gt;Node2 -->
<g id="edge1_Node000001_Node000002" class="edge">
<title>Node1&#45;&gt;Node2</title>
<g id="a_edge1_Node000001_Node000002"><a xlink:title=" ">
<path fill="none" stroke="#63b8ff" d="M120.47,-36.4C129.4,-37.51 138.66,-38.67 147.72,-39.8"/>
<polygon fill="#63b8ff" stroke="#63b8ff" points="147.18,-43.26 157.54,-41.02 148.05,-36.31 147.18,-43.26"/>
</a>
</g>
</g>
<!-- Node6 -->
<g id="Node000006" class="node">
<title>Node6</title>
<g id="a_Node000006"><a xlink:href="classOSRepository.html#af02690680d93fe471b48a07ac58587a4" target="_top" xlink:title="Busca todas as OS que coincidem com os critérios.">
<polygon fill="white" stroke="#666666" points="272.75,-20 156.25,-20 156.25,0 272.75,0 272.75,-20"/>
<text xml:space="preserve" text-anchor="middle" x="214.5" y="-6.5" font-family="Helvetica,sans-Serif" font-size="10.00">OSRepository::fetchAll</text>
</a>
</g>
</g>
<!-- Node1&#45;&gt;Node6 -->
<g id="edge5_Node000001_Node000006" class="edge">
<title>Node1&#45;&gt;Node6</title>
<g id="a_edge5_Node000001_Node000006"><a xlink:title=" ">
<path fill="none" stroke="#63b8ff" d="M120.47,-21.6C128.43,-20.61 136.63,-19.58 144.73,-18.58"/>
<polygon fill="#63b8ff" stroke="#63b8ff" points="145.07,-22.06 154.56,-17.35 144.21,-15.11 145.07,-22.06"/>
</a>
</g>
</g>
<!-- Node3 -->
<g id="Node000003" class="node">
<title>Node3</title>
<g id="a_Node000003"><a xlink:href="classDatabase.html#aaf21db9254c8ed77d4d800802c987d87" target="_top" xlink:title="Recupera o objeto de conexão QSqlDatabase.">
<polygon fill="white" stroke="#666666" points="435.75,-58 308.75,-58 308.75,-38 435.75,-38 435.75,-58"/>
<text xml:space="preserve" text-anchor="middle" x="372.25" y="-44.5" font-family="Helvetica,sans-Serif" font-size="10.00">Database::getConnection</text>
</a>
</g>
</g>
<!-- Node2&#45;&gt;Node3 -->
<g id="edge2_Node000002_Node000003" class="edge">
<title>Node2&#45;&gt;Node3</title>
<g id="a_edge2_Node000002_Node000003"><a xlink:title=" ">
<path fill="none" stroke="#63b8ff" d="M269.97,-48C278.67,-48 287.8,-48 296.86,-48"/>
<polygon fill="#63b8ff" stroke="#63b8ff" points="296.76,-51.5 306.76,-48 296.76,-44.5 296.76,-51.5"/>
</a>
</g>
</g>
<!-- Node4 -->
<g id="Node000004" class="node">
<title>Node4</title>
<g id="a_Node000004"><a xlink:href="classDatabase.html#aa04e547554cc34fa4b6c5a9390021eab" target="_top" xlink:title="Obtém a instância única do Banco de Dados.">
<polygon fill="white" stroke="#666666" points="429.75,-20 314.75,-20 314.75,0 429.75,0 429.75,-20"/>
<text xml:space="preserve" text-anchor="middle" x="372.25" y="-6.5" font-family="Helvetica,sans-Serif" font-size="10.00">Database::getInstance</text>
</a>
</g>
</g>
<!-- Node2&#45;&gt;Node4 -->
<g id="edge3_Node000002_Node000004" class="edge">
<title>Node2&#45;&gt;Node4</title>
<g id="a_edge3_Node000002_Node000004"><a xlink:title=" ">
<path fill="none" stroke="#63b8ff" d="M258.47,-37.52C276.69,-33.07 298.11,-27.84 317.37,-23.15"/>
<polygon fill="#63b8ff" stroke="#63b8ff" points="318.06,-26.58 326.95,-20.81 316.4,-19.78 318.06,-26.58"/>
</a>
</g>
</g>
<!-- Node5 -->
<g id="Node000005" class="node">
<title>Node5</title>
<g id="a_Node000005"><a xlink:href="classDatabase.html#a4703c80e6969d33565ea340f768fdadf" target="_top" xlink:title=" ">
<polygon fill="white" stroke="#666666" points="577.75,-20 471.75,-20 471.75,0 577.75,0 577.75,-20"/>
<text xml:space="preserve" text-anchor="middle" x="524.75" y="-6.5" font-family="Helvetica,sans-Serif" font-size="10.00">Database::Database</text>
</a>
</g>
</g>
<!-- Node4&#45;&gt;Node5 -->
<g id="edge4_Node000004_Node000005" class="edge">
<title>Node4&#45;&gt;Node5</title>
<g id="a_edge4_Node000004_Node000005"><a xlink:title=" ">
<path fill="none" stroke="#63b8ff" d="M430.15,-10C440.07,-10 450.44,-10 460.51,-10"/>
<polygon fill="#63b8ff" stroke="#63b8ff" points="460.21,-13.5 470.21,-10 460.21,-6.5 460.21,-13.5"/>
</a>
</g>
</g>
<!-- Node6&#45;&gt;Node3 -->
<g id="edge6_Node000006_Node000003" class="edge">
<title>Node6&#45;&gt;Node3</title>
<g id="a_edge6_Node000006_Node000003"><a xlink:title=" ">
<path fill="none" stroke="#63b8ff" d="M258.47,-20.48C276.69,-24.93 298.11,-30.16 317.37,-34.85"/>
<polygon fill="#63b8ff" stroke="#63b8ff" points="316.4,-38.22 326.95,-37.19 318.06,-31.42 316.4,-38.22"/>
</a>
</g>
</g>
<!-- Node6&#45;&gt;Node4 -->
<g id="edge7_Node000006_Node000004" class="edge">
<title>Node6&#45;&gt;Node4</title>
<g id="a_edge7_Node000006_Node000004"><a xlink:title=" ">
<path fill="none" stroke="#63b8ff" d="M273.05,-10C282.87,-10 293.16,-10 303.22,-10"/>
<polygon fill="#63b8ff" stroke="#63b8ff" points="302.94,-13.5 312.94,-10 302.94,-6.5 302.94,-13.5"/>
</a>
</g>
</g>
</g>
</svg>
