<?xml version="1.0" encoding="UTF-8" standalone="no"?>
<!DOCTYPE svg PUBLIC "-//W3C//DTD SVG 1.1//EN"
 "http://www.w3.org/Graphics/SVG/1.1/DTD/svg11.dtd">
<!-- Generated by graphviz version 14.1.4 (20260321.0153)
 -->
<!-- Title: OSController::cadastrarOS Pages: 1 -->
<svg width="298pt" height="190pt"
 viewBox="0.00 0.00 298.00 190.00" xmlns="http://www.w3.org/2000/svg" xmlns:xlink="http://www.w3.org/1999/xlink">

<svg id="main" version="1.1" xmlns="http://www.w3.org/2000/svg" xmlns:xlink="http://www.w3.org/1999/xlink" xml:space="preserve">

<style type="text/css"><![CDATA[
.node, .edge {opacity: 0.7;}
.node.selected, .edge.selected {opacity: 1;}
.edge:hover path { stroke: red; }
.edge:hover polygon { stroke: red; fill: red; }
]]></style>
<script type="application/ecmascript" xlink:href="svg.min.js"/>
<svg id="graph" class="graph">
<g id="graph0" class="graph" transform="scale(1 1) rotate(0) translate(4 186)">
<title>OSController::cadastrarOS</title>
<!-- Node1 -->
<g id="Node000001" class="node">
<title>Node1</title>
<g id="a_Node000001"><a xlink:title="Cadastra uma nova OS aplicando as regras de negócio.">
<polygon fill="#999999" stroke="#666666" points="290,-101 157,-101 157,-81 290,-81 290,-101"/>
<text xml:space="preserve" text-anchor="middle" x="223.5" y="-87.5" font-family="Helvetica,sans-Serif" font-size="10.00">OSController::cadastrarOS</text>
</a>
</g>
</g>
<!-- Node2 -->
<g id="Node000002" class="node">
<title>Node2</title>
<g id="a_Node000002"><a xlink:href="classTestCore.html#a2b7af696501e25504cf71bea7aefb998" target="_top" xlink:title=" ">
<polygon fill="white" stroke="#666666" points="120.62,-182 0.38,-182 0.38,-150 120.62,-150 120.62,-182"/>
<text xml:space="preserve" text-anchor="start" x="8.38" y="-168.5" font-family="Helvetica,sans-Serif" font-size="10.00">TestCore::testController</text>
<text xml:space="preserve" text-anchor="middle" x="60.5" y="-156.5" font-family="Helvetica,sans-Serif" font-size="10.00">AtualizarStatusFalhas</text>
</a>
</g>
</g>
<!-- Node1&#45;&gt;Node2 -->
<g id="edge1_Node000001_Node000002" class="edge">
<title>Node1&#45;&gt;Node2</title>
<g id="a_edge1_Node000001_Node000002"><a xlink:title=" ">
<path fill="none" stroke="#63b8ff" d="M192.36,-106.44C172.29,-116.57 145.24,-129.95 121,-141 114.78,-143.84 108.15,-146.74 101.65,-149.52"/>
<polygon fill="#63b8ff" stroke="#63b8ff" points="193.76,-109.65 201.1,-102 190.6,-103.41 193.76,-109.65"/>
</a>
</g>
</g>
<!-- Node3 -->
<g id="Node000003" class="node">
<title>Node3</title>
<g id="a_Node000003"><a xlink:href="classTestCore.html#ae456d85773ff88a0864ccb9b3ffad71f" target="_top" xlink:title=" ">
<polygon fill="white" stroke="#666666" points="121,-132 0,-132 0,-100 121,-100 121,-132"/>
<text xml:space="preserve" text-anchor="start" x="8" y="-118.5" font-family="Helvetica,sans-Serif" font-size="10.00">TestCore::testController</text>
<text xml:space="preserve" text-anchor="middle" x="60.5" y="-106.5" font-family="Helvetica,sans-Serif" font-size="10.00">AtualizarStatusSucesso</text>
</a>
</g>
</g>
<!-- Node1&#45;&gt;Node3 -->
<g id="edge2_Node000001_Node000003" class="edge">
<title>Node1&#45;&gt;Node3</title>
<g id="a_edge2_Node000001_Node000003"><a xlink:title=" ">
<path fill="none" stroke="#63b8ff" d="M145.27,-102.99C137.25,-104.24 129.19,-105.49 121.4,-106.7"/>
<polygon fill="#63b8ff" stroke="#63b8ff" points="145.71,-106.47 155.05,-101.47 144.64,-99.55 145.71,-106.47"/>
</a>
</g>
</g>
<!-- Node4 -->
<g id="Node000004" class="node">
<title>Node4</title>
<g id="a_Node000004"><a xlink:href="classTestCore.html#a73d4212eb79fc30b49a049e9b7a5a92c" target="_top" xlink:title=" ">
<polygon fill="white" stroke="#666666" points="120.62,-82 0.38,-82 0.38,-50 120.62,-50 120.62,-82"/>
<text xml:space="preserve" text-anchor="start" x="8.38" y="-68.5" font-family="Helvetica,sans-Serif" font-size="10.00">TestCore::testController</text>
<text xml:space="preserve" text-anchor="middle" x="60.5" y="-56.5" font-family="Helvetica,sans-Serif" font-size="10.00">CadastrarFalha</text>
</a>
</g>
</g>
<!-- Node1&#45;&gt;Node4 -->
<g id="edge3_Node000001_Node000004" class="edge">
<title>Node1&#45;&gt;Node4</title>
<g id="a_edge3_Node000001_Node000004"><a xlink:title=" ">
<path fill="none" stroke="#63b8ff" d="M145.38,-79.03C137.15,-77.75 128.87,-76.46 120.89,-75.22"/>
<polygon fill="#63b8ff" stroke="#63b8ff" points="144.64,-82.45 155.05,-80.53 145.71,-75.53 144.64,-82.45"/>
</a>
</g>
</g>
<!-- Node5 -->
<g id="Node000005" class="node">
<title>Node5</title>
<g id="a_Node000005"><a xlink:href="classTestCore.html#a2db7bb70351feec0b7718fc63e684b58" target="_top" xlink:title=" ">
<polygon fill="white" stroke="#666666" points="120.62,-32 0.38,-32 0.38,0 120.62,0 120.62,-32"/>
<text xml:space="preserve" text-anchor="start" x="8.38" y="-18.5" font-family="Helvetica,sans-Serif" font-size="10.00">TestCore::testController</text>
<text xml:space="preserve" text-anchor="middle" x="60.5" y="-6.5" font-family="Helvetica,sans-Serif" font-size="10.00">CadastrarSucesso</text>
</a>
</g>
</g>
<!-- Node1&#45;&gt;Node5 -->
<g id="edge4_Node000001_Node000005" class="edge">
<title>Node1&#45;&gt;Node5</title>
<g id="a_edge4_Node000001_Node000005"><a xlink:title=" ">
<path fill="none" stroke="#63b8ff" d="M192.36,-75.56C172.29,-65.43 145.24,-52.05 121,-41 114.78,-38.16 108.15,-35.26 101.65,-32.48"/>
<polygon fill="#63b8ff" stroke="#63b8ff" points="190.6,-78.59 201.1,-80 193.76,-72.35 190.6,-78.59"/>
</a>
</g>
</g>
</g>
</svg>
</svg>

<style type='text/css'>
<![CDATA[
[data-mouse-over-selected='false'] { opacity: 0.7; }
[data-mouse-over-selected='true']  { opacity: 1.0; }
]]>
</style>
<script type="application/ecmascript"><![CDATA[
document.addEventListener('DOMContentLoaded', (event) => {
  highlightEdges();
  highlightAdjacentNodes();
});
]]></script>
</svg>
