<?xml version="1.0" encoding="UTF-8" standalone="no"?>
<!DOCTYPE svg PUBLIC "-//W3C//DTD SVG 1.1//EN"
 "http://www.w3.org/Graphics/SVG/1.1/DTD/svg11.dtd">
<!-- Generated by graphviz version 14.1.4 (20260321.0153)
 -->
<!-- Title: MarmoManagerApp::setupCadastroTab Pages: 1 -->
<svg width="604pt" height="28pt"
 viewBox="0.00 0.00 604.00 28.00" xmlns="http://www.w3.org/2000/svg" xmlns:xlink="http://www.w3.org/1999/xlink">
<g id="graph0" class="graph" transform="scale(1 1) rotate(0) translate(4 24)">
<title>MarmoManagerApp::setupCadastroTab</title>
<!-- Node1 -->
<g id="Node000001" class="node">
<title>Node1</title>
<g id="a_Node000001"><a xlink:title=" ">
<polygon fill="#999999" stroke="#666666" points="186.25,-20 0,-20 0,0 186.25,0 186.25,-20"/>
<text xml:space="preserve" text-anchor="middle" x="93.12" y="-6.5" font-family="Helvetica,sans-Serif" font-size="10.00">MarmoManagerApp::setupCadastroTab</text>
</a>
</g>
</g>
<!-- Node2 -->
<g id="Node000002" class="node">
<title>Node2</title>
<g id="a_Node000002"><a xlink:href="classMarmoManagerApp.html#abe6179ce37dbb78c1dc320a9ce6bb658" target="_top" xlink:title=" ">
<polygon fill="white" stroke="#666666" points="369.5,-20 222.25,-20 222.25,0 369.5,0 369.5,-20"/>
<text xml:space="preserve" text-anchor="middle" x="295.88" y="-6.5" font-family="Helvetica,sans-Serif" font-size="10.00">MarmoManagerApp::salvarOS</text>
</a>
</g>
</g>
<!-- Node1&#45;&gt;Node2 -->
<g id="edge1_Node000001_Node000002" class="edge">
<title>Node1&#45;&gt;Node2</title>
<g id="a_edge1_Node000001_Node000002"><a xlink:title=" ">
<path fill="none" stroke="#63b8ff" d="M186.57,-10C194.52,-10 202.54,-10 210.42,-10"/>
<polygon fill="#63b8ff" stroke="#63b8ff" points="210.34,-13.5 220.34,-10 210.34,-6.5 210.34,-13.5"/>
</a>
</g>
</g>
<!-- Node3 -->
<g id="Node000003" class="node">
<title>Node3</title>
<g id="a_Node000003"><a xlink:href="classMarmoManagerApp.html#abdb2159fa5062a8a4586def7783ca91d" target="_top" xlink:title=" ">
<polygon fill="white" stroke="#666666" points="595.5,-20 405.5,-20 405.5,0 595.5,0 595.5,-20"/>
<text xml:space="preserve" text-anchor="middle" x="500.5" y="-6.5" font-family="Helvetica,sans-Serif" font-size="10.00">MarmoManagerApp::clearCadastroForm</text>
</a>
</g>
</g>
<!-- Node2&#45;&gt;Node3 -->
<g id="edge2_Node000002_Node000003" class="edge">
<title>Node2&#45;&gt;Node3</title>
<g id="a_edge2_Node000002_Node000003"><a xlink:title=" ">
<path fill="none" stroke="#63b8ff" d="M369.74,-10C377.53,-10 385.56,-10 393.63,-10"/>
<polygon fill="#63b8ff" stroke="#63b8ff" points="393.54,-13.5 403.54,-10 393.54,-6.5 393.54,-13.5"/>
</a>
</g>
</g>
</g>
</svg>
