<?xml version="1.0" encoding="UTF-8" standalone="no"?>
<!DOCTYPE svg PUBLIC "-//W3C//DTD SVG 1.1//EN"
 "http://www.w3.org/Graphics/SVG/1.1/DTD/svg11.dtd">
<!-- Generated by graphviz version 14.1.4 (20260321.0153)
 -->
<!-- Title: OSController Pages: 1 -->
<svg width="222pt" height="278pt"
 viewBox="0.00 0.00 222.00 278.00" xmlns="http://www.w3.org/2000/svg" xmlns:xlink="http://www.w3.org/1999/xlink">
<g id="graph0" class="graph" transform="scale(1 1) rotate(0) translate(4 274)">
<title>OSController</title>
<!-- Node1 -->
<g id="Node000001" class="node">
<title>Node1</title>
<g id="a_Node000001"><a xlink:title="Classe Controller na arquitetura MVC. Gerencia toda a lógica de negócios da aplicação.">
<polygon fill="#999999" stroke="none" points="152.5,-116 49,-116 49,0 152.5,0 152.5,-116"/>
<text xml:space="preserve" text-anchor="start" x="72.62" y="-102.25" font-family="Helvetica,sans-Serif" font-size="10.00">OSController</text>
<text xml:space="preserve" text-anchor="start" x="99.25" y="-86.25" font-family="Helvetica,sans-Serif" font-size="10.00"> </text>
<text xml:space="preserve" text-anchor="start" x="53" y="-70.25" font-family="Helvetica,sans-Serif" font-size="10.00">+</text>
<text xml:space="preserve" text-anchor="start" x="63" y="-70.25" font-family="Helvetica,sans-Serif" font-size="10.00">OSController()</text>
<text xml:space="preserve" text-anchor="start" x="53" y="-54.25" font-family="Helvetica,sans-Serif" font-size="10.00">+</text>
<text xml:space="preserve" text-anchor="start" x="63" y="-54.25" font-family="Helvetica,sans-Serif" font-size="10.00">cadastrarOS()</text>
<text xml:space="preserve" text-anchor="start" x="53" y="-38.25" font-family="Helvetica,sans-Serif" font-size="10.00">+</text>
<text xml:space="preserve" text-anchor="start" x="63" y="-38.25" font-family="Helvetica,sans-Serif" font-size="10.00">atualizarStatusOS()</text>
<text xml:space="preserve" text-anchor="start" x="53" y="-22.25" font-family="Helvetica,sans-Serif" font-size="10.00">+</text>
<text xml:space="preserve" text-anchor="start" x="63" y="-22.25" font-family="Helvetica,sans-Serif" font-size="10.00">listarOS()</text>
<text xml:space="preserve" text-anchor="start" x="53" y="-6.25" font-family="Helvetica,sans-Serif" font-size="10.00">+</text>
<text xml:space="preserve" text-anchor="start" x="63" y="-6.25" font-family="Helvetica,sans-Serif" font-size="10.00">obterHistorico()</text>
<polygon fill="#666666" stroke="#666666" points="49,-98 49,-98 152.5,-98 152.5,-98 49,-98"/>
<polygon fill="#666666" stroke="#666666" points="49,-82 49,-82 152.5,-82 152.5,-82 49,-82"/>
<polygon fill="none" stroke="#666666" points="49,0 49,-116 152.5,-116 152.5,0 49,0"/>
</a>
</g>
</g>
<!-- Node2 -->
<g id="Node000002" class="node">
<title>Node2</title>
<g id="a_Node000002"><a xlink:href="classOSRepository.html" target="_top" xlink:title="Data Access Object (DAO) para as entidades OS.">
<polygon fill="white" stroke="none" points="85.5,-270 0,-270 0,-170 85.5,-170 85.5,-270"/>
<text xml:space="preserve" text-anchor="start" x="12" y="-256.25" font-family="Helvetica,sans-Serif" font-size="10.00">OSRepository</text>
<text xml:space="preserve" text-anchor="start" x="41.25" y="-240.25" font-family="Helvetica,sans-Serif" font-size="10.00"> </text>
<text xml:space="preserve" text-anchor="start" x="4" y="-224.25" font-family="Helvetica,sans-Serif" font-size="10.00">+</text>
<text xml:space="preserve" text-anchor="start" x="14" y="-224.25" font-family="Helvetica,sans-Serif" font-size="10.00">OSRepository()</text>
<text xml:space="preserve" text-anchor="start" x="4" y="-208.25" font-family="Helvetica,sans-Serif" font-size="10.00">+</text>
<text xml:space="preserve" text-anchor="start" x="14" y="-208.25" font-family="Helvetica,sans-Serif" font-size="10.00">create()</text>
<text xml:space="preserve" text-anchor="start" x="4" y="-192.25" font-family="Helvetica,sans-Serif" font-size="10.00">+</text>
<text xml:space="preserve" text-anchor="start" x="14" y="-192.25" font-family="Helvetica,sans-Serif" font-size="10.00">updateStatus()</text>
<text xml:space="preserve" text-anchor="start" x="4" y="-176.25" font-family="Helvetica,sans-Serif" font-size="10.00">+</text>
<text xml:space="preserve" text-anchor="start" x="14" y="-176.25" font-family="Helvetica,sans-Serif" font-size="10.00">fetchAll()</text>
<polygon fill="#666666" stroke="#666666" points="0,-252 0,-252 85.5,-252 85.5,-252 0,-252"/>
<polygon fill="#666666" stroke="#666666" points="0,-236 0,-236 85.5,-236 85.5,-236 0,-236"/>
<polygon fill="none" stroke="#666666" points="0,-170 0,-270 85.5,-270 85.5,-170 0,-170"/>
</a>
</g>
</g>
<!-- Node2&#45;&gt;Node1 -->
<g id="edge1_Node000001_Node000002" class="edge">
<title>Node2&#45;&gt;Node1</title>
<g id="a_edge1_Node000001_Node000002"><a xlink:title=" ">
<path fill="none" stroke="#63b8ff" d="M60.47,-170.13C65.26,-156.9 70.54,-142.34 75.65,-128.23"/>
<polygon fill="none" stroke="#63b8ff" points="75.69,-128.12 73.98,-121.12 79.78,-116.84 81.5,-123.85 75.69,-128.12"/>
</a>
</g>
<text xml:space="preserve" text-anchor="start" x="76.49" y="-139.25" font-family="Helvetica,sans-Serif" font-size="10.00" fill="grey">&#45;m_osRepo</text>
</g>
<!-- Node3 -->
<g id="Node000003" class="node">
<title>Node3</title>
<g id="a_Node000003"><a xlink:href="classHistoricoRepository.html" target="_top" xlink:title="Data Access Object (DAO) para o Histórico de OS.">
<polygon fill="white" stroke="none" points="213.88,-262 103.62,-262 103.62,-178 213.88,-178 213.88,-262"/>
<text xml:space="preserve" text-anchor="start" x="115.62" y="-248.25" font-family="Helvetica,sans-Serif" font-size="10.00">HistoricoRepository</text>
<text xml:space="preserve" text-anchor="start" x="157.25" y="-232.25" font-family="Helvetica,sans-Serif" font-size="10.00"> </text>
<text xml:space="preserve" text-anchor="start" x="107.62" y="-216.25" font-family="Helvetica,sans-Serif" font-size="10.00">+</text>
<text xml:space="preserve" text-anchor="start" x="117.62" y="-216.25" font-family="Helvetica,sans-Serif" font-size="10.00">HistoricoRepository()</text>
<text xml:space="preserve" text-anchor="start" x="107.62" y="-200.25" font-family="Helvetica,sans-Serif" font-size="10.00">+</text>
<text xml:space="preserve" text-anchor="start" x="117.62" y="-200.25" font-family="Helvetica,sans-Serif" font-size="10.00">create()</text>
<text xml:space="preserve" text-anchor="start" x="107.62" y="-184.25" font-family="Helvetica,sans-Serif" font-size="10.00">+</text>
<text xml:space="preserve" text-anchor="start" x="117.62" y="-184.25" font-family="Helvetica,sans-Serif" font-size="10.00">getByOsId()</text>
<polygon fill="#666666" stroke="#666666" points="103.62,-244 103.62,-244 213.88,-244 213.88,-244 103.62,-244"/>
<polygon fill="#666666" stroke="#666666" points="103.62,-228 103.62,-228 213.88,-228 213.88,-228 103.62,-228"/>
<polygon fill="none" stroke="#666666" points="103.62,-178 103.62,-262 213.88,-262 213.88,-178 103.62,-178"/>
</a>
</g>
</g>
<!-- Node3&#45;&gt;Node1 -->
<g id="edge2_Node000001_Node000003" class="edge">
<title>Node3&#45;&gt;Node1</title>
<g id="a_edge2_Node000001_Node000003"><a xlink:title=" ">
<path fill="none" stroke="#63b8ff" d="M147.85,-178.01C143.8,-163.93 138.92,-148.16 133.75,-134 132.96,-131.84 132.14,-129.65 131.29,-127.45"/>
<polygon fill="none" stroke="#63b8ff" points="131.35,-127.59 125.41,-123.5 126.91,-116.45 132.84,-120.54 131.35,-127.59"/>
</a>
</g>
<text xml:space="preserve" text-anchor="start" x="142.28" y="-139.25" font-family="Helvetica,sans-Serif" font-size="10.00" fill="grey">&#45;m_histRepo</text>
</g>
</g>
</svg>
