<?xml version="1.0" encoding="UTF-8" standalone="no"?>
<!DOCTYPE svg PUBLIC "-//W3C//DTD SVG 1.1//EN"
 "http://www.w3.org/Graphics/SVG/1.1/DTD/svg11.dtd">
<!-- Generated by graphviz version 14.1.4 (20260321.0153)
 -->
<!-- Title: StatusHistoryDialog Pages: 1 -->
<svg width="252pt" height="416pt"
 viewBox="0.00 0.00 252.00 416.00" xmlns="http://www.w3.org/2000/svg" xmlns:xlink="http://www.w3.org/1999/xlink">

<svg id="main" version="1.1" xmlns="http://www.w3.org/2000/svg" xmlns:xlink="http://www.w3.org/1999/xlink" xml:space="preserve">

<style type="text/css"><![CDATA[
.node, .edge {opacity: 0.7;}
.node.selected, .edge.selected {opacity: 1;}
.edge:hover path { stroke: red; }
.edge:hover polygon { stroke: red; fill: red; }
]]></style>
<script type="application/ecmascript" xlink:href="svg.min.js"/>
<svg id="graph" class="graph">
<g id="graph0" class="graph" transform="scale(1 1) rotate(0) translate(4 412)">
<title>StatusHistoryDialog</title>
<!-- Node1 -->
<g id="Node000001" class="node">
<title>Node1</title>
<g id="a_Node000001"><a xlink:title="Dialog (janela modal) para exibir o histórico da OS.">
<polygon fill="#999999" stroke="none" points="111.75,-84 0,-84 0,0 111.75,0 111.75,-84"/>
<text xml:space="preserve" text-anchor="start" x="12" y="-70.25" font-family="Helvetica,sans-Serif" font-size="10.00">StatusHistoryDialog</text>
<text xml:space="preserve" text-anchor="start" x="5.5" y="-54.25" font-family="Helvetica,sans-Serif" font-size="10.00">&#45;</text>
<text xml:space="preserve" text-anchor="start" x="14" y="-54.25" font-family="Helvetica,sans-Serif" font-size="10.00">m_osId</text>
<text xml:space="preserve" text-anchor="start" x="5.5" y="-38.25" font-family="Helvetica,sans-Serif" font-size="10.00">&#45;</text>
<text xml:space="preserve" text-anchor="start" x="14" y="-38.25" font-family="Helvetica,sans-Serif" font-size="10.00">m_table</text>
<text xml:space="preserve" text-anchor="start" x="4" y="-22.25" font-family="Helvetica,sans-Serif" font-size="10.00">+</text>
<text xml:space="preserve" text-anchor="start" x="14" y="-22.25" font-family="Helvetica,sans-Serif" font-size="10.00">StatusHistoryDialog()</text>
<text xml:space="preserve" text-anchor="start" x="5.5" y="-6.25" font-family="Helvetica,sans-Serif" font-size="10.00">&#45;</text>
<text xml:space="preserve" text-anchor="start" x="14" y="-6.25" font-family="Helvetica,sans-Serif" font-size="10.00">loadHistory()</text>
<polygon fill="#666666" stroke="#666666" points="0,-66 0,-66 111.75,-66 111.75,-66 0,-66"/>
<polygon fill="#666666" stroke="#666666" points="0,-34 0,-34 12,-34 12,-34 0,-34"/>
<polygon fill="#666666" stroke="#666666" points="12,-34 12,-34 111.75,-34 111.75,-34 12,-34"/>
<polygon fill="none" stroke="#666666" points="0,0 0,-84 111.75,-84 111.75,0 0,0"/>
</a>
</g>
</g>
<!-- Node2 -->
<g id="Node000002" class="node">
<title>Node2</title>
<g id="a_Node000002"><a xlink:title=" ">
<polygon fill="white" stroke="none" points="61.5,-222 18.25,-222 18.25,-170 61.5,-170 61.5,-222"/>
<text xml:space="preserve" text-anchor="start" x="22.25" y="-208.25" font-family="Helvetica,sans-Serif" font-size="10.00">QDialog</text>
<text xml:space="preserve" text-anchor="start" x="38.38" y="-192.25" font-family="Helvetica,sans-Serif" font-size="10.00"> </text>
<text xml:space="preserve" text-anchor="start" x="38.38" y="-176.25" font-family="Helvetica,sans-Serif" font-size="10.00"> </text>
<polygon fill="#666666" stroke="#666666" points="18.25,-204 18.25,-204 61.5,-204 61.5,-204 18.25,-204"/>
<polygon fill="#666666" stroke="#666666" points="18.25,-188 18.25,-188 61.5,-188 61.5,-188 18.25,-188"/>
<polygon fill="none" stroke="#666666" points="18.25,-170 18.25,-222 61.5,-222 61.5,-170 18.25,-170"/>
</a>
</g>
</g>
<!-- Node2&#45;&gt;Node1 -->
<g id="edge1_Node000001_Node000002" class="edge">
<title>Node2&#45;&gt;Node1</title>
<g id="a_edge1_Node000001_Node000002"><a xlink:title=" ">
<path fill="none" stroke="#63b8ff" d="M43.65,-159.09C46.03,-136.49 49.11,-107.26 51.58,-83.78"/>
<polygon fill="none" stroke="#63b8ff" points="40.21,-158.42 42.64,-168.74 47.17,-159.16 40.21,-158.42"/>
</a>
</g>
</g>
<!-- Node3 -->
<g id="Node000003" class="node">
<title>Node3</title>
<g id="a_Node000003"><a xlink:href="classOSController.html" target="_top" xlink:title="Classe Controller na arquitetura MVC. Gerencia toda a lógica de negócios da aplicação.">
<polygon fill="white" stroke="none" points="182.62,-254 79.12,-254 79.12,-138 182.62,-138 182.62,-254"/>
<text xml:space="preserve" text-anchor="start" x="102.75" y="-240.25" font-family="Helvetica,sans-Serif" font-size="10.00">OSController</text>
<text xml:space="preserve" text-anchor="start" x="129.38" y="-224.25" font-family="Helvetica,sans-Serif" font-size="10.00"> </text>
<text xml:space="preserve" text-anchor="start" x="83.12" y="-208.25" font-family="Helvetica,sans-Serif" font-size="10.00">+</text>
<text xml:space="preserve" text-anchor="start" x="93.12" y="-208.25" font-family="Helvetica,sans-Serif" font-size="10.00">OSController()</text>
<text xml:space="preserve" text-anchor="start" x="83.12" y="-192.25" font-family="Helvetica,sans-Serif" font-size="10.00">+</text>
<text xml:space="preserve" text-anchor="start" x="93.12" y="-192.25" font-family="Helvetica,sans-Serif" font-size="10.00">cadastrarOS()</text>
<text xml:space="preserve" text-anchor="start" x="83.12" y="-176.25" font-family="Helvetica,sans-Serif" font-size="10.00">+</text>
<text xml:space="preserve" text-anchor="start" x="93.12" y="-176.25" font-family="Helvetica,sans-Serif" font-size="10.00">atualizarStatusOS()</text>
<text xml:space="preserve" text-anchor="start" x="83.12" y="-160.25" font-family="Helvetica,sans-Serif" font-size="10.00">+</text>
<text xml:space="preserve" text-anchor="start" x="93.12" y="-160.25" font-family="Helvetica,sans-Serif" font-size="10.00">listarOS()</text>
<text xml:space="preserve" text-anchor="start" x="83.12" y="-144.25" font-family="Helvetica,sans-Serif" font-size="10.00">+</text>
<text xml:space="preserve" text-anchor="start" x="93.12" y="-144.25" font-family="Helvetica,sans-Serif" font-size="10.00">obterHistorico()</text>
<polygon fill="#666666" stroke="#666666" points="79.12,-236 79.12,-236 182.62,-236 182.62,-236 79.12,-236"/>
<polygon fill="#666666" stroke="#666666" points="79.12,-220 79.12,-220 182.62,-220 182.62,-220 79.12,-220"/>
<polygon fill="none" stroke="#666666" points="79.12,-138 79.12,-254 182.62,-254 182.62,-138 79.12,-138"/>
</a>
</g>
</g>
<!-- Node3&#45;&gt;Node1 -->
<g id="edge2_Node000001_Node000003" class="edge">
<title>Node3&#45;&gt;Node1</title>
<g id="a_edge2_Node000001_Node000003"><a xlink:title=" ">
<path fill="none" stroke="#63b8ff" d="M102.95,-138.4C95.98,-124.29 88.55,-109.22 81.69,-95.33"/>
<polygon fill="none" stroke="#63b8ff" points="81.8,-95.55 75.56,-91.94 76.49,-84.79 82.73,-88.4 81.8,-95.55"/>
</a>
</g>
<text xml:space="preserve" text-anchor="start" x="96.38" y="-107.25" font-family="Helvetica,sans-Serif" font-size="10.00" fill="grey">&#45;m_controller</text>
</g>
<!-- Node4 -->
<g id="Node000004" class="node">
<title>Node4</title>
<g id="a_Node000004"><a xlink:href="classOSRepository.html" target="_top" xlink:title="Data Access Object (DAO) para as entidades OS.">
<polygon fill="white" stroke="none" points="115.62,-408 30.12,-408 30.12,-308 115.62,-308 115.62,-408"/>
<text xml:space="preserve" text-anchor="start" x="42.12" y="-394.25" font-family="Helvetica,sans-Serif" font-size="10.00">OSRepository</text>
<text xml:space="preserve" text-anchor="start" x="71.38" y="-378.25" font-family="Helvetica,sans-Serif" font-size="10.00"> </text>
<text xml:space="preserve" text-anchor="start" x="34.12" y="-362.25" font-family="Helvetica,sans-Serif" font-size="10.00">+</text>
<text xml:space="preserve" text-anchor="start" x="44.12" y="-362.25" font-family="Helvetica,sans-Serif" font-size="10.00">OSRepository()</text>
<text xml:space="preserve" text-anchor="start" x="34.12" y="-346.25" font-family="Helvetica,sans-Serif" font-size="10.00">+</text>
<text xml:space="preserve" text-anchor="start" x="44.12" y="-346.25" font-family="Helvetica,sans-Serif" font-size="10.00">create()</text>
<text xml:space="preserve" text-anchor="start" x="34.12" y="-330.25" font-family="Helvetica,sans-Serif" font-size="10.00">+</text>
<text xml:space="preserve" text-anchor="start" x="44.12" y="-330.25" font-family="Helvetica,sans-Serif" font-size="10.00">updateStatus()</text>
<text xml:space="preserve" text-anchor="start" x="34.12" y="-314.25" font-family="Helvetica,sans-Serif" font-size="10.00">+</text>
<text xml:space="preserve" text-anchor="start" x="44.12" y="-314.25" font-family="Helvetica,sans-Serif" font-size="10.00">fetchAll()</text>
<polygon fill="#666666" stroke="#666666" points="30.12,-390 30.12,-390 115.62,-390 115.62,-390 30.12,-390"/>
<polygon fill="#666666" stroke="#666666" points="30.12,-374 30.12,-374 115.62,-374 115.62,-374 30.12,-374"/>
<polygon fill="none" stroke="#666666" points="30.12,-308 30.12,-408 115.62,-408 115.62,-308 30.12,-308"/>
</a>
</g>
</g>
<!-- Node4&#45;&gt;Node3 -->
<g id="edge3_Node000003_Node000004" class="edge">
<title>Node4&#45;&gt;Node3</title>
<g id="a_edge3_Node000003_Node000004"><a xlink:title=" ">
<path fill="none" stroke="#63b8ff" d="M90.59,-308.13C95.38,-294.9 100.66,-280.34 105.78,-266.23"/>
<polygon fill="none" stroke="#63b8ff" points="105.82,-266.12 104.1,-259.12 109.91,-254.84 111.62,-261.85 105.82,-266.12"/>
</a>
</g>
<text xml:space="preserve" text-anchor="start" x="106.61" y="-277.25" font-family="Helvetica,sans-Serif" font-size="10.00" fill="grey">&#45;m_osRepo</text>
</g>
<!-- Node5 -->
<g id="Node000005" class="node">
<title>Node5</title>
<g id="a_Node000005"><a xlink:href="classHistoricoRepository.html" target="_top" xlink:title="Data Access Object (DAO) para o Histórico de OS.">
<polygon fill="white" stroke="none" points="244,-400 133.75,-400 133.75,-316 244,-316 244,-400"/>
<text xml:space="preserve" text-anchor="start" x="145.75" y="-386.25" font-family="Helvetica,sans-Serif" font-size="10.00">HistoricoRepository</text>
<text xml:space="preserve" text-anchor="start" x="187.38" y="-370.25" font-family="Helvetica,sans-Serif" font-size="10.00"> </text>
<text xml:space="preserve" text-anchor="start" x="137.75" y="-354.25" font-family="Helvetica,sans-Serif" font-size="10.00">+</text>
<text xml:space="preserve" text-anchor="start" x="147.75" y="-354.25" font-family="Helvetica,sans-Serif" font-size="10.00">HistoricoRepository()</text>
<text xml:space="preserve" text-anchor="start" x="137.75" y="-338.25" font-family="Helvetica,sans-Serif" font-size="10.00">+</text>
<text xml:space="preserve" text-anchor="start" x="147.75" y="-338.25" font-family="Helvetica,sans-Serif" font-size="10.00">create()</text>
<text xml:space="preserve" text-anchor="start" x="137.75" y="-322.25" font-family="Helvetica,sans-Serif" font-size="10.00">+</text>
<text xml:space="preserve" text-anchor="start" x="147.75" y="-322.25" font-family="Helvetica,sans-Serif" font-size="10.00">getByOsId()</text>
<polygon fill="#666666" stroke="#666666" points="133.75,-382 133.75,-382 244,-382 244,-382 133.75,-382"/>
<polygon fill="#666666" stroke="#666666" points="133.75,-366 133.75,-366 244,-366 244,-366 133.75,-366"/>
<polygon fill="none" stroke="#666666" points="133.75,-316 133.75,-400 244,-400 244,-316 133.75,-316"/>
</a>
</g>
</g>
<!-- Node5&#45;&gt;Node3 -->
<g id="edge4_Node000003_Node000005" class="edge">
<title>Node5&#45;&gt;Node3</title>
<g id="a_edge4_Node000003_Node000005"><a xlink:title=" ">
<path fill="none" stroke="#63b8ff" d="M177.97,-316.01C173.92,-301.93 169.05,-286.16 163.88,-272 163.09,-269.84 162.26,-267.65 161.42,-265.45"/>
<polygon fill="none" stroke="#63b8ff" points="161.47,-265.59 155.54,-261.5 157.03,-254.45 162.97,-258.54 161.47,-265.59"/>
</a>
</g>
<text xml:space="preserve" text-anchor="start" x="172.41" y="-277.25" font-family="Helvetica,sans-Serif" font-size="10.00" fill="grey">&#45;m_histRepo</text>
</g>
</g>
</svg>
</svg>

<style type='text/css'>
<![CDATA[
[data-mouse-over-selected='false'] { opacity: 0.7; }
[data-mouse-over-selected='true']  { opacity: 1.0; }
]]>
</style>
<script type="application/ecmascript"><![CDATA[
document.addEventListener('DOMContentLoaded', (event) => {
  highlightEdges();
  highlightAdjacentNodes();
});
]]></script>
</svg>
