<?xml version="1.0" encoding="UTF-8" standalone="no"?>
<!DOCTYPE svg PUBLIC "-//W3C//DTD SVG 1.1//EN"
 "http://www.w3.org/Graphics/SVG/1.1/DTD/svg11.dtd">
<!-- Generated by graphviz version 14.1.4 (20260321.0153)
 -->
<!-- Title: Database::getInstance Pages: 1 -->
<svg width="457pt" height="356pt"
 viewBox="0.00 0.00 457.00 356.00" xmlns="http://www.w3.org/2000/svg" xmlns:xlink="http://www.w3.org/1999/xlink">
<g id="graph0" class="graph" transform="scale(1 1) rotate(0) translate(4 352)">
<title>Database::getInstance</title>
<!-- Node1 -->
<g id="Node000001" class="node">
<title>Node1</title>
<g id="a_Node000001"><a xlink:title="Obtém a instância única do Banco de Dados.">
<polygon fill="#999999" stroke="#666666" points="448.5,-172 333.5,-172 333.5,-152 448.5,-152 448.5,-172"/>
<text xml:space="preserve" text-anchor="middle" x="391" y="-158.5" font-family="Helvetica,sans-Serif" font-size="10.00">Database::getInstance</text>
</a>
</g>
</g>
<!-- Node2 -->
<g id="Node000002" class="node">
<title>Node2</title>
<g id="a_Node000002"><a xlink:href="classHistoricoRepository.html#adc29f7e094d6b1155ff82a08c77de8b9" target="_top" xlink:title="Cria um novo registro de histórico.">
<polygon fill="white" stroke="#666666" points="278,-348 175.75,-348 175.75,-316 278,-316 278,-348"/>
<text xml:space="preserve" text-anchor="start" x="183.75" y="-334.5" font-family="Helvetica,sans-Serif" font-size="10.00">HistoricoRepository</text>
<text xml:space="preserve" text-anchor="middle" x="226.88" y="-322.5" font-family="Helvetica,sans-Serif" font-size="10.00">::create</text>
</a>
</g>
</g>
<!-- Node1&#45;&gt;Node2 -->
<g id="edge1_Node000001_Node000002" class="edge">
<title>Node1&#45;&gt;Node2</title>
<g id="a_edge1_Node000001_Node000002"><a xlink:title=" ">
<path fill="none" stroke="#63b8ff" d="M381.88,-182.96C368.73,-214.25 339.91,-273.13 297.5,-307 291.78,-311.57 285.15,-315.34 278.31,-318.45"/>
<polygon fill="#63b8ff" stroke="#63b8ff" points="385.07,-184.41 385.58,-173.83 378.58,-181.78 385.07,-184.41"/>
</a>
</g>
</g>
<!-- Node4 -->
<g id="Node000004" class="node">
<title>Node4</title>
<g id="a_Node000004"><a xlink:href="classOSRepository.html#af6139a9045e4f6c8ab9b04d9d4e0ee06" target="_top" xlink:title="Cria uma nova Ordem de Serviço (OS).">
<polygon fill="white" stroke="#666666" points="282.12,-210 171.62,-210 171.62,-190 282.12,-190 282.12,-210"/>
<text xml:space="preserve" text-anchor="middle" x="226.88" y="-196.5" font-family="Helvetica,sans-Serif" font-size="10.00">OSRepository::create</text>
</a>
</g>
</g>
<!-- Node1&#45;&gt;Node4 -->
<g id="edge3_Node000001_Node000004" class="edge">
<title>Node1&#45;&gt;Node4</title>
<g id="a_edge3_Node000001_Node000004"><a xlink:title=" ">
<path fill="none" stroke="#63b8ff" d="M334.32,-175.05C314.12,-179.78 291.58,-185.07 272.46,-189.55"/>
<polygon fill="#63b8ff" stroke="#63b8ff" points="334.86,-178.52 343.8,-172.83 333.26,-171.7 334.86,-178.52"/>
</a>
</g>
</g>
<!-- Node6 -->
<g id="Node000006" class="node">
<title>Node6</title>
<g id="a_Node000006"><a xlink:href="classOSRepository.html#af02690680d93fe471b48a07ac58587a4" target="_top" xlink:title="Busca todas as OS que coincidem com os critérios.">
<polygon fill="white" stroke="#666666" points="285.12,-20 168.62,-20 168.62,0 285.12,0 285.12,-20"/>
<text xml:space="preserve" text-anchor="middle" x="226.88" y="-6.5" font-family="Helvetica,sans-Serif" font-size="10.00">OSRepository::fetchAll</text>
</a>
</g>
</g>
<!-- Node1&#45;&gt;Node6 -->
<g id="edge6_Node000001_Node000006" class="edge">
<title>Node1&#45;&gt;Node6</title>
<g id="a_edge6_Node000001_Node000006"><a xlink:title=" ">
<path fill="none" stroke="#63b8ff" d="M381.34,-141.56C367.82,-112.15 338.88,-58.21 297.5,-29 292.59,-25.53 287.07,-22.7 281.34,-20.38"/>
<polygon fill="#63b8ff" stroke="#63b8ff" points="378.04,-142.75 385.29,-150.48 384.44,-139.92 378.04,-142.75"/>
</a>
</g>
</g>
<!-- Node7 -->
<g id="Node000007" class="node">
<title>Node7</title>
<g id="a_Node000007"><a xlink:href="classHistoricoRepository.html#ae1c14be64e7574ab5b919e6ab5fe6e83" target="_top" xlink:title="Busca o histórico para uma dada OS.">
<polygon fill="white" stroke="#666666" points="278,-298 175.75,-298 175.75,-266 278,-266 278,-298"/>
<text xml:space="preserve" text-anchor="start" x="183.75" y="-284.5" font-family="Helvetica,sans-Serif" font-size="10.00">HistoricoRepository</text>
<text xml:space="preserve" text-anchor="middle" x="226.88" y="-272.5" font-family="Helvetica,sans-Serif" font-size="10.00">::getByOsId</text>
</a>
</g>
</g>
<!-- Node1&#45;&gt;Node7 -->
<g id="edge8_Node000001_Node000007" class="edge">
<title>Node1&#45;&gt;Node7</title>
<g id="a_edge8_Node000001_Node000007"><a xlink:title=" ">
<path fill="none" stroke="#63b8ff" d="M375.58,-181.4C358.9,-202.62 329.59,-236.35 297.5,-257 291.56,-260.82 284.96,-264.16 278.25,-267.03"/>
<polygon fill="#63b8ff" stroke="#63b8ff" points="378.28,-183.62 381.59,-173.56 372.73,-179.36 378.28,-183.62"/>
</a>
</g>
</g>
<!-- Node8 -->
<g id="Node000008" class="node">
<title>Node8</title>
<g id="a_Node000008"><a xlink:href="classTestCore.html#aea614e8fdb8b52361fcd091fb9b4d4be" target="_top" xlink:title=" ">
<polygon fill="white" stroke="#666666" points="285.12,-172 168.62,-172 168.62,-152 285.12,-152 285.12,-172"/>
<text xml:space="preserve" text-anchor="middle" x="226.88" y="-158.5" font-family="Helvetica,sans-Serif" font-size="10.00">TestCore::initTestCase</text>
</a>
</g>
</g>
<!-- Node1&#45;&gt;Node8 -->
<g id="edge10_Node000001_Node000008" class="edge">
<title>Node1&#45;&gt;Node8</title>
<g id="a_edge10_Node000001_Node000008"><a xlink:title=" ">
<path fill="none" stroke="#63b8ff" d="M321.82,-162C309.69,-162 297.17,-162 285.37,-162"/>
<polygon fill="#63b8ff" stroke="#63b8ff" points="321.78,-165.5 331.78,-162 321.78,-158.5 321.78,-165.5"/>
</a>
</g>
</g>
<!-- Node9 -->
<g id="Node000009" class="node">
<title>Node9</title>
<g id="a_Node000009"><a xlink:href="classTestGUI.html#aaa61b840697cab3dfe8b63088bff135d" target="_top" xlink:title=" ">
<polygon fill="white" stroke="#666666" points="283.62,-134 170.12,-134 170.12,-114 283.62,-114 283.62,-134"/>
<text xml:space="preserve" text-anchor="middle" x="226.88" y="-120.5" font-family="Helvetica,sans-Serif" font-size="10.00">TestGUI::initTestCase</text>
</a>
</g>
</g>
<!-- Node1&#45;&gt;Node9 -->
<g id="edge11_Node000001_Node000009" class="edge">
<title>Node1&#45;&gt;Node9</title>
<g id="a_edge11_Node000001_Node000009"><a xlink:title=" ">
<path fill="none" stroke="#63b8ff" d="M334.32,-148.95C314.12,-144.22 291.58,-138.93 272.46,-134.45"/>
<polygon fill="#63b8ff" stroke="#63b8ff" points="333.26,-152.3 343.8,-151.17 334.86,-145.48 333.26,-152.3"/>
</a>
</g>
</g>
<!-- Node10 -->
<g id="Node000010" class="node">
<title>Node10</title>
<g id="a_Node000010"><a xlink:href="main_8cpp.html#a0ddf1224851353fc92bfbff6f499fa97" target="_top" xlink:title=" ">
<polygon fill="white" stroke="#666666" points="245.38,-96 208.38,-96 208.38,-76 245.38,-76 245.38,-96"/>
<text xml:space="preserve" text-anchor="middle" x="226.88" y="-82.5" font-family="Helvetica,sans-Serif" font-size="10.00">main</text>
</a>
</g>
</g>
<!-- Node1&#45;&gt;Node10 -->
<g id="edge12_Node000001_Node000010" class="edge">
<title>Node1&#45;&gt;Node10</title>
<g id="a_edge12_Node000001_Node000010"><a xlink:title=" ">
<path fill="none" stroke="#63b8ff" d="M366.79,-145.1C348.67,-132.56 322.47,-115.83 297.5,-105 280.6,-97.67 260.15,-92.49 245.8,-89.41"/>
<polygon fill="#63b8ff" stroke="#63b8ff" points="364.54,-147.79 374.73,-150.69 368.57,-142.07 364.54,-147.79"/>
</a>
</g>
</g>
<!-- Node11 -->
<g id="Node000011" class="node">
<title>Node11</title>
<g id="a_Node000011"><a xlink:href="classTestCore.html#a5d0a011fa04fbbc0315445d87dd5d418" target="_top" xlink:title=" ">
<polygon fill="white" stroke="#666666" points="286.25,-58 167.5,-58 167.5,-38 286.25,-38 286.25,-58"/>
<text xml:space="preserve" text-anchor="middle" x="226.88" y="-44.5" font-family="Helvetica,sans-Serif" font-size="10.00">TestCore::testSingleton</text>
</a>
</g>
</g>
<!-- Node1&#45;&gt;Node11 -->
<g id="edge13_Node000001_Node000011" class="edge">
<title>Node1&#45;&gt;Node11</title>
<g id="a_edge13_Node000001_Node000011"><a xlink:title=" ">
<path fill="none" stroke="#63b8ff" d="M376.13,-142.46C359.76,-120.84 330.54,-86.47 297.5,-67 291.67,-63.56 285.2,-60.73 278.63,-58.4"/>
<polygon fill="#63b8ff" stroke="#63b8ff" points="373.26,-144.47 382.01,-150.45 378.9,-140.32 373.26,-144.47"/>
</a>
</g>
</g>
<!-- Node12 -->
<g id="Node000012" class="node">
<title>Node12</title>
<g id="a_Node000012"><a xlink:href="classOSRepository.html#a216ac5a1b6bd12065a6d6f7edaddbcd2" target="_top" xlink:title="Atualiza o status de uma OS existente.">
<polygon fill="white" stroke="#666666" points="297.5,-248 156.25,-248 156.25,-228 297.5,-228 297.5,-248"/>
<text xml:space="preserve" text-anchor="middle" x="226.88" y="-234.5" font-family="Helvetica,sans-Serif" font-size="10.00">OSRepository::updateStatus</text>
</a>
</g>
</g>
<!-- Node1&#45;&gt;Node12 -->
<g id="edge14_Node000001_Node000012" class="edge">
<title>Node1&#45;&gt;Node12</title>
<g id="a_edge14_Node000001_Node000012"><a xlink:title=" ">
<path fill="none" stroke="#63b8ff" d="M366.79,-178.9C348.67,-191.44 322.47,-208.17 297.5,-219 289.91,-222.29 281.61,-225.15 273.47,-227.58"/>
<polygon fill="#63b8ff" stroke="#63b8ff" points="368.57,-181.93 374.73,-173.31 364.54,-176.21 368.57,-181.93"/>
</a>
</g>
</g>
<!-- Node3 -->
<g id="Node000003" class="node">
<title>Node3</title>
<g id="a_Node000003"><a xlink:href="classTestCore.html#ad8f858a033c4cc62db06412cfb93748c" target="_top" xlink:title=" ">
<polygon fill="white" stroke="#666666" points="118.75,-270 1.5,-270 1.5,-250 118.75,-250 118.75,-270"/>
<text xml:space="preserve" text-anchor="middle" x="60.12" y="-256.5" font-family="Helvetica,sans-Serif" font-size="10.00">TestCore::testHistorico</text>
</a>
</g>
</g>
<!-- Node2&#45;&gt;Node3 -->
<g id="edge2_Node000002_Node000003" class="edge">
<title>Node2&#45;&gt;Node3</title>
<g id="a_edge2_Node000002_Node000003"><a xlink:title=" ">
<path fill="none" stroke="#63b8ff" d="M167.34,-311.53C163.57,-310.05 159.85,-308.53 156.25,-307 129.46,-295.62 99.51,-280.38 80.5,-270.39"/>
<polygon fill="#63b8ff" stroke="#63b8ff" points="166.03,-314.78 176.62,-315.09 168.53,-308.24 166.03,-314.78"/>
</a>
</g>
</g>
<!-- Node4&#45;&gt;Node3 -->
<g id="edge5_Node000004_Node000003" class="edge">
<title>Node4&#45;&gt;Node3</title>
<g id="a_edge5_Node000004_Node000003"><a xlink:title=" ">
<path fill="none" stroke="#63b8ff" d="M173.06,-213.57C167.35,-215.29 161.65,-217.11 156.25,-219 130.45,-228.03 101.75,-240.79 82.69,-249.67"/>
<polygon fill="#63b8ff" stroke="#63b8ff" points="173.89,-216.97 182.52,-210.83 171.95,-210.25 173.89,-216.97"/>
</a>
</g>
</g>
<!-- Node5 -->
<g id="Node000005" class="node">
<title>Node5</title>
<g id="a_Node000005"><a xlink:href="classTestCore.html#afe230280f7222da40f40f509be5874e9" target="_top" xlink:title=" ">
<polygon fill="white" stroke="#666666" points="120.25,-115 0,-115 0,-95 120.25,-95 120.25,-115"/>
<text xml:space="preserve" text-anchor="middle" x="60.12" y="-101.5" font-family="Helvetica,sans-Serif" font-size="10.00">TestCore::testCreateOs</text>
</a>
</g>
</g>
<!-- Node4&#45;&gt;Node5 -->
<g id="edge4_Node000004_Node000005" class="edge">
<title>Node4&#45;&gt;Node5</title>
<g id="a_edge4_Node000004_Node000005"><a xlink:title=" ">
<path fill="none" stroke="#63b8ff" d="M166.55,-185.63C163.01,-184.22 159.55,-182.67 156.25,-181 121.58,-163.38 87.6,-131.83 71.24,-115.47"/>
<polygon fill="#63b8ff" stroke="#63b8ff" points="165.33,-188.91 175.92,-189 167.7,-182.33 165.33,-188.91"/>
</a>
</g>
</g>
<!-- Node6&#45;&gt;Node5 -->
<g id="edge7_Node000006_Node000005" class="edge">
<title>Node6&#45;&gt;Node5</title>
<g id="a_edge7_Node000006_Node000005"><a xlink:title=" ">
<path fill="none" stroke="#63b8ff" d="M166.55,-24.37C163.01,-25.78 159.55,-27.33 156.25,-29 121.58,-46.62 87.6,-78.17 71.24,-94.53"/>
<polygon fill="#63b8ff" stroke="#63b8ff" points="167.7,-27.67 175.92,-21 165.33,-21.09 167.7,-27.67"/>
</a>
</g>
</g>
<!-- Node7&#45;&gt;Node3 -->
<g id="edge9_Node000007_Node000003" class="edge">
<title>Node7&#45;&gt;Node3</title>
<g id="a_edge9_Node000007_Node000003"><a xlink:title=" ">
<path fill="none" stroke="#63b8ff" d="M164.45,-273.8C149.65,-271.82 133.87,-269.71 119.22,-267.76"/>
<polygon fill="#63b8ff" stroke="#63b8ff" points="163.67,-277.22 174.05,-275.08 164.6,-270.29 163.67,-277.22"/>
</a>
</g>
</g>
<!-- Node12&#45;&gt;Node3 -->
<g id="edge15_Node000012_Node000003" class="edge">
<title>Node12&#45;&gt;Node3</title>
<g id="a_edge15_Node000012_Node000003"><a xlink:title=" ">
<path fill="none" stroke="#63b8ff" d="M144.71,-248.84C136.08,-249.99 127.44,-251.14 119.16,-252.25"/>
<polygon fill="#63b8ff" stroke="#63b8ff" points="145.06,-252.32 154.51,-247.53 144.13,-245.38 145.06,-252.32"/>
</a>
</g>
</g>
</g>
</svg>
