<?xml version="1.0" encoding="UTF-8" standalone="no"?>
<!DOCTYPE svg PUBLIC "-//W3C//DTD SVG 1.1//EN"
 "http://www.w3.org/Graphics/SVG/1.1/DTD/svg11.dtd">
<!-- Generated by graphviz version 14.1.4 (20260321.0153)
 -->
<!-- Title: TestGUI Pages: 1 -->
<!--zoomable 1210 -->

<svg id="main" version="1.1" xmlns="http://www.w3.org/2000/svg" xmlns:xlink="http://www.w3.org/1999/xlink" xml:space="preserve" onload="init(evt)">

<style type="text/css"><![CDATA[
.node, .edge {opacity: 0.7;}
.node.selected, .edge.selected {opacity: 1;}
.edge:hover path { stroke: red; }
.edge:hover polygon { stroke: red; fill: red; }
]]></style>

<defs>
  <circle id="rim" cx="0" cy="0" r="7"/>
  <circle id="rim2" cx="0" cy="0" r="3.5"/>
  <g id="zoomPlus">
    <use xlink:href="#rim" fill="#404040"><set attributeName="fill" to="#808080" begin="zoomplus.mouseover" end="zoomplus.mouseout"/></use>
    <path d="M-4,0h8M0,-4v8" fill="none" stroke="white" stroke-width="1.5" pointer-events="none"/>
  </g>
  <g id="zoomMin">
    <use xlink:href="#rim" fill="#404040"><set attributeName="fill" to="#808080" begin="zoomminus.mouseover" end="zoomminus.mouseout"/></use>
    <path d="M-4,0h8" fill="none" stroke="white" stroke-width="1.5" pointer-events="none"/>
  </g>
  <g id="arrowUp" transform="translate(30 24)">
    <use xlink:href="#rim"/>
    <path pointer-events="none" fill="none" stroke="white" stroke-width="1.5" d="M0,-3.0v7 M-2.5,-0.5L0,-3.0L2.5,-0.5"/>
  </g>
  <g id="arrowRight" transform="rotate(90) translate(36 -43)">
    <use xlink:href="#rim"/>
    <path pointer-events="none" fill="none" stroke="white" stroke-width="1.5" d="M0,-3.0v7 M-2.5,-0.5L0,-3.0L2.5,-0.5"/>
  </g>
  <g id="arrowDown" transform="rotate(180) translate(-30 -48)">
    <use xlink:href="#rim"/>
    <path pointer-events="none" fill="none" stroke="white" stroke-width="1.5" d="M0,-3.0v7 M-2.5,-0.5L0,-3.0L2.5,-0.5"/>
  </g>
  <g id="arrowLeft" transform="rotate(270) translate(-36 17)">
    <use xlink:href="#rim"/>
    <path pointer-events="none" fill="none" stroke="white" stroke-width="1.5" d="M0,-3.0v7 M-2.5,-0.5L0,-3.0L2.5,-0.5"/>
  </g>
  <g id="resetDef">
    <use xlink:href="#rim2" fill="#404040"><set attributeName="fill" to="#808080" begin="reset.mouseover" end="reset.mouseout"/></use>
  </g>
</defs>
<script type="application/ecmascript">
var viewWidth = 352;
var viewHeight = 1210;
var sectionId = 'dynsection-1';
</script>
<script type="application/ecmascript" xlink:href="svg.min.js"/>
<svg id="graph" class="graph">
<g id="viewport">
<title>TestGUI</title>
<!-- Node1 -->
<g id="Node000001" class="node">
<title>Node1</title>
<g id="a_Node000001"><a xlink:title=" ">
<polygon fill="#999999" stroke="none" points="150.75,-212 0,-212 0,0 150.75,0 150.75,-212"/>
<text xml:space="preserve" text-anchor="start" x="57" y="-198.25" font-family="Helvetica,sans-Serif" font-size="10.00">TestGUI</text>
<text xml:space="preserve" text-anchor="start" x="4" y="-182.25" font-family="Helvetica,sans-Serif" font-size="10.00">&#45;</text>
<text xml:space="preserve" text-anchor="start" x="11" y="-182.25" font-family="Helvetica,sans-Serif" font-size="10.00">expectedMsgBoxText</text>
<text xml:space="preserve" text-anchor="start" x="4" y="-166.25" font-family="Helvetica,sans-Serif" font-size="10.00">&#45;</text>
<text xml:space="preserve" text-anchor="start" x="11" y="-166.25" font-family="Helvetica,sans-Serif" font-size="10.00">msgBoxFound</text>
<text xml:space="preserve" text-anchor="start" x="4" y="-150.25" font-family="Helvetica,sans-Serif" font-size="10.00">&#45;</text>
<text xml:space="preserve" text-anchor="start" x="11" y="-150.25" font-family="Helvetica,sans-Serif" font-size="10.00">initTestCase()</text>
<text xml:space="preserve" text-anchor="start" x="4" y="-134.25" font-family="Helvetica,sans-Serif" font-size="10.00">&#45;</text>
<text xml:space="preserve" text-anchor="start" x="11" y="-134.25" font-family="Helvetica,sans-Serif" font-size="10.00">cleanupTestCase()</text>
<text xml:space="preserve" text-anchor="start" x="4" y="-118.25" font-family="Helvetica,sans-Serif" font-size="10.00">&#45;</text>
<text xml:space="preserve" text-anchor="start" x="11" y="-118.25" font-family="Helvetica,sans-Serif" font-size="10.00">testCadastrarNovaOrdemDe</text>
<text xml:space="preserve" text-anchor="start" x="11" y="-106.25" font-family="Helvetica,sans-Serif" font-size="10.00">ServicoComSucesso_data()</text>
<text xml:space="preserve" text-anchor="start" x="4" y="-90.25" font-family="Helvetica,sans-Serif" font-size="10.00">&#45;</text>
<text xml:space="preserve" text-anchor="start" x="11" y="-90.25" font-family="Helvetica,sans-Serif" font-size="10.00">testCadastrarNovaOrdemDe</text>
<text xml:space="preserve" text-anchor="start" x="11" y="-78.25" font-family="Helvetica,sans-Serif" font-size="10.00">ServicoComSucesso()</text>
<text xml:space="preserve" text-anchor="start" x="4" y="-62.25" font-family="Helvetica,sans-Serif" font-size="10.00">&#45;</text>
<text xml:space="preserve" text-anchor="start" x="11" y="-62.25" font-family="Helvetica,sans-Serif" font-size="10.00">testConsultarOrdensDeServico</text>
<text xml:space="preserve" text-anchor="start" x="11" y="-50.25" font-family="Helvetica,sans-Serif" font-size="10.00">PorNomeDoCliente_data()</text>
<text xml:space="preserve" text-anchor="start" x="4" y="-34.25" font-family="Helvetica,sans-Serif" font-size="10.00">&#45;</text>
<text xml:space="preserve" text-anchor="start" x="11" y="-34.25" font-family="Helvetica,sans-Serif" font-size="10.00">testConsultarOrdensDeServico</text>
<text xml:space="preserve" text-anchor="start" x="11" y="-22.25" font-family="Helvetica,sans-Serif" font-size="10.00">PorNomeDoCliente()</text>
<text xml:space="preserve" text-anchor="start" x="4" y="-6.25" font-family="Helvetica,sans-Serif" font-size="10.00">&#45;</text>
<text xml:space="preserve" text-anchor="start" x="11" y="-6.25" font-family="Helvetica,sans-Serif" font-size="10.00">timeOutMsgBox()</text>
<polygon fill="#666666" stroke="#666666" points="0,-194 0,-194 150.75,-194 150.75,-194 0,-194"/>
<polygon fill="#666666" stroke="#666666" points="0,-162 0,-162 9,-162 9,-162 0,-162"/>
<polygon fill="#666666" stroke="#666666" points="9,-162 9,-162 150.75,-162 150.75,-162 9,-162"/>
<polygon fill="none" stroke="#666666" points="0,0 0,-212 150.75,-212 150.75,0 0,0"/>
</a>
</g>
</g>
<!-- Node2 -->
<g id="Node000002" class="node">
<title>Node2</title>
<g id="a_Node000002"><a xlink:title=" ">
<polygon fill="white" stroke="none" points="81.38,-598 37.38,-598 37.38,-546 81.38,-546 81.38,-598"/>
<text xml:space="preserve" text-anchor="start" x="41.38" y="-584.25" font-family="Helvetica,sans-Serif" font-size="10.00">QObject</text>
<text xml:space="preserve" text-anchor="start" x="57.88" y="-568.25" font-family="Helvetica,sans-Serif" font-size="10.00"> </text>
<text xml:space="preserve" text-anchor="start" x="57.88" y="-552.25" font-family="Helvetica,sans-Serif" font-size="10.00"> </text>
<polygon fill="#666666" stroke="#666666" points="37.38,-580 37.38,-580 81.38,-580 81.38,-580 37.38,-580"/>
<polygon fill="#666666" stroke="#666666" points="37.38,-564 37.38,-564 81.38,-564 81.38,-564 37.38,-564"/>
<polygon fill="none" stroke="#666666" points="37.38,-546 37.38,-598 81.38,-598 81.38,-546 37.38,-546"/>
</a>
</g>
</g>
<!-- Node2&#45;&gt;Node1 -->
<g id="edge1_Node000001_Node000002" class="edge">
<title>Node2&#45;&gt;Node1</title>
<g id="a_edge1_Node000001_Node000002"><a xlink:title=" ">
<path fill="none" stroke="#63b8ff" d="M60.63,-534.6C63,-465.9 68.21,-314.82 71.76,-211.94"/>
<polygon fill="none" stroke="#63b8ff" points="57.13,-534.43 60.29,-544.54 64.13,-534.67 57.13,-534.43"/>
</a>
</g>
</g>
<!-- Node3 -->
<g id="Node000003" class="node">
<title>Node3</title>
<g id="a_Node000003"><a xlink:href="classMarmoManagerApp.html" target="_top" xlink:title="Classe principal de Interface Gráfica (View) para a aplicação.">
<polygon fill="white" stroke="none" points="219.75,-878 99,-878 99,-266 219.75,-266 219.75,-878"/>
<text xml:space="preserve" text-anchor="start" x="117" y="-864.25" font-family="Helvetica,sans-Serif" font-size="10.00">MarmoManagerApp</text>
<text xml:space="preserve" text-anchor="start" x="104.5" y="-848.25" font-family="Helvetica,sans-Serif" font-size="10.00">&#45;</text>
<text xml:space="preserve" text-anchor="start" x="113" y="-848.25" font-family="Helvetica,sans-Serif" font-size="10.00">m_tabs</text>
<text xml:space="preserve" text-anchor="start" x="104.5" y="-832.25" font-family="Helvetica,sans-Serif" font-size="10.00">&#45;</text>
<text xml:space="preserve" text-anchor="start" x="113" y="-832.25" font-family="Helvetica,sans-Serif" font-size="10.00">m_tabCadastro</text>
<text xml:space="preserve" text-anchor="start" x="104.5" y="-816.25" font-family="Helvetica,sans-Serif" font-size="10.00">&#45;</text>
<text xml:space="preserve" text-anchor="start" x="113" y="-816.25" font-family="Helvetica,sans-Serif" font-size="10.00">m_tabConsulta</text>
<text xml:space="preserve" text-anchor="start" x="104.5" y="-800.25" font-family="Helvetica,sans-Serif" font-size="10.00">&#45;</text>
<text xml:space="preserve" text-anchor="start" x="113" y="-800.25" font-family="Helvetica,sans-Serif" font-size="10.00">m_cadCliente</text>
<text xml:space="preserve" text-anchor="start" x="104.5" y="-784.25" font-family="Helvetica,sans-Serif" font-size="10.00">&#45;</text>
<text xml:space="preserve" text-anchor="start" x="113" y="-784.25" font-family="Helvetica,sans-Serif" font-size="10.00">m_cadContato</text>
<text xml:space="preserve" text-anchor="start" x="104.5" y="-768.25" font-family="Helvetica,sans-Serif" font-size="10.00">&#45;</text>
<text xml:space="preserve" text-anchor="start" x="113" y="-768.25" font-family="Helvetica,sans-Serif" font-size="10.00">m_cadDescricao</text>
<text xml:space="preserve" text-anchor="start" x="104.5" y="-752.25" font-family="Helvetica,sans-Serif" font-size="10.00">&#45;</text>
<text xml:space="preserve" text-anchor="start" x="113" y="-752.25" font-family="Helvetica,sans-Serif" font-size="10.00">m_cadMedidas</text>
<text xml:space="preserve" text-anchor="start" x="104.5" y="-736.25" font-family="Helvetica,sans-Serif" font-size="10.00">&#45;</text>
<text xml:space="preserve" text-anchor="start" x="113" y="-736.25" font-family="Helvetica,sans-Serif" font-size="10.00">m_cadMaterial</text>
<text xml:space="preserve" text-anchor="start" x="104.5" y="-720.25" font-family="Helvetica,sans-Serif" font-size="10.00">&#45;</text>
<text xml:space="preserve" text-anchor="start" x="113" y="-720.25" font-family="Helvetica,sans-Serif" font-size="10.00">m_cadPrazo</text>
<text xml:space="preserve" text-anchor="start" x="104.5" y="-704.25" font-family="Helvetica,sans-Serif" font-size="10.00">&#45;</text>
<text xml:space="preserve" text-anchor="start" x="113" y="-704.25" font-family="Helvetica,sans-Serif" font-size="10.00">m_cadStatus</text>
<text xml:space="preserve" text-anchor="start" x="104.5" y="-688.25" font-family="Helvetica,sans-Serif" font-size="10.00">&#45;</text>
<text xml:space="preserve" text-anchor="start" x="113" y="-688.25" font-family="Helvetica,sans-Serif" font-size="10.00">m_grupoPrioridade</text>
<text xml:space="preserve" text-anchor="start" x="104.5" y="-672.25" font-family="Helvetica,sans-Serif" font-size="10.00">&#45;</text>
<text xml:space="preserve" text-anchor="start" x="113" y="-672.25" font-family="Helvetica,sans-Serif" font-size="10.00">m_prioAlta</text>
<text xml:space="preserve" text-anchor="start" x="104.5" y="-656.25" font-family="Helvetica,sans-Serif" font-size="10.00">&#45;</text>
<text xml:space="preserve" text-anchor="start" x="113" y="-656.25" font-family="Helvetica,sans-Serif" font-size="10.00">m_prioMedia</text>
<text xml:space="preserve" text-anchor="start" x="104.5" y="-640.25" font-family="Helvetica,sans-Serif" font-size="10.00">&#45;</text>
<text xml:space="preserve" text-anchor="start" x="113" y="-640.25" font-family="Helvetica,sans-Serif" font-size="10.00">m_prioBaixa</text>
<text xml:space="preserve" text-anchor="start" x="104.5" y="-624.25" font-family="Helvetica,sans-Serif" font-size="10.00">&#45;</text>
<text xml:space="preserve" text-anchor="start" x="113" y="-624.25" font-family="Helvetica,sans-Serif" font-size="10.00">m_grupoDificuldade</text>
<text xml:space="preserve" text-anchor="start" x="104.5" y="-608.25" font-family="Helvetica,sans-Serif" font-size="10.00">&#45;</text>
<text xml:space="preserve" text-anchor="start" x="113" y="-608.25" font-family="Helvetica,sans-Serif" font-size="10.00">m_difAlta</text>
<text xml:space="preserve" text-anchor="start" x="104.5" y="-592.25" font-family="Helvetica,sans-Serif" font-size="10.00">&#45;</text>
<text xml:space="preserve" text-anchor="start" x="113" y="-592.25" font-family="Helvetica,sans-Serif" font-size="10.00">m_difMedia</text>
<text xml:space="preserve" text-anchor="start" x="104.5" y="-576.25" font-family="Helvetica,sans-Serif" font-size="10.00">&#45;</text>
<text xml:space="preserve" text-anchor="start" x="113" y="-576.25" font-family="Helvetica,sans-Serif" font-size="10.00">m_difBaixa</text>
<text xml:space="preserve" text-anchor="start" x="104.5" y="-560.25" font-family="Helvetica,sans-Serif" font-size="10.00">&#45;</text>
<text xml:space="preserve" text-anchor="start" x="113" y="-560.25" font-family="Helvetica,sans-Serif" font-size="10.00">m_searchInput</text>
<text xml:space="preserve" text-anchor="start" x="104.5" y="-544.25" font-family="Helvetica,sans-Serif" font-size="10.00">&#45;</text>
<text xml:space="preserve" text-anchor="start" x="113" y="-544.25" font-family="Helvetica,sans-Serif" font-size="10.00">m_searchStatus</text>
<text xml:space="preserve" text-anchor="start" x="104.5" y="-528.25" font-family="Helvetica,sans-Serif" font-size="10.00">&#45;</text>
<text xml:space="preserve" text-anchor="start" x="113" y="-528.25" font-family="Helvetica,sans-Serif" font-size="10.00">m_searchUseDate</text>
<text xml:space="preserve" text-anchor="start" x="104.5" y="-512.25" font-family="Helvetica,sans-Serif" font-size="10.00">&#45;</text>
<text xml:space="preserve" text-anchor="start" x="113" y="-512.25" font-family="Helvetica,sans-Serif" font-size="10.00">m_searchDataInicio</text>
<text xml:space="preserve" text-anchor="start" x="104.5" y="-496.25" font-family="Helvetica,sans-Serif" font-size="10.00">&#45;</text>
<text xml:space="preserve" text-anchor="start" x="113" y="-496.25" font-family="Helvetica,sans-Serif" font-size="10.00">m_searchDataFim</text>
<text xml:space="preserve" text-anchor="start" x="104.5" y="-480.25" font-family="Helvetica,sans-Serif" font-size="10.00">&#45;</text>
<text xml:space="preserve" text-anchor="start" x="113" y="-480.25" font-family="Helvetica,sans-Serif" font-size="10.00">m_osTable</text>
<text xml:space="preserve" text-anchor="start" x="104.5" y="-464.25" font-family="Helvetica,sans-Serif" font-size="10.00">&#45;</text>
<text xml:space="preserve" text-anchor="start" x="113" y="-464.25" font-family="Helvetica,sans-Serif" font-size="10.00">m_updateStatusCombo</text>
<text xml:space="preserve" text-anchor="start" x="104.5" y="-448.25" font-family="Helvetica,sans-Serif" font-size="10.00">&#45;</text>
<text xml:space="preserve" text-anchor="start" x="113" y="-448.25" font-family="Helvetica,sans-Serif" font-size="10.00">m_updateResponsavel</text>
<text xml:space="preserve" text-anchor="start" x="103" y="-432.25" font-family="Helvetica,sans-Serif" font-size="10.00">+</text>
<text xml:space="preserve" text-anchor="start" x="113" y="-432.25" font-family="Helvetica,sans-Serif" font-size="10.00">MarmoManagerApp()</text>
<text xml:space="preserve" text-anchor="start" x="104.5" y="-416.25" font-family="Helvetica,sans-Serif" font-size="10.00">&#45;</text>
<text xml:space="preserve" text-anchor="start" x="113" y="-416.25" font-family="Helvetica,sans-Serif" font-size="10.00">setupCadastroTab()</text>
<text xml:space="preserve" text-anchor="start" x="104.5" y="-400.25" font-family="Helvetica,sans-Serif" font-size="10.00">&#45;</text>
<text xml:space="preserve" text-anchor="start" x="113" y="-400.25" font-family="Helvetica,sans-Serif" font-size="10.00">setupConsultaTab()</text>
<text xml:space="preserve" text-anchor="start" x="104.5" y="-384.25" font-family="Helvetica,sans-Serif" font-size="10.00">&#45;</text>
<text xml:space="preserve" text-anchor="start" x="113" y="-384.25" font-family="Helvetica,sans-Serif" font-size="10.00">clearCadastroForm()</text>
<text xml:space="preserve" text-anchor="start" x="104.5" y="-368.25" font-family="Helvetica,sans-Serif" font-size="10.00">&#45;</text>
<text xml:space="preserve" text-anchor="start" x="113" y="-368.25" font-family="Helvetica,sans-Serif" font-size="10.00">getSelectedOsId()</text>
<text xml:space="preserve" text-anchor="start" x="104.5" y="-352.25" font-family="Helvetica,sans-Serif" font-size="10.00">&#45;</text>
<text xml:space="preserve" text-anchor="start" x="113" y="-352.25" font-family="Helvetica,sans-Serif" font-size="10.00">getSelectedOsStatus()</text>
<text xml:space="preserve" text-anchor="start" x="104.5" y="-336.25" font-family="Helvetica,sans-Serif" font-size="10.00">&#45;</text>
<text xml:space="preserve" text-anchor="start" x="113" y="-336.25" font-family="Helvetica,sans-Serif" font-size="10.00">salvarOS()</text>
<text xml:space="preserve" text-anchor="start" x="104.5" y="-320.25" font-family="Helvetica,sans-Serif" font-size="10.00">&#45;</text>
<text xml:space="preserve" text-anchor="start" x="113" y="-320.25" font-family="Helvetica,sans-Serif" font-size="10.00">loadOSData()</text>
<text xml:space="preserve" text-anchor="start" x="104.5" y="-304.25" font-family="Helvetica,sans-Serif" font-size="10.00">&#45;</text>
<text xml:space="preserve" text-anchor="start" x="113" y="-304.25" font-family="Helvetica,sans-Serif" font-size="10.00">atualizarStatus()</text>
<text xml:space="preserve" text-anchor="start" x="104.5" y="-288.25" font-family="Helvetica,sans-Serif" font-size="10.00">&#45;</text>
<text xml:space="preserve" text-anchor="start" x="113" y="-288.25" font-family="Helvetica,sans-Serif" font-size="10.00">verHistorico()</text>
<text xml:space="preserve" text-anchor="start" x="104.5" y="-272.25" font-family="Helvetica,sans-Serif" font-size="10.00">&#45;</text>
<text xml:space="preserve" text-anchor="start" x="113" y="-272.25" font-family="Helvetica,sans-Serif" font-size="10.00">onTabChanged()</text>
<polygon fill="#666666" stroke="#666666" points="99,-860 99,-860 219.75,-860 219.75,-860 99,-860"/>
<polygon fill="#666666" stroke="#666666" points="99,-444 99,-444 111,-444 111,-444 99,-444"/>
<polygon fill="#666666" stroke="#666666" points="111,-444 111,-444 219.75,-444 219.75,-444 111,-444"/>
<polygon fill="none" stroke="#666666" points="99,-266 99,-878 219.75,-878 219.75,-266 99,-266"/>
</a>
</g>
</g>
<!-- Node3&#45;&gt;Node1 -->
<g id="edge2_Node000001_Node000003" class="edge">
<title>Node3&#45;&gt;Node1</title>
<g id="a_edge2_Node000001_Node000003"><a xlink:title=" ">
<path fill="none" stroke="#63b8ff" d="M104.17,-266.03C101.55,-251.58 99.01,-237.55 96.59,-224.2"/>
<polygon fill="none" stroke="#63b8ff" points="96.61,-224.31 91.61,-219.12 94.48,-212.51 99.48,-217.7 96.61,-224.31"/>
</a>
</g>
<text xml:space="preserve" text-anchor="start" x="103.2" y="-235.25" font-family="Helvetica,sans-Serif" font-size="10.00" fill="grey">&#45;app</text>
</g>
<!-- Node4 -->
<g id="Node000004" class="node">
<title>Node4</title>
<g id="a_Node000004"><a xlink:title=" ">
<polygon fill="white" stroke="none" points="160.25,-1016 88.5,-1016 88.5,-964 160.25,-964 160.25,-1016"/>
<text xml:space="preserve" text-anchor="start" x="92.5" y="-1002.25" font-family="Helvetica,sans-Serif" font-size="10.00">QMainWindow</text>
<text xml:space="preserve" text-anchor="start" x="122.88" y="-986.25" font-family="Helvetica,sans-Serif" font-size="10.00"> </text>
<text xml:space="preserve" text-anchor="start" x="122.88" y="-970.25" font-family="Helvetica,sans-Serif" font-size="10.00"> </text>
<polygon fill="#666666" stroke="#666666" points="88.5,-998 88.5,-998 160.25,-998 160.25,-998 88.5,-998"/>
<polygon fill="#666666" stroke="#666666" points="88.5,-982 88.5,-982 160.25,-982 160.25,-982 88.5,-982"/>
<polygon fill="none" stroke="#666666" points="88.5,-964 88.5,-1016 160.25,-1016 160.25,-964 88.5,-964"/>
</a>
</g>
</g>
<!-- Node4&#45;&gt;Node3 -->
<g id="edge3_Node000003_Node000004" class="edge">
<title>Node4&#45;&gt;Node3</title>
<g id="a_edge3_Node000003_Node000004"><a xlink:title=" ">
<path fill="none" stroke="#63b8ff" d="M127.41,-952.93C129.06,-933.37 131.26,-907.16 133.75,-877.6"/>
<polygon fill="none" stroke="#63b8ff" points="123.94,-952.46 126.59,-962.71 130.91,-953.04 123.94,-952.46"/>
</a>
</g>
</g>
<!-- Node5 -->
<g id="Node000005" class="node">
<title>Node5</title>
<g id="a_Node000005"><a xlink:href="classOSController.html" target="_top" xlink:title="Classe Controller na arquitetura MVC. Gerencia toda a lógica de negócios da aplicação.">
<polygon fill="white" stroke="none" points="282.12,-1048 178.62,-1048 178.62,-932 282.12,-932 282.12,-1048"/>
<text xml:space="preserve" text-anchor="start" x="202.25" y="-1034.25" font-family="Helvetica,sans-Serif" font-size="10.00">OSController</text>
<text xml:space="preserve" text-anchor="start" x="228.88" y="-1018.25" font-family="Helvetica,sans-Serif" font-size="10.00"> </text>
<text xml:space="preserve" text-anchor="start" x="182.62" y="-1002.25" font-family="Helvetica,sans-Serif" font-size="10.00">+</text>
<text xml:space="preserve" text-anchor="start" x="192.62" y="-1002.25" font-family="Helvetica,sans-Serif" font-size="10.00">OSController()</text>
<text xml:space="preserve" text-anchor="start" x="182.62" y="-986.25" font-family="Helvetica,sans-Serif" font-size="10.00">+</text>
<text xml:space="preserve" text-anchor="start" x="192.62" y="-986.25" font-family="Helvetica,sans-Serif" font-size="10.00">cadastrarOS()</text>
<text xml:space="preserve" text-anchor="start" x="182.62" y="-970.25" font-family="Helvetica,sans-Serif" font-size="10.00">+</text>
<text xml:space="preserve" text-anchor="start" x="192.62" y="-970.25" font-family="Helvetica,sans-Serif" font-size="10.00">atualizarStatusOS()</text>
<text xml:space="preserve" text-anchor="start" x="182.62" y="-954.25" font-family="Helvetica,sans-Serif" font-size="10.00">+</text>
<text xml:space="preserve" text-anchor="start" x="192.62" y="-954.25" font-family="Helvetica,sans-Serif" font-size="10.00">listarOS()</text>
<text xml:space="preserve" text-anchor="start" x="182.62" y="-938.25" font-family="Helvetica,sans-Serif" font-size="10.00">+</text>
<text xml:space="preserve" text-anchor="start" x="192.62" y="-938.25" font-family="Helvetica,sans-Serif" font-size="10.00">obterHistorico()</text>
<polygon fill="#666666" stroke="#666666" points="178.62,-1030 178.62,-1030 282.12,-1030 282.12,-1030 178.62,-1030"/>
<polygon fill="#666666" stroke="#666666" points="178.62,-1014 178.62,-1014 282.12,-1014 282.12,-1014 178.62,-1014"/>
<polygon fill="none" stroke="#666666" points="178.62,-932 178.62,-1048 282.12,-1048 282.12,-932 178.62,-932"/>
</a>
</g>
</g>
<!-- Node5&#45;&gt;Node3 -->
<g id="edge4_Node000003_Node000005" class="edge">
<title>Node5&#45;&gt;Node3</title>
<g id="a_edge4_Node000003_Node000005"><a xlink:title=" ">
<path fill="none" stroke="#63b8ff" d="M220.65,-932.03C218.51,-919.47 216.09,-905.33 213.49,-890.09"/>
<polygon fill="none" stroke="#63b8ff" points="213.54,-890.37 208.59,-885.12 211.52,-878.54 216.47,-883.78 213.54,-890.37"/>
</a>
</g>
<text xml:space="preserve" text-anchor="start" x="219.79" y="-901.25" font-family="Helvetica,sans-Serif" font-size="10.00" fill="grey">&#45;m_controller</text>
</g>
<!-- Node6 -->
<g id="Node000006" class="node">
<title>Node6</title>
<g id="a_Node000006"><a xlink:href="classOSRepository.html" target="_top" xlink:title="Data Access Object (DAO) para as entidades OS.">
<polygon fill="white" stroke="none" points="215.12,-1202 129.62,-1202 129.62,-1102 215.12,-1102 215.12,-1202"/>
<text xml:space="preserve" text-anchor="start" x="141.62" y="-1188.25" font-family="Helvetica,sans-Serif" font-size="10.00">OSRepository</text>
<text xml:space="preserve" text-anchor="start" x="170.88" y="-1172.25" font-family="Helvetica,sans-Serif" font-size="10.00"> </text>
<text xml:space="preserve" text-anchor="start" x="133.62" y="-1156.25" font-family="Helvetica,sans-Serif" font-size="10.00">+</text>
<text xml:space="preserve" text-anchor="start" x="143.62" y="-1156.25" font-family="Helvetica,sans-Serif" font-size="10.00">OSRepository()</text>
<text xml:space="preserve" text-anchor="start" x="133.62" y="-1140.25" font-family="Helvetica,sans-Serif" font-size="10.00">+</text>
<text xml:space="preserve" text-anchor="start" x="143.62" y="-1140.25" font-family="Helvetica,sans-Serif" font-size="10.00">create()</text>
<text xml:space="preserve" text-anchor="start" x="133.62" y="-1124.25" font-family="Helvetica,sans-Serif" font-size="10.00">+</text>
<text xml:space="preserve" text-anchor="start" x="143.62" y="-1124.25" font-family="Helvetica,sans-Serif" font-size="10.00">updateStatus()</text>
<text xml:space="preserve" text-anchor="start" x="133.62" y="-1108.25" font-family="Helvetica,sans-Serif" font-size="10.00">+</text>
<text xml:space="preserve" text-anchor="start" x="143.62" y="-1108.25" font-family="Helvetica,sans-Serif" font-size="10.00">fetchAll()</text>
<polygon fill="#666666" stroke="#666666" points="129.62,-1184 129.62,-1184 215.12,-1184 215.12,-1184 129.62,-1184"/>
<polygon fill="#666666" stroke="#666666" points="129.62,-1168 129.62,-1168 215.12,-1168 215.12,-1168 129.62,-1168"/>
<polygon fill="none" stroke="#666666" points="129.62,-1102 129.62,-1202 215.12,-1202 215.12,-1102 129.62,-1102"/>
</a>
</g>
</g>
<!-- Node6&#45;&gt;Node5 -->
<g id="edge5_Node000005_Node000006" class="edge">
<title>Node6&#45;&gt;Node5</title>
<g id="a_edge5_Node000005_Node000006"><a xlink:title=" ">
<path fill="none" stroke="#63b8ff" d="M190.09,-1102.13C194.88,-1088.9 200.16,-1074.34 205.28,-1060.23"/>
<polygon fill="none" stroke="#63b8ff" points="205.32,-1060.12 203.6,-1053.12 209.41,-1048.84 211.12,-1055.85 205.32,-1060.12"/>
</a>
</g>
<text xml:space="preserve" text-anchor="start" x="206.11" y="-1071.25" font-family="Helvetica,sans-Serif" font-size="10.00" fill="grey">&#45;m_osRepo</text>
</g>
<!-- Node7 -->
<g id="Node000007" class="node">
<title>Node7</title>
<g id="a_Node000007"><a xlink:href="classHistoricoRepository.html" target="_top" xlink:title="Data Access Object (DAO) para o Histórico de OS.">
<polygon fill="white" stroke="none" points="343.5,-1194 233.25,-1194 233.25,-1110 343.5,-1110 343.5,-1194"/>
<text xml:space="preserve" text-anchor="start" x="245.25" y="-1180.25" font-family="Helvetica,sans-Serif" font-size="10.00">HistoricoRepository</text>
<text xml:space="preserve" text-anchor="start" x="286.88" y="-1164.25" font-family="Helvetica,sans-Serif" font-size="10.00"> </text>
<text xml:space="preserve" text-anchor="start" x="237.25" y="-1148.25" font-family="Helvetica,sans-Serif" font-size="10.00">+</text>
<text xml:space="preserve" text-anchor="start" x="247.25" y="-1148.25" font-family="Helvetica,sans-Serif" font-size="10.00">HistoricoRepository()</text>
<text xml:space="preserve" text-anchor="start" x="237.25" y="-1132.25" font-family="Helvetica,sans-Serif" font-size="10.00">+</text>
<text xml:space="preserve" text-anchor="start" x="247.25" y="-1132.25" font-family="Helvetica,sans-Serif" font-size="10.00">create()</text>
<text xml:space="preserve" text-anchor="start" x="237.25" y="-1116.25" font-family="Helvetica,sans-Serif" font-size="10.00">+</text>
<text xml:space="preserve" text-anchor="start" x="247.25" y="-1116.25" font-family="Helvetica,sans-Serif" font-size="10.00">getByOsId()</text>
<polygon fill="#666666" stroke="#666666" points="233.25,-1176 233.25,-1176 343.5,-1176 343.5,-1176 233.25,-1176"/>
<polygon fill="#666666" stroke="#666666" points="233.25,-1160 233.25,-1160 343.5,-1160 343.5,-1160 233.25,-1160"/>
<polygon fill="none" stroke="#666666" points="233.25,-1110 233.25,-1194 343.5,-1194 343.5,-1110 233.25,-1110"/>
</a>
</g>
</g>
<!-- Node7&#45;&gt;Node5 -->
<g id="edge6_Node000005_Node000007" class="edge">
<title>Node7&#45;&gt;Node5</title>
<g id="a_edge6_Node000005_Node000007"><a xlink:title=" ">
<path fill="none" stroke="#63b8ff" d="M277.47,-1110.01C273.42,-1095.93 268.55,-1080.16 263.38,-1066 262.59,-1063.84 261.76,-1061.65 260.92,-1059.45"/>
<polygon fill="none" stroke="#63b8ff" points="260.97,-1059.59 255.04,-1055.5 256.53,-1048.45 262.47,-1052.54 260.97,-1059.59"/>
</a>
</g>
<text xml:space="preserve" text-anchor="start" x="271.91" y="-1071.25" font-family="Helvetica,sans-Serif" font-size="10.00" fill="grey">&#45;m_histRepo</text>
</g>
</g>
</svg>

<g id="navigator" transform="translate(0 0)" fill="#404254">
  <rect fill="#f2f5e9" fill-opacity="0.5" stroke="#606060" stroke-width=".5" x="0" y="0" width="60" height="60"/>
  <use id="zoomplus" xlink:href="#zoomPlus" x="17" y="9" onmousedown="handleZoom(evt,'in')"/>
  <use id="zoomminus" xlink:href="#zoomMin" x="42" y="9" onmousedown="handleZoom(evt,'out')"/>
  <use id="reset" xlink:href="#resetDef" x="30" y="36" onmousedown="handleReset()"/>
   <use id="arrowup" xlink:href="#arrowUp" x="0" y="0" onmousedown="handlePan(0,-1)"/>
  <use id="arrowright" xlink:href="#arrowRight" x="0" y="0" onmousedown="handlePan(1,0)"/>
  <use id="arrowdown" xlink:href="#arrowDown" x="0" y="0" onmousedown="handlePan(0,1)"/>
  <use id="arrowleft" xlink:href="#arrowLeft" x="0" y="0" onmousedown="handlePan(-1,0)"/>
</g>
<svg viewBox="0 0 15 15" width="100%" height="30px" preserveAspectRatio="xMaxYMin meet">
 <g id="arrow_out" transform="scale(0.3 0.3)">
  <a xlink:href="classTestGUI__coll__graph_org.svg" target="_base">
   <rect id="button" ry="5" rx="5" y="6" x="6" height="38" width="38"
        fill="#f2f5e9" fill-opacity="0.5" stroke="#606060" stroke-width="1.0"/>
   <path id="arrow"
     d="M 11.500037,31.436501 C 11.940474,20.09759 22.043105,11.32322 32.158766,21.979434 L 37.068811,17.246167 C 37.068811,17.246167 37.088388,32 37.088388,32 L 22.160133,31.978069 C 22.160133,31.978069 26.997745,27.140456 26.997745,27.140456 C 18.528582,18.264221 13.291696,25.230495 11.500037,31.436501 z"
     style="fill:#404040;"/>
  </a>
 </g>
</svg>

<style type='text/css'>
<![CDATA[
[data-mouse-over-selected='false'] { opacity: 0.7; }
[data-mouse-over-selected='true']  { opacity: 1.0; }
]]>
</style>
<script type="application/ecmascript"><![CDATA[
document.addEventListener('DOMContentLoaded', (event) => {
  highlightEdges();
  highlightAdjacentNodes();
});
]]></script>
</svg>
