<?xml version="1.0" encoding="UTF-8" standalone="no"?>
<!DOCTYPE svg PUBLIC "-//W3C//DTD SVG 1.1//EN"
 "http://www.w3.org/Graphics/SVG/1.1/DTD/svg11.dtd">
<!-- Generated by graphviz version 14.1.4 (20260321.0153)
 -->
<!-- Title: Database::getConnection Pages: 1 -->
<svg width="385pt" height="242pt"
 viewBox="0.00 0.00 385.00 242.00" xmlns="http://www.w3.org/2000/svg" xmlns:xlink="http://www.w3.org/1999/xlink">

<svg id="main" version="1.1" xmlns="http://www.w3.org/2000/svg" xmlns:xlink="http://www.w3.org/1999/xlink" xml:space="preserve">

<style type="text/css"><![CDATA[
.node, .edge {opacity: 0.7;}
.node.selected, .edge.selected {opacity: 1;}
.edge:hover path { stroke: red; }
.edge:hover polygon { stroke: red; fill: red; }
]]></style>
<script type="application/ecmascript" xlink:href="svg.min.js"/>
<svg id="graph" class="graph">
<g id="graph0" class="graph" transform="scale(1 1) rotate(0) translate(4 238)">
<title>Database::getConnection</title>
<!-- Node1 -->
<g id="Node000001" class="node">
<title>Node1</title>
<g id="a_Node000001"><a xlink:title="Recupera o objeto de conexão QSqlDatabase.">
<polygon fill="#999999" stroke="#666666" points="377.25,-124 250.25,-124 250.25,-104 377.25,-104 377.25,-124"/>
<text xml:space="preserve" text-anchor="middle" x="313.75" y="-110.5" font-family="Helvetica,sans-Serif" font-size="10.00">Database::getConnection</text>
</a>
</g>
</g>
<!-- Node2 -->
<g id="Node000002" class="node">
<title>Node2</title>
<g id="a_Node000002"><a xlink:href="classHistoricoRepository.html#adc29f7e094d6b1155ff82a08c77de8b9" target="_top" xlink:title="Cria um novo registro de histórico.">
<polygon fill="white" stroke="#666666" points="194.75,-234 92.5,-234 92.5,-202 194.75,-202 194.75,-234"/>
<text xml:space="preserve" text-anchor="start" x="100.5" y="-220.5" font-family="Helvetica,sans-Serif" font-size="10.00">HistoricoRepository</text>
<text xml:space="preserve" text-anchor="middle" x="143.62" y="-208.5" font-family="Helvetica,sans-Serif" font-size="10.00">::create</text>
</a>
</g>
</g>
<!-- Node1&#45;&gt;Node2 -->
<g id="edge1_Node000001_Node000002" class="edge">
<title>Node1&#45;&gt;Node2</title>
<g id="a_edge1_Node000001_Node000002"><a xlink:title=" ">
<path fill="none" stroke="#63b8ff" d="M294.14,-132.1C275.29,-149.63 244.66,-175.98 214.25,-193 208.2,-196.39 201.6,-199.46 194.96,-202.2"/>
<polygon fill="#63b8ff" stroke="#63b8ff" points="296.43,-134.75 301.29,-125.33 291.62,-129.66 296.43,-134.75"/>
</a>
</g>
</g>
<!-- Node3 -->
<g id="Node000003" class="node">
<title>Node3</title>
<g id="a_Node000003"><a xlink:href="classOSRepository.html#af6139a9045e4f6c8ab9b04d9d4e0ee06" target="_top" xlink:title="Cria uma nova Ordem de Serviço (OS).">
<polygon fill="white" stroke="#666666" points="198.88,-184 88.38,-184 88.38,-164 198.88,-164 198.88,-184"/>
<text xml:space="preserve" text-anchor="middle" x="143.62" y="-170.5" font-family="Helvetica,sans-Serif" font-size="10.00">OSRepository::create</text>
</a>
</g>
</g>
<!-- Node1&#45;&gt;Node3 -->
<g id="edge2_Node000001_Node000003" class="edge">
<title>Node1&#45;&gt;Node3</title>
<g id="a_edge2_Node000001_Node000003"><a xlink:title=" ">
<path fill="none" stroke="#63b8ff" d="M279.53,-129.08C260.62,-137.34 236.37,-147.41 214.25,-155 205.36,-158.05 195.7,-160.94 186.49,-163.51"/>
<polygon fill="#63b8ff" stroke="#63b8ff" points="280.87,-132.31 288.6,-125.07 278.04,-125.91 280.87,-132.31"/>
</a>
</g>
</g>
<!-- Node4 -->
<g id="Node000004" class="node">
<title>Node4</title>
<g id="a_Node000004"><a xlink:href="classOSRepository.html#af02690680d93fe471b48a07ac58587a4" target="_top" xlink:title="Busca todas as OS que coincidem com os critérios.">
<polygon fill="white" stroke="#666666" points="201.88,-146 85.38,-146 85.38,-126 201.88,-126 201.88,-146"/>
<text xml:space="preserve" text-anchor="middle" x="143.62" y="-132.5" font-family="Helvetica,sans-Serif" font-size="10.00">OSRepository::fetchAll</text>
</a>
</g>
</g>
<!-- Node1&#45;&gt;Node4 -->
<g id="edge3_Node000001_Node000004" class="edge">
<title>Node1&#45;&gt;Node4</title>
<g id="a_edge3_Node000001_Node000004"><a xlink:title=" ">
<path fill="none" stroke="#63b8ff" d="M238.97,-123.65C226.68,-125.26 214.09,-126.91 202.28,-128.46"/>
<polygon fill="#63b8ff" stroke="#63b8ff" points="239.18,-127.16 248.65,-122.39 238.28,-120.22 239.18,-127.16"/>
</a>
</g>
</g>
<!-- Node5 -->
<g id="Node000005" class="node">
<title>Node5</title>
<g id="a_Node000005"><a xlink:href="classHistoricoRepository.html#ae1c14be64e7574ab5b919e6ab5fe6e83" target="_top" xlink:title="Busca o histórico para uma dada OS.">
<polygon fill="white" stroke="#666666" points="194.75,-108 92.5,-108 92.5,-76 194.75,-76 194.75,-108"/>
<text xml:space="preserve" text-anchor="start" x="100.5" y="-94.5" font-family="Helvetica,sans-Serif" font-size="10.00">HistoricoRepository</text>
<text xml:space="preserve" text-anchor="middle" x="143.62" y="-82.5" font-family="Helvetica,sans-Serif" font-size="10.00">::getByOsId</text>
</a>
</g>
</g>
<!-- Node1&#45;&gt;Node5 -->
<g id="edge4_Node000001_Node000005" class="edge">
<title>Node1&#45;&gt;Node5</title>
<g id="a_edge4_Node000001_Node000005"><a xlink:title=" ">
<path fill="none" stroke="#63b8ff" d="M238.96,-104.34C224.19,-102.41 208.99,-100.42 195.22,-98.62"/>
<polygon fill="#63b8ff" stroke="#63b8ff" points="238.28,-107.78 248.65,-105.61 239.18,-100.84 238.28,-107.78"/>
</a>
</g>
</g>
<!-- Node6 -->
<g id="Node000006" class="node">
<title>Node6</title>
<g id="a_Node000006"><a xlink:href="classDatabase.html#a6747ce1b1f980cd917c9c006545e2b2a" target="_top" xlink:title="Inicializa o banco de dados criando as tabelas necessárias.">
<polygon fill="white" stroke="#666666" points="188.38,-58 98.88,-58 98.88,-38 188.38,-38 188.38,-58"/>
<text xml:space="preserve" text-anchor="middle" x="143.62" y="-44.5" font-family="Helvetica,sans-Serif" font-size="10.00">Database::initDb</text>
</a>
</g>
</g>
<!-- Node1&#45;&gt;Node6 -->
<g id="edge5_Node000001_Node000006" class="edge">
<title>Node1&#45;&gt;Node6</title>
<g id="a_edge5_Node000001_Node000006"><a xlink:title=" ">
<path fill="none" stroke="#63b8ff" d="M283.61,-98.4C264.31,-88.49 238.23,-75.91 214.25,-67 205.79,-63.86 196.59,-60.98 187.72,-58.47"/>
<polygon fill="#63b8ff" stroke="#63b8ff" points="281.74,-101.37 292.23,-102.89 284.97,-95.16 281.74,-101.37"/>
</a>
</g>
</g>
<!-- Node8 -->
<g id="Node000008" class="node">
<title>Node8</title>
<g id="a_Node000008"><a xlink:href="classOSRepository.html#a216ac5a1b6bd12065a6d6f7edaddbcd2" target="_top" xlink:title="Atualiza o status de uma OS existente.">
<polygon fill="white" stroke="#666666" points="214.25,-20 73,-20 73,0 214.25,0 214.25,-20"/>
<text xml:space="preserve" text-anchor="middle" x="143.62" y="-6.5" font-family="Helvetica,sans-Serif" font-size="10.00">OSRepository::updateStatus</text>
</a>
</g>
</g>
<!-- Node1&#45;&gt;Node8 -->
<g id="edge7_Node000001_Node000008" class="edge">
<title>Node1&#45;&gt;Node8</title>
<g id="a_edge7_Node000001_Node000008"><a xlink:title=" ">
<path fill="none" stroke="#63b8ff" d="M296.12,-95.4C277.86,-76.09 246.78,-46.32 214.25,-29 207.84,-25.59 200.75,-22.74 193.64,-20.39"/>
<polygon fill="#63b8ff" stroke="#63b8ff" points="293.4,-97.62 302.76,-102.59 298.54,-92.87 293.4,-97.62"/>
</a>
</g>
</g>
<!-- Node7 -->
<g id="Node000007" class="node">
<title>Node7</title>
<g id="a_Node000007"><a xlink:href="main_8cpp.html#a0ddf1224851353fc92bfbff6f499fa97" target="_top" xlink:title=" ">
<polygon fill="white" stroke="#666666" points="37,-58 0,-58 0,-38 37,-38 37,-58"/>
<text xml:space="preserve" text-anchor="middle" x="18.5" y="-44.5" font-family="Helvetica,sans-Serif" font-size="10.00">main</text>
</a>
</g>
</g>
<!-- Node6&#45;&gt;Node7 -->
<g id="edge6_Node000006_Node000007" class="edge">
<title>Node6&#45;&gt;Node7</title>
<g id="a_edge6_Node000006_Node000007"><a xlink:title=" ">
<path fill="none" stroke="#63b8ff" d="M87.17,-48C69.18,-48 50.5,-48 37.33,-48"/>
<polygon fill="#63b8ff" stroke="#63b8ff" points="87.01,-51.5 97.01,-48 87.01,-44.5 87.01,-51.5"/>
</a>
</g>
</g>
</g>
</svg>
</svg>

<style type='text/css'>
<![CDATA[
[data-mouse-over-selected='false'] { opacity: 0.7; }
[data-mouse-over-selected='true']  { opacity: 1.0; }
]]>
</style>
<script type="application/ecmascript"><![CDATA[
document.addEventListener('DOMContentLoaded', (event) => {
  highlightEdges();
  highlightAdjacentNodes();
});
]]></script>
</svg>
