<?xml version="1.0" encoding="UTF-8" standalone="no"?>
<!DOCTYPE svg PUBLIC "-//W3C//DTD SVG 1.1//EN"
 "http://www.w3.org/Graphics/SVG/1.1/DTD/svg11.dtd">
<!-- Generated by graphviz version 14.1.4 (20260321.0153)
 -->
<!-- Title: TestCore::initTestCase Pages: 1 -->
<svg width="440pt" height="104pt"
 viewBox="0.00 0.00 440.00 104.00" xmlns="http://www.w3.org/2000/svg" xmlns:xlink="http://www.w3.org/1999/xlink">
<g id="graph0" class="graph" transform="scale(1 1) rotate(0) translate(4 100)">
<title>TestCore::initTestCase</title>
<!-- Node1 -->
<g id="Node000001" class="node">
<title>Node1</title>
<g id="a_Node000001"><a xlink:title=" ">
<polygon fill="#999999" stroke="#666666" points="116.5,-58 0,-58 0,-38 116.5,-38 116.5,-58"/>
<text xml:space="preserve" text-anchor="middle" x="58.25" y="-44.5" font-family="Helvetica,sans-Serif" font-size="10.00">TestCore::initTestCase</text>
</a>
</g>
</g>
<!-- Node2 -->
<g id="Node000002" class="node">
<title>Node2</title>
<g id="a_Node000002"><a xlink:href="classDatabase.html#aa04e547554cc34fa4b6c5a9390021eab" target="_top" xlink:title="Obtém a instância única do Banco de Dados.">
<polygon fill="white" stroke="#666666" points="268.25,-96 153.25,-96 153.25,-76 268.25,-76 268.25,-96"/>
<text xml:space="preserve" text-anchor="middle" x="210.75" y="-82.5" font-family="Helvetica,sans-Serif" font-size="10.00">Database::getInstance</text>
</a>
</g>
</g>
<!-- Node1&#45;&gt;Node2 -->
<g id="edge1_Node000001_Node000002" class="edge">
<title>Node1&#45;&gt;Node2</title>
<g id="a_edge1_Node000001_Node000002"><a xlink:title=" ">
<path fill="none" stroke="#63b8ff" d="M100.77,-58.48C118.29,-62.91 138.89,-68.11 157.43,-72.79"/>
<polygon fill="#63b8ff" stroke="#63b8ff" points="156.34,-76.12 166.89,-75.18 158.06,-69.34 156.34,-76.12"/>
</a>
</g>
</g>
<!-- Node4 -->
<g id="Node000004" class="node">
<title>Node4</title>
<g id="a_Node000004"><a xlink:href="classDatabase.html#a6747ce1b1f980cd917c9c006545e2b2a" target="_top" xlink:title="Inicializa o banco de dados criando as tabelas necessárias.">
<polygon fill="white" stroke="#666666" points="255.5,-58 166,-58 166,-38 255.5,-38 255.5,-58"/>
<text xml:space="preserve" text-anchor="middle" x="210.75" y="-44.5" font-family="Helvetica,sans-Serif" font-size="10.00">Database::initDb</text>
</a>
</g>
</g>
<!-- Node1&#45;&gt;Node4 -->
<g id="edge3_Node000001_Node000004" class="edge">
<title>Node1&#45;&gt;Node4</title>
<g id="a_edge3_Node000001_Node000004"><a xlink:title=" ">
<path fill="none" stroke="#63b8ff" d="M116.58,-48C128.92,-48 141.94,-48 154.21,-48"/>
<polygon fill="#63b8ff" stroke="#63b8ff" points="154.18,-51.5 164.18,-48 154.18,-44.5 154.18,-51.5"/>
</a>
</g>
</g>
<!-- Node6 -->
<g id="Node000006" class="node">
<title>Node6</title>
<g id="a_Node000006"><a xlink:href="classDatabase.html#a38db6df1fd752d89f4305e42553690d4" target="_top" xlink:title="Define um nome customizado para o banco (útil para testes).">
<polygon fill="white" stroke="#666666" points="269,-20 152.5,-20 152.5,0 269,0 269,-20"/>
<text xml:space="preserve" text-anchor="middle" x="210.75" y="-6.5" font-family="Helvetica,sans-Serif" font-size="10.00">Database::setDbName</text>
</a>
</g>
</g>
<!-- Node1&#45;&gt;Node6 -->
<g id="edge5_Node000001_Node000006" class="edge">
<title>Node1&#45;&gt;Node6</title>
<g id="a_edge5_Node000001_Node000006"><a xlink:title=" ">
<path fill="none" stroke="#63b8ff" d="M100.77,-37.52C118.29,-33.09 138.89,-27.89 157.43,-23.21"/>
<polygon fill="#63b8ff" stroke="#63b8ff" points="158.06,-26.66 166.89,-20.82 156.34,-19.88 158.06,-26.66"/>
</a>
</g>
</g>
<!-- Node3 -->
<g id="Node000003" class="node">
<title>Node3</title>
<g id="a_Node000003"><a xlink:href="classDatabase.html#a4703c80e6969d33565ea340f768fdadf" target="_top" xlink:title=" ">
<polygon fill="white" stroke="#666666" points="421.5,-96 315.5,-96 315.5,-76 421.5,-76 421.5,-96"/>
<text xml:space="preserve" text-anchor="middle" x="368.5" y="-82.5" font-family="Helvetica,sans-Serif" font-size="10.00">Database::Database</text>
</a>
</g>
</g>
<!-- Node2&#45;&gt;Node3 -->
<g id="edge2_Node000002_Node000003" class="edge">
<title>Node2&#45;&gt;Node3</title>
<g id="a_edge2_Node000002_Node000003"><a xlink:title=" ">
<path fill="none" stroke="#63b8ff" d="M268.42,-86C279.84,-86 291.91,-86 303.55,-86"/>
<polygon fill="#63b8ff" stroke="#63b8ff" points="303.5,-89.5 313.5,-86 303.5,-82.5 303.5,-89.5"/>
</a>
</g>
</g>
<!-- Node5 -->
<g id="Node000005" class="node">
<title>Node5</title>
<g id="a_Node000005"><a xlink:href="classDatabase.html#aaf21db9254c8ed77d4d800802c987d87" target="_top" xlink:title="Recupera o objeto de conexão QSqlDatabase.">
<polygon fill="white" stroke="#666666" points="432,-58 305,-58 305,-38 432,-38 432,-58"/>
<text xml:space="preserve" text-anchor="middle" x="368.5" y="-44.5" font-family="Helvetica,sans-Serif" font-size="10.00">Database::getConnection</text>
</a>
</g>
</g>
<!-- Node4&#45;&gt;Node5 -->
<g id="edge4_Node000004_Node000005" class="edge">
<title>Node4&#45;&gt;Node5</title>
<g id="a_edge4_Node000004_Node000005"><a xlink:title=" ">
<path fill="none" stroke="#63b8ff" d="M255.97,-48C267.65,-48 280.59,-48 293.39,-48"/>
<polygon fill="#63b8ff" stroke="#63b8ff" points="293.06,-51.5 303.06,-48 293.06,-44.5 293.06,-51.5"/>
</a>
</g>
</g>
</g>
</svg>
