<?xml version="1.0" encoding="UTF-8" standalone="no"?>
<!DOCTYPE svg PUBLIC "-//W3C//DTD SVG 1.1//EN"
 "http://www.w3.org/Graphics/SVG/1.1/DTD/svg11.dtd">
<!-- Generated by graphviz version 14.1.4 (20260321.0153)
 -->
<!-- Title: Database::Database Pages: 1 -->
<svg width="442pt" height="242pt"
 viewBox="0.00 0.00 442.00 242.00" xmlns="http://www.w3.org/2000/svg" xmlns:xlink="http://www.w3.org/1999/xlink">
<g id="graph0" class="graph" transform="scale(1 1) rotate(0) translate(4 238)">
<title>Database::Database</title>
<!-- Node1 -->
<g id="Node000001" class="node">
<title>Node1</title>
<g id="a_Node000001"><a xlink:title=" ">
<polygon fill="#999999" stroke="#666666" points="434.25,-124 328.25,-124 328.25,-104 434.25,-104 434.25,-124"/>
<text xml:space="preserve" text-anchor="middle" x="381.25" y="-110.5" font-family="Helvetica,sans-Serif" font-size="10.00">Database::Database</text>
</a>
</g>
</g>
<!-- Node2 -->
<g id="Node000002" class="node">
<title>Node2</title>
<g id="a_Node000002"><a xlink:href="classDatabase.html#a83f8b6d2941a4aee50f225e08e97291c" target="_top" xlink:title=" ">
<polygon fill="white" stroke="#666666" points="287.75,-162 181.75,-162 181.75,-142 287.75,-142 287.75,-162"/>
<text xml:space="preserve" text-anchor="middle" x="234.75" y="-148.5" font-family="Helvetica,sans-Serif" font-size="10.00">Database::Database</text>
</a>
</g>
</g>
<!-- Node1&#45;&gt;Node2 -->
<g id="edge1_Node000001_Node000002" class="edge">
<title>Node1&#45;&gt;Node2</title>
<g id="a_edge1_Node000001_Node000002"><a xlink:title=" ">
<path fill="none" stroke="#63b8ff" d="M329.37,-127.38C311.69,-132.03 292.13,-137.17 275.49,-141.55"/>
<polygon fill="#63b8ff" stroke="#63b8ff" points="330.14,-130.8 338.92,-124.87 328.36,-124.03 330.14,-130.8"/>
</a>
</g>
</g>
<!-- Node3 -->
<g id="Node000003" class="node">
<title>Node3</title>
<g id="a_Node000003"><a xlink:href="classDatabase.html#aa04e547554cc34fa4b6c5a9390021eab" target="_top" xlink:title="Obtém a instância única do Banco de Dados.">
<polygon fill="white" stroke="#666666" points="292.25,-124 177.25,-124 177.25,-104 292.25,-104 292.25,-124"/>
<text xml:space="preserve" text-anchor="middle" x="234.75" y="-110.5" font-family="Helvetica,sans-Serif" font-size="10.00">Database::getInstance</text>
</a>
</g>
</g>
<!-- Node1&#45;&gt;Node3 -->
<g id="edge2_Node000001_Node000003" class="edge">
<title>Node1&#45;&gt;Node3</title>
<g id="a_edge2_Node000001_Node000003"><a xlink:title=" ">
<path fill="none" stroke="#63b8ff" d="M316.59,-114C308.65,-114 300.56,-114 292.73,-114"/>
<polygon fill="#63b8ff" stroke="#63b8ff" points="316.57,-117.5 326.57,-114 316.57,-110.5 316.57,-117.5"/>
</a>
</g>
</g>
<!-- Node10 -->
<g id="Node000010" class="node">
<title>Node10</title>
<g id="a_Node000010"><a xlink:href="classDatabase.html#a46b93a4878076c7cfddd5b4058297f14" target="_top" xlink:title=" ">
<polygon fill="white" stroke="#666666" points="287.38,-86 182.12,-86 182.12,-66 287.38,-66 287.38,-86"/>
<text xml:space="preserve" text-anchor="middle" x="234.75" y="-72.5" font-family="Helvetica,sans-Serif" font-size="10.00">Database::operator=</text>
</a>
</g>
</g>
<!-- Node1&#45;&gt;Node10 -->
<g id="edge9_Node000001_Node000010" class="edge">
<title>Node1&#45;&gt;Node10</title>
<g id="a_edge9_Node000001_Node000010"><a xlink:title=" ">
<path fill="none" stroke="#63b8ff" d="M329.37,-100.62C311.69,-95.97 292.13,-90.83 275.49,-86.45"/>
<polygon fill="#63b8ff" stroke="#63b8ff" points="328.36,-103.97 338.92,-103.13 330.14,-97.2 328.36,-103.97"/>
</a>
</g>
</g>
<!-- Node4 -->
<g id="Node000004" class="node">
<title>Node4</title>
<g id="a_Node000004"><a xlink:href="classHistoricoRepository.html#adc29f7e094d6b1155ff82a08c77de8b9" target="_top" xlink:title="Cria um novo registro de histórico.">
<polygon fill="white" stroke="#666666" points="121.75,-234 19.5,-234 19.5,-202 121.75,-202 121.75,-234"/>
<text xml:space="preserve" text-anchor="start" x="27.5" y="-220.5" font-family="Helvetica,sans-Serif" font-size="10.00">HistoricoRepository</text>
<text xml:space="preserve" text-anchor="middle" x="70.62" y="-208.5" font-family="Helvetica,sans-Serif" font-size="10.00">::create</text>
</a>
</g>
</g>
<!-- Node3&#45;&gt;Node4 -->
<g id="edge3_Node000003_Node000004" class="edge">
<title>Node3&#45;&gt;Node4</title>
<g id="a_edge3_Node000003_Node000004"><a xlink:title=" ">
<path fill="none" stroke="#63b8ff" d="M181.87,-129.67C180.27,-130.71 178.72,-131.82 177.25,-133 153.02,-152.49 165.28,-173.26 141.25,-193 135.59,-197.65 129,-201.46 122.18,-204.59"/>
<polygon fill="#63b8ff" stroke="#63b8ff" points="183.12,-132.97 190.24,-125.13 179.78,-126.82 183.12,-132.97"/>
</a>
</g>
</g>
<!-- Node5 -->
<g id="Node000005" class="node">
<title>Node5</title>
<g id="a_Node000005"><a xlink:href="classOSRepository.html#af6139a9045e4f6c8ab9b04d9d4e0ee06" target="_top" xlink:title="Cria uma nova Ordem de Serviço (OS).">
<polygon fill="white" stroke="#666666" points="125.88,-184 15.38,-184 15.38,-164 125.88,-164 125.88,-184"/>
<text xml:space="preserve" text-anchor="middle" x="70.62" y="-170.5" font-family="Helvetica,sans-Serif" font-size="10.00">OSRepository::create</text>
</a>
</g>
</g>
<!-- Node3&#45;&gt;Node5 -->
<g id="edge4_Node000003_Node000005" class="edge">
<title>Node3&#45;&gt;Node5</title>
<g id="a_edge4_Node000003_Node000005"><a xlink:title=" ">
<path fill="none" stroke="#63b8ff" d="M188.11,-128.36C184.39,-129.82 180.73,-131.38 177.25,-133 160.26,-140.93 158.47,-147.57 141.25,-155 133.66,-158.28 125.35,-161.13 117.21,-163.55"/>
<polygon fill="#63b8ff" stroke="#63b8ff" points="189.03,-131.74 197.19,-124.98 186.6,-125.18 189.03,-131.74"/>
</a>
</g>
</g>
<!-- Node6 -->
<g id="Node000006" class="node">
<title>Node6</title>
<g id="a_Node000006"><a xlink:href="classOSRepository.html#af02690680d93fe471b48a07ac58587a4" target="_top" xlink:title="Busca todas as OS que coincidem com os critérios.">
<polygon fill="white" stroke="#666666" points="128.88,-146 12.38,-146 12.38,-126 128.88,-126 128.88,-146"/>
<text xml:space="preserve" text-anchor="middle" x="70.62" y="-132.5" font-family="Helvetica,sans-Serif" font-size="10.00">OSRepository::fetchAll</text>
</a>
</g>
</g>
<!-- Node3&#45;&gt;Node6 -->
<g id="edge5_Node000003_Node000006" class="edge">
<title>Node3&#45;&gt;Node6</title>
<g id="a_edge5_Node000003_Node000006"><a xlink:title=" ">
<path fill="none" stroke="#63b8ff" d="M165.95,-123.2C153.7,-124.86 141.04,-126.58 129.12,-128.2"/>
<polygon fill="#63b8ff" stroke="#63b8ff" points="166.11,-126.71 175.55,-121.9 165.17,-119.77 166.11,-126.71"/>
</a>
</g>
</g>
<!-- Node7 -->
<g id="Node000007" class="node">
<title>Node7</title>
<g id="a_Node000007"><a xlink:href="classHistoricoRepository.html#ae1c14be64e7574ab5b919e6ab5fe6e83" target="_top" xlink:title="Busca o histórico para uma dada OS.">
<polygon fill="white" stroke="#666666" points="121.75,-108 19.5,-108 19.5,-76 121.75,-76 121.75,-108"/>
<text xml:space="preserve" text-anchor="start" x="27.5" y="-94.5" font-family="Helvetica,sans-Serif" font-size="10.00">HistoricoRepository</text>
<text xml:space="preserve" text-anchor="middle" x="70.62" y="-82.5" font-family="Helvetica,sans-Serif" font-size="10.00">::getByOsId</text>
</a>
</g>
</g>
<!-- Node3&#45;&gt;Node7 -->
<g id="edge6_Node000003_Node000007" class="edge">
<title>Node3&#45;&gt;Node7</title>
<g id="a_edge6_Node000003_Node000007"><a xlink:title=" ">
<path fill="none" stroke="#63b8ff" d="M165.96,-104.8C151.26,-102.81 135.96,-100.73 122.08,-98.85"/>
<polygon fill="#63b8ff" stroke="#63b8ff" points="165.17,-108.23 175.55,-106.1 166.11,-101.29 165.17,-108.23"/>
</a>
</g>
</g>
<!-- Node8 -->
<g id="Node000008" class="node">
<title>Node8</title>
<g id="a_Node000008"><a xlink:href="main_8cpp.html#a0ddf1224851353fc92bfbff6f499fa97" target="_top" xlink:title=" ">
<polygon fill="white" stroke="#666666" points="89.12,-58 52.12,-58 52.12,-38 89.12,-38 89.12,-58"/>
<text xml:space="preserve" text-anchor="middle" x="70.62" y="-44.5" font-family="Helvetica,sans-Serif" font-size="10.00">main</text>
</a>
</g>
</g>
<!-- Node3&#45;&gt;Node8 -->
<g id="edge7_Node000003_Node000008" class="edge">
<title>Node3&#45;&gt;Node8</title>
<g id="a_edge7_Node000003_Node000008"><a xlink:title=" ">
<path fill="none" stroke="#63b8ff" d="M186.2,-99.34C183.12,-97.98 180.11,-96.54 177.25,-95 159.39,-85.41 159.38,-76.07 141.25,-67 124.66,-58.71 103.99,-53.65 89.49,-50.86"/>
<polygon fill="#63b8ff" stroke="#63b8ff" points="184.83,-102.56 195.42,-103.02 187.43,-96.06 184.83,-102.56"/>
</a>
</g>
</g>
<!-- Node9 -->
<g id="Node000009" class="node">
<title>Node9</title>
<g id="a_Node000009"><a xlink:href="classOSRepository.html#a216ac5a1b6bd12065a6d6f7edaddbcd2" target="_top" xlink:title="Atualiza o status de uma OS existente.">
<polygon fill="white" stroke="#666666" points="141.25,-20 0,-20 0,0 141.25,0 141.25,-20"/>
<text xml:space="preserve" text-anchor="middle" x="70.62" y="-6.5" font-family="Helvetica,sans-Serif" font-size="10.00">OSRepository::updateStatus</text>
</a>
</g>
</g>
<!-- Node3&#45;&gt;Node9 -->
<g id="edge8_Node000003_Node000009" class="edge">
<title>Node3&#45;&gt;Node9</title>
<g id="a_edge8_Node000003_Node000009"><a xlink:title=" ">
<path fill="none" stroke="#63b8ff" d="M181.29,-98.06C179.89,-97.1 178.54,-96.08 177.25,-95 151.65,-73.53 167.46,-49.72 141.25,-29 136.93,-25.58 132.03,-22.78 126.89,-20.48"/>
<polygon fill="#63b8ff" stroke="#63b8ff" points="179.4,-101.02 189.83,-102.88 182.84,-94.92 179.4,-101.02"/>
</a>
</g>
</g>
</g>
</svg>
