<?xml version="1.0" encoding="UTF-8" standalone="no"?>
<!DOCTYPE svg PUBLIC "-//W3C//DTD SVG 1.1//EN"
 "http://www.w3.org/Graphics/SVG/1.1/DTD/svg11.dtd">
<!-- Generated by graphviz version 14.1.4 (20260321.0153)
 -->
<!-- Title: MarmoManagerApp::verHistorico Pages: 1 -->
<svg width="616pt" height="28pt"
 viewBox="0.00 0.00 616.00 28.00" xmlns="http://www.w3.org/2000/svg" xmlns:xlink="http://www.w3.org/1999/xlink">
<g id="graph0" class="graph" transform="scale(1 1) rotate(0) translate(4 24)">
<title>MarmoManagerApp::verHistorico</title>
<!-- Node1 -->
<g id="Node000001" class="node">
<title>Node1</title>
<g id="a_Node000001"><a xlink:title=" ">
<polygon fill="#999999" stroke="#666666" points="608.25,-20 449,-20 449,0 608.25,0 608.25,-20"/>
<text xml:space="preserve" text-anchor="middle" x="528.62" y="-6.5" font-family="Helvetica,sans-Serif" font-size="10.00">MarmoManagerApp::verHistorico</text>
</a>
</g>
</g>
<!-- Node2 -->
<g id="Node000002" class="node">
<title>Node2</title>
<g id="a_Node000002"><a xlink:href="classMarmoManagerApp.html#aaa4093f9a540417273a7a5849da18c27" target="_top" xlink:title=" ">
<polygon fill="white" stroke="#666666" points="413,-20 227.5,-20 227.5,0 413,0 413,-20"/>
<text xml:space="preserve" text-anchor="middle" x="320.25" y="-6.5" font-family="Helvetica,sans-Serif" font-size="10.00">MarmoManagerApp::setupConsultaTab</text>
</a>
</g>
</g>
<!-- Node1&#45;&gt;Node2 -->
<g id="edge1_Node000001_Node000002" class="edge">
<title>Node1&#45;&gt;Node2</title>
<g id="a_edge1_Node000001_Node000002"><a xlink:title=" ">
<path fill="none" stroke="#63b8ff" d="M437.45,-10C429.42,-10 421.28,-10 413.23,-10"/>
<polygon fill="#63b8ff" stroke="#63b8ff" points="437.21,-13.5 447.21,-10 437.21,-6.5 437.21,-13.5"/>
</a>
</g>
</g>
<!-- Node3 -->
<g id="Node000003" class="node">
<title>Node3</title>
<g id="a_Node000003"><a xlink:href="classMarmoManagerApp.html#a43323a0e85c1887feb435874b2bcc055" target="_top" xlink:title=" ">
<polygon fill="white" stroke="#666666" points="191.5,-20 0,-20 0,0 191.5,0 191.5,-20"/>
<text xml:space="preserve" text-anchor="middle" x="95.75" y="-6.5" font-family="Helvetica,sans-Serif" font-size="10.00">MarmoManagerApp::MarmoManagerApp</text>
</a>
</g>
</g>
<!-- Node2&#45;&gt;Node3 -->
<g id="edge2_Node000002_Node000003" class="edge">
<title>Node2&#45;&gt;Node3</title>
<g id="a_edge2_Node000002_Node000003"><a xlink:title=" ">
<path fill="none" stroke="#63b8ff" d="M215.81,-10C207.76,-10 199.65,-10 191.66,-10"/>
<polygon fill="#63b8ff" stroke="#63b8ff" points="215.63,-13.5 225.63,-10 215.63,-6.5 215.63,-13.5"/>
</a>
</g>
</g>
</g>
</svg>
