<?xml version="1.0" encoding="UTF-8" standalone="no"?>
<!DOCTYPE svg PUBLIC "-//W3C//DTD SVG 1.1//EN"
 "http://www.w3.org/Graphics/SVG/1.1/DTD/svg11.dtd">
<!-- Generated by graphviz version 14.1.4 (20260321.0153)
 -->
<!-- Title: OSRepository::create Pages: 1 -->
<svg width="424pt" height="66pt"
 viewBox="0.00 0.00 424.00 66.00" xmlns="http://www.w3.org/2000/svg" xmlns:xlink="http://www.w3.org/1999/xlink">
<g id="graph0" class="graph" transform="scale(1 1) rotate(0) translate(4 62)">
<title>OSRepository::create</title>
<!-- Node1 -->
<g id="Node000001" class="node">
<title>Node1</title>
<g id="a_Node000001"><a xlink:title="Cria uma nova Ordem de Serviço (OS).">
<polygon fill="#999999" stroke="#666666" points="110.5,-39 0,-39 0,-19 110.5,-19 110.5,-39"/>
<text xml:space="preserve" text-anchor="middle" x="55.25" y="-25.5" font-family="Helvetica,sans-Serif" font-size="10.00">OSRepository::create</text>
</a>
</g>
</g>
<!-- Node2 -->
<g id="Node000002" class="node">
<title>Node2</title>
<g id="a_Node000002"><a xlink:href="classDatabase.html#aaf21db9254c8ed77d4d800802c987d87" target="_top" xlink:title="Recupera o objeto de conexão QSqlDatabase.">
<polygon fill="white" stroke="#666666" points="273.5,-58 146.5,-58 146.5,-38 273.5,-38 273.5,-58"/>
<text xml:space="preserve" text-anchor="middle" x="210" y="-44.5" font-family="Helvetica,sans-Serif" font-size="10.00">Database::getConnection</text>
</a>
</g>
</g>
<!-- Node1&#45;&gt;Node2 -->
<g id="edge1_Node000001_Node000002" class="edge">
<title>Node1&#45;&gt;Node2</title>
<g id="a_edge1_Node000001_Node000002"><a xlink:title=" ">
<path fill="none" stroke="#63b8ff" d="M110.96,-35.81C118.7,-36.77 126.77,-37.77 134.8,-38.77"/>
<polygon fill="#63b8ff" stroke="#63b8ff" points="134.23,-42.23 144.59,-39.99 135.1,-35.28 134.23,-42.23"/>
</a>
</g>
</g>
<!-- Node3 -->
<g id="Node000003" class="node">
<title>Node3</title>
<g id="a_Node000003"><a xlink:href="classDatabase.html#aa04e547554cc34fa4b6c5a9390021eab" target="_top" xlink:title="Obtém a instância única do Banco de Dados.">
<polygon fill="white" stroke="#666666" points="267.5,-20 152.5,-20 152.5,0 267.5,0 267.5,-20"/>
<text xml:space="preserve" text-anchor="middle" x="210" y="-6.5" font-family="Helvetica,sans-Serif" font-size="10.00">Database::getInstance</text>
</a>
</g>
</g>
<!-- Node1&#45;&gt;Node3 -->
<g id="edge2_Node000001_Node000003" class="edge">
<title>Node1&#45;&gt;Node3</title>
<g id="a_edge2_Node000001_Node000003"><a xlink:title=" ">
<path fill="none" stroke="#63b8ff" d="M110.96,-22.19C120.67,-20.99 130.88,-19.72 140.9,-18.47"/>
<polygon fill="#63b8ff" stroke="#63b8ff" points="141.1,-21.97 150.59,-17.27 140.23,-15.03 141.1,-21.97"/>
</a>
</g>
</g>
<!-- Node4 -->
<g id="Node000004" class="node">
<title>Node4</title>
<g id="a_Node000004"><a xlink:href="classDatabase.html#a4703c80e6969d33565ea340f768fdadf" target="_top" xlink:title=" ">
<polygon fill="white" stroke="#666666" points="415.5,-20 309.5,-20 309.5,0 415.5,0 415.5,-20"/>
<text xml:space="preserve" text-anchor="middle" x="362.5" y="-6.5" font-family="Helvetica,sans-Serif" font-size="10.00">Database::Database</text>
</a>
</g>
</g>
<!-- Node3&#45;&gt;Node4 -->
<g id="edge3_Node000003_Node000004" class="edge">
<title>Node3&#45;&gt;Node4</title>
<g id="a_edge3_Node000003_Node000004"><a xlink:title=" ">
<path fill="none" stroke="#63b8ff" d="M267.9,-10C277.82,-10 288.19,-10 298.26,-10"/>
<polygon fill="#63b8ff" stroke="#63b8ff" points="297.96,-13.5 307.96,-10 297.96,-6.5 297.96,-13.5"/>
</a>
</g>
</g>
</g>
</svg>
