<?xml version="1.0" encoding="UTF-8" standalone="no"?>
<!DOCTYPE svg PUBLIC "-//W3C//DTD SVG 1.1//EN"
 "http://www.w3.org/Graphics/SVG/1.1/DTD/svg11.dtd">
<!-- Generated by graphviz version 14.1.4 (20260321.0153)
 -->
<!-- Title: TestGUI Pages: 1 -->
<svg width="159pt" height="324pt"
 viewBox="0.00 0.00 159.00 324.00" xmlns="http://www.w3.org/2000/svg" xmlns:xlink="http://www.w3.org/1999/xlink">

<svg id="main" version="1.1" xmlns="http://www.w3.org/2000/svg" xmlns:xlink="http://www.w3.org/1999/xlink" xml:space="preserve">

<style type="text/css"><![CDATA[
.node, .edge {opacity: 0.7;}
.node.selected, .edge.selected {opacity: 1;}
.edge:hover path { stroke: red; }
.edge:hover polygon { stroke: red; fill: red; }
]]></style>
<script type="application/ecmascript" xlink:href="svg.min.js"/>
<svg id="graph" class="graph">
<g id="graph0" class="graph" transform="scale(1 1) rotate(0) translate(4 320)">
<title>TestGUI</title>
<!-- Node1 -->
<g id="Node000001" class="node">
<title>Node1</title>
<g id="a_Node000001"><a xlink:title=" ">
<polygon fill="#999999" stroke="none" points="150.75,-228 0,-228 0,0 150.75,0 150.75,-228"/>
<text xml:space="preserve" text-anchor="start" x="57" y="-214.25" font-family="Helvetica,sans-Serif" font-size="10.00">TestGUI</text>
<text xml:space="preserve" text-anchor="start" x="4" y="-198.25" font-family="Helvetica,sans-Serif" font-size="10.00">&#45;</text>
<text xml:space="preserve" text-anchor="start" x="11" y="-198.25" font-family="Helvetica,sans-Serif" font-size="10.00">app</text>
<text xml:space="preserve" text-anchor="start" x="4" y="-182.25" font-family="Helvetica,sans-Serif" font-size="10.00">&#45;</text>
<text xml:space="preserve" text-anchor="start" x="11" y="-182.25" font-family="Helvetica,sans-Serif" font-size="10.00">expectedMsgBoxText</text>
<text xml:space="preserve" text-anchor="start" x="4" y="-166.25" font-family="Helvetica,sans-Serif" font-size="10.00">&#45;</text>
<text xml:space="preserve" text-anchor="start" x="11" y="-166.25" font-family="Helvetica,sans-Serif" font-size="10.00">msgBoxFound</text>
<text xml:space="preserve" text-anchor="start" x="4" y="-150.25" font-family="Helvetica,sans-Serif" font-size="10.00">&#45;</text>
<text xml:space="preserve" text-anchor="start" x="11" y="-150.25" font-family="Helvetica,sans-Serif" font-size="10.00">initTestCase()</text>
<text xml:space="preserve" text-anchor="start" x="4" y="-134.25" font-family="Helvetica,sans-Serif" font-size="10.00">&#45;</text>
<text xml:space="preserve" text-anchor="start" x="11" y="-134.25" font-family="Helvetica,sans-Serif" font-size="10.00">cleanupTestCase()</text>
<text xml:space="preserve" text-anchor="start" x="4" y="-118.25" font-family="Helvetica,sans-Serif" font-size="10.00">&#45;</text>
<text xml:space="preserve" text-anchor="start" x="11" y="-118.25" font-family="Helvetica,sans-Serif" font-size="10.00">testCadastrarNovaOrdemDe</text>
<text xml:space="preserve" text-anchor="start" x="11" y="-106.25" font-family="Helvetica,sans-Serif" font-size="10.00">ServicoComSucesso_data()</text>
<text xml:space="preserve" text-anchor="start" x="4" y="-90.25" font-family="Helvetica,sans-Serif" font-size="10.00">&#45;</text>
<text xml:space="preserve" text-anchor="start" x="11" y="-90.25" font-family="Helvetica,sans-Serif" font-size="10.00">testCadastrarNovaOrdemDe</text>
<text xml:space="preserve" text-anchor="start" x="11" y="-78.25" font-family="Helvetica,sans-Serif" font-size="10.00">ServicoComSucesso()</text>
<text xml:space="preserve" text-anchor="start" x="4" y="-62.25" font-family="Helvetica,sans-Serif" font-size="10.00">&#45;</text>
<text xml:space="preserve" text-anchor="start" x="11" y="-62.25" font-family="Helvetica,sans-Serif" font-size="10.00">testConsultarOrdensDeServico</text>
<text xml:space="preserve" text-anchor="start" x="11" y="-50.25" font-family="Helvetica,sans-Serif" font-size="10.00">PorNomeDoCliente_data()</text>
<text xml:space="preserve" text-anchor="start" x="4" y="-34.25" font-family="Helvetica,sans-Serif" font-size="10.00">&#45;</text>
<text xml:space="preserve" text-anchor="start" x="11" y="-34.25" font-family="Helvetica,sans-Serif" font-size="10.00">testConsultarOrdensDeServico</text>
<text xml:space="preserve" text-anchor="start" x="11" y="-22.25" font-family="Helvetica,sans-Serif" font-size="10.00">PorNomeDoCliente()</text>
<text xml:space="preserve" text-anchor="start" x="4" y="-6.25" font-family="Helvetica,sans-Serif" font-size="10.00">&#45;</text>
<text xml:space="preserve" text-anchor="start" x="11" y="-6.25" font-family="Helvetica,sans-Serif" font-size="10.00">timeOutMsgBox()</text>
<polygon fill="#666666" stroke="#666666" points="0,-210 0,-210 150.75,-210 150.75,-210 0,-210"/>
<polygon fill="#666666" stroke="#666666" points="0,-162 0,-162 9,-162 9,-162 0,-162"/>
<polygon fill="#666666" stroke="#666666" points="9,-162 9,-162 150.75,-162 150.75,-162 9,-162"/>
<polygon fill="none" stroke="#666666" points="0,0 0,-228 150.75,-228 150.75,0 0,0"/>
</a>
</g>
</g>
<!-- Node2 -->
<g id="Node000002" class="node">
<title>Node2</title>
<g id="a_Node000002"><a xlink:title=" ">
<polygon fill="white" stroke="none" points="97.38,-316 53.38,-316 53.38,-264 97.38,-264 97.38,-316"/>
<text xml:space="preserve" text-anchor="start" x="57.38" y="-302.25" font-family="Helvetica,sans-Serif" font-size="10.00">QObject</text>
<text xml:space="preserve" text-anchor="start" x="73.88" y="-286.25" font-family="Helvetica,sans-Serif" font-size="10.00"> </text>
<text xml:space="preserve" text-anchor="start" x="73.88" y="-270.25" font-family="Helvetica,sans-Serif" font-size="10.00"> </text>
<polygon fill="#666666" stroke="#666666" points="53.38,-298 53.38,-298 97.38,-298 97.38,-298 53.38,-298"/>
<polygon fill="#666666" stroke="#666666" points="53.38,-282 53.38,-282 97.38,-282 97.38,-282 53.38,-282"/>
<polygon fill="none" stroke="#666666" points="53.38,-264 53.38,-316 97.38,-316 97.38,-264 53.38,-264"/>
</a>
</g>
</g>
<!-- Node2&#45;&gt;Node1 -->
<g id="edge1_Node000001_Node000002" class="edge">
<title>Node2&#45;&gt;Node1</title>
<g id="a_edge1_Node000001_Node000002"><a xlink:title=" ">
<path fill="none" stroke="#63b8ff" d="M75.38,-252.72C75.38,-245.03 75.38,-236.53 75.38,-227.64"/>
<polygon fill="none" stroke="#63b8ff" points="71.88,-252.56 75.38,-262.56 78.88,-252.56 71.88,-252.56"/>
</a>
</g>
</g>
</g>
</svg>
</svg>

<style type='text/css'>
<![CDATA[
[data-mouse-over-selected='false'] { opacity: 0.7; }
[data-mouse-over-selected='true']  { opacity: 1.0; }
]]>
</style>
<script type="application/ecmascript"><![CDATA[
document.addEventListener('DOMContentLoaded', (event) => {
  highlightEdges();
  highlightAdjacentNodes();
});
]]></script>
</svg>
