<?xml version="1.0" encoding="UTF-8" standalone="no"?>
<!DOCTYPE svg PUBLIC "-//W3C//DTD SVG 1.1//EN"
 "http://www.w3.org/Graphics/SVG/1.1/DTD/svg11.dtd">
<!-- Generated by graphviz version 14.1.4 (20260321.0153)
 -->
<!-- Title: TestCore::testControllerCadastrarSucesso Pages: 1 -->
<svg width="303pt" height="66pt"
 viewBox="0.00 0.00 303.00 66.00" xmlns="http://www.w3.org/2000/svg" xmlns:xlink="http://www.w3.org/1999/xlink">
<g id="graph0" class="graph" transform="scale(1 1) rotate(0) translate(4 62)">
<title>TestCore::testControllerCadastrarSucesso</title>
<!-- Node1 -->
<g id="Node000001" class="node">
<title>Node1</title>
<g id="a_Node000001"><a xlink:title=" ">
<polygon fill="#999999" stroke="#666666" points="120.25,-45 0,-45 0,-13 120.25,-13 120.25,-45"/>
<text xml:space="preserve" text-anchor="start" x="8" y="-31.5" font-family="Helvetica,sans-Serif" font-size="10.00">TestCore::testController</text>
<text xml:space="preserve" text-anchor="middle" x="60.12" y="-19.5" font-family="Helvetica,sans-Serif" font-size="10.00">CadastrarSucesso</text>
</a>
</g>
</g>
<!-- Node2 -->
<g id="Node000002" class="node">
<title>Node2</title>
<g id="a_Node000002"><a xlink:href="classOSController.html#a3361b93effeed435c51858d24117f7f0" target="_top" xlink:title="Cadastra uma nova OS aplicando as regras de negócio.">
<polygon fill="white" stroke="#666666" points="292.25,-58 159.25,-58 159.25,-38 292.25,-38 292.25,-58"/>
<text xml:space="preserve" text-anchor="middle" x="225.75" y="-44.5" font-family="Helvetica,sans-Serif" font-size="10.00">OSController::cadastrarOS</text>
</a>
</g>
</g>
<!-- Node1&#45;&gt;Node2 -->
<g id="edge1_Node000001_Node000002" class="edge">
<title>Node1&#45;&gt;Node2</title>
<g id="a_edge1_Node000001_Node000002"><a xlink:title=" ">
<path fill="none" stroke="#63b8ff" d="M120.66,-35.91C129.4,-36.93 138.5,-37.99 147.53,-39.03"/>
<polygon fill="#63b8ff" stroke="#63b8ff" points="147.06,-42.5 157.39,-40.18 147.86,-35.55 147.06,-42.5"/>
</a>
</g>
</g>
<!-- Node3 -->
<g id="Node000003" class="node">
<title>Node3</title>
<g id="a_Node000003"><a xlink:href="classOSController.html#a7a8750890ab20b20979b8a1c9e7208b0" target="_top" xlink:title="Recupera o histórico de uma OS específica.">
<polygon fill="white" stroke="#666666" points="295.25,-20 156.25,-20 156.25,0 295.25,0 295.25,-20"/>
<text xml:space="preserve" text-anchor="middle" x="225.75" y="-6.5" font-family="Helvetica,sans-Serif" font-size="10.00">OSController::obterHistorico</text>
</a>
</g>
</g>
<!-- Node1&#45;&gt;Node3 -->
<g id="edge2_Node000001_Node000003" class="edge">
<title>Node1&#45;&gt;Node3</title>
<g id="a_edge2_Node000001_Node000003"><a xlink:title=" ">
<path fill="none" stroke="#63b8ff" d="M120.66,-22.09C128.42,-21.19 136.48,-20.25 144.51,-19.32"/>
<polygon fill="#63b8ff" stroke="#63b8ff" points="144.79,-22.81 154.32,-18.18 143.98,-15.86 144.79,-22.81"/>
</a>
</g>
</g>
</g>
</svg>
