<?xml version="1.0" encoding="UTF-8" standalone="no"?>
<!DOCTYPE svg PUBLIC "-//W3C//DTD SVG 1.1//EN"
 "http://www.w3.org/Graphics/SVG/1.1/DTD/svg11.dtd">
<!-- Generated by graphviz version 14.1.4 (20260321.0153)
 -->
<!-- Title: HistoricoRepository Pages: 1 -->
<svg width="118pt" height="92pt"
 viewBox="0.00 0.00 118.00 92.00" xmlns="http://www.w3.org/2000/svg" xmlns:xlink="http://www.w3.org/1999/xlink">
<g id="graph0" class="graph" transform="scale(1 1) rotate(0) translate(4 88)">
<title>HistoricoRepository</title>
<!-- Node1 -->
<g id="Node000001" class="node">
<title>Node1</title>
<g id="a_Node000001"><a xlink:title="Data Access Object (DAO) para o Histórico de OS.">
<polygon fill="#999999" stroke="none" points="110.25,-84 0,-84 0,0 110.25,0 110.25,-84"/>
<text xml:space="preserve" text-anchor="start" x="12" y="-70.25" font-family="Helvetica,sans-Serif" font-size="10.00">HistoricoRepository</text>
<text xml:space="preserve" text-anchor="start" x="53.62" y="-54.25" font-family="Helvetica,sans-Serif" font-size="10.00"> </text>
<text xml:space="preserve" text-anchor="start" x="4" y="-38.25" font-family="Helvetica,sans-Serif" font-size="10.00">+</text>
<text xml:space="preserve" text-anchor="start" x="14" y="-38.25" font-family="Helvetica,sans-Serif" font-size="10.00">HistoricoRepository()</text>
<text xml:space="preserve" text-anchor="start" x="4" y="-22.25" font-family="Helvetica,sans-Serif" font-size="10.00">+</text>
<text xml:space="preserve" text-anchor="start" x="14" y="-22.25" font-family="Helvetica,sans-Serif" font-size="10.00">create()</text>
<text xml:space="preserve" text-anchor="start" x="4" y="-6.25" font-family="Helvetica,sans-Serif" font-size="10.00">+</text>
<text xml:space="preserve" text-anchor="start" x="14" y="-6.25" font-family="Helvetica,sans-Serif" font-size="10.00">getByOsId()</text>
<polygon fill="#666666" stroke="#666666" points="0,-66 0,-66 110.25,-66 110.25,-66 0,-66"/>
<polygon fill="#666666" stroke="#666666" points="0,-50 0,-50 110.25,-50 110.25,-50 0,-50"/>
<polygon fill="none" stroke="#666666" points="0,0 0,-84 110.25,-84 110.25,0 0,0"/>
</a>
</g>
</g>
</g>
</svg>
