<?xml version="1.0" encoding="UTF-8" standalone="no"?>
<!DOCTYPE svg PUBLIC "-//W3C//DTD SVG 1.1//EN"
 "http://www.w3.org/Graphics/SVG/1.1/DTD/svg11.dtd">
<!-- Generated by graphviz version 14.1.4 (20260321.0153)
 -->
<!-- Title: MarmoManagerApp::atualizarStatus Pages: 1 -->
<svg width="367pt" height="116pt"
 viewBox="0.00 0.00 367.00 116.00" xmlns="http://www.w3.org/2000/svg" xmlns:xlink="http://www.w3.org/1999/xlink">
<g id="graph0" class="graph" transform="scale(1 1) rotate(0) translate(4 112)">
<title>MarmoManagerApp::atualizarStatus</title>
<!-- Node1 -->
<g id="Node000001" class="node">
<title>Node1</title>
<g id="a_Node000001"><a xlink:title=" ">
<polygon fill="#999999" stroke="#666666" points="143.5,-70 0,-70 0,-38 143.5,-38 143.5,-70"/>
<text xml:space="preserve" text-anchor="start" x="8" y="-56.5" font-family="Helvetica,sans-Serif" font-size="10.00">MarmoManagerApp::atualizar</text>
<text xml:space="preserve" text-anchor="middle" x="71.75" y="-44.5" font-family="Helvetica,sans-Serif" font-size="10.00">Status</text>
</a>
</g>
</g>
<!-- Node2 -->
<g id="Node000002" class="node">
<title>Node2</title>
<g id="a_Node000002"><a xlink:href="classMarmoManagerApp.html#a871003c283fb550e298bafb52ce14c1a" target="_top" xlink:title=" ">
<polygon fill="white" stroke="#666666" points="359,-108 179.5,-108 179.5,-88 359,-88 359,-108"/>
<text xml:space="preserve" text-anchor="middle" x="269.25" y="-94.5" font-family="Helvetica,sans-Serif" font-size="10.00">MarmoManagerApp::getSelectedOsId</text>
</a>
</g>
</g>
<!-- Node1&#45;&gt;Node2 -->
<g id="edge1_Node000001_Node000002" class="edge">
<title>Node1&#45;&gt;Node2</title>
<g id="a_edge1_Node000001_Node000002"><a xlink:title=" ">
<path fill="none" stroke="#63b8ff" d="M142.19,-70.46C154.6,-73.35 167.43,-76.29 179.5,-79 188.46,-81.01 197.95,-83.09 207.25,-85.1"/>
<polygon fill="#63b8ff" stroke="#63b8ff" points="206.47,-88.51 216.98,-87.2 207.94,-81.67 206.47,-88.51"/>
</a>
</g>
</g>
<!-- Node3 -->
<g id="Node000003" class="node">
<title>Node3</title>
<g id="a_Node000003"><a xlink:href="classMarmoManagerApp.html#a55126ad8dac77503a4c3eb0741e739cd" target="_top" xlink:title=" ">
<polygon fill="white" stroke="#666666" points="348.5,-70 190,-70 190,-38 348.5,-38 348.5,-70"/>
<text xml:space="preserve" text-anchor="start" x="198" y="-56.5" font-family="Helvetica,sans-Serif" font-size="10.00">MarmoManagerApp::getSelected</text>
<text xml:space="preserve" text-anchor="middle" x="269.25" y="-44.5" font-family="Helvetica,sans-Serif" font-size="10.00">OsStatus</text>
</a>
</g>
</g>
<!-- Node1&#45;&gt;Node3 -->
<g id="edge2_Node000001_Node000003" class="edge">
<title>Node1&#45;&gt;Node3</title>
<g id="a_edge2_Node000001_Node000003"><a xlink:title=" ">
<path fill="none" stroke="#63b8ff" d="M143.88,-54C155.02,-54 166.65,-54 178.15,-54"/>
<polygon fill="#63b8ff" stroke="#63b8ff" points="178.06,-57.5 188.06,-54 178.06,-50.5 178.06,-57.5"/>
</a>
</g>
</g>
<!-- Node4 -->
<g id="Node000004" class="node">
<title>Node4</title>
<g id="a_Node000004"><a xlink:href="classMarmoManagerApp.html#a980978dc7049dfaddeed39eb809219e8" target="_top" xlink:title=" ">
<polygon fill="white" stroke="#666666" points="349.25,-20 189.25,-20 189.25,0 349.25,0 349.25,-20"/>
<text xml:space="preserve" text-anchor="middle" x="269.25" y="-6.5" font-family="Helvetica,sans-Serif" font-size="10.00">MarmoManagerApp::loadOSData</text>
</a>
</g>
</g>
<!-- Node1&#45;&gt;Node4 -->
<g id="edge3_Node000001_Node000004" class="edge">
<title>Node1&#45;&gt;Node4</title>
<g id="a_edge3_Node000001_Node000004"><a xlink:title=" ">
<path fill="none" stroke="#63b8ff" d="M142.19,-37.54C154.6,-34.65 167.43,-31.71 179.5,-29 188.46,-26.99 197.95,-24.91 207.25,-22.9"/>
<polygon fill="#63b8ff" stroke="#63b8ff" points="207.94,-26.33 216.98,-20.8 206.47,-19.49 207.94,-26.33"/>
</a>
</g>
</g>
</g>
</svg>
