<?xml version="1.0" encoding="UTF-8" standalone="no"?>
<!DOCTYPE svg PUBLIC "-//W3C//DTD SVG 1.1//EN"
 "http://www.w3.org/Graphics/SVG/1.1/DTD/svg11.dtd">
<!-- Generated by graphviz version 14.1.4 (20260321.0153)
 -->
<!-- Title: MarmoManagerApp::getSelectedOsId Pages: 1 -->
<svg width="832pt" height="78pt"
 viewBox="0.00 0.00 832.00 78.00" xmlns="http://www.w3.org/2000/svg" xmlns:xlink="http://www.w3.org/1999/xlink">
<g id="graph0" class="graph" transform="scale(1 1) rotate(0) translate(4 74)">
<title>MarmoManagerApp::getSelectedOsId</title>
<!-- Node1 -->
<g id="Node000001" class="node">
<title>Node1</title>
<g id="a_Node000001"><a xlink:title=" ">
<polygon fill="#999999" stroke="#666666" points="823.75,-42 644.25,-42 644.25,-22 823.75,-22 823.75,-42"/>
<text xml:space="preserve" text-anchor="middle" x="734" y="-28.5" font-family="Helvetica,sans-Serif" font-size="10.00">MarmoManagerApp::getSelectedOsId</text>
</a>
</g>
</g>
<!-- Node2 -->
<g id="Node000002" class="node">
<title>Node2</title>
<g id="a_Node000002"><a xlink:href="classMarmoManagerApp.html#ae9274b8e82144862ae92889e0546eaa2" target="_top" xlink:title=" ">
<polygon fill="white" stroke="#666666" points="600.38,-70 456.88,-70 456.88,-38 600.38,-38 600.38,-70"/>
<text xml:space="preserve" text-anchor="start" x="464.88" y="-56.5" font-family="Helvetica,sans-Serif" font-size="10.00">MarmoManagerApp::atualizar</text>
<text xml:space="preserve" text-anchor="middle" x="528.62" y="-44.5" font-family="Helvetica,sans-Serif" font-size="10.00">Status</text>
</a>
</g>
</g>
<!-- Node1&#45;&gt;Node2 -->
<g id="edge1_Node000001_Node000002" class="edge">
<title>Node1&#45;&gt;Node2</title>
<g id="a_edge1_Node000001_Node000002"><a xlink:title=" ">
<path fill="none" stroke="#63b8ff" d="M632.61,-42.86C621.84,-44.02 611.06,-45.19 600.73,-46.31"/>
<polygon fill="#63b8ff" stroke="#63b8ff" points="632.73,-46.37 642.29,-41.81 631.97,-39.41 632.73,-46.37"/>
</a>
</g>
</g>
<!-- Node5 -->
<g id="Node000005" class="node">
<title>Node5</title>
<g id="a_Node000005"><a xlink:href="classMarmoManagerApp.html#af9faa6ff4f367eb34150c48b131f03a0" target="_top" xlink:title=" ">
<polygon fill="white" stroke="#666666" points="608.25,-20 449,-20 449,0 608.25,0 608.25,-20"/>
<text xml:space="preserve" text-anchor="middle" x="528.62" y="-6.5" font-family="Helvetica,sans-Serif" font-size="10.00">MarmoManagerApp::verHistorico</text>
</a>
</g>
</g>
<!-- Node1&#45;&gt;Node5 -->
<g id="edge4_Node000001_Node000005" class="edge">
<title>Node1&#45;&gt;Node5</title>
<g id="a_edge4_Node000001_Node000005"><a xlink:title=" ">
<path fill="none" stroke="#63b8ff" d="M632.47,-21.12C624.43,-20.26 616.39,-19.39 608.54,-18.54"/>
<polygon fill="#63b8ff" stroke="#63b8ff" points="631.97,-24.59 642.29,-22.19 632.73,-17.63 631.97,-24.59"/>
</a>
</g>
</g>
<!-- Node3 -->
<g id="Node000003" class="node">
<title>Node3</title>
<g id="a_Node000003"><a xlink:href="classMarmoManagerApp.html#aaa4093f9a540417273a7a5849da18c27" target="_top" xlink:title=" ">
<polygon fill="white" stroke="#666666" points="413,-42 227.5,-42 227.5,-22 413,-22 413,-42"/>
<text xml:space="preserve" text-anchor="middle" x="320.25" y="-28.5" font-family="Helvetica,sans-Serif" font-size="10.00">MarmoManagerApp::setupConsultaTab</text>
</a>
</g>
</g>
<!-- Node2&#45;&gt;Node3 -->
<g id="edge2_Node000002_Node000003" class="edge">
<title>Node2&#45;&gt;Node3</title>
<g id="a_edge2_Node000002_Node000003"><a xlink:title=" ">
<path fill="none" stroke="#63b8ff" d="M445.29,-45.22C434.73,-44.1 423.87,-42.94 413.18,-41.8"/>
<polygon fill="#63b8ff" stroke="#63b8ff" points="444.78,-48.69 455.1,-46.27 445.52,-41.73 444.78,-48.69"/>
</a>
</g>
</g>
<!-- Node4 -->
<g id="Node000004" class="node">
<title>Node4</title>
<g id="a_Node000004"><a xlink:href="classMarmoManagerApp.html#a43323a0e85c1887feb435874b2bcc055" target="_top" xlink:title=" ">
<polygon fill="white" stroke="#666666" points="191.5,-42 0,-42 0,-22 191.5,-22 191.5,-42"/>
<text xml:space="preserve" text-anchor="middle" x="95.75" y="-28.5" font-family="Helvetica,sans-Serif" font-size="10.00">MarmoManagerApp::MarmoManagerApp</text>
</a>
</g>
</g>
<!-- Node3&#45;&gt;Node4 -->
<g id="edge3_Node000003_Node000004" class="edge">
<title>Node3&#45;&gt;Node4</title>
<g id="a_edge3_Node000003_Node000004"><a xlink:title=" ">
<path fill="none" stroke="#63b8ff" d="M215.81,-32C207.76,-32 199.65,-32 191.66,-32"/>
<polygon fill="#63b8ff" stroke="#63b8ff" points="215.63,-35.5 225.63,-32 215.63,-28.5 215.63,-35.5"/>
</a>
</g>
</g>
<!-- Node5&#45;&gt;Node3 -->
<g id="edge5_Node000005_Node000003" class="edge">
<title>Node5&#45;&gt;Node3</title>
<g id="a_edge5_Node000005_Node000003"><a xlink:title=" ">
<path fill="none" stroke="#63b8ff" d="M437.45,-19.61C429.42,-20.47 421.28,-21.34 413.23,-22.19"/>
<polygon fill="#63b8ff" stroke="#63b8ff" points="437.64,-23.11 447.22,-18.57 436.9,-16.15 437.64,-23.11"/>
</a>
</g>
</g>
</g>
</svg>
