<?xml version="1.0" encoding="UTF-8" standalone="no"?>
<!DOCTYPE svg PUBLIC "-//W3C//DTD SVG 1.1//EN"
 "http://www.w3.org/Graphics/SVG/1.1/DTD/svg11.dtd">
<!-- Generated by graphviz version 14.1.4 (20260321.0153)
 -->
<!-- Title: OSController::obterHistorico Pages: 1 -->
<svg width="304pt" height="90pt"
 viewBox="0.00 0.00 304.00 90.00" xmlns="http://www.w3.org/2000/svg" xmlns:xlink="http://www.w3.org/1999/xlink">
<g id="graph0" class="graph" transform="scale(1 1) rotate(0) translate(4 86)">
<title>OSController::obterHistorico</title>
<!-- Node1 -->
<g id="Node000001" class="node">
<title>Node1</title>
<g id="a_Node000001"><a xlink:title="Recupera o histórico de uma OS específica.">
<polygon fill="#999999" stroke="#666666" points="296,-51 157,-51 157,-31 296,-31 296,-51"/>
<text xml:space="preserve" text-anchor="middle" x="226.5" y="-37.5" font-family="Helvetica,sans-Serif" font-size="10.00">OSController::obterHistorico</text>
</a>
</g>
</g>
<!-- Node2 -->
<g id="Node000002" class="node">
<title>Node2</title>
<g id="a_Node000002"><a xlink:href="classTestCore.html#ae456d85773ff88a0864ccb9b3ffad71f" target="_top" xlink:title=" ">
<polygon fill="white" stroke="#666666" points="121,-82 0,-82 0,-50 121,-50 121,-82"/>
<text xml:space="preserve" text-anchor="start" x="8" y="-68.5" font-family="Helvetica,sans-Serif" font-size="10.00">TestCore::testController</text>
<text xml:space="preserve" text-anchor="middle" x="60.5" y="-56.5" font-family="Helvetica,sans-Serif" font-size="10.00">AtualizarStatusSucesso</text>
</a>
</g>
</g>
<!-- Node1&#45;&gt;Node2 -->
<g id="edge1_Node000001_Node000002" class="edge">
<title>Node1&#45;&gt;Node2</title>
<g id="a_edge1_Node000001_Node000002"><a xlink:title=" ">
<path fill="none" stroke="#63b8ff" d="M145.79,-53.15C137.61,-54.4 129.4,-55.65 121.48,-56.86"/>
<polygon fill="#63b8ff" stroke="#63b8ff" points="146.04,-56.65 155.4,-51.69 144.99,-49.73 146.04,-56.65"/>
</a>
</g>
</g>
<!-- Node3 -->
<g id="Node000003" class="node">
<title>Node3</title>
<g id="a_Node000003"><a xlink:href="classTestCore.html#a2db7bb70351feec0b7718fc63e684b58" target="_top" xlink:title=" ">
<polygon fill="white" stroke="#666666" points="120.62,-32 0.38,-32 0.38,0 120.62,0 120.62,-32"/>
<text xml:space="preserve" text-anchor="start" x="8.38" y="-18.5" font-family="Helvetica,sans-Serif" font-size="10.00">TestCore::testController</text>
<text xml:space="preserve" text-anchor="middle" x="60.5" y="-6.5" font-family="Helvetica,sans-Serif" font-size="10.00">CadastrarSucesso</text>
</a>
</g>
</g>
<!-- Node1&#45;&gt;Node3 -->
<g id="edge2_Node000001_Node000003" class="edge">
<title>Node1&#45;&gt;Node3</title>
<g id="a_edge2_Node000001_Node000003"><a xlink:title=" ">
<path fill="none" stroke="#63b8ff" d="M145.63,-28.82C137.32,-27.56 128.99,-26.29 120.97,-25.07"/>
<polygon fill="#63b8ff" stroke="#63b8ff" points="144.99,-32.27 155.4,-30.31 146.04,-25.35 144.99,-32.27"/>
</a>
</g>
</g>
</g>
</svg>
