<?xml version="1.0" encoding="UTF-8" standalone="no"?>
<!DOCTYPE svg PUBLIC "-//W3C//DTD SVG 1.1//EN"
 "http://www.w3.org/Graphics/SVG/1.1/DTD/svg11.dtd">
<!-- Generated by graphviz version 14.1.4 (20260321.0153)
 -->
<!-- Title: OSController::atualizarStatusOS Pages: 1 -->
<svg width="323pt" height="90pt"
 viewBox="0.00 0.00 323.00 90.00" xmlns="http://www.w3.org/2000/svg" xmlns:xlink="http://www.w3.org/1999/xlink">
<g id="graph0" class="graph" transform="scale(1 1) rotate(0) translate(4 86)">
<title>OSController::atualizarStatusOS</title>
<!-- Node1 -->
<g id="Node000001" class="node">
<title>Node1</title>
<g id="a_Node000001"><a xlink:title="Atualiza o status da OS e registra no histórico.">
<polygon fill="#999999" stroke="#666666" points="314.75,-51 157,-51 157,-31 314.75,-31 314.75,-51"/>
<text xml:space="preserve" text-anchor="middle" x="235.88" y="-37.5" font-family="Helvetica,sans-Serif" font-size="10.00">OSController::atualizarStatusOS</text>
</a>
</g>
</g>
<!-- Node2 -->
<g id="Node000002" class="node">
<title>Node2</title>
<g id="a_Node000002"><a xlink:href="classTestCore.html#a2b7af696501e25504cf71bea7aefb998" target="_top" xlink:title=" ">
<polygon fill="white" stroke="#666666" points="120.62,-82 0.38,-82 0.38,-50 120.62,-50 120.62,-82"/>
<text xml:space="preserve" text-anchor="start" x="8.38" y="-68.5" font-family="Helvetica,sans-Serif" font-size="10.00">TestCore::testController</text>
<text xml:space="preserve" text-anchor="middle" x="60.5" y="-56.5" font-family="Helvetica,sans-Serif" font-size="10.00">AtualizarStatusFalhas</text>
</a>
</g>
</g>
<!-- Node1&#45;&gt;Node2 -->
<g id="edge1_Node000001_Node000002" class="edge">
<title>Node1&#45;&gt;Node2</title>
<g id="a_edge1_Node000001_Node000002"><a xlink:title=" ">
<path fill="none" stroke="#63b8ff" d="M150.77,-53.13C140.7,-54.58 130.57,-56.04 120.95,-57.43"/>
<polygon fill="#63b8ff" stroke="#63b8ff" points="151.21,-56.6 160.6,-51.71 150.21,-49.67 151.21,-56.6"/>
</a>
</g>
</g>
<!-- Node3 -->
<g id="Node000003" class="node">
<title>Node3</title>
<g id="a_Node000003"><a xlink:href="classTestCore.html#ae456d85773ff88a0864ccb9b3ffad71f" target="_top" xlink:title=" ">
<polygon fill="white" stroke="#666666" points="121,-32 0,-32 0,0 121,0 121,-32"/>
<text xml:space="preserve" text-anchor="start" x="8" y="-18.5" font-family="Helvetica,sans-Serif" font-size="10.00">TestCore::testController</text>
<text xml:space="preserve" text-anchor="middle" x="60.5" y="-6.5" font-family="Helvetica,sans-Serif" font-size="10.00">AtualizarStatusSucesso</text>
</a>
</g>
</g>
<!-- Node1&#45;&gt;Node3 -->
<g id="edge2_Node000001_Node000003" class="edge">
<title>Node1&#45;&gt;Node3</title>
<g id="a_edge2_Node000001_Node000003"><a xlink:title=" ">
<path fill="none" stroke="#63b8ff" d="M150.93,-28.9C140.99,-27.46 131,-26.02 121.49,-24.65"/>
<polygon fill="#63b8ff" stroke="#63b8ff" points="150.21,-32.33 160.6,-30.29 151.21,-25.4 150.21,-32.33"/>
</a>
</g>
</g>
</g>
</svg>
