<?xml version="1.0" encoding="UTF-8" standalone="no"?>
<!DOCTYPE svg PUBLIC "-//W3C//DTD SVG 1.1//EN"
 "http://www.w3.org/Graphics/SVG/1.1/DTD/svg11.dtd">
<!-- Generated by graphviz version 14.1.4 (20260321.0153)
 -->
<!-- Title: OSRepository::updateStatus Pages: 1 -->
<svg width="454pt" height="66pt"
 viewBox="0.00 0.00 454.00 66.00" xmlns="http://www.w3.org/2000/svg" xmlns:xlink="http://www.w3.org/1999/xlink">
<g id="graph0" class="graph" transform="scale(1 1) rotate(0) translate(4 62)">
<title>OSRepository::updateStatus</title>
<!-- Node1 -->
<g id="Node000001" class="node">
<title>Node1</title>
<g id="a_Node000001"><a xlink:title="Atualiza o status de uma OS existente.">
<polygon fill="#999999" stroke="#666666" points="141.25,-39 0,-39 0,-19 141.25,-19 141.25,-39"/>
<text xml:space="preserve" text-anchor="middle" x="70.62" y="-25.5" font-family="Helvetica,sans-Serif" font-size="10.00">OSRepository::updateStatus</text>
</a>
</g>
</g>
<!-- Node2 -->
<g id="Node000002" class="node">
<title>Node2</title>
<g id="a_Node000002"><a xlink:href="classDatabase.html#aaf21db9254c8ed77d4d800802c987d87" target="_top" xlink:title="Recupera o objeto de conexão QSqlDatabase.">
<polygon fill="white" stroke="#666666" points="304.25,-58 177.25,-58 177.25,-38 304.25,-38 304.25,-58"/>
<text xml:space="preserve" text-anchor="middle" x="240.75" y="-44.5" font-family="Helvetica,sans-Serif" font-size="10.00">Database::getConnection</text>
</a>
</g>
</g>
<!-- Node1&#45;&gt;Node2 -->
<g id="edge1_Node000001_Node000002" class="edge">
<title>Node1&#45;&gt;Node2</title>
<g id="a_edge1_Node000001_Node000002"><a xlink:title=" ">
<path fill="none" stroke="#63b8ff" d="M141.46,-36.89C149.44,-37.79 157.58,-38.71 165.61,-39.62"/>
<polygon fill="#63b8ff" stroke="#63b8ff" points="165.01,-43.08 175.34,-40.72 165.79,-36.12 165.01,-43.08"/>
</a>
</g>
</g>
<!-- Node3 -->
<g id="Node000003" class="node">
<title>Node3</title>
<g id="a_Node000003"><a xlink:href="classDatabase.html#aa04e547554cc34fa4b6c5a9390021eab" target="_top" xlink:title="Obtém a instância única do Banco de Dados.">
<polygon fill="white" stroke="#666666" points="298.25,-20 183.25,-20 183.25,0 298.25,0 298.25,-20"/>
<text xml:space="preserve" text-anchor="middle" x="240.75" y="-6.5" font-family="Helvetica,sans-Serif" font-size="10.00">Database::getInstance</text>
</a>
</g>
</g>
<!-- Node1&#45;&gt;Node3 -->
<g id="edge2_Node000001_Node000003" class="edge">
<title>Node1&#45;&gt;Node3</title>
<g id="a_edge2_Node000001_Node000003"><a xlink:title=" ">
<path fill="none" stroke="#63b8ff" d="M141.46,-21.11C151.39,-19.99 161.58,-18.83 171.47,-17.72"/>
<polygon fill="#63b8ff" stroke="#63b8ff" points="171.86,-21.19 181.4,-16.59 171.07,-14.24 171.86,-21.19"/>
</a>
</g>
</g>
<!-- Node4 -->
<g id="Node000004" class="node">
<title>Node4</title>
<g id="a_Node000004"><a xlink:href="classDatabase.html#a4703c80e6969d33565ea340f768fdadf" target="_top" xlink:title=" ">
<polygon fill="white" stroke="#666666" points="446.25,-20 340.25,-20 340.25,0 446.25,0 446.25,-20"/>
<text xml:space="preserve" text-anchor="middle" x="393.25" y="-6.5" font-family="Helvetica,sans-Serif" font-size="10.00">Database::Database</text>
</a>
</g>
</g>
<!-- Node3&#45;&gt;Node4 -->
<g id="edge3_Node000003_Node000004" class="edge">
<title>Node3&#45;&gt;Node4</title>
<g id="a_edge3_Node000003_Node000004"><a xlink:title=" ">
<path fill="none" stroke="#63b8ff" d="M298.65,-10C308.57,-10 318.94,-10 329.01,-10"/>
<polygon fill="#63b8ff" stroke="#63b8ff" points="328.71,-13.5 338.71,-10 328.71,-6.5 328.71,-13.5"/>
</a>
</g>
</g>
</g>
</svg>
