<?xml version="1.0" encoding="UTF-8" standalone="no"?>
<!DOCTYPE svg PUBLIC "-//W3C//DTD SVG 1.1//EN"
 "http://www.w3.org/Graphics/SVG/1.1/DTD/svg11.dtd">
<!-- Generated by graphviz version 14.1.4 (20260321.0153)
 -->
<!-- Title: Database::Database Pages: 1 -->
<!--zoomable 356 -->

<svg id="main" version="1.1" xmlns="http://www.w3.org/2000/svg" xmlns:xlink="http://www.w3.org/1999/xlink" xml:space="preserve" onload="init(evt)">

<style type="text/css"><![CDATA[
.node, .edge {opacity: 0.7;}
.node.selected, .edge.selected {opacity: 1;}
.edge:hover path { stroke: red; }
.edge:hover polygon { stroke: red; fill: red; }
]]></style>

<defs>
  <circle id="rim" cx="0" cy="0" r="7"/>
  <circle id="rim2" cx="0" cy="0" r="3.5"/>
  <g id="zoomPlus">
    <use xlink:href="#rim" fill="#404040"><set attributeName="fill" to="#808080" begin="zoomplus.mouseover" end="zoomplus.mouseout"/></use>
    <path d="M-4,0h8M0,-4v8" fill="none" stroke="white" stroke-width="1.5" pointer-events="none"/>
  </g>
  <g id="zoomMin">
    <use xlink:href="#rim" fill="#404040"><set attributeName="fill" to="#808080" begin="zoomminus.mouseover" end="zoomminus.mouseout"/></use>
    <path d="M-4,0h8" fill="none" stroke="white" stroke-width="1.5" pointer-events="none"/>
  </g>
  <g id="arrowUp" transform="translate(30 24)">
    <use xlink:href="#rim"/>
    <path pointer-events="none" fill="none" stroke="white" stroke-width="1.5" d="M0,-3.0v7 M-2.5,-0.5L0,-3.0L2.5,-0.5"/>
  </g>
  <g id="arrowRight" transform="rotate(90) translate(36 -43)">
    <use xlink:href="#rim"/>
    <path pointer-events="none" fill="none" stroke="white" stroke-width="1.5" d="M0,-3.0v7 M-2.5,-0.5L0,-3.0L2.5,-0.5"/>
  </g>
  <g id="arrowDown" transform="rotate(180) translate(-30 -48)">
    <use xlink:href="#rim"/>
    <path pointer-events="none" fill="none" stroke="white" stroke-width="1.5" d="M0,-3.0v7 M-2.5,-0.5L0,-3.0L2.5,-0.5"/>
  </g>
  <g id="arrowLeft" transform="rotate(270) translate(-36 17)">
    <use xlink:href="#rim"/>
    <path pointer-events="none" fill="none" stroke="white" stroke-width="1.5" d="M0,-3.0v7 M-2.5,-0.5L0,-3.0L2.5,-0.5"/>
  </g>
  <g id="resetDef">
    <use xlink:href="#rim2" fill="#404040"><set attributeName="fill" to="#808080" begin="reset.mouseover" end="reset.mouseout"/></use>
  </g>
</defs>
<script type="application/ecmascript">
var viewWidth = 599;
var viewHeight = 356;
var sectionId = 'dynsection-1';
</script>
<script type="application/ecmascript" xlink:href="svg.min.js"/>
<svg id="graph" class="graph">
<g id="viewport">
<title>Database::Database</title>
<!-- Node1 -->
<g id="Node000001" class="node">
<title>Node1</title>
<g id="a_Node000001"><a xlink:title=" ">
<polygon fill="#999999" stroke="#666666" points="590.5,-172 484.5,-172 484.5,-152 590.5,-152 590.5,-172"/>
<text xml:space="preserve" text-anchor="middle" x="537.5" y="-158.5" font-family="Helvetica,sans-Serif" font-size="10.00">Database::Database</text>
</a>
</g>
</g>
<!-- Node2 -->
<g id="Node000002" class="node">
<title>Node2</title>
<g id="a_Node000002"><a xlink:href="classDatabase.html#a83f8b6d2941a4aee50f225e08e97291c" target="_top" xlink:title=" ">
<polygon fill="white" stroke="#666666" points="444,-210 338,-210 338,-190 444,-190 444,-210"/>
<text xml:space="preserve" text-anchor="middle" x="391" y="-196.5" font-family="Helvetica,sans-Serif" font-size="10.00">Database::Database</text>
</a>
</g>
</g>
<!-- Node1&#45;&gt;Node2 -->
<g id="edge1_Node000001_Node000002" class="edge">
<title>Node1&#45;&gt;Node2</title>
<g id="a_edge1_Node000001_Node000002"><a xlink:title=" ">
<path fill="none" stroke="#63b8ff" d="M485.62,-175.38C467.94,-180.03 448.38,-185.17 431.74,-189.55"/>
<polygon fill="#63b8ff" stroke="#63b8ff" points="486.39,-178.8 495.17,-172.87 484.61,-172.03 486.39,-178.8"/>
</a>
</g>
</g>
<!-- Node3 -->
<g id="Node000003" class="node">
<title>Node3</title>
<g id="a_Node000003"><a xlink:href="classDatabase.html#aa04e547554cc34fa4b6c5a9390021eab" target="_top" xlink:title="Obtém a instância única do Banco de Dados.">
<polygon fill="white" stroke="#666666" points="448.5,-172 333.5,-172 333.5,-152 448.5,-152 448.5,-172"/>
<text xml:space="preserve" text-anchor="middle" x="391" y="-158.5" font-family="Helvetica,sans-Serif" font-size="10.00">Database::getInstance</text>
</a>
</g>
</g>
<!-- Node1&#45;&gt;Node3 -->
<g id="edge2_Node000001_Node000003" class="edge">
<title>Node1&#45;&gt;Node3</title>
<g id="a_edge2_Node000001_Node000003"><a xlink:title=" ">
<path fill="none" stroke="#63b8ff" d="M472.84,-162C464.9,-162 456.81,-162 448.98,-162"/>
<polygon fill="#63b8ff" stroke="#63b8ff" points="472.82,-165.5 482.82,-162 472.82,-158.5 472.82,-165.5"/>
</a>
</g>
</g>
<!-- Node15 -->
<g id="Node000015" class="node">
<title>Node15</title>
<g id="a_Node000015"><a xlink:href="classDatabase.html#a46b93a4878076c7cfddd5b4058297f14" target="_top" xlink:title=" ">
<polygon fill="white" stroke="#666666" points="443.62,-134 338.38,-134 338.38,-114 443.62,-114 443.62,-134"/>
<text xml:space="preserve" text-anchor="middle" x="391" y="-120.5" font-family="Helvetica,sans-Serif" font-size="10.00">Database::operator=</text>
</a>
</g>
</g>
<!-- Node1&#45;&gt;Node15 -->
<g id="edge18_Node000001_Node000015" class="edge">
<title>Node1&#45;&gt;Node15</title>
<g id="a_edge18_Node000001_Node000015"><a xlink:title=" ">
<path fill="none" stroke="#63b8ff" d="M485.62,-148.62C467.94,-143.97 448.38,-138.83 431.74,-134.45"/>
<polygon fill="#63b8ff" stroke="#63b8ff" points="484.61,-151.97 495.17,-151.13 486.39,-145.2 484.61,-151.97"/>
</a>
</g>
</g>
<!-- Node4 -->
<g id="Node000004" class="node">
<title>Node4</title>
<g id="a_Node000004"><a xlink:href="classHistoricoRepository.html#adc29f7e094d6b1155ff82a08c77de8b9" target="_top" xlink:title="Cria um novo registro de histórico.">
<polygon fill="white" stroke="#666666" points="278,-348 175.75,-348 175.75,-316 278,-316 278,-348"/>
<text xml:space="preserve" text-anchor="start" x="183.75" y="-334.5" font-family="Helvetica,sans-Serif" font-size="10.00">HistoricoRepository</text>
<text xml:space="preserve" text-anchor="middle" x="226.88" y="-322.5" font-family="Helvetica,sans-Serif" font-size="10.00">::create</text>
</a>
</g>
</g>
<!-- Node3&#45;&gt;Node4 -->
<g id="edge3_Node000003_Node000004" class="edge">
<title>Node3&#45;&gt;Node4</title>
<g id="a_edge3_Node000003_Node000004"><a xlink:title=" ">
<path fill="none" stroke="#63b8ff" d="M335.75,-178.83C334.97,-179.52 334.22,-180.25 333.5,-181 293.28,-223.12 337.29,-264.47 297.5,-307 292.15,-312.72 285.39,-317.13 278.21,-320.54"/>
<polygon fill="#63b8ff" stroke="#63b8ff" points="337.5,-181.87 343.71,-173.29 333.5,-176.13 337.5,-181.87"/>
</a>
</g>
</g>
<!-- Node6 -->
<g id="Node000006" class="node">
<title>Node6</title>
<g id="a_Node000006"><a xlink:href="classOSRepository.html#af6139a9045e4f6c8ab9b04d9d4e0ee06" target="_top" xlink:title="Cria uma nova Ordem de Serviço (OS).">
<polygon fill="white" stroke="#666666" points="282.12,-210 171.62,-210 171.62,-190 282.12,-190 282.12,-210"/>
<text xml:space="preserve" text-anchor="middle" x="226.88" y="-196.5" font-family="Helvetica,sans-Serif" font-size="10.00">OSRepository::create</text>
</a>
</g>
</g>
<!-- Node3&#45;&gt;Node6 -->
<g id="edge5_Node000003_Node000006" class="edge">
<title>Node3&#45;&gt;Node6</title>
<g id="a_edge5_Node000003_Node000006"><a xlink:title=" ">
<path fill="none" stroke="#63b8ff" d="M334.32,-175.05C314.12,-179.78 291.58,-185.07 272.46,-189.55"/>
<polygon fill="#63b8ff" stroke="#63b8ff" points="334.86,-178.52 343.8,-172.83 333.26,-171.7 334.86,-178.52"/>
</a>
</g>
</g>
<!-- Node8 -->
<g id="Node000008" class="node">
<title>Node8</title>
<g id="a_Node000008"><a xlink:href="classOSRepository.html#af02690680d93fe471b48a07ac58587a4" target="_top" xlink:title="Busca todas as OS que coincidem com os critérios.">
<polygon fill="white" stroke="#666666" points="285.12,-20 168.62,-20 168.62,0 285.12,0 285.12,-20"/>
<text xml:space="preserve" text-anchor="middle" x="226.88" y="-6.5" font-family="Helvetica,sans-Serif" font-size="10.00">OSRepository::fetchAll</text>
</a>
</g>
</g>
<!-- Node3&#45;&gt;Node8 -->
<g id="edge8_Node000003_Node000008" class="edge">
<title>Node3&#45;&gt;Node8</title>
<g id="a_edge8_Node000003_Node000008"><a xlink:title=" ">
<path fill="none" stroke="#63b8ff" d="M335.83,-145.19C335.02,-144.49 334.25,-143.76 333.5,-143 296.28,-105.08 335.8,-65.82 297.5,-29 293.89,-25.53 289.7,-22.67 285.21,-20.34"/>
<polygon fill="#63b8ff" stroke="#63b8ff" points="333.83,-148.06 344.07,-150.78 337.76,-142.27 333.83,-148.06"/>
</a>
</g>
</g>
<!-- Node9 -->
<g id="Node000009" class="node">
<title>Node9</title>
<g id="a_Node000009"><a xlink:href="classHistoricoRepository.html#ae1c14be64e7574ab5b919e6ab5fe6e83" target="_top" xlink:title="Busca o histórico para uma dada OS.">
<polygon fill="white" stroke="#666666" points="278,-298 175.75,-298 175.75,-266 278,-266 278,-298"/>
<text xml:space="preserve" text-anchor="start" x="183.75" y="-284.5" font-family="Helvetica,sans-Serif" font-size="10.00">HistoricoRepository</text>
<text xml:space="preserve" text-anchor="middle" x="226.88" y="-272.5" font-family="Helvetica,sans-Serif" font-size="10.00">::getByOsId</text>
</a>
</g>
</g>
<!-- Node3&#45;&gt;Node9 -->
<g id="edge10_Node000003_Node000009" class="edge">
<title>Node3&#45;&gt;Node9</title>
<g id="a_edge10_Node000003_Node000009"><a xlink:title=" ">
<path fill="none" stroke="#63b8ff" d="M336.91,-178.24C335.73,-179.12 334.59,-180.03 333.5,-181 305.56,-205.82 325.19,-231.89 297.5,-257 291.98,-262 285.39,-266.02 278.49,-269.25"/>
<polygon fill="#63b8ff" stroke="#63b8ff" points="338.55,-181.34 345.34,-173.21 334.96,-175.33 338.55,-181.34"/>
</a>
</g>
</g>
<!-- Node10 -->
<g id="Node000010" class="node">
<title>Node10</title>
<g id="a_Node000010"><a xlink:href="classTestCore.html#aea614e8fdb8b52361fcd091fb9b4d4be" target="_top" xlink:title=" ">
<polygon fill="white" stroke="#666666" points="285.12,-172 168.62,-172 168.62,-152 285.12,-152 285.12,-172"/>
<text xml:space="preserve" text-anchor="middle" x="226.88" y="-158.5" font-family="Helvetica,sans-Serif" font-size="10.00">TestCore::initTestCase</text>
</a>
</g>
</g>
<!-- Node3&#45;&gt;Node10 -->
<g id="edge12_Node000003_Node000010" class="edge">
<title>Node3&#45;&gt;Node10</title>
<g id="a_edge12_Node000003_Node000010"><a xlink:title=" ">
<path fill="none" stroke="#63b8ff" d="M321.82,-162C309.69,-162 297.17,-162 285.37,-162"/>
<polygon fill="#63b8ff" stroke="#63b8ff" points="321.78,-165.5 331.78,-162 321.78,-158.5 321.78,-165.5"/>
</a>
</g>
</g>
<!-- Node11 -->
<g id="Node000011" class="node">
<title>Node11</title>
<g id="a_Node000011"><a xlink:href="classTestGUI.html#aaa61b840697cab3dfe8b63088bff135d" target="_top" xlink:title=" ">
<polygon fill="white" stroke="#666666" points="283.62,-134 170.12,-134 170.12,-114 283.62,-114 283.62,-134"/>
<text xml:space="preserve" text-anchor="middle" x="226.88" y="-120.5" font-family="Helvetica,sans-Serif" font-size="10.00">TestGUI::initTestCase</text>
</a>
</g>
</g>
<!-- Node3&#45;&gt;Node11 -->
<g id="edge13_Node000003_Node000011" class="edge">
<title>Node3&#45;&gt;Node11</title>
<g id="a_edge13_Node000003_Node000011"><a xlink:title=" ">
<path fill="none" stroke="#63b8ff" d="M334.32,-148.95C314.12,-144.22 291.58,-138.93 272.46,-134.45"/>
<polygon fill="#63b8ff" stroke="#63b8ff" points="333.26,-152.3 343.8,-151.17 334.86,-145.48 333.26,-152.3"/>
</a>
</g>
</g>
<!-- Node12 -->
<g id="Node000012" class="node">
<title>Node12</title>
<g id="a_Node000012"><a xlink:href="main_8cpp.html#a0ddf1224851353fc92bfbff6f499fa97" target="_top" xlink:title=" ">
<polygon fill="white" stroke="#666666" points="245.38,-96 208.38,-96 208.38,-76 245.38,-76 245.38,-96"/>
<text xml:space="preserve" text-anchor="middle" x="226.88" y="-82.5" font-family="Helvetica,sans-Serif" font-size="10.00">main</text>
</a>
</g>
</g>
<!-- Node3&#45;&gt;Node12 -->
<g id="edge14_Node000003_Node000012" class="edge">
<title>Node3&#45;&gt;Node12</title>
<g id="a_edge14_Node000003_Node000012"><a xlink:title=" ">
<path fill="none" stroke="#63b8ff" d="M340.16,-146.82C337.86,-145.63 335.63,-144.36 333.5,-143 313.89,-130.48 317.46,-116.95 297.5,-105 281.48,-95.41 260.52,-90.55 245.8,-88.16"/>
<polygon fill="#63b8ff" stroke="#63b8ff" points="338.63,-149.97 349.18,-150.9 341.51,-143.59 338.63,-149.97"/>
</a>
</g>
</g>
<!-- Node13 -->
<g id="Node000013" class="node">
<title>Node13</title>
<g id="a_Node000013"><a xlink:href="classTestCore.html#a5d0a011fa04fbbc0315445d87dd5d418" target="_top" xlink:title=" ">
<polygon fill="white" stroke="#666666" points="286.25,-58 167.5,-58 167.5,-38 286.25,-38 286.25,-58"/>
<text xml:space="preserve" text-anchor="middle" x="226.88" y="-44.5" font-family="Helvetica,sans-Serif" font-size="10.00">TestCore::testSingleton</text>
</a>
</g>
</g>
<!-- Node3&#45;&gt;Node13 -->
<g id="edge15_Node000003_Node000013" class="edge">
<title>Node3&#45;&gt;Node13</title>
<g id="a_edge15_Node000003_Node000013"><a xlink:title=" ">
<path fill="none" stroke="#63b8ff" d="M336.91,-145.76C335.73,-144.88 334.59,-143.97 333.5,-143 305.56,-118.18 326.15,-91 297.5,-67 293.37,-63.54 288.66,-60.71 283.69,-58.39"/>
<polygon fill="#63b8ff" stroke="#63b8ff" points="334.96,-148.67 345.34,-150.79 338.55,-142.66 334.96,-148.67"/>
</a>
</g>
</g>
<!-- Node14 -->
<g id="Node000014" class="node">
<title>Node14</title>
<g id="a_Node000014"><a xlink:href="classOSRepository.html#a216ac5a1b6bd12065a6d6f7edaddbcd2" target="_top" xlink:title="Atualiza o status de uma OS existente.">
<polygon fill="white" stroke="#666666" points="297.5,-248 156.25,-248 156.25,-228 297.5,-228 297.5,-248"/>
<text xml:space="preserve" text-anchor="middle" x="226.88" y="-234.5" font-family="Helvetica,sans-Serif" font-size="10.00">OSRepository::updateStatus</text>
</a>
</g>
</g>
<!-- Node3&#45;&gt;Node14 -->
<g id="edge16_Node000003_Node000014" class="edge">
<title>Node3&#45;&gt;Node14</title>
<g id="a_edge16_Node000003_Node000014"><a xlink:title=" ">
<path fill="none" stroke="#63b8ff" d="M340.16,-177.18C337.86,-178.37 335.63,-179.64 333.5,-181 313.89,-193.52 317.46,-207.05 297.5,-219 291.8,-222.41 285.48,-225.22 279.03,-227.54"/>
<polygon fill="#63b8ff" stroke="#63b8ff" points="341.51,-180.41 349.18,-173.1 338.63,-174.03 341.51,-180.41"/>
</a>
</g>
</g>
<!-- Node5 -->
<g id="Node000005" class="node">
<title>Node5</title>
<g id="a_Node000005"><a xlink:href="classTestCore.html#ad8f858a033c4cc62db06412cfb93748c" target="_top" xlink:title=" ">
<polygon fill="white" stroke="#666666" points="118.75,-270 1.5,-270 1.5,-250 118.75,-250 118.75,-270"/>
<text xml:space="preserve" text-anchor="middle" x="60.12" y="-256.5" font-family="Helvetica,sans-Serif" font-size="10.00">TestCore::testHistorico</text>
</a>
</g>
</g>
<!-- Node4&#45;&gt;Node5 -->
<g id="edge4_Node000004_Node000005" class="edge">
<title>Node4&#45;&gt;Node5</title>
<g id="a_edge4_Node000004_Node000005"><a xlink:title=" ">
<path fill="none" stroke="#63b8ff" d="M167.34,-311.53C163.57,-310.05 159.85,-308.53 156.25,-307 129.46,-295.62 99.51,-280.38 80.5,-270.39"/>
<polygon fill="#63b8ff" stroke="#63b8ff" points="166.03,-314.78 176.62,-315.09 168.53,-308.24 166.03,-314.78"/>
</a>
</g>
</g>
<!-- Node6&#45;&gt;Node5 -->
<g id="edge7_Node000006_Node000005" class="edge">
<title>Node6&#45;&gt;Node5</title>
<g id="a_edge7_Node000006_Node000005"><a xlink:title=" ">
<path fill="none" stroke="#63b8ff" d="M173.06,-213.57C167.35,-215.29 161.65,-217.11 156.25,-219 130.45,-228.03 101.75,-240.79 82.69,-249.67"/>
<polygon fill="#63b8ff" stroke="#63b8ff" points="173.89,-216.97 182.52,-210.83 171.95,-210.25 173.89,-216.97"/>
</a>
</g>
</g>
<!-- Node7 -->
<g id="Node000007" class="node">
<title>Node7</title>
<g id="a_Node000007"><a xlink:href="classTestCore.html#afe230280f7222da40f40f509be5874e9" target="_top" xlink:title=" ">
<polygon fill="white" stroke="#666666" points="120.25,-115 0,-115 0,-95 120.25,-95 120.25,-115"/>
<text xml:space="preserve" text-anchor="middle" x="60.12" y="-101.5" font-family="Helvetica,sans-Serif" font-size="10.00">TestCore::testCreateOs</text>
</a>
</g>
</g>
<!-- Node6&#45;&gt;Node7 -->
<g id="edge6_Node000006_Node000007" class="edge">
<title>Node6&#45;&gt;Node7</title>
<g id="a_edge6_Node000006_Node000007"><a xlink:title=" ">
<path fill="none" stroke="#63b8ff" d="M166.55,-185.63C163.01,-184.22 159.55,-182.67 156.25,-181 121.58,-163.38 87.6,-131.83 71.24,-115.47"/>
<polygon fill="#63b8ff" stroke="#63b8ff" points="165.33,-188.91 175.92,-189 167.7,-182.33 165.33,-188.91"/>
</a>
</g>
</g>
<!-- Node8&#45;&gt;Node7 -->
<g id="edge9_Node000008_Node000007" class="edge">
<title>Node8&#45;&gt;Node7</title>
<g id="a_edge9_Node000008_Node000007"><a xlink:title=" ">
<path fill="none" stroke="#63b8ff" d="M166.55,-24.37C163.01,-25.78 159.55,-27.33 156.25,-29 121.58,-46.62 87.6,-78.17 71.24,-94.53"/>
<polygon fill="#63b8ff" stroke="#63b8ff" points="167.7,-27.67 175.92,-21 165.33,-21.09 167.7,-27.67"/>
</a>
</g>
</g>
<!-- Node9&#45;&gt;Node5 -->
<g id="edge11_Node000009_Node000005" class="edge">
<title>Node9&#45;&gt;Node5</title>
<g id="a_edge11_Node000009_Node000005"><a xlink:title=" ">
<path fill="none" stroke="#63b8ff" d="M164.45,-273.8C149.65,-271.82 133.87,-269.71 119.22,-267.76"/>
<polygon fill="#63b8ff" stroke="#63b8ff" points="163.67,-277.22 174.05,-275.08 164.6,-270.29 163.67,-277.22"/>
</a>
</g>
</g>
<!-- Node14&#45;&gt;Node5 -->
<g id="edge17_Node000014_Node000005" class="edge">
<title>Node14&#45;&gt;Node5</title>
<g id="a_edge17_Node000014_Node000005"><a xlink:title=" ">
<path fill="none" stroke="#63b8ff" d="M144.71,-248.84C136.08,-249.99 127.44,-251.14 119.16,-252.25"/>
<polygon fill="#63b8ff" stroke="#63b8ff" points="145.06,-252.32 154.51,-247.53 144.13,-245.38 145.06,-252.32"/>
</a>
</g>
</g>
</g>
</svg>

<g id="navigator" transform="translate(0 0)" fill="#404254">
  <rect fill="#f2f5e9" fill-opacity="0.5" stroke="#606060" stroke-width=".5" x="0" y="0" width="60" height="60"/>
  <use id="zoomplus" xlink:href="#zoomPlus" x="17" y="9" onmousedown="handleZoom(evt,'in')"/>
  <use id="zoomminus" xlink:href="#zoomMin" x="42" y="9" onmousedown="handleZoom(evt,'out')"/>
  <use id="reset" xlink:href="#resetDef" x="30" y="36" onmousedown="handleReset()"/>
   <use id="arrowup" xlink:href="#arrowUp" x="0" y="0" onmousedown="handlePan(0,-1)"/>
  <use id="arrowright" xlink:href="#arrowRight" x="0" y="0" onmousedown="handlePan(1,0)"/>
  <use id="arrowdown" xlink:href="#arrowDown" x="0" y="0" onmousedown="handlePan(0,1)"/>
  <use id="arrowleft" xlink:href="#arrowLeft" x="0" y="0" onmousedown="handlePan(-1,0)"/>
</g>
<svg viewBox="0 0 15 15" width="100%" height="30px" preserveAspectRatio="xMaxYMin meet">
 <g id="arrow_out" transform="scale(0.3 0.3)">
  <a xlink:href="classDatabase_a4703c80e6969d33565ea340f768fdadf_icgraph_org.svg" target="_base">
   <rect id="button" ry="5" rx="5" y="6" x="6" height="38" width="38"
        fill="#f2f5e9" fill-opacity="0.5" stroke="#606060" stroke-width="1.0"/>
   <path id="arrow"
     d="M 11.500037,31.436501 C 11.940474,20.09759 22.043105,11.32322 32.158766,21.979434 L 37.068811,17.246167 C 37.068811,17.246167 37.088388,32 37.088388,32 L 22.160133,31.978069 C 22.160133,31.978069 26.997745,27.140456 26.997745,27.140456 C 18.528582,18.264221 13.291696,25.230495 11.500037,31.436501 z"
     style="fill:#404040;"/>
  </a>
 </g>
</svg>

<style type='text/css'>
<![CDATA[
[data-mouse-over-selected='false'] { opacity: 0.7; }
[data-mouse-over-selected='true']  { opacity: 1.0; }
]]>
</style>
<script type="application/ecmascript"><![CDATA[
document.addEventListener('DOMContentLoaded', (event) => {
  highlightEdges();
  highlightAdjacentNodes();
});
]]></script>
</svg>
