<?xml version="1.0" encoding="UTF-8" standalone="no"?>
<!DOCTYPE svg PUBLIC "-//W3C//DTD SVG 1.1//EN"
 "http://www.w3.org/Graphics/SVG/1.1/DTD/svg11.dtd">
<!-- Generated by graphviz version 14.1.4 (20260321.0153)
 -->
<!-- Title: /home/arthurteixeira/Músicas/trabalho&#45;grupo&#45;eng&#45;soft/trabalho&#45;grupo&#45;eng&#45;soft/marmomanager_cpp/includes/database.h Pages: 1 -->
<svg width="162pt" height="132pt"
 viewBox="0.00 0.00 162.00 132.00" xmlns="http://www.w3.org/2000/svg" xmlns:xlink="http://www.w3.org/1999/xlink">
<g id="graph0" class="graph" transform="scale(1 1) rotate(0) translate(4 128)">
<title>/home/arthurteixeira/Músicas/trabalho&#45;grupo&#45;eng&#45;soft/trabalho&#45;grupo&#45;eng&#45;soft/marmomanager_cpp/includes/database.h</title>
<!-- Node1 -->
<g id="Node000001" class="node">
<title>Node1</title>
<g id="a_Node000001"><a xlink:title="Arquivo de cabeçalho para o Singleton do Banco de Dados.">
<polygon fill="#999999" stroke="#666666" points="153.75,-124 8,-124 8,-56 153.75,-56 153.75,-124"/>
<text xml:space="preserve" text-anchor="start" x="16" y="-110.5" font-family="Helvetica,sans-Serif" font-size="10.00">/home/arthurteixeira</text>
<text xml:space="preserve" text-anchor="start" x="16" y="-98.5" font-family="Helvetica,sans-Serif" font-size="10.00">/Músicas/trabalho&#45;grupo</text>
<text xml:space="preserve" text-anchor="start" x="16" y="-86.5" font-family="Helvetica,sans-Serif" font-size="10.00">&#45;eng&#45;soft/trabalho&#45;grupo</text>
<text xml:space="preserve" text-anchor="start" x="16" y="-74.5" font-family="Helvetica,sans-Serif" font-size="10.00">&#45;eng&#45;soft/marmomanager_cpp</text>
<text xml:space="preserve" text-anchor="middle" x="80.88" y="-62.5" font-family="Helvetica,sans-Serif" font-size="10.00">/includes/database.h</text>
</a>
</g>
</g>
<!-- Node2 -->
<g id="Node000002" class="node">
<title>Node2</title>
<g id="a_Node000002"><a xlink:title=" ">
<polygon fill="#e0e0e0" stroke="#999999" points="79.75,-20 0,-20 0,0 79.75,0 79.75,-20"/>
<text xml:space="preserve" text-anchor="middle" x="39.88" y="-6.5" font-family="Helvetica,sans-Serif" font-size="10.00">QSqlDatabase</text>
</a>
</g>
</g>
<!-- Node1&#45;&gt;Node2 -->
<g id="edge1_Node000001_Node000002" class="edge">
<title>Node1&#45;&gt;Node2</title>
<g id="a_edge1_Node000001_Node000002"><a xlink:title=" ">
<path fill="none" stroke="#63b8ff" d="M63.49,-55.92C58.91,-47.22 54.13,-38.11 50.07,-30.39"/>
<polygon fill="#63b8ff" stroke="#63b8ff" points="53.21,-28.84 45.46,-21.62 47.01,-32.1 53.21,-28.84"/>
</a>
</g>
</g>
<!-- Node3 -->
<g id="Node000003" class="node">
<title>Node3</title>
<g id="a_Node000003"><a xlink:title=" ">
<polygon fill="#e0e0e0" stroke="#999999" points="146.38,-20 97.38,-20 97.38,0 146.38,0 146.38,-20"/>
<text xml:space="preserve" text-anchor="middle" x="121.88" y="-6.5" font-family="Helvetica,sans-Serif" font-size="10.00">QString</text>
</a>
</g>
</g>
<!-- Node1&#45;&gt;Node3 -->
<g id="edge2_Node000001_Node000003" class="edge">
<title>Node1&#45;&gt;Node3</title>
<g id="a_edge2_Node000001_Node000003"><a xlink:title=" ">
<path fill="none" stroke="#63b8ff" d="M98.26,-55.92C102.84,-47.22 107.62,-38.11 111.68,-30.39"/>
<polygon fill="#63b8ff" stroke="#63b8ff" points="114.74,-32.1 116.29,-21.62 108.54,-28.84 114.74,-32.1"/>
</a>
</g>
</g>
</g>
</svg>
