<?xml version="1.0" encoding="UTF-8" standalone="no"?>
<!DOCTYPE svg PUBLIC "-//W3C//DTD SVG 1.1//EN"
 "http://www.w3.org/Graphics/SVG/1.1/DTD/svg11.dtd">
<!-- Generated by graphviz version 14.1.4 (20260321.0153)
 -->
<!-- Title: /home/arthurteixeira/Músicas/trabalho&#45;grupo&#45;eng&#45;soft/trabalho&#45;grupo&#45;eng&#45;soft/marmomanager_cpp/src/database.cpp Pages: 1 -->
<svg width="403pt" height="188pt"
 viewBox="0.00 0.00 403.00 188.00" xmlns="http://www.w3.org/2000/svg" xmlns:xlink="http://www.w3.org/1999/xlink">

<svg id="main" version="1.1" xmlns="http://www.w3.org/2000/svg" xmlns:xlink="http://www.w3.org/1999/xlink" xml:space="preserve">

<style type="text/css"><![CDATA[
.node, .edge {opacity: 0.7;}
.node.selected, .edge.selected {opacity: 1;}
.edge:hover path { stroke: red; }
.edge:hover polygon { stroke: red; fill: red; }
]]></style>
<script type="application/ecmascript" xlink:href="svg.min.js"/>
<svg id="graph" class="graph">
<g id="graph0" class="graph" transform="scale(1 1) rotate(0) translate(4 184)">
<title>/home/arthurteixeira/Músicas/trabalho&#45;grupo&#45;eng&#45;soft/trabalho&#45;grupo&#45;eng&#45;soft/marmomanager_cpp/src/database.cpp</title>
<!-- Node1 -->
<g id="Node000001" class="node">
<title>Node1</title>
<g id="a_Node000001"><a xlink:title=" ">
<polygon fill="#999999" stroke="#666666" points="314.75,-180 169,-180 169,-112 314.75,-112 314.75,-180"/>
<text xml:space="preserve" text-anchor="start" x="177" y="-166.5" font-family="Helvetica,sans-Serif" font-size="10.00">/home/arthurteixeira</text>
<text xml:space="preserve" text-anchor="start" x="177" y="-154.5" font-family="Helvetica,sans-Serif" font-size="10.00">/Músicas/trabalho&#45;grupo</text>
<text xml:space="preserve" text-anchor="start" x="177" y="-142.5" font-family="Helvetica,sans-Serif" font-size="10.00">&#45;eng&#45;soft/trabalho&#45;grupo</text>
<text xml:space="preserve" text-anchor="start" x="177" y="-130.5" font-family="Helvetica,sans-Serif" font-size="10.00">&#45;eng&#45;soft/marmomanager_cpp</text>
<text xml:space="preserve" text-anchor="middle" x="241.88" y="-118.5" font-family="Helvetica,sans-Serif" font-size="10.00">/src/database.cpp</text>
</a>
</g>
</g>
<!-- Node2 -->
<g id="Node000002" class="node">
<title>Node2</title>
<g id="a_Node000002"><a xlink:href="database_8h.html" target="_top" xlink:title="Arquivo de cabeçalho para o Singleton do Banco de Dados.">
<polygon fill="white" stroke="#666666" points="112.88,-76 48.88,-76 48.88,-56 112.88,-56 112.88,-76"/>
<text xml:space="preserve" text-anchor="middle" x="80.88" y="-62.5" font-family="Helvetica,sans-Serif" font-size="10.00">database.h</text>
</a>
</g>
</g>
<!-- Node1&#45;&gt;Node2 -->
<g id="edge1_Node000001_Node000002" class="edge">
<title>Node1&#45;&gt;Node2</title>
<g id="a_edge1_Node000001_Node000002"><a xlink:title=" ">
<path fill="none" stroke="#63b8ff" d="M173.13,-111.69C151.19,-101.06 128.06,-89.86 110.44,-81.33"/>
<polygon fill="#63b8ff" stroke="#63b8ff" points="112.14,-78.26 101.61,-77.05 109.09,-84.56 112.14,-78.26"/>
</a>
</g>
</g>
<!-- Node5 -->
<g id="Node000005" class="node">
<title>Node5</title>
<g id="a_Node000005"><a xlink:title=" ">
<polygon fill="#e0e0e0" stroke="#999999" points="194.88,-76 130.88,-76 130.88,-56 194.88,-56 194.88,-76"/>
<text xml:space="preserve" text-anchor="middle" x="162.88" y="-62.5" font-family="Helvetica,sans-Serif" font-size="10.00">QSqlQuery</text>
</a>
</g>
</g>
<!-- Node1&#45;&gt;Node5 -->
<g id="edge4_Node000001_Node000005" class="edge">
<title>Node1&#45;&gt;Node5</title>
<g id="a_edge4_Node000001_Node000005"><a xlink:title=" ">
<path fill="none" stroke="#63b8ff" d="M208.37,-111.92C198.74,-102.41 188.61,-92.41 180.37,-84.27"/>
<polygon fill="#63b8ff" stroke="#63b8ff" points="182.92,-81.88 173.35,-77.34 178.01,-86.86 182.92,-81.88"/>
</a>
</g>
</g>
<!-- Node6 -->
<g id="Node000006" class="node">
<title>Node6</title>
<g id="a_Node000006"><a xlink:title=" ">
<polygon fill="#e0e0e0" stroke="#999999" points="271.25,-76 212.5,-76 212.5,-56 271.25,-56 271.25,-76"/>
<text xml:space="preserve" text-anchor="middle" x="241.88" y="-62.5" font-family="Helvetica,sans-Serif" font-size="10.00">QSqlError</text>
</a>
</g>
</g>
<!-- Node1&#45;&gt;Node6 -->
<g id="edge5_Node000001_Node000006" class="edge">
<title>Node1&#45;&gt;Node6</title>
<g id="a_edge5_Node000001_Node000006"><a xlink:title=" ">
<path fill="none" stroke="#63b8ff" d="M241.88,-111.92C241.88,-103.72 241.88,-95.17 241.88,-87.75"/>
<polygon fill="#63b8ff" stroke="#63b8ff" points="245.38,-87.79 241.88,-77.79 238.38,-87.79 245.38,-87.79"/>
</a>
</g>
</g>
<!-- Node7 -->
<g id="Node000007" class="node">
<title>Node7</title>
<g id="a_Node000007"><a xlink:title=" ">
<polygon fill="#e0e0e0" stroke="#999999" points="340.88,-76 288.88,-76 288.88,-56 340.88,-56 340.88,-76"/>
<text xml:space="preserve" text-anchor="middle" x="314.88" y="-62.5" font-family="Helvetica,sans-Serif" font-size="10.00">QDebug</text>
</a>
</g>
</g>
<!-- Node1&#45;&gt;Node7 -->
<g id="edge6_Node000001_Node000007" class="edge">
<title>Node1&#45;&gt;Node7</title>
<g id="a_edge6_Node000001_Node000007"><a xlink:title=" ">
<path fill="none" stroke="#63b8ff" d="M272.83,-111.92C281.64,-102.51 290.89,-92.63 298.47,-84.53"/>
<polygon fill="#63b8ff" stroke="#63b8ff" points="300.88,-87.08 305.16,-77.38 295.77,-82.29 300.88,-87.08"/>
</a>
</g>
</g>
<!-- Node8 -->
<g id="Node000008" class="node">
<title>Node8</title>
<g id="a_Node000008"><a xlink:title=" ">
<polygon fill="#e0e0e0" stroke="#999999" points="395,-76 358.75,-76 358.75,-56 395,-56 395,-76"/>
<text xml:space="preserve" text-anchor="middle" x="376.88" y="-62.5" font-family="Helvetica,sans-Serif" font-size="10.00">QDir</text>
</a>
</g>
</g>
<!-- Node1&#45;&gt;Node8 -->
<g id="edge7_Node000001_Node000008" class="edge">
<title>Node1&#45;&gt;Node8</title>
<g id="a_edge7_Node000001_Node000008"><a xlink:title=" ">
<path fill="none" stroke="#63b8ff" d="M299.52,-111.69C317.4,-101.37 336.22,-90.49 350.82,-82.06"/>
<polygon fill="#63b8ff" stroke="#63b8ff" points="352.41,-85.18 359.32,-77.14 348.91,-79.12 352.41,-85.18"/>
</a>
</g>
</g>
<!-- Node3 -->
<g id="Node000003" class="node">
<title>Node3</title>
<g id="a_Node000003"><a xlink:title=" ">
<polygon fill="#e0e0e0" stroke="#999999" points="79.75,-20 0,-20 0,0 79.75,0 79.75,-20"/>
<text xml:space="preserve" text-anchor="middle" x="39.88" y="-6.5" font-family="Helvetica,sans-Serif" font-size="10.00">QSqlDatabase</text>
</a>
</g>
</g>
<!-- Node2&#45;&gt;Node3 -->
<g id="edge2_Node000002_Node000003" class="edge">
<title>Node2&#45;&gt;Node3</title>
<g id="a_edge2_Node000002_Node000003"><a xlink:title=" ">
<path fill="none" stroke="#63b8ff" d="M73.73,-55.59C68.27,-48.39 60.55,-38.23 53.87,-29.43"/>
<polygon fill="#63b8ff" stroke="#63b8ff" points="56.68,-27.35 47.85,-21.5 51.11,-31.58 56.68,-27.35"/>
</a>
</g>
</g>
<!-- Node4 -->
<g id="Node000004" class="node">
<title>Node4</title>
<g id="a_Node000004"><a xlink:title=" ">
<polygon fill="#e0e0e0" stroke="#999999" points="146.38,-20 97.38,-20 97.38,0 146.38,0 146.38,-20"/>
<text xml:space="preserve" text-anchor="middle" x="121.88" y="-6.5" font-family="Helvetica,sans-Serif" font-size="10.00">QString</text>
</a>
</g>
</g>
<!-- Node2&#45;&gt;Node4 -->
<g id="edge3_Node000002_Node000004" class="edge">
<title>Node2&#45;&gt;Node4</title>
<g id="a_edge3_Node000002_Node000004"><a xlink:title=" ">
<path fill="none" stroke="#63b8ff" d="M88.02,-55.59C93.48,-48.39 101.2,-38.23 107.88,-29.43"/>
<polygon fill="#63b8ff" stroke="#63b8ff" points="110.64,-31.58 113.9,-21.5 105.07,-27.35 110.64,-31.58"/>
</a>
</g>
</g>
</g>
</svg>
</svg>

<style type='text/css'>
<![CDATA[
[data-mouse-over-selected='false'] { opacity: 0.7; }
[data-mouse-over-selected='true']  { opacity: 1.0; }
]]>
</style>
<script type="application/ecmascript"><![CDATA[
document.addEventListener('DOMContentLoaded', (event) => {
  highlightEdges();
  highlightAdjacentNodes();
});
]]></script>
</svg>
