<?xml version="1.0" encoding="UTF-8" standalone="no"?>
<!DOCTYPE svg PUBLIC "-//W3C//DTD SVG 1.1//EN"
 "http://www.w3.org/Graphics/SVG/1.1/DTD/svg11.dtd">
<!-- Generated by graphviz version 2.43.0 (0)
 -->
<!-- Title: components Pages: 1 -->
<svg width="1028pt" height="46pt"
 viewBox="0.00 0.00 1028.00 46.00" xmlns="http://www.w3.org/2000/svg" xmlns:xlink="http://www.w3.org/1999/xlink">
<g id="graph0" class="graph" transform="scale(1 1) rotate(0) translate(4 42)">
<title>components</title>
<polygon fill="white" stroke="transparent" points="-4,4 -4,-42 1024,-42 1024,4 -4,4"/>
<!-- exe -->
<g id="node1" class="node">
<title>exe</title>
<polygon fill="none" stroke="black" points="163,-38 0,-38 0,0 163,0 163,-38"/>
<text text-anchor="middle" x="81.5" y="-22.8" font-family="Times,serif" font-size="14.00">marmomanager_app</text>
<text text-anchor="middle" x="81.5" y="-7.8" font-family="Times,serif" font-size="14.00">Executável</text>
</g>
<!-- ui -->
<g id="node2" class="node">
<title>ui</title>
<polygon fill="none" stroke="black" points="444,-38 199,-38 199,0 444,0 444,-38"/>
<text text-anchor="middle" x="321.5" y="-22.8" font-family="Times,serif" font-size="14.00">libmarmomanager_presentation</text>
<text text-anchor="middle" x="321.5" y="-7.8" font-family="Times,serif" font-size="14.00">Apresentação</text>
</g>
<!-- exe&#45;&gt;ui -->
<g id="edge1" class="edge">
<title>exe&#45;&gt;ui</title>
<path fill="none" stroke="black" d="M163.08,-19C171.41,-19 180.03,-19 188.74,-19"/>
<polygon fill="black" stroke="black" points="188.99,-22.5 198.99,-19 188.99,-15.5 188.99,-22.5"/>
</g>
<!-- business -->
<g id="node3" class="node">
<title>business</title>
<polygon fill="none" stroke="black" points="697,-38 480,-38 480,0 697,0 697,-38"/>
<text text-anchor="middle" x="588.5" y="-22.8" font-family="Times,serif" font-size="14.00">libmarmomanager_business</text>
<text text-anchor="middle" x="588.5" y="-7.8" font-family="Times,serif" font-size="14.00">Lógica de negócios</text>
</g>
<!-- ui&#45;&gt;business -->
<g id="edge2" class="edge">
<title>ui&#45;&gt;business</title>
<path fill="none" stroke="black" d="M444.14,-19C452.56,-19 461.03,-19 469.43,-19"/>
<polygon fill="black" stroke="black" points="469.62,-22.5 479.62,-19 469.62,-15.5 469.62,-22.5"/>
</g>
<!-- data -->
<g id="node4" class="node">
<title>data</title>
<polygon fill="none" stroke="black" points="919,-38 733,-38 733,0 919,0 919,-38"/>
<text text-anchor="middle" x="826" y="-22.8" font-family="Times,serif" font-size="14.00">libmarmomanager_data</text>
<text text-anchor="middle" x="826" y="-7.8" font-family="Times,serif" font-size="14.00">Acesso a dados</text>
</g>
<!-- business&#45;&gt;data -->
<g id="edge3" class="edge">
<title>business&#45;&gt;data</title>
<path fill="none" stroke="black" d="M697.26,-19C705.69,-19 714.2,-19 722.6,-19"/>
<polygon fill="black" stroke="black" points="722.79,-22.5 732.79,-19 722.79,-15.5 722.79,-22.5"/>
</g>
<!-- sqlite -->
<g id="node5" class="node">
<title>sqlite</title>
<path fill="none" stroke="black" d="M1020,-33.73C1020,-35.53 1005.43,-37 987.5,-37 969.57,-37 955,-35.53 955,-33.73 955,-33.73 955,-4.27 955,-4.27 955,-2.47 969.57,-1 987.5,-1 1005.43,-1 1020,-2.47 1020,-4.27 1020,-4.27 1020,-33.73 1020,-33.73"/>
<path fill="none" stroke="black" d="M1020,-33.73C1020,-31.92 1005.43,-30.45 987.5,-30.45 969.57,-30.45 955,-31.92 955,-33.73"/>
<text text-anchor="middle" x="987.5" y="-15.3" font-family="Times,serif" font-size="14.00">SQLite</text>
</g>
<!-- data&#45;&gt;sqlite -->
<g id="edge4" class="edge">
<title>data&#45;&gt;sqlite</title>
<path fill="none" stroke="black" d="M919.32,-19C928.13,-19 936.74,-19 944.69,-19"/>
<polygon fill="black" stroke="black" points="944.72,-22.5 954.72,-19 944.72,-15.5 944.72,-22.5"/>
</g>
</g>
</svg>
