<?xml version="1.0" encoding="UTF-8" standalone="no"?>
<!DOCTYPE svg PUBLIC "-//W3C//DTD SVG 1.1//EN"
 "http://www.w3.org/Graphics/SVG/1.1/DTD/svg11.dtd">
<!-- Generated by graphviz version 2.43.0 (0)
 -->
<!-- Title: components Pages: 1 -->
<!--zoomable 46 -->

<svg id="main" version="1.1" xmlns="http://www.w3.org/2000/svg" xmlns:xlink="http://www.w3.org/1999/xlink" xml:space="preserve" onload="init(evt)">
<style type="text/css"><![CDATA[
.node, .edge {opacity: 0.7;}
.node.selected, .edge.selected {opacity: 1;}
.edge:hover path { stroke: red; }
.edge:hover polygon { stroke: red; fill: red; }
]]></style>

<defs>
  <circle id="rim" cx="0" cy="0" r="7"/>
  <circle id="rim2" cx="0" cy="0" r="3.5"/>
  <g id="zoomPlus">
    <use xlink:href="#rim" fill="#404040"><set attributeName="fill" to="#808080" begin="zoomplus.mouseover" end="zoomplus.mouseout"/></use>
    <path d="M-4,0h8M0,-4v8" fill="none" stroke="white" stroke-width="1.5" pointer-events="none"/>
  </g>
  <g id="zoomMin">
    <use xlink:href="#rim" fill="#404040"><set attributeName="fill" to="#808080" begin="zoomminus.mouseover" end="zoomminus.mouseout"/></use>
    <path d="M-4,0h8" fill="none" stroke="white" stroke-width="1.5" pointer-events="none"/>
  </g>
  <g id="arrowUp" transform="translate(30 24)">
    <use xlink:href="#rim"/>
    <path pointer-events="none" fill="none" stroke="white" stroke-width="1.5" d="M0,-3.0v7 M-2.5,-0.5L0,-3.0L2.5,-0.5"/>
  </g>
  <g id="arrowRight" transform="rotate(90) translate(36 -43)">
    <use xlink:href="#rim"/>
    <path pointer-events="none" fill="none" stroke="white" stroke-width="1.5" d="M0,-3.0v7 M-2.5,-0.5L0,-3.0L2.5,-0.5"/>
  </g>
  <g id="arrowDown" transform="rotate(180) translate(-30 -48)">
    <use xlink:href="#rim"/>
    <path pointer-events="none" fill="none" stroke="white" stroke-width="1.5" d="M0,-3.0v7 M-2.5,-0.5L0,-3.0L2.5,-0.5"/>
  </g>
  <g id="arrowLeft" transform="rotate(270) translate(-36 17)">
    <use xlink:href="#rim"/>
    <path pointer-events="none" fill="none" stroke="white" stroke-width="1.5" d="M0,-3.0v7 M-2.5,-0.5L0,-3.0L2.5,-0.5"/>
  </g>
  <g id="resetDef">
    <use xlink:href="#rim2" fill="#404040"><set attributeName="fill" to="#808080" begin="reset.mouseover" end="reset.mouseout"/></use>
  </g>
</defs>
<script type="application/ecmascript">
var viewWidth = 1028;
var viewHeight = 46;
</script>
<script type="application/ecmascript" xlink:href="svg.min.js"/>
<svg id="graph" class="graph">
<g id="viewport">
<title>components</title>
<polygon fill="white" stroke="transparent" points="-4,4 -4,-42 1024,-42 1024,4 -4,4"/>
<!-- exe -->
<g id="node1" class="node">
<title>exe</title>
<polygon fill="none" stroke="black" points="163,-38 0,-38 0,0 163,0 163,-38"/>
<text text-anchor="middle" x="81.5" y="-22.8" font-family="Times,serif" font-size="14.00">marmomanager_app</text>
<text text-anchor="middle" x="81.5" y="-7.8" font-family="Times,serif" font-size="14.00">Executável</text>
</g>
<!-- ui -->
<g id="node2" class="node">
<title>ui</title>
<polygon fill="none" stroke="black" points="444,-38 199,-38 199,0 444,0 444,-38"/>
<text text-anchor="middle" x="321.5" y="-22.8" font-family="Times,serif" font-size="14.00">libmarmomanager_presentation</text>
<text text-anchor="middle" x="321.5" y="-7.8" font-family="Times,serif" font-size="14.00">Apresentação</text>
</g>
<!-- exe&#45;&gt;ui -->
<g id="edge1" class="edge">
<title>exe&#45;&gt;ui</title>
<path fill="none" stroke="black" d="M163.08,-19C171.41,-19 180.03,-19 188.74,-19"/>
<polygon fill="black" stroke="black" points="188.99,-22.5 198.99,-19 188.99,-15.5 188.99,-22.5"/>
</g>
<!-- business -->
<g id="node3" class="node">
<title>business</title>
<polygon fill="none" stroke="black" points="697,-38 480,-38 480,0 697,0 697,-38"/>
<text text-anchor="middle" x="588.5" y="-22.8" font-family="Times,serif" font-size="14.00">libmarmomanager_business</text>
<text text-anchor="middle" x="588.5" y="-7.8" font-family="Times,serif" font-size="14.00">Lógica de negócios</text>
</g>
<!-- ui&#45;&gt;business -->
<g id="edge2" class="edge">
<title>ui&#45;&gt;business</title>
<path fill="none" stroke="black" d="M444.14,-19C452.56,-19 461.03,-19 469.43,-19"/>
<polygon fill="black" stroke="black" points="469.62,-22.5 479.62,-19 469.62,-15.5 469.62,-22.5"/>
</g>
<!-- data -->
<g id="node4" class="node">
<title>data</title>
<polygon fill="none" stroke="black" points="919,-38 733,-38 733,0 919,0 919,-38"/>
<text text-anchor="middle" x="826" y="-22.8" font-family="Times,serif" font-size="14.00">libmarmomanager_data</text>
<text text-anchor="middle" x="826" y="-7.8" font-family="Times,serif" font-size="14.00">Acesso a dados</text>
</g>
<!-- business&#45;&gt;data -->
<g id="edge3" class="edge">
<title>business&#45;&gt;data</title>
<path fill="none" stroke="black" d="M697.26,-19C705.69,-19 714.2,-19 722.6,-19"/>
<polygon fill="black" stroke="black" points="722.79,-22.5 732.79,-19 722.79,-15.5 722.79,-22.5"/>
</g>
<!-- sqlite -->
<g id="node5" class="node">
<title>sqlite</title>
<path fill="none" stroke="black" d="M1020,-33.73C1020,-35.53 1005.43,-37 987.5,-37 969.57,-37 955,-35.53 955,-33.73 955,-33.73 955,-4.27 955,-4.27 955,-2.47 969.57,-1 987.5,-1 1005.43,-1 1020,-2.47 1020,-4.27 1020,-4.27 1020,-33.73 1020,-33.73"/>
<path fill="none" stroke="black" d="M1020,-33.73C1020,-31.92 1005.43,-30.45 987.5,-30.45 969.57,-30.45 955,-31.92 955,-33.73"/>
<text text-anchor="middle" x="987.5" y="-15.3" font-family="Times,serif" font-size="14.00">SQLite</text>
</g>
<!-- data&#45;&gt;sqlite -->
<g id="edge4" class="edge">
<title>data&#45;&gt;sqlite</title>
<path fill="none" stroke="black" d="M919.32,-19C928.13,-19 936.74,-19 944.69,-19"/>
<polygon fill="black" stroke="black" points="944.72,-22.5 954.72,-19 944.72,-15.5 944.72,-22.5"/>
</g>
</g>
</svg>

<g id="navigator" transform="translate(0 0)" fill="#404254">
  <rect fill="#f2f5e9" fill-opacity="0.5" stroke="#606060" stroke-width=".5" x="0" y="0" width="60" height="60"/>
  <use id="zoomplus" xlink:href="#zoomPlus" x="17" y="9" onmousedown="handleZoom(evt,'in')"/>
  <use id="zoomminus" xlink:href="#zoomMin" x="42" y="9" onmousedown="handleZoom(evt,'out')"/>
  <use id="reset" xlink:href="#resetDef" x="30" y="36" onmousedown="handleReset()"/>
   <use id="arrowup" xlink:href="#arrowUp" x="0" y="0" onmousedown="handlePan(0,-1)"/>
  <use id="arrowright" xlink:href="#arrowRight" x="0" y="0" onmousedown="handlePan(1,0)"/>
  <use id="arrowdown" xlink:href="#arrowDown" x="0" y="0" onmousedown="handlePan(0,1)"/>
  <use id="arrowleft" xlink:href="#arrowLeft" x="0" y="0" onmousedown="handlePan(-1,0)"/>
</g>
<svg viewBox="0 0 15 15" width="100%" height="30px" preserveAspectRatio="xMaxYMin meet">
 <g id="arrow_out" transform="scale(0.3 0.3)">
  <a xlink:href="dot_inline_dotgraph_1_org.svg" target="_base">
   <rect id="button" ry="5" rx="5" y="6" x="6" height="38" width="38"
        fill="#f2f5e9" fill-opacity="0.5" stroke="#606060" stroke-width="1.0"/>
   <path id="arrow"
     d="M 11.500037,31.436501 C 11.940474,20.09759 22.043105,11.32322 32.158766,21.979434 L 37.068811,17.246167 C 37.068811,17.246167 37.088388,32 37.088388,32 L 22.160133,31.978069 C 22.160133,31.978069 26.997745,27.140456 26.997745,27.140456 C 18.528582,18.264221 13.291696,25.230495 11.500037,31.436501 z"
     style="fill:#404040;"/>
  </a>
 </g>
</svg>

<style type='text/css'>
<![CDATA[
[data-mouse-over-selected='false'] { opacity: 0.7; }
[data-mouse-over-selected='true']  { opacity: 1.0; }
]]>
</style>
<script type="application/ecmascript"><![CDATA[
document.addEventListener('DOMContentLoaded', (event) => {
  highlightEdges();
  highlightAdjacentNodes();
});
]]></script>
</svg>
