<?xml version="1.0" encoding="UTF-8" standalone="no"?>
<!DOCTYPE svg PUBLIC "-//W3C//DTD SVG 1.1//EN"
 "http://www.w3.org/Graphics/SVG/1.1/DTD/svg11.dtd">
<!-- Generated by graphviz version 14.1.4 (20260321.0153)
 -->
<!-- Title: /home/arthurteixeira/Músicas/trabalho&#45;grupo&#45;eng&#45;soft/trabalho&#45;grupo&#45;eng&#45;soft/marmomanager_cpp/src/historico_repository.cpp Pages: 1 -->
<svg width="498pt" height="244pt"
 viewBox="0.00 0.00 498.00 244.00" xmlns="http://www.w3.org/2000/svg" xmlns:xlink="http://www.w3.org/1999/xlink">

<svg id="main" version="1.1" xmlns="http://www.w3.org/2000/svg" xmlns:xlink="http://www.w3.org/1999/xlink" xml:space="preserve">

<style type="text/css"><![CDATA[
.node, .edge {opacity: 0.7;}
.node.selected, .edge.selected {opacity: 1;}
.edge:hover path { stroke: red; }
.edge:hover polygon { stroke: red; fill: red; }
]]></style>
<script type="application/ecmascript" xlink:href="svg.min.js"/>
<svg id="graph" class="graph">
<g id="graph0" class="graph" transform="scale(1 1) rotate(0) translate(4 240)">
<title>/home/arthurteixeira/Músicas/trabalho&#45;grupo&#45;eng&#45;soft/trabalho&#45;grupo&#45;eng&#45;soft/marmomanager_cpp/src/historico_repository.cpp</title>
<!-- Node1 -->
<g id="Node000001" class="node">
<title>Node1</title>
<g id="a_Node000001"><a xlink:title=" ">
<polygon fill="#999999" stroke="#666666" points="351,-236 205.25,-236 205.25,-168 351,-168 351,-236"/>
<text xml:space="preserve" text-anchor="start" x="213.25" y="-222.5" font-family="Helvetica,sans-Serif" font-size="10.00">/home/arthurteixeira</text>
<text xml:space="preserve" text-anchor="start" x="213.25" y="-210.5" font-family="Helvetica,sans-Serif" font-size="10.00">/Músicas/trabalho&#45;grupo</text>
<text xml:space="preserve" text-anchor="start" x="213.25" y="-198.5" font-family="Helvetica,sans-Serif" font-size="10.00">&#45;eng&#45;soft/trabalho&#45;grupo</text>
<text xml:space="preserve" text-anchor="start" x="213.25" y="-186.5" font-family="Helvetica,sans-Serif" font-size="10.00">&#45;eng&#45;soft/marmomanager_cpp</text>
<text xml:space="preserve" text-anchor="middle" x="278.12" y="-174.5" font-family="Helvetica,sans-Serif" font-size="10.00">/src/historico_repository.cpp</text>
</a>
</g>
</g>
<!-- Node2 -->
<g id="Node000002" class="node">
<title>Node2</title>
<g id="a_Node000002"><a xlink:href="historico__repository_8h.html" target="_top" xlink:title="Cabeçalho da classe HistoricoRepository.">
<polygon fill="white" stroke="#666666" points="108.25,-132 0,-132 0,-112 108.25,-112 108.25,-132"/>
<text xml:space="preserve" text-anchor="middle" x="54.12" y="-118.5" font-family="Helvetica,sans-Serif" font-size="10.00">historico_repository.h</text>
</a>
</g>
</g>
<!-- Node1&#45;&gt;Node2 -->
<g id="edge1_Node000001_Node000002" class="edge">
<title>Node1&#45;&gt;Node2</title>
<g id="a_edge1_Node000001_Node000002"><a xlink:title=" ">
<path fill="none" stroke="#63b8ff" d="M204.78,-175.46C167.05,-162.32 122.65,-146.86 91.87,-136.14"/>
<polygon fill="#63b8ff" stroke="#63b8ff" points="93.21,-132.9 82.62,-132.92 90.91,-139.51 93.21,-132.9"/>
</a>
</g>
</g>
<!-- Node6 -->
<g id="Node000006" class="node">
<title>Node6</title>
<g id="a_Node000006"><a xlink:href="database_8h.html" target="_top" xlink:title="Arquivo de cabeçalho para o Singleton do Banco de Dados.">
<polygon fill="white" stroke="#666666" points="190.12,-132 126.12,-132 126.12,-112 190.12,-112 190.12,-132"/>
<text xml:space="preserve" text-anchor="middle" x="158.12" y="-118.5" font-family="Helvetica,sans-Serif" font-size="10.00">database.h</text>
</a>
</g>
</g>
<!-- Node1&#45;&gt;Node6 -->
<g id="edge6_Node000001_Node000006" class="edge">
<title>Node1&#45;&gt;Node6</title>
<g id="a_edge6_Node000001_Node000006"><a xlink:title=" ">
<path fill="none" stroke="#63b8ff" d="M226.89,-167.69C211.3,-157.57 194.92,-146.91 182.05,-138.55"/>
<polygon fill="#63b8ff" stroke="#63b8ff" points="184.13,-135.73 173.84,-133.21 180.31,-141.6 184.13,-135.73"/>
</a>
</g>
</g>
<!-- Node8 -->
<g id="Node000008" class="node">
<title>Node8</title>
<g id="a_Node000008"><a xlink:title=" ">
<polygon fill="#e0e0e0" stroke="#999999" points="272.12,-132 208.12,-132 208.12,-112 272.12,-112 272.12,-132"/>
<text xml:space="preserve" text-anchor="middle" x="240.12" y="-118.5" font-family="Helvetica,sans-Serif" font-size="10.00">QSqlQuery</text>
</a>
</g>
</g>
<!-- Node1&#45;&gt;Node8 -->
<g id="edge9_Node000001_Node000008" class="edge">
<title>Node1&#45;&gt;Node8</title>
<g id="a_edge9_Node000001_Node000008"><a xlink:title=" ">
<path fill="none" stroke="#63b8ff" d="M262.01,-167.92C257.77,-159.22 253.33,-150.11 249.57,-142.39"/>
<polygon fill="#63b8ff" stroke="#63b8ff" points="252.83,-141.1 245.31,-133.64 246.54,-144.16 252.83,-141.1"/>
</a>
</g>
</g>
<!-- Node9 -->
<g id="Node000009" class="node">
<title>Node9</title>
<g id="a_Node000009"><a xlink:title=" ">
<polygon fill="#e0e0e0" stroke="#999999" points="343.88,-132 290.38,-132 290.38,-112 343.88,-112 343.88,-132"/>
<text xml:space="preserve" text-anchor="middle" x="317.12" y="-118.5" font-family="Helvetica,sans-Serif" font-size="10.00">QVariant</text>
</a>
</g>
</g>
<!-- Node1&#45;&gt;Node9 -->
<g id="edge10_Node000001_Node000009" class="edge">
<title>Node1&#45;&gt;Node9</title>
<g id="a_edge10_Node000001_Node000009"><a xlink:title=" ">
<path fill="none" stroke="#63b8ff" d="M294.66,-167.92C299.02,-159.22 303.57,-150.11 307.43,-142.39"/>
<polygon fill="#63b8ff" stroke="#63b8ff" points="310.47,-144.14 311.81,-133.63 304.21,-141.01 310.47,-144.14"/>
</a>
</g>
</g>
<!-- Node10 -->
<g id="Node000010" class="node">
<title>Node10</title>
<g id="a_Node000010"><a xlink:title=" ">
<polygon fill="#e0e0e0" stroke="#999999" points="420.5,-132 361.75,-132 361.75,-112 420.5,-112 420.5,-132"/>
<text xml:space="preserve" text-anchor="middle" x="391.12" y="-118.5" font-family="Helvetica,sans-Serif" font-size="10.00">QSqlError</text>
</a>
</g>
</g>
<!-- Node1&#45;&gt;Node10 -->
<g id="edge11_Node000001_Node000010" class="edge">
<title>Node1&#45;&gt;Node10</title>
<g id="a_edge11_Node000001_Node000010"><a xlink:title=" ">
<path fill="none" stroke="#63b8ff" d="M326.37,-167.69C341,-157.6 356.37,-146.99 368.47,-138.64"/>
<polygon fill="#63b8ff" stroke="#63b8ff" points="370.28,-141.64 376.53,-133.08 366.31,-135.88 370.28,-141.64"/>
</a>
</g>
</g>
<!-- Node11 -->
<g id="Node000011" class="node">
<title>Node11</title>
<g id="a_Node000011"><a xlink:title=" ">
<polygon fill="#e0e0e0" stroke="#999999" points="490.12,-132 438.12,-132 438.12,-112 490.12,-112 490.12,-132"/>
<text xml:space="preserve" text-anchor="middle" x="464.12" y="-118.5" font-family="Helvetica,sans-Serif" font-size="10.00">QDebug</text>
</a>
</g>
</g>
<!-- Node1&#45;&gt;Node11 -->
<g id="edge12_Node000001_Node000011" class="edge">
<title>Node1&#45;&gt;Node11</title>
<g id="a_edge12_Node000001_Node000011"><a xlink:title=" ">
<path fill="none" stroke="#63b8ff" d="M351.37,-170.28C379.03,-158.69 409.12,-146.06 431.26,-136.78"/>
<polygon fill="#63b8ff" stroke="#63b8ff" points="432.49,-140.06 440.36,-132.97 429.78,-133.61 432.49,-140.06"/>
</a>
</g>
</g>
<!-- Node3 -->
<g id="Node000003" class="node">
<title>Node3</title>
<g id="a_Node000003"><a xlink:href="os__model_8h.html" target="_top" xlink:title="Estruturas de dados para OS e Histórico.">
<polygon fill="white" stroke="#666666" points="109.25,-76 43,-76 43,-56 109.25,-56 109.25,-76"/>
<text xml:space="preserve" text-anchor="middle" x="76.12" y="-62.5" font-family="Helvetica,sans-Serif" font-size="10.00">os_model.h</text>
</a>
</g>
</g>
<!-- Node2&#45;&gt;Node3 -->
<g id="edge2_Node000002_Node000003" class="edge">
<title>Node2&#45;&gt;Node3</title>
<g id="a_edge2_Node000002_Node000003"><a xlink:title=" ">
<path fill="none" stroke="#63b8ff" d="M57.96,-111.59C60.73,-104.78 64.59,-95.32 68.03,-86.86"/>
<polygon fill="#63b8ff" stroke="#63b8ff" points="71.23,-88.28 71.77,-77.7 64.75,-85.64 71.23,-88.28"/>
</a>
</g>
</g>
<!-- Node5 -->
<g id="Node000005" class="node">
<title>Node5</title>
<g id="a_Node000005"><a xlink:title=" ">
<polygon fill="#e0e0e0" stroke="#999999" points="67.75,-20 16.5,-20 16.5,0 67.75,0 67.75,-20"/>
<text xml:space="preserve" text-anchor="middle" x="42.12" y="-6.5" font-family="Helvetica,sans-Serif" font-size="10.00">QVector</text>
</a>
</g>
</g>
<!-- Node2&#45;&gt;Node5 -->
<g id="edge5_Node000002_Node000005" class="edge">
<title>Node2&#45;&gt;Node5</title>
<g id="a_edge5_Node000002_Node000005"><a xlink:title=" ">
<path fill="none" stroke="#63b8ff" d="M48.62,-111.74C43.71,-102.9 36.89,-89.05 34.12,-76 30.98,-61.17 33.28,-44.15 36.21,-31.24"/>
<polygon fill="#63b8ff" stroke="#63b8ff" points="39.53,-32.36 38.67,-21.81 32.76,-30.6 39.53,-32.36"/>
</a>
</g>
</g>
<!-- Node4 -->
<g id="Node000004" class="node">
<title>Node4</title>
<g id="a_Node000004"><a xlink:title=" ">
<polygon fill="#e0e0e0" stroke="#999999" points="147.62,-20 98.62,-20 98.62,0 147.62,0 147.62,-20"/>
<text xml:space="preserve" text-anchor="middle" x="123.12" y="-6.5" font-family="Helvetica,sans-Serif" font-size="10.00">QString</text>
</a>
</g>
</g>
<!-- Node3&#45;&gt;Node4 -->
<g id="edge3_Node000003_Node000004" class="edge">
<title>Node3&#45;&gt;Node4</title>
<g id="a_edge3_Node000003_Node000004"><a xlink:title=" ">
<path fill="none" stroke="#63b8ff" d="M84.31,-55.59C90.71,-48.24 99.8,-37.8 107.58,-28.87"/>
<polygon fill="#63b8ff" stroke="#63b8ff" points="110.11,-31.28 114.04,-21.44 104.83,-26.69 110.11,-31.28"/>
</a>
</g>
</g>
<!-- Node3&#45;&gt;Node5 -->
<g id="edge4_Node000003_Node000005" class="edge">
<title>Node3&#45;&gt;Node5</title>
<g id="a_edge4_Node000003_Node000005"><a xlink:title=" ">
<path fill="none" stroke="#63b8ff" d="M70.2,-55.59C65.77,-48.55 59.55,-38.67 54.09,-30"/>
<polygon fill="#63b8ff" stroke="#63b8ff" points="57.08,-28.18 48.79,-21.58 51.15,-31.91 57.08,-28.18"/>
</a>
</g>
</g>
<!-- Node6&#45;&gt;Node4 -->
<g id="edge8_Node000006_Node000004" class="edge">
<title>Node6&#45;&gt;Node4</title>
<g id="a_edge8_Node000006_Node000004"><a xlink:title=" ">
<path fill="none" stroke="#63b8ff" d="M155.14,-111.62C149.51,-93.92 137.2,-55.24 129.59,-31.32"/>
<polygon fill="#63b8ff" stroke="#63b8ff" points="132.93,-30.27 126.56,-21.8 126.26,-32.39 132.93,-30.27"/>
</a>
</g>
</g>
<!-- Node7 -->
<g id="Node000007" class="node">
<title>Node7</title>
<g id="a_Node000007"><a xlink:title=" ">
<polygon fill="#e0e0e0" stroke="#999999" points="245,-76 165.25,-76 165.25,-56 245,-56 245,-76"/>
<text xml:space="preserve" text-anchor="middle" x="205.12" y="-62.5" font-family="Helvetica,sans-Serif" font-size="10.00">QSqlDatabase</text>
</a>
</g>
</g>
<!-- Node6&#45;&gt;Node7 -->
<g id="edge7_Node000006_Node000007" class="edge">
<title>Node6&#45;&gt;Node7</title>
<g id="a_edge7_Node000006_Node000007"><a xlink:title=" ">
<path fill="none" stroke="#63b8ff" d="M166.31,-111.59C172.71,-104.24 181.8,-93.8 189.58,-84.87"/>
<polygon fill="#63b8ff" stroke="#63b8ff" points="192.11,-87.28 196.04,-77.44 186.83,-82.69 192.11,-87.28"/>
</a>
</g>
</g>
</g>
</svg>
</svg>

<style type='text/css'>
<![CDATA[
[data-mouse-over-selected='false'] { opacity: 0.7; }
[data-mouse-over-selected='true']  { opacity: 1.0; }
]]>
</style>
<script type="application/ecmascript"><![CDATA[
document.addEventListener('DOMContentLoaded', (event) => {
  highlightEdges();
  highlightAdjacentNodes();
});
]]></script>
</svg>
