<?xml version="1.0" encoding="UTF-8" standalone="no"?>
<!DOCTYPE svg PUBLIC "-//W3C//DTD SVG 1.1//EN"
 "http://www.w3.org/Graphics/SVG/1.1/DTD/svg11.dtd">
<!-- Generated by graphviz version 2.43.0 (0)
 -->
<!-- Title: /home/daniel/Área de trabalho/Engenharia_1/Sprint1&#45;Grupo/marmomanager_cpp/src/ui/history_dialog.h Pages: 1 -->
<svg width="383pt" height="225pt"
 viewBox="0.00 0.00 382.50 225.00" xmlns="http://www.w3.org/2000/svg" xmlns:xlink="http://www.w3.org/1999/xlink">
<g id="graph0" class="graph" transform="scale(1 1) rotate(0) translate(4 221)">
<title>/home/daniel/Área de trabalho/Engenharia_1/Sprint1&#45;Grupo/marmomanager_cpp/src/ui/history_dialog.h</title>
<!-- Node1 -->
<g id="Node000001" class="node">
<title>Node1</title>
<g id="a_Node000001"><a xlink:title="Cabeçalho para a view StatusHistoryDialog.">
<polygon fill="#999999" stroke="#666666" points="206,-217 26,-217 26,-165 206,-165 206,-217"/>
<text text-anchor="start" x="34" y="-205" font-family="Helvetica,sans-Serif" font-size="10.00">/home/daniel/Área</text>
<text text-anchor="start" x="34" y="-194" font-family="Helvetica,sans-Serif" font-size="10.00"> de trabalho/Engenharia</text>
<text text-anchor="start" x="34" y="-183" font-family="Helvetica,sans-Serif" font-size="10.00">_1/Sprint1&#45;Grupo/marmomanager</text>
<text text-anchor="middle" x="116" y="-172" font-family="Helvetica,sans-Serif" font-size="10.00">_cpp/src/ui/history_dialog.h</text>
</a>
</g>
</g>
<!-- Node2 -->
<g id="Node000002" class="node">
<title>Node2</title>
<g id="a_Node000002"><a xlink:title=" ">
<polygon fill="#e0e0e0" stroke="#999999" points="56,-129 0,-129 0,-110 56,-110 56,-129"/>
<text text-anchor="middle" x="28" y="-117" font-family="Helvetica,sans-Serif" font-size="10.00">QDialog</text>
</a>
</g>
</g>
<!-- Node1&#45;&gt;Node2 -->
<g id="edge1_Node000001_Node000002" class="edge">
<title>Node1&#45;&gt;Node2</title>
<g id="a_edge1_Node000001_Node000002"><a xlink:title=" ">
<path fill="none" stroke="#63b8ff" d="M84.23,-164.91C71.8,-155.09 57.95,-144.16 47.11,-135.59"/>
<polygon fill="#63b8ff" stroke="#63b8ff" points="49.16,-132.75 39.15,-129.3 44.82,-138.25 49.16,-132.75"/>
</a>
</g>
</g>
<!-- Node3 -->
<g id="Node000003" class="node">
<title>Node3</title>
<g id="a_Node000003"><a xlink:title=" ">
<polygon fill="#e0e0e0" stroke="#999999" points="158,-129 74,-129 74,-110 158,-110 158,-129"/>
<text text-anchor="middle" x="116" y="-117" font-family="Helvetica,sans-Serif" font-size="10.00">QTableWidget</text>
</a>
</g>
</g>
<!-- Node1&#45;&gt;Node3 -->
<g id="edge2_Node000001_Node000003" class="edge">
<title>Node1&#45;&gt;Node3</title>
<g id="a_edge2_Node000001_Node000003"><a xlink:title=" ">
<path fill="none" stroke="#63b8ff" d="M116,-164.91C116,-156.55 116,-147.38 116,-139.55"/>
<polygon fill="#63b8ff" stroke="#63b8ff" points="119.5,-139.3 116,-129.3 112.5,-139.3 119.5,-139.3"/>
</a>
</g>
</g>
<!-- Node4 -->
<g id="Node000004" class="node">
<title>Node4</title>
<g id="a_Node000004"><a xlink:href="os__controller_8h.html" target="_top" xlink:title="Cabeçalho da classe OSController.">
<polygon fill="white" stroke="#666666" points="264,-129 176,-129 176,-110 264,-110 264,-129"/>
<text text-anchor="middle" x="220" y="-117" font-family="Helvetica,sans-Serif" font-size="10.00">os_controller.h</text>
</a>
</g>
</g>
<!-- Node1&#45;&gt;Node4 -->
<g id="edge3_Node000001_Node000004" class="edge">
<title>Node1&#45;&gt;Node4</title>
<g id="a_edge3_Node000001_Node000004"><a xlink:title=" ">
<path fill="none" stroke="#63b8ff" d="M153.55,-164.91C168.53,-154.9 185.25,-143.72 198.17,-135.09"/>
<polygon fill="#63b8ff" stroke="#63b8ff" points="200.46,-137.77 206.83,-129.3 196.57,-131.95 200.46,-137.77"/>
</a>
</g>
</g>
<!-- Node5 -->
<g id="Node000005" class="node">
<title>Node5</title>
<g id="a_Node000005"><a xlink:href="os__model_8h.html" target="_top" xlink:title="Estruturas de dados para OS e Histórico.">
<polygon fill="white" stroke="#666666" points="214.5,-74 141.5,-74 141.5,-55 214.5,-55 214.5,-74"/>
<text text-anchor="middle" x="178" y="-62" font-family="Helvetica,sans-Serif" font-size="10.00">os_model.h</text>
</a>
</g>
</g>
<!-- Node4&#45;&gt;Node5 -->
<g id="edge4_Node000004_Node000005" class="edge">
<title>Node4&#45;&gt;Node5</title>
<g id="a_edge4_Node000004_Node000005"><a xlink:title=" ">
<path fill="none" stroke="#63b8ff" d="M213.06,-109.75C207.13,-102.26 198.43,-91.28 191.18,-82.13"/>
<polygon fill="#63b8ff" stroke="#63b8ff" points="193.76,-79.75 184.81,-74.09 188.27,-84.1 193.76,-79.75"/>
</a>
</g>
</g>
<!-- Node6 -->
<g id="Node000006" class="node">
<title>Node6</title>
<g id="a_Node000006"><a xlink:title=" ">
<polygon fill="#e0e0e0" stroke="#999999" points="139.5,-19 86.5,-19 86.5,0 139.5,0 139.5,-19"/>
<text text-anchor="middle" x="113" y="-7" font-family="Helvetica,sans-Serif" font-size="10.00">QString</text>
</a>
</g>
</g>
<!-- Node4&#45;&gt;Node6 -->
<g id="edge8_Node000004_Node000006" class="edge">
<title>Node4&#45;&gt;Node6</title>
<g id="a_edge8_Node000004_Node000006"><a xlink:title=" ">
<path fill="none" stroke="#63b8ff" d="M189.55,-109.95C170.49,-103.13 146.83,-91.73 132,-74 121.5,-61.45 116.8,-43.25 114.7,-29.55"/>
<polygon fill="#63b8ff" stroke="#63b8ff" points="118.14,-28.84 113.48,-19.32 111.19,-29.67 118.14,-28.84"/>
</a>
</g>
</g>
<!-- Node8 -->
<g id="Node000008" class="node">
<title>Node8</title>
<g id="a_Node000008"><a xlink:title=" ">
<polygon fill="#e0e0e0" stroke="#999999" points="291,-74 233,-74 233,-55 291,-55 291,-74"/>
<text text-anchor="middle" x="262" y="-62" font-family="Helvetica,sans-Serif" font-size="10.00">memory</text>
</a>
</g>
</g>
<!-- Node4&#45;&gt;Node8 -->
<g id="edge7_Node000004_Node000008" class="edge">
<title>Node4&#45;&gt;Node8</title>
<g id="a_edge7_Node000004_Node000008"><a xlink:title=" ">
<path fill="none" stroke="#63b8ff" d="M226.94,-109.75C232.87,-102.26 241.57,-91.28 248.82,-82.13"/>
<polygon fill="#63b8ff" stroke="#63b8ff" points="251.73,-84.1 255.19,-74.09 246.24,-79.75 251.73,-84.1"/>
</a>
</g>
</g>
<!-- Node9 -->
<g id="Node000009" class="node">
<title>Node9</title>
<g id="a_Node000009"><a xlink:title=" ">
<polygon fill="#e0e0e0" stroke="#999999" points="374.5,-74 309.5,-74 309.5,-55 374.5,-55 374.5,-74"/>
<text text-anchor="middle" x="342" y="-62" font-family="Helvetica,sans-Serif" font-size="10.00">stdexcept</text>
</a>
</g>
</g>
<!-- Node4&#45;&gt;Node9 -->
<g id="edge9_Node000004_Node000009" class="edge">
<title>Node4&#45;&gt;Node9</title>
<g id="a_edge9_Node000004_Node000009"><a xlink:title=" ">
<path fill="none" stroke="#63b8ff" d="M239.6,-109.98C259.32,-101.42 289.95,-88.11 312.58,-78.28"/>
<polygon fill="#63b8ff" stroke="#63b8ff" points="314.26,-81.37 322.04,-74.17 311.48,-74.94 314.26,-81.37"/>
</a>
</g>
</g>
<!-- Node5&#45;&gt;Node6 -->
<g id="edge5_Node000005_Node000006" class="edge">
<title>Node5&#45;&gt;Node6</title>
<g id="a_edge5_Node000005_Node000006"><a xlink:title=" ">
<path fill="none" stroke="#63b8ff" d="M167.56,-54.98C157.85,-47.07 143.18,-35.11 131.5,-25.58"/>
<polygon fill="#63b8ff" stroke="#63b8ff" points="133.6,-22.78 123.63,-19.17 129.17,-28.2 133.6,-22.78"/>
</a>
</g>
</g>
<!-- Node7 -->
<g id="Node000007" class="node">
<title>Node7</title>
<g id="a_Node000007"><a xlink:title=" ">
<polygon fill="#e0e0e0" stroke="#999999" points="212.5,-19 157.5,-19 157.5,0 212.5,0 212.5,-19"/>
<text text-anchor="middle" x="185" y="-7" font-family="Helvetica,sans-Serif" font-size="10.00">QVector</text>
</a>
</g>
</g>
<!-- Node5&#45;&gt;Node7 -->
<g id="edge6_Node000005_Node000007" class="edge">
<title>Node5&#45;&gt;Node7</title>
<g id="a_edge6_Node000005_Node000007"><a xlink:title=" ">
<path fill="none" stroke="#63b8ff" d="M179.16,-54.75C180.07,-47.8 181.39,-37.85 182.54,-29.13"/>
<polygon fill="#63b8ff" stroke="#63b8ff" points="186.03,-29.46 183.87,-19.09 179.09,-28.54 186.03,-29.46"/>
</a>
</g>
</g>
</g>
</svg>
