<?xml version="1.0" encoding="UTF-8" standalone="no"?>
<!DOCTYPE svg PUBLIC "-//W3C//DTD SVG 1.1//EN"
 "http://www.w3.org/Graphics/SVG/1.1/DTD/svg11.dtd">
<!-- Generated by graphviz version 14.1.4 (20260321.0153)
 -->
<!-- Title: /home/arthurteixeira/Músicas/trabalho&#45;grupo&#45;eng&#45;soft/trabalho&#45;grupo&#45;eng&#45;soft/marmomanager_cpp/src/ui/history_dialog.cpp Pages: 1 -->
<svg width="400pt" height="356pt"
 viewBox="0.00 0.00 400.00 356.00" xmlns="http://www.w3.org/2000/svg" xmlns:xlink="http://www.w3.org/1999/xlink">
<g id="graph0" class="graph" transform="scale(1 1) rotate(0) translate(4 352)">
<title>/home/arthurteixeira/Músicas/trabalho&#45;grupo&#45;eng&#45;soft/trabalho&#45;grupo&#45;eng&#45;soft/marmomanager_cpp/src/ui/history_dialog.cpp</title>
<!-- Node1 -->
<g id="Node000001" class="node">
<title>Node1</title>
<g id="a_Node000001"><a xlink:title=" ">
<polygon fill="#999999" stroke="#666666" points="279.5,-348 133.75,-348 133.75,-280 279.5,-280 279.5,-348"/>
<text xml:space="preserve" text-anchor="start" x="141.75" y="-334.5" font-family="Helvetica,sans-Serif" font-size="10.00">/home/arthurteixeira</text>
<text xml:space="preserve" text-anchor="start" x="141.75" y="-322.5" font-family="Helvetica,sans-Serif" font-size="10.00">/Músicas/trabalho&#45;grupo</text>
<text xml:space="preserve" text-anchor="start" x="141.75" y="-310.5" font-family="Helvetica,sans-Serif" font-size="10.00">&#45;eng&#45;soft/trabalho&#45;grupo</text>
<text xml:space="preserve" text-anchor="start" x="141.75" y="-298.5" font-family="Helvetica,sans-Serif" font-size="10.00">&#45;eng&#45;soft/marmomanager_cpp</text>
<text xml:space="preserve" text-anchor="middle" x="206.62" y="-286.5" font-family="Helvetica,sans-Serif" font-size="10.00">/src/ui/history_dialog.cpp</text>
</a>
</g>
</g>
<!-- Node2 -->
<g id="Node000002" class="node">
<title>Node2</title>
<g id="a_Node000002"><a xlink:href="history__dialog_8h.html" target="_top" xlink:title="Cabeçalho para a view StatusHistoryDialog.">
<polygon fill="white" stroke="#666666" points="149.75,-244 65.5,-244 65.5,-224 149.75,-224 149.75,-244"/>
<text xml:space="preserve" text-anchor="middle" x="107.62" y="-230.5" font-family="Helvetica,sans-Serif" font-size="10.00">history_dialog.h</text>
</a>
</g>
</g>
<!-- Node1&#45;&gt;Node2 -->
<g id="edge1_Node000001_Node000002" class="edge">
<title>Node1&#45;&gt;Node2</title>
<g id="a_edge1_Node000001_Node000002"><a xlink:title=" ">
<path fill="none" stroke="#63b8ff" d="M164.35,-279.69C151.8,-269.8 138.61,-259.41 128.11,-251.14"/>
<polygon fill="#63b8ff" stroke="#63b8ff" points="130.53,-248.59 120.51,-245.15 126.2,-254.09 130.53,-248.59"/>
</a>
</g>
</g>
<!-- Node12 -->
<g id="Node000012" class="node">
<title>Node12</title>
<g id="a_Node000012"><a xlink:title=" ">
<polygon fill="#e0e0e0" stroke="#999999" points="245,-244 168.25,-244 168.25,-224 245,-224 245,-244"/>
<text xml:space="preserve" text-anchor="middle" x="206.62" y="-230.5" font-family="Helvetica,sans-Serif" font-size="10.00">QVBoxLayout</text>
</a>
</g>
</g>
<!-- Node1&#45;&gt;Node12 -->
<g id="edge15_Node000001_Node000012" class="edge">
<title>Node1&#45;&gt;Node12</title>
<g id="a_edge15_Node000001_Node000012"><a xlink:title=" ">
<path fill="none" stroke="#63b8ff" d="M206.62,-279.92C206.62,-271.72 206.62,-263.17 206.62,-255.75"/>
<polygon fill="#63b8ff" stroke="#63b8ff" points="210.13,-255.79 206.63,-245.79 203.13,-255.79 210.13,-255.79"/>
</a>
</g>
</g>
<!-- Node13 -->
<g id="Node000013" class="node">
<title>Node13</title>
<g id="a_Node000013"><a xlink:title=" ">
<polygon fill="#e0e0e0" stroke="#999999" points="340,-244 263.25,-244 263.25,-224 340,-224 340,-244"/>
<text xml:space="preserve" text-anchor="middle" x="301.62" y="-230.5" font-family="Helvetica,sans-Serif" font-size="10.00">QHeaderView</text>
</a>
</g>
</g>
<!-- Node1&#45;&gt;Node13 -->
<g id="edge16_Node000001_Node000013" class="edge">
<title>Node1&#45;&gt;Node13</title>
<g id="a_edge16_Node000001_Node000013"><a xlink:title=" ">
<path fill="none" stroke="#63b8ff" d="M247.19,-279.69C259.11,-269.9 271.63,-259.63 281.66,-251.4"/>
<polygon fill="#63b8ff" stroke="#63b8ff" points="283.72,-254.23 289.23,-245.18 279.28,-248.82 283.72,-254.23"/>
</a>
</g>
</g>
<!-- Node3 -->
<g id="Node000003" class="node">
<title>Node3</title>
<g id="a_Node000003"><a xlink:title=" ">
<polygon fill="#e0e0e0" stroke="#999999" points="51.25,-188 0,-188 0,-168 51.25,-168 51.25,-188"/>
<text xml:space="preserve" text-anchor="middle" x="25.62" y="-174.5" font-family="Helvetica,sans-Serif" font-size="10.00">QDialog</text>
</a>
</g>
</g>
<!-- Node2&#45;&gt;Node3 -->
<g id="edge2_Node000002_Node000003" class="edge">
<title>Node2&#45;&gt;Node3</title>
<g id="a_edge2_Node000002_Node000003"><a xlink:title=" ">
<path fill="none" stroke="#63b8ff" d="M93.34,-223.59C81.19,-215.59 63.49,-203.93 49.23,-194.54"/>
<polygon fill="#63b8ff" stroke="#63b8ff" points="51.56,-191.89 41.28,-189.31 47.71,-197.73 51.56,-191.89"/>
</a>
</g>
</g>
<!-- Node4 -->
<g id="Node000004" class="node">
<title>Node4</title>
<g id="a_Node000004"><a xlink:title=" ">
<polygon fill="#e0e0e0" stroke="#999999" points="146.38,-188 68.88,-188 68.88,-168 146.38,-168 146.38,-188"/>
<text xml:space="preserve" text-anchor="middle" x="107.62" y="-174.5" font-family="Helvetica,sans-Serif" font-size="10.00">QTableWidget</text>
</a>
</g>
</g>
<!-- Node2&#45;&gt;Node4 -->
<g id="edge3_Node000002_Node000004" class="edge">
<title>Node2&#45;&gt;Node4</title>
<g id="a_edge3_Node000002_Node000004"><a xlink:title=" ">
<path fill="none" stroke="#63b8ff" d="M107.62,-223.59C107.62,-217.01 107.62,-207.96 107.62,-199.73"/>
<polygon fill="#63b8ff" stroke="#63b8ff" points="111.13,-199.81 107.63,-189.81 104.13,-199.81 111.13,-199.81"/>
</a>
</g>
</g>
<!-- Node5 -->
<g id="Node000005" class="node">
<title>Node5</title>
<g id="a_Node000005"><a xlink:href="os__controller_8h.html" target="_top" xlink:title="Cabeçalho da classe OSController.">
<polygon fill="white" stroke="#666666" points="244.5,-188 164.75,-188 164.75,-168 244.5,-168 244.5,-188"/>
<text xml:space="preserve" text-anchor="middle" x="204.62" y="-174.5" font-family="Helvetica,sans-Serif" font-size="10.00">os_controller.h</text>
</a>
</g>
</g>
<!-- Node2&#45;&gt;Node5 -->
<g id="edge4_Node000002_Node000005" class="edge">
<title>Node2&#45;&gt;Node5</title>
<g id="a_edge4_Node000002_Node000005"><a xlink:title=" ">
<path fill="none" stroke="#63b8ff" d="M124.52,-223.59C139.17,-215.44 160.65,-203.48 177.67,-194"/>
<polygon fill="#63b8ff" stroke="#63b8ff" points="179.24,-197.14 186.27,-189.22 175.83,-191.02 179.24,-197.14"/>
</a>
</g>
</g>
<!-- Node6 -->
<g id="Node000006" class="node">
<title>Node6</title>
<g id="a_Node000006"><a xlink:href="os__repository_8h.html" target="_top" xlink:title="Cabeçalho para a classe OSRepository.">
<polygon fill="white" stroke="#666666" points="188.62,-132 106.62,-132 106.62,-112 188.62,-112 188.62,-132"/>
<text xml:space="preserve" text-anchor="middle" x="147.62" y="-118.5" font-family="Helvetica,sans-Serif" font-size="10.00">os_repository.h</text>
</a>
</g>
</g>
<!-- Node5&#45;&gt;Node6 -->
<g id="edge5_Node000005_Node000006" class="edge">
<title>Node5&#45;&gt;Node6</title>
<g id="a_edge5_Node000005_Node000006"><a xlink:title=" ">
<path fill="none" stroke="#63b8ff" d="M194.7,-167.59C186.69,-160.01 175.21,-149.13 165.59,-140.02"/>
<polygon fill="#63b8ff" stroke="#63b8ff" points="168.21,-137.68 158.54,-133.34 163.39,-142.76 168.21,-137.68"/>
</a>
</g>
</g>
<!-- Node8 -->
<g id="Node000008" class="node">
<title>Node8</title>
<g id="a_Node000008"><a xlink:title=" ">
<polygon fill="#e0e0e0" stroke="#999999" points="130.12,-20 81.12,-20 81.12,0 130.12,0 130.12,-20"/>
<text xml:space="preserve" text-anchor="middle" x="105.62" y="-6.5" font-family="Helvetica,sans-Serif" font-size="10.00">QString</text>
</a>
</g>
</g>
<!-- Node5&#45;&gt;Node8 -->
<g id="edge13_Node000005_Node000008" class="edge">
<title>Node5&#45;&gt;Node8</title>
<g id="a_edge13_Node000005_Node000008"><a xlink:title=" ">
<path fill="none" stroke="#63b8ff" d="M171.56,-167.5C143.43,-158.67 106.24,-144.97 97.62,-132 77.41,-101.57 88.28,-56.8 97.37,-31.11"/>
<polygon fill="#63b8ff" stroke="#63b8ff" points="100.6,-32.48 100.89,-21.89 94.06,-29.98 100.6,-32.48"/>
</a>
</g>
</g>
<!-- Node10 -->
<g id="Node000010" class="node">
<title>Node10</title>
<g id="a_Node000010"><a xlink:href="historico__repository_8h.html" target="_top" xlink:title="Cabeçalho da classe HistoricoRepository.">
<polygon fill="white" stroke="#666666" points="314.75,-132 206.5,-132 206.5,-112 314.75,-112 314.75,-132"/>
<text xml:space="preserve" text-anchor="middle" x="260.62" y="-118.5" font-family="Helvetica,sans-Serif" font-size="10.00">historico_repository.h</text>
</a>
</g>
</g>
<!-- Node5&#45;&gt;Node10 -->
<g id="edge10_Node000005_Node000010" class="edge">
<title>Node5&#45;&gt;Node10</title>
<g id="a_edge10_Node000005_Node000010"><a xlink:title=" ">
<path fill="none" stroke="#63b8ff" d="M214.38,-167.59C222.25,-160.01 233.52,-149.13 242.97,-140.02"/>
<polygon fill="#63b8ff" stroke="#63b8ff" points="245.12,-142.81 249.89,-133.35 240.26,-137.77 245.12,-142.81"/>
</a>
</g>
</g>
<!-- Node11 -->
<g id="Node000011" class="node">
<title>Node11</title>
<g id="a_Node000011"><a xlink:title=" ">
<polygon fill="#e0e0e0" stroke="#999999" points="392,-132 333.25,-132 333.25,-112 392,-112 392,-132"/>
<text xml:space="preserve" text-anchor="middle" x="362.62" y="-118.5" font-family="Helvetica,sans-Serif" font-size="10.00">stdexcept</text>
</a>
</g>
</g>
<!-- Node5&#45;&gt;Node11 -->
<g id="edge14_Node000005_Node000011" class="edge">
<title>Node5&#45;&gt;Node11</title>
<g id="a_edge14_Node000005_Node000011"><a xlink:title=" ">
<path fill="none" stroke="#63b8ff" d="M232.15,-167.59C257.59,-158.9 295.66,-145.89 324.12,-136.16"/>
<polygon fill="#63b8ff" stroke="#63b8ff" points="325.13,-139.52 333.46,-132.97 322.86,-132.89 325.13,-139.52"/>
</a>
</g>
</g>
<!-- Node7 -->
<g id="Node000007" class="node">
<title>Node7</title>
<g id="a_Node000007"><a xlink:href="os__model_8h.html" target="_top" xlink:title="Estruturas de dados para OS e Histórico.">
<polygon fill="white" stroke="#666666" points="232.75,-76 166.5,-76 166.5,-56 232.75,-56 232.75,-76"/>
<text xml:space="preserve" text-anchor="middle" x="199.62" y="-62.5" font-family="Helvetica,sans-Serif" font-size="10.00">os_model.h</text>
</a>
</g>
</g>
<!-- Node6&#45;&gt;Node7 -->
<g id="edge6_Node000006_Node000007" class="edge">
<title>Node6&#45;&gt;Node7</title>
<g id="a_edge6_Node000006_Node000007"><a xlink:title=" ">
<path fill="none" stroke="#63b8ff" d="M156.68,-111.59C163.84,-104.16 174.03,-93.58 182.69,-84.58"/>
<polygon fill="#63b8ff" stroke="#63b8ff" points="185.21,-87.02 189.62,-77.39 180.16,-82.16 185.21,-87.02"/>
</a>
</g>
</g>
<!-- Node9 -->
<g id="Node000009" class="node">
<title>Node9</title>
<g id="a_Node000009"><a xlink:title=" ">
<polygon fill="#e0e0e0" stroke="#999999" points="225.25,-20 174,-20 174,0 225.25,0 225.25,-20"/>
<text xml:space="preserve" text-anchor="middle" x="199.62" y="-6.5" font-family="Helvetica,sans-Serif" font-size="10.00">QVector</text>
</a>
</g>
</g>
<!-- Node6&#45;&gt;Node9 -->
<g id="edge9_Node000006_Node000009" class="edge">
<title>Node6&#45;&gt;Node9</title>
<g id="a_edge9_Node000006_Node000009"><a xlink:title=" ">
<path fill="none" stroke="#63b8ff" d="M147.37,-111.67C147.38,-98.57 148.75,-74.28 157.62,-56 162.76,-45.41 171.26,-35.6 179.27,-27.86"/>
<polygon fill="#63b8ff" stroke="#63b8ff" points="181.39,-30.66 186.46,-21.35 176.7,-25.47 181.39,-30.66"/>
</a>
</g>
</g>
<!-- Node7&#45;&gt;Node8 -->
<g id="edge7_Node000007_Node000008" class="edge">
<title>Node7&#45;&gt;Node8</title>
<g id="a_edge7_Node000007_Node000008"><a xlink:title=" ">
<path fill="none" stroke="#63b8ff" d="M183.25,-55.59C169.05,-47.44 148.24,-35.48 131.74,-26"/>
<polygon fill="#63b8ff" stroke="#63b8ff" points="133.85,-23.18 123.44,-21.23 130.37,-29.25 133.85,-23.18"/>
</a>
</g>
</g>
<!-- Node7&#45;&gt;Node9 -->
<g id="edge8_Node000007_Node000009" class="edge">
<title>Node7&#45;&gt;Node9</title>
<g id="a_edge8_Node000007_Node000009"><a xlink:title=" ">
<path fill="none" stroke="#63b8ff" d="M199.62,-55.59C199.62,-49.01 199.62,-39.96 199.62,-31.73"/>
<polygon fill="#63b8ff" stroke="#63b8ff" points="203.13,-31.81 199.63,-21.81 196.13,-31.81 203.13,-31.81"/>
</a>
</g>
</g>
<!-- Node10&#45;&gt;Node7 -->
<g id="edge11_Node000010_Node000007" class="edge">
<title>Node10&#45;&gt;Node7</title>
<g id="a_edge11_Node000010_Node000007"><a xlink:title=" ">
<path fill="none" stroke="#63b8ff" d="M250,-111.59C241.34,-103.93 228.89,-92.91 218.54,-83.75"/>
<polygon fill="#63b8ff" stroke="#63b8ff" points="221.07,-81.31 211.26,-77.3 216.43,-86.55 221.07,-81.31"/>
</a>
</g>
</g>
<!-- Node10&#45;&gt;Node9 -->
<g id="edge12_Node000010_Node000009" class="edge">
<title>Node10&#45;&gt;Node9</title>
<g id="a_edge12_Node000010_Node000009"><a xlink:title=" ">
<path fill="none" stroke="#63b8ff" d="M259.29,-111.64C257.12,-98.51 251.98,-74.19 241.62,-56 235.72,-45.63 226.98,-35.75 219,-27.9"/>
<polygon fill="#63b8ff" stroke="#63b8ff" points="221.61,-25.55 211.91,-21.29 216.84,-30.67 221.61,-25.55"/>
</a>
</g>
</g>
</g>
</svg>
