<?xml version="1.0" encoding="UTF-8" standalone="no"?>
<!DOCTYPE svg PUBLIC "-//W3C//DTD SVG 1.1//EN"
 "http://www.w3.org/Graphics/SVG/1.1/DTD/svg11.dtd">
<!-- Generated by graphviz version 14.1.4 (20260321.0153)
 -->
<!-- Title: Representação gráfica da hiearquia da classe Pages: 1 -->
<svg width="152pt" height="66pt"
 viewBox="0.00 0.00 152.00 66.00" xmlns="http://www.w3.org/2000/svg" xmlns:xlink="http://www.w3.org/1999/xlink">
<g id="graph0" class="graph" transform="scale(1 1) rotate(0) translate(4 62)">
<title>Representação gráfica da hiearquia da classe</title>
<!-- Node0 -->
<g id="Node000000" class="node">
<title>Node0</title>
<g id="a_Node000000"><a xlink:title=" ">
<polygon fill="#e0e0e0" stroke="#999999" points="52,-39 0,-39 0,-19 52,-19 52,-39"/>
<text xml:space="preserve" text-anchor="middle" x="26" y="-25.5" font-family="Helvetica,sans-Serif" font-size="10.00">QObject</text>
</a>
</g>
</g>
<!-- Node1 -->
<g id="Node000001" class="node">
<title>Node1</title>
<g id="a_Node000001"><a xlink:href="classTestCore.html" target="_top" xlink:title=" ">
<polygon fill="white" stroke="#666666" points="143.75,-58 88,-58 88,-38 143.75,-38 143.75,-58"/>
<text xml:space="preserve" text-anchor="middle" x="115.88" y="-44.5" font-family="Helvetica,sans-Serif" font-size="10.00">TestCore</text>
</a>
</g>
</g>
<!-- Node0&#45;&gt;Node1 -->
<g id="edge3_Node000000_Node000001" class="edge">
<title>Node0&#45;&gt;Node1</title>
<g id="a_edge3_Node000000_Node000001"><a xlink:title=" ">
<path fill="none" stroke="#63b8ff" d="M63.51,-36.89C71.6,-38.64 80.03,-40.47 87.67,-42.12"/>
<polygon fill="#63b8ff" stroke="#63b8ff" points="64.41,-33.51 53.9,-34.82 62.93,-40.35 64.41,-33.51"/>
</a>
</g>
</g>
<!-- Node2 -->
<g id="Node000002" class="node">
<title>Node2</title>
<g id="a_Node000002"><a xlink:href="classTestGUI.html" target="_top" xlink:title=" ">
<polygon fill="white" stroke="#666666" points="142.25,-20 89.5,-20 89.5,0 142.25,0 142.25,-20"/>
<text xml:space="preserve" text-anchor="middle" x="115.88" y="-6.5" font-family="Helvetica,sans-Serif" font-size="10.00">TestGUI</text>
</a>
</g>
</g>
<!-- Node0&#45;&gt;Node2 -->
<g id="edge4_Node000000_Node000002" class="edge">
<title>Node0&#45;&gt;Node2</title>
<g id="a_edge4_Node000000_Node000002"><a xlink:title=" ">
<path fill="none" stroke="#63b8ff" d="M63.45,-21.12C72.1,-19.25 81.15,-17.29 89.21,-15.55"/>
<polygon fill="#63b8ff" stroke="#63b8ff" points="62.93,-17.65 53.9,-23.18 64.41,-24.49 62.93,-17.65"/>
</a>
</g>
</g>
</g>
</svg>
