<?xml version="1.0" encoding="UTF-8" standalone="no"?>
<!DOCTYPE svg PUBLIC "-//W3C//DTD SVG 1.1//EN"
 "http://www.w3.org/Graphics/SVG/1.1/DTD/svg11.dtd">
<!-- Generated by graphviz version 14.1.4 (20260321.0153)
 -->
<!-- Title: /home/arthurteixeira/Músicas/trabalho&#45;grupo&#45;eng&#45;soft/trabalho&#45;grupo&#45;eng&#45;soft/marmomanager_cpp/src/main.cpp Pages: 1 -->
<!--zoomable 356 -->

<svg id="main" version="1.1" xmlns="http://www.w3.org/2000/svg" xmlns:xlink="http://www.w3.org/1999/xlink" xml:space="preserve" onload="init(evt)">

<style type="text/css"><![CDATA[
.node, .edge {opacity: 0.7;}
.node.selected, .edge.selected {opacity: 1;}
.edge:hover path { stroke: red; }
.edge:hover polygon { stroke: red; fill: red; }
]]></style>

<defs>
  <circle id="rim" cx="0" cy="0" r="7"/>
  <circle id="rim2" cx="0" cy="0" r="3.5"/>
  <g id="zoomPlus">
    <use xlink:href="#rim" fill="#404040"><set attributeName="fill" to="#808080" begin="zoomplus.mouseover" end="zoomplus.mouseout"/></use>
    <path d="M-4,0h8M0,-4v8" fill="none" stroke="white" stroke-width="1.5" pointer-events="none"/>
  </g>
  <g id="zoomMin">
    <use xlink:href="#rim" fill="#404040"><set attributeName="fill" to="#808080" begin="zoomminus.mouseover" end="zoomminus.mouseout"/></use>
    <path d="M-4,0h8" fill="none" stroke="white" stroke-width="1.5" pointer-events="none"/>
  </g>
  <g id="arrowUp" transform="translate(30 24)">
    <use xlink:href="#rim"/>
    <path pointer-events="none" fill="none" stroke="white" stroke-width="1.5" d="M0,-3.0v7 M-2.5,-0.5L0,-3.0L2.5,-0.5"/>
  </g>
  <g id="arrowRight" transform="rotate(90) translate(36 -43)">
    <use xlink:href="#rim"/>
    <path pointer-events="none" fill="none" stroke="white" stroke-width="1.5" d="M0,-3.0v7 M-2.5,-0.5L0,-3.0L2.5,-0.5"/>
  </g>
  <g id="arrowDown" transform="rotate(180) translate(-30 -48)">
    <use xlink:href="#rim"/>
    <path pointer-events="none" fill="none" stroke="white" stroke-width="1.5" d="M0,-3.0v7 M-2.5,-0.5L0,-3.0L2.5,-0.5"/>
  </g>
  <g id="arrowLeft" transform="rotate(270) translate(-36 17)">
    <use xlink:href="#rim"/>
    <path pointer-events="none" fill="none" stroke="white" stroke-width="1.5" d="M0,-3.0v7 M-2.5,-0.5L0,-3.0L2.5,-0.5"/>
  </g>
  <g id="resetDef">
    <use xlink:href="#rim2" fill="#404040"><set attributeName="fill" to="#808080" begin="reset.mouseover" end="reset.mouseout"/></use>
  </g>
</defs>
<script type="application/ecmascript">
var viewWidth = 1152;
var viewHeight = 356;
var sectionId = 'dynsection-0';
</script>
<script type="application/ecmascript" xlink:href="svg.min.js"/>
<svg id="graph" class="graph">
<g id="viewport">
<title>/home/arthurteixeira/Músicas/trabalho&#45;grupo&#45;eng&#45;soft/trabalho&#45;grupo&#45;eng&#45;soft/marmomanager_cpp/src/main.cpp</title>
<!-- Node1 -->
<g id="Node000001" class="node">
<title>Node1</title>
<g id="a_Node000001"><a xlink:title=" ">
<polygon fill="#999999" stroke="#666666" points="194.62,-348 48.88,-348 48.88,-280 194.62,-280 194.62,-348"/>
<text xml:space="preserve" text-anchor="start" x="56.88" y="-334.5" font-family="Helvetica,sans-Serif" font-size="10.00">/home/arthurteixeira</text>
<text xml:space="preserve" text-anchor="start" x="56.88" y="-322.5" font-family="Helvetica,sans-Serif" font-size="10.00">/Músicas/trabalho&#45;grupo</text>
<text xml:space="preserve" text-anchor="start" x="56.88" y="-310.5" font-family="Helvetica,sans-Serif" font-size="10.00">&#45;eng&#45;soft/trabalho&#45;grupo</text>
<text xml:space="preserve" text-anchor="start" x="56.88" y="-298.5" font-family="Helvetica,sans-Serif" font-size="10.00">&#45;eng&#45;soft/marmomanager_cpp</text>
<text xml:space="preserve" text-anchor="middle" x="121.75" y="-286.5" font-family="Helvetica,sans-Serif" font-size="10.00">/src/main.cpp</text>
</a>
</g>
</g>
<!-- Node2 -->
<g id="Node000002" class="node">
<title>Node2</title>
<g id="a_Node000002"><a xlink:title=" ">
<polygon fill="#e0e0e0" stroke="#999999" points="71.5,-244 0,-244 0,-224 71.5,-224 71.5,-244"/>
<text xml:space="preserve" text-anchor="middle" x="35.75" y="-230.5" font-family="Helvetica,sans-Serif" font-size="10.00">QApplication</text>
</a>
</g>
</g>
<!-- Node1&#45;&gt;Node2 -->
<g id="edge1_Node000001_Node000002" class="edge">
<title>Node1&#45;&gt;Node2</title>
<g id="a_edge1_Node000001_Node000002"><a xlink:title=" ">
<path fill="none" stroke="#63b8ff" d="M85.28,-279.92C74.57,-270.2 63.3,-259.99 54.22,-251.76"/>
<polygon fill="#63b8ff" stroke="#63b8ff" points="56.86,-249.42 47.1,-245.29 52.16,-254.61 56.86,-249.42"/>
</a>
</g>
</g>
<!-- Node3 -->
<g id="Node000003" class="node">
<title>Node3</title>
<g id="a_Node000003"><a xlink:href="database_8h.html" target="_top" xlink:title="Arquivo de cabeçalho para o Singleton do Banco de Dados.">
<polygon fill="white" stroke="#666666" points="153.75,-244 89.75,-244 89.75,-224 153.75,-224 153.75,-244"/>
<text xml:space="preserve" text-anchor="middle" x="121.75" y="-230.5" font-family="Helvetica,sans-Serif" font-size="10.00">database.h</text>
</a>
</g>
</g>
<!-- Node1&#45;&gt;Node3 -->
<g id="edge2_Node000001_Node000003" class="edge">
<title>Node1&#45;&gt;Node3</title>
<g id="a_edge2_Node000001_Node000003"><a xlink:title=" ">
<path fill="none" stroke="#63b8ff" d="M121.75,-279.92C121.75,-271.72 121.75,-263.17 121.75,-255.75"/>
<polygon fill="#63b8ff" stroke="#63b8ff" points="125.25,-255.79 121.75,-245.79 118.25,-255.79 125.25,-255.79"/>
</a>
</g>
</g>
<!-- Node6 -->
<g id="Node000006" class="node">
<title>Node6</title>
<g id="a_Node000006"><a xlink:href="main__window_8h.html" target="_top" xlink:title="Cabeçalho para a view principal MarmoManagerApp.">
<polygon fill="white" stroke="#666666" points="666.12,-244 583.38,-244 583.38,-224 666.12,-224 666.12,-244"/>
<text xml:space="preserve" text-anchor="middle" x="624.75" y="-230.5" font-family="Helvetica,sans-Serif" font-size="10.00">main_window.h</text>
</a>
</g>
</g>
<!-- Node1&#45;&gt;Node6 -->
<g id="edge5_Node000001_Node000006" class="edge">
<title>Node1&#45;&gt;Node6</title>
<g id="a_edge5_Node000001_Node000006"><a xlink:title=" ">
<path fill="none" stroke="#63b8ff" d="M194.89,-301.66C297.35,-285.77 481.16,-257.27 571.57,-243.25"/>
<polygon fill="#63b8ff" stroke="#63b8ff" points="572.07,-246.71 581.41,-241.72 570.99,-239.79 572.07,-246.71"/>
</a>
</g>
</g>
<!-- Node4 -->
<g id="Node000004" class="node">
<title>Node4</title>
<g id="a_Node000004"><a xlink:title=" ">
<polygon fill="#e0e0e0" stroke="#999999" points="161.62,-188 81.88,-188 81.88,-168 161.62,-168 161.62,-188"/>
<text xml:space="preserve" text-anchor="middle" x="121.75" y="-174.5" font-family="Helvetica,sans-Serif" font-size="10.00">QSqlDatabase</text>
</a>
</g>
</g>
<!-- Node3&#45;&gt;Node4 -->
<g id="edge3_Node000003_Node000004" class="edge">
<title>Node3&#45;&gt;Node4</title>
<g id="a_edge3_Node000003_Node000004"><a xlink:title=" ">
<path fill="none" stroke="#63b8ff" d="M121.75,-223.59C121.75,-217.01 121.75,-207.96 121.75,-199.73"/>
<polygon fill="#63b8ff" stroke="#63b8ff" points="125.25,-199.81 121.75,-189.81 118.25,-199.81 125.25,-199.81"/>
</a>
</g>
</g>
<!-- Node5 -->
<g id="Node000005" class="node">
<title>Node5</title>
<g id="a_Node000005"><a xlink:title=" ">
<polygon fill="#e0e0e0" stroke="#999999" points="616.25,-20 567.25,-20 567.25,0 616.25,0 616.25,-20"/>
<text xml:space="preserve" text-anchor="middle" x="591.75" y="-6.5" font-family="Helvetica,sans-Serif" font-size="10.00">QString</text>
</a>
</g>
</g>
<!-- Node3&#45;&gt;Node5 -->
<g id="edge4_Node000003_Node000005" class="edge">
<title>Node3&#45;&gt;Node5</title>
<g id="a_edge4_Node000003_Node000005"><a xlink:title=" ">
<path fill="none" stroke="#63b8ff" d="M105.71,-223.56C86.32,-210.94 58.01,-187.86 72.75,-168 132.1,-88.04 447.83,-33.01 555.64,-16.32"/>
<polygon fill="#63b8ff" stroke="#63b8ff" points="556.01,-19.8 565.37,-14.83 554.95,-12.88 556.01,-19.8"/>
</a>
</g>
</g>
<!-- Node7 -->
<g id="Node000007" class="node">
<title>Node7</title>
<g id="a_Node000007"><a xlink:title=" ">
<polygon fill="#e0e0e0" stroke="#999999" points="811.62,-188 731.88,-188 731.88,-168 811.62,-168 811.62,-188"/>
<text xml:space="preserve" text-anchor="middle" x="771.75" y="-174.5" font-family="Helvetica,sans-Serif" font-size="10.00">QMainWindow</text>
</a>
</g>
</g>
<!-- Node6&#45;&gt;Node7 -->
<g id="edge6_Node000006_Node000007" class="edge">
<title>Node6&#45;&gt;Node7</title>
<g id="a_edge6_Node000006_Node000007"><a xlink:title=" ">
<path fill="none" stroke="#63b8ff" d="M650.36,-223.59C673.82,-214.97 708.82,-202.12 735.22,-192.42"/>
<polygon fill="#63b8ff" stroke="#63b8ff" points="736.34,-195.73 744.52,-189 733.93,-189.16 736.34,-195.73"/>
</a>
</g>
</g>
<!-- Node8 -->
<g id="Node000008" class="node">
<title>Node8</title>
<g id="a_Node000008"><a xlink:title=" ">
<polygon fill="#e0e0e0" stroke="#999999" points="899.75,-188 829.75,-188 829.75,-168 899.75,-168 899.75,-188"/>
<text xml:space="preserve" text-anchor="middle" x="864.75" y="-174.5" font-family="Helvetica,sans-Serif" font-size="10.00">QTabWidget</text>
</a>
</g>
</g>
<!-- Node6&#45;&gt;Node8 -->
<g id="edge7_Node000006_Node000008" class="edge">
<title>Node6&#45;&gt;Node8</title>
<g id="a_edge7_Node000006_Node000008"><a xlink:title=" ">
<path fill="none" stroke="#63b8ff" d="M666.55,-223.59C708.93,-214.06 774.35,-199.34 818.32,-189.45"/>
<polygon fill="#63b8ff" stroke="#63b8ff" points="818.82,-192.92 827.8,-187.31 817.28,-186.09 818.82,-192.92"/>
</a>
</g>
</g>
<!-- Node9 -->
<g id="Node000009" class="node">
<title>Node9</title>
<g id="a_Node000009"><a xlink:title=" ">
<polygon fill="#e0e0e0" stroke="#999999" points="976.12,-188 917.38,-188 917.38,-168 976.12,-168 976.12,-188"/>
<text xml:space="preserve" text-anchor="middle" x="946.75" y="-174.5" font-family="Helvetica,sans-Serif" font-size="10.00">QLineEdit</text>
</a>
</g>
</g>
<!-- Node6&#45;&gt;Node9 -->
<g id="edge8_Node000006_Node000009" class="edge">
<title>Node6&#45;&gt;Node9</title>
<g id="a_edge8_Node000006_Node000009"><a xlink:title=" ">
<path fill="none" stroke="#63b8ff" d="M666.31,-227.42C719.63,-220.03 815.2,-206.06 905.89,-188.45"/>
<polygon fill="#63b8ff" stroke="#63b8ff" points="906.3,-191.94 915.44,-186.58 904.95,-185.07 906.3,-191.94"/>
</a>
</g>
</g>
<!-- Node10 -->
<g id="Node000010" class="node">
<title>Node10</title>
<g id="a_Node000010"><a xlink:title=" ">
<polygon fill="#e0e0e0" stroke="#999999" points="1053.5,-188 994,-188 994,-168 1053.5,-168 1053.5,-188"/>
<text xml:space="preserve" text-anchor="middle" x="1023.75" y="-174.5" font-family="Helvetica,sans-Serif" font-size="10.00">QTextEdit</text>
</a>
</g>
</g>
<!-- Node6&#45;&gt;Node10 -->
<g id="edge9_Node000006_Node000010" class="edge">
<title>Node6&#45;&gt;Node10</title>
<g id="a_edge9_Node000006_Node000010"><a xlink:title=" ">
<path fill="none" stroke="#63b8ff" d="M666.53,-229.18C731.81,-222.91 862.13,-209.16 982.35,-188.26"/>
<polygon fill="#63b8ff" stroke="#63b8ff" points="982.85,-191.73 992.09,-186.55 981.63,-184.84 982.85,-191.73"/>
</a>
</g>
</g>
<!-- Node11 -->
<g id="Node000011" class="node">
<title>Node11</title>
<g id="a_Node000011"><a xlink:title=" ">
<polygon fill="#e0e0e0" stroke="#999999" points="1143.88,-188 1071.62,-188 1071.62,-168 1143.88,-168 1143.88,-188"/>
<text xml:space="preserve" text-anchor="middle" x="1107.75" y="-174.5" font-family="Helvetica,sans-Serif" font-size="10.00">QComboBox</text>
</a>
</g>
</g>
<!-- Node6&#45;&gt;Node11 -->
<g id="edge10_Node000006_Node000011" class="edge">
<title>Node6&#45;&gt;Node11</title>
<g id="a_edge10_Node000006_Node000011"><a xlink:title=" ">
<path fill="none" stroke="#63b8ff" d="M666.59,-230.03C742.81,-224.34 909.6,-210.55 1060.18,-188.26"/>
<polygon fill="#63b8ff" stroke="#63b8ff" points="1060.59,-191.74 1069.96,-186.79 1059.55,-184.81 1060.59,-191.74"/>
</a>
</g>
</g>
<!-- Node12 -->
<g id="Node000012" class="node">
<title>Node12</title>
<g id="a_Node000012"><a xlink:title=" ">
<polygon fill="#e0e0e0" stroke="#999999" points="241.62,-188 179.88,-188 179.88,-168 241.62,-168 241.62,-188"/>
<text xml:space="preserve" text-anchor="middle" x="210.75" y="-174.5" font-family="Helvetica,sans-Serif" font-size="10.00">QDateEdit</text>
</a>
</g>
</g>
<!-- Node6&#45;&gt;Node12 -->
<g id="edge11_Node000006_Node000012" class="edge">
<title>Node6&#45;&gt;Node12</title>
<g id="a_edge11_Node000006_Node000012"><a xlink:title=" ">
<path fill="none" stroke="#63b8ff" d="M583.04,-229.38C515.7,-223.22 378.67,-209.45 252.68,-188.17"/>
<polygon fill="#63b8ff" stroke="#63b8ff" points="253.64,-184.78 243.19,-186.54 252.46,-191.68 253.64,-184.78"/>
</a>
</g>
</g>
<!-- Node13 -->
<g id="Node000013" class="node">
<title>Node13</title>
<g id="a_Node000013"><a xlink:title=" ">
<polygon fill="#e0e0e0" stroke="#999999" points="337.5,-188 260,-188 260,-168 337.5,-168 337.5,-188"/>
<text xml:space="preserve" text-anchor="middle" x="298.75" y="-174.5" font-family="Helvetica,sans-Serif" font-size="10.00">QTableWidget</text>
</a>
</g>
</g>
<!-- Node6&#45;&gt;Node13 -->
<g id="edge12_Node000006_Node000013" class="edge">
<title>Node6&#45;&gt;Node13</title>
<g id="a_edge12_Node000006_Node000013"><a xlink:title=" ">
<path fill="none" stroke="#63b8ff" d="M583.09,-226.67C530.74,-218.63 437.84,-204.08 349.3,-188.59"/>
<polygon fill="#63b8ff" stroke="#63b8ff" points="349.92,-185.15 339.46,-186.86 348.71,-192.04 349.92,-185.15"/>
</a>
</g>
</g>
<!-- Node14 -->
<g id="Node000014" class="node">
<title>Node14</title>
<g id="a_Node000014"><a xlink:title=" ">
<polygon fill="#e0e0e0" stroke="#999999" points="424.38,-188 355.12,-188 355.12,-168 424.38,-168 424.38,-188"/>
<text xml:space="preserve" text-anchor="middle" x="389.75" y="-174.5" font-family="Helvetica,sans-Serif" font-size="10.00">QCheckBox</text>
</a>
</g>
</g>
<!-- Node6&#45;&gt;Node14 -->
<g id="edge13_Node000006_Node000014" class="edge">
<title>Node6&#45;&gt;Node14</title>
<g id="a_edge13_Node000006_Node000014"><a xlink:title=" ">
<path fill="none" stroke="#63b8ff" d="M583.55,-223.53C542.22,-214.04 478.71,-199.44 435.76,-189.57"/>
<polygon fill="#63b8ff" stroke="#63b8ff" points="436.77,-186.21 426.24,-187.39 435.21,-193.04 436.77,-186.21"/>
</a>
</g>
</g>
<!-- Node15 -->
<g id="Node000015" class="node">
<title>Node15</title>
<g id="a_Node000015"><a xlink:title=" ">
<polygon fill="#e0e0e0" stroke="#999999" points="519.5,-188 442,-188 442,-168 519.5,-168 519.5,-188"/>
<text xml:space="preserve" text-anchor="middle" x="480.75" y="-174.5" font-family="Helvetica,sans-Serif" font-size="10.00">QRadioButton</text>
</a>
</g>
</g>
<!-- Node6&#45;&gt;Node15 -->
<g id="edge14_Node000006_Node000015" class="edge">
<title>Node6&#45;&gt;Node15</title>
<g id="a_edge14_Node000006_Node000015"><a xlink:title=" ">
<path fill="none" stroke="#63b8ff" d="M599.67,-223.59C576.68,-214.97 542.4,-202.12 516.54,-192.42"/>
<polygon fill="#63b8ff" stroke="#63b8ff" points="518.04,-189.25 507.45,-189.01 515.58,-195.8 518.04,-189.25"/>
</a>
</g>
</g>
<!-- Node16 -->
<g id="Node000016" class="node">
<title>Node16</title>
<g id="a_Node000016"><a xlink:title=" ">
<polygon fill="#e0e0e0" stroke="#999999" points="615.88,-188 537.62,-188 537.62,-168 615.88,-168 615.88,-188"/>
<text xml:space="preserve" text-anchor="middle" x="576.75" y="-174.5" font-family="Helvetica,sans-Serif" font-size="10.00">QButtonGroup</text>
</a>
</g>
</g>
<!-- Node6&#45;&gt;Node16 -->
<g id="edge15_Node000006_Node000016" class="edge">
<title>Node6&#45;&gt;Node16</title>
<g id="a_edge15_Node000006_Node000016"><a xlink:title=" ">
<path fill="none" stroke="#63b8ff" d="M616.39,-223.59C609.85,-216.24 600.57,-205.8 592.63,-196.87"/>
<polygon fill="#63b8ff" stroke="#63b8ff" points="595.28,-194.58 586.02,-189.43 590.05,-199.23 595.28,-194.58"/>
</a>
</g>
</g>
<!-- Node17 -->
<g id="Node000017" class="node">
<title>Node17</title>
<g id="a_Node000017"><a xlink:href="os__controller_8h.html" target="_top" xlink:title="Cabeçalho da classe OSController.">
<polygon fill="white" stroke="#666666" points="713.62,-188 633.88,-188 633.88,-168 713.62,-168 713.62,-188"/>
<text xml:space="preserve" text-anchor="middle" x="673.75" y="-174.5" font-family="Helvetica,sans-Serif" font-size="10.00">os_controller.h</text>
</a>
</g>
</g>
<!-- Node6&#45;&gt;Node17 -->
<g id="edge16_Node000006_Node000017" class="edge">
<title>Node6&#45;&gt;Node17</title>
<g id="a_edge16_Node000006_Node000017"><a xlink:title=" ">
<path fill="none" stroke="#63b8ff" d="M633.29,-223.59C640.03,-216.16 649.64,-205.58 657.79,-196.58"/>
<polygon fill="#63b8ff" stroke="#63b8ff" points="660.17,-199.18 664.3,-189.42 654.98,-194.47 660.17,-199.18"/>
</a>
</g>
</g>
<!-- Node17&#45;&gt;Node5 -->
<g id="edge25_Node000017_Node000005" class="edge">
<title>Node17&#45;&gt;Node5</title>
<g id="a_edge25_Node000017_Node000005"><a xlink:title=" ">
<path fill="none" stroke="#63b8ff" d="M652.76,-167.52C638.55,-159.97 620.64,-148.01 610.75,-132 591.54,-100.89 589.56,-56.98 590.34,-31.5"/>
<polygon fill="#63b8ff" stroke="#63b8ff" points="593.82,-31.99 590.82,-21.83 586.83,-31.64 593.82,-31.99"/>
</a>
</g>
</g>
<!-- Node18 -->
<g id="Node000018" class="node">
<title>Node18</title>
<g id="a_Node000018"><a xlink:href="os__repository_8h.html" target="_top" xlink:title="Cabeçalho para a classe OSRepository.">
<polygon fill="white" stroke="#666666" points="827.75,-132 745.75,-132 745.75,-112 827.75,-112 827.75,-132"/>
<text xml:space="preserve" text-anchor="middle" x="786.75" y="-118.5" font-family="Helvetica,sans-Serif" font-size="10.00">os_repository.h</text>
</a>
</g>
</g>
<!-- Node17&#45;&gt;Node18 -->
<g id="edge17_Node000017_Node000018" class="edge">
<title>Node17&#45;&gt;Node18</title>
<g id="a_edge17_Node000017_Node000018"><a xlink:title=" ">
<path fill="none" stroke="#63b8ff" d="M693.43,-167.59C710.91,-159.24 736.7,-146.92 756.75,-137.34"/>
<polygon fill="#63b8ff" stroke="#63b8ff" points="758.03,-140.6 765.55,-133.13 755.02,-134.29 758.03,-140.6"/>
</a>
</g>
</g>
<!-- Node21 -->
<g id="Node000021" class="node">
<title>Node21</title>
<g id="a_Node000021"><a xlink:href="historico__repository_8h.html" target="_top" xlink:title="Cabeçalho da classe HistoricoRepository.">
<polygon fill="white" stroke="#666666" points="727.88,-132 619.62,-132 619.62,-112 727.88,-112 727.88,-132"/>
<text xml:space="preserve" text-anchor="middle" x="673.75" y="-118.5" font-family="Helvetica,sans-Serif" font-size="10.00">historico_repository.h</text>
</a>
</g>
</g>
<!-- Node17&#45;&gt;Node21 -->
<g id="edge22_Node000017_Node000021" class="edge">
<title>Node17&#45;&gt;Node21</title>
<g id="a_edge22_Node000017_Node000021"><a xlink:title=" ">
<path fill="none" stroke="#63b8ff" d="M673.75,-167.59C673.75,-161.01 673.75,-151.96 673.75,-143.73"/>
<polygon fill="#63b8ff" stroke="#63b8ff" points="677.25,-143.81 673.75,-133.81 670.25,-143.81 677.25,-143.81"/>
</a>
</g>
</g>
<!-- Node22 -->
<g id="Node000022" class="node">
<title>Node22</title>
<g id="a_Node000022"><a xlink:title=" ">
<polygon fill="#e0e0e0" stroke="#999999" points="564.12,-132 505.38,-132 505.38,-112 564.12,-112 564.12,-132"/>
<text xml:space="preserve" text-anchor="middle" x="534.75" y="-118.5" font-family="Helvetica,sans-Serif" font-size="10.00">stdexcept</text>
</a>
</g>
</g>
<!-- Node17&#45;&gt;Node22 -->
<g id="edge26_Node000017_Node000022" class="edge">
<title>Node17&#45;&gt;Node22</title>
<g id="a_edge26_Node000017_Node000022"><a xlink:title=" ">
<path fill="none" stroke="#63b8ff" d="M649.54,-167.59C627.45,-159.01 594.55,-146.23 569.63,-136.55"/>
<polygon fill="#63b8ff" stroke="#63b8ff" points="571.15,-133.39 560.56,-133.03 568.62,-139.91 571.15,-133.39"/>
</a>
</g>
</g>
<!-- Node19 -->
<g id="Node000019" class="node">
<title>Node19</title>
<g id="a_Node000019"><a xlink:href="os__model_8h.html" target="_top" xlink:title="Estruturas de dados para OS e Histórico.">
<polygon fill="white" stroke="#666666" points="758.88,-76 692.62,-76 692.62,-56 758.88,-56 758.88,-76"/>
<text xml:space="preserve" text-anchor="middle" x="725.75" y="-62.5" font-family="Helvetica,sans-Serif" font-size="10.00">os_model.h</text>
</a>
</g>
</g>
<!-- Node18&#45;&gt;Node19 -->
<g id="edge18_Node000018_Node000019" class="edge">
<title>Node18&#45;&gt;Node19</title>
<g id="a_edge18_Node000018_Node000019"><a xlink:title=" ">
<path fill="none" stroke="#63b8ff" d="M776.12,-111.59C767.47,-103.93 755.02,-92.91 744.67,-83.75"/>
<polygon fill="#63b8ff" stroke="#63b8ff" points="747.19,-81.31 737.39,-77.3 742.55,-86.55 747.19,-81.31"/>
</a>
</g>
</g>
<!-- Node20 -->
<g id="Node000020" class="node">
<title>Node20</title>
<g id="a_Node000020"><a xlink:title=" ">
<polygon fill="#e0e0e0" stroke="#999999" points="751.38,-20 700.12,-20 700.12,0 751.38,0 751.38,-20"/>
<text xml:space="preserve" text-anchor="middle" x="725.75" y="-6.5" font-family="Helvetica,sans-Serif" font-size="10.00">QVector</text>
</a>
</g>
</g>
<!-- Node18&#45;&gt;Node20 -->
<g id="edge21_Node000018_Node000020" class="edge">
<title>Node18&#45;&gt;Node20</title>
<g id="a_edge21_Node000018_Node000020"><a xlink:title=" ">
<path fill="none" stroke="#63b8ff" d="M785.42,-111.64C783.25,-98.51 778.11,-74.19 767.75,-56 761.85,-45.63 753.11,-35.75 745.13,-27.9"/>
<polygon fill="#63b8ff" stroke="#63b8ff" points="747.74,-25.55 738.04,-21.29 742.96,-30.67 747.74,-25.55"/>
</a>
</g>
</g>
<!-- Node19&#45;&gt;Node5 -->
<g id="edge19_Node000019_Node000005" class="edge">
<title>Node19&#45;&gt;Node5</title>
<g id="a_edge19_Node000019_Node000005"><a xlink:title=" ">
<path fill="none" stroke="#63b8ff" d="M702.41,-55.59C681.21,-47.05 649.68,-34.35 625.7,-24.68"/>
<polygon fill="#63b8ff" stroke="#63b8ff" points="627.26,-21.54 616.68,-21.05 624.64,-28.03 627.26,-21.54"/>
</a>
</g>
</g>
<!-- Node19&#45;&gt;Node20 -->
<g id="edge20_Node000019_Node000020" class="edge">
<title>Node19&#45;&gt;Node20</title>
<g id="a_edge20_Node000019_Node000020"><a xlink:title=" ">
<path fill="none" stroke="#63b8ff" d="M725.75,-55.59C725.75,-49.01 725.75,-39.96 725.75,-31.73"/>
<polygon fill="#63b8ff" stroke="#63b8ff" points="729.25,-31.81 725.75,-21.81 722.25,-31.81 729.25,-31.81"/>
</a>
</g>
</g>
<!-- Node21&#45;&gt;Node19 -->
<g id="edge23_Node000021_Node000019" class="edge">
<title>Node21&#45;&gt;Node19</title>
<g id="a_edge23_Node000021_Node000019"><a xlink:title=" ">
<path fill="none" stroke="#63b8ff" d="M682.81,-111.59C689.97,-104.16 700.16,-93.58 708.82,-84.58"/>
<polygon fill="#63b8ff" stroke="#63b8ff" points="711.33,-87.02 715.75,-77.39 706.29,-82.16 711.33,-87.02"/>
</a>
</g>
</g>
<!-- Node21&#45;&gt;Node20 -->
<g id="edge24_Node000021_Node000020" class="edge">
<title>Node21&#45;&gt;Node20</title>
<g id="a_edge24_Node000021_Node000020"><a xlink:title=" ">
<path fill="none" stroke="#63b8ff" d="M673.5,-111.67C673.51,-98.57 674.88,-74.28 683.75,-56 688.89,-45.41 697.38,-35.6 705.39,-27.86"/>
<polygon fill="#63b8ff" stroke="#63b8ff" points="707.52,-30.66 712.59,-21.35 702.82,-25.47 707.52,-30.66"/>
</a>
</g>
</g>
</g>
</svg>

<g id="navigator" transform="translate(0 0)" fill="#404254">
  <rect fill="#f2f5e9" fill-opacity="0.5" stroke="#606060" stroke-width=".5" x="0" y="0" width="60" height="60"/>
  <use id="zoomplus" xlink:href="#zoomPlus" x="17" y="9" onmousedown="handleZoom(evt,'in')"/>
  <use id="zoomminus" xlink:href="#zoomMin" x="42" y="9" onmousedown="handleZoom(evt,'out')"/>
  <use id="reset" xlink:href="#resetDef" x="30" y="36" onmousedown="handleReset()"/>
   <use id="arrowup" xlink:href="#arrowUp" x="0" y="0" onmousedown="handlePan(0,-1)"/>
  <use id="arrowright" xlink:href="#arrowRight" x="0" y="0" onmousedown="handlePan(1,0)"/>
  <use id="arrowdown" xlink:href="#arrowDown" x="0" y="0" onmousedown="handlePan(0,1)"/>
  <use id="arrowleft" xlink:href="#arrowLeft" x="0" y="0" onmousedown="handlePan(-1,0)"/>
</g>
<svg viewBox="0 0 15 15" width="100%" height="30px" preserveAspectRatio="xMaxYMin meet">
 <g id="arrow_out" transform="scale(0.3 0.3)">
  <a xlink:href="main_8cpp__incl_org.svg" target="_base">
   <rect id="button" ry="5" rx="5" y="6" x="6" height="38" width="38"
        fill="#f2f5e9" fill-opacity="0.5" stroke="#606060" stroke-width="1.0"/>
   <path id="arrow"
     d="M 11.500037,31.436501 C 11.940474,20.09759 22.043105,11.32322 32.158766,21.979434 L 37.068811,17.246167 C 37.068811,17.246167 37.088388,32 37.088388,32 L 22.160133,31.978069 C 22.160133,31.978069 26.997745,27.140456 26.997745,27.140456 C 18.528582,18.264221 13.291696,25.230495 11.500037,31.436501 z"
     style="fill:#404040;"/>
  </a>
 </g>
</svg>

<style type='text/css'>
<![CDATA[
[data-mouse-over-selected='false'] { opacity: 0.7; }
[data-mouse-over-selected='true']  { opacity: 1.0; }
]]>
</style>
<script type="application/ecmascript"><![CDATA[
document.addEventListener('DOMContentLoaded', (event) => {
  highlightEdges();
  highlightAdjacentNodes();
});
]]></script>
</svg>
