<?xml version="1.0" encoding="UTF-8" standalone="no"?>
<!DOCTYPE svg PUBLIC "-//W3C//DTD SVG 1.1//EN"
 "http://www.w3.org/Graphics/SVG/1.1/DTD/svg11.dtd">
<!-- Generated by graphviz version 2.43.0 (0)
 -->
<!-- Title: /home/daniel/Área de trabalho/Engenharia_1/Sprint1&#45;Grupo/marmomanager_cpp/src/ui/main_window.h Pages: 1 -->
<!--zoomable 225 -->

<svg id="main" version="1.1" xmlns="http://www.w3.org/2000/svg" xmlns:xlink="http://www.w3.org/1999/xlink" xml:space="preserve" onload="init(evt)">
<style type="text/css"><![CDATA[
.node, .edge {opacity: 0.7;}
.node.selected, .edge.selected {opacity: 1;}
.edge:hover path { stroke: red; }
.edge:hover polygon { stroke: red; fill: red; }
]]></style>

<defs>
  <circle id="rim" cx="0" cy="0" r="7"/>
  <circle id="rim2" cx="0" cy="0" r="3.5"/>
  <g id="zoomPlus">
    <use xlink:href="#rim" fill="#404040"><set attributeName="fill" to="#808080" begin="zoomplus.mouseover" end="zoomplus.mouseout"/></use>
    <path d="M-4,0h8M0,-4v8" fill="none" stroke="white" stroke-width="1.5" pointer-events="none"/>
  </g>
  <g id="zoomMin">
    <use xlink:href="#rim" fill="#404040"><set attributeName="fill" to="#808080" begin="zoomminus.mouseover" end="zoomminus.mouseout"/></use>
    <path d="M-4,0h8" fill="none" stroke="white" stroke-width="1.5" pointer-events="none"/>
  </g>
  <g id="arrowUp" transform="translate(30 24)">
    <use xlink:href="#rim"/>
    <path pointer-events="none" fill="none" stroke="white" stroke-width="1.5" d="M0,-3.0v7 M-2.5,-0.5L0,-3.0L2.5,-0.5"/>
  </g>
  <g id="arrowRight" transform="rotate(90) translate(36 -43)">
    <use xlink:href="#rim"/>
    <path pointer-events="none" fill="none" stroke="white" stroke-width="1.5" d="M0,-3.0v7 M-2.5,-0.5L0,-3.0L2.5,-0.5"/>
  </g>
  <g id="arrowDown" transform="rotate(180) translate(-30 -48)">
    <use xlink:href="#rim"/>
    <path pointer-events="none" fill="none" stroke="white" stroke-width="1.5" d="M0,-3.0v7 M-2.5,-0.5L0,-3.0L2.5,-0.5"/>
  </g>
  <g id="arrowLeft" transform="rotate(270) translate(-36 17)">
    <use xlink:href="#rim"/>
    <path pointer-events="none" fill="none" stroke="white" stroke-width="1.5" d="M0,-3.0v7 M-2.5,-0.5L0,-3.0L2.5,-0.5"/>
  </g>
  <g id="resetDef">
    <use xlink:href="#rim2" fill="#404040"><set attributeName="fill" to="#808080" begin="reset.mouseover" end="reset.mouseout"/></use>
  </g>
</defs>
<script type="application/ecmascript">
var viewWidth = 1219;
var viewHeight = 225;
var sectionId = 'dynsection-0';
</script>
<script type="application/ecmascript" xlink:href="svg.min.js"/>
<svg id="graph" class="graph">
<g id="viewport">
<title>/home/daniel/Área de trabalho/Engenharia_1/Sprint1&#45;Grupo/marmomanager_cpp/src/ui/main_window.h</title>
<!-- Node1 -->
<g id="Node000001" class="node">
<title>Node1</title>
<g id="a_Node000001"><a xlink:title="Cabeçalho para a view principal MarmoManagerApp.">
<polygon fill="#999999" stroke="#666666" points="624.5,-217 444.5,-217 444.5,-165 624.5,-165 624.5,-217"/>
<text text-anchor="start" x="452.5" y="-205" font-family="Helvetica,sans-Serif" font-size="10.00">/home/daniel/Área</text>
<text text-anchor="start" x="452.5" y="-194" font-family="Helvetica,sans-Serif" font-size="10.00"> de trabalho/Engenharia</text>
<text text-anchor="start" x="452.5" y="-183" font-family="Helvetica,sans-Serif" font-size="10.00">_1/Sprint1&#45;Grupo/marmomanager</text>
<text text-anchor="middle" x="534.5" y="-172" font-family="Helvetica,sans-Serif" font-size="10.00">_cpp/src/ui/main_window.h</text>
</a>
</g>
</g>
<!-- Node2 -->
<g id="Node000002" class="node">
<title>Node2</title>
<g id="a_Node000002"><a xlink:title=" ">
<polygon fill="#e0e0e0" stroke="#999999" points="87,-129 0,-129 0,-110 87,-110 87,-129"/>
<text text-anchor="middle" x="43.5" y="-117" font-family="Helvetica,sans-Serif" font-size="10.00">QMainWindow</text>
</a>
</g>
</g>
<!-- Node1&#45;&gt;Node2 -->
<g id="edge1_Node000001_Node000002" class="edge">
<title>Node1&#45;&gt;Node2</title>
<g id="a_edge1_Node000001_Node000002"><a xlink:title=" ">
<path fill="none" stroke="#63b8ff" d="M444.45,-178.13C357.98,-166.58 223.42,-148.23 97.4,-129.26"/>
<polygon fill="#63b8ff" stroke="#63b8ff" points="97.59,-125.75 87.18,-127.72 96.55,-132.67 97.59,-125.75"/>
</a>
</g>
</g>
<!-- Node3 -->
<g id="Node000003" class="node">
<title>Node3</title>
<g id="a_Node000003"><a xlink:title=" ">
<polygon fill="#e0e0e0" stroke="#999999" points="180,-129 105,-129 105,-110 180,-110 180,-129"/>
<text text-anchor="middle" x="142.5" y="-117" font-family="Helvetica,sans-Serif" font-size="10.00">QTabWidget</text>
</a>
</g>
</g>
<!-- Node1&#45;&gt;Node3 -->
<g id="edge2_Node000001_Node000003" class="edge">
<title>Node1&#45;&gt;Node3</title>
<g id="a_edge2_Node000001_Node000003"><a xlink:title=" ">
<path fill="none" stroke="#63b8ff" d="M444.49,-174.34C377.09,-162.57 282.33,-145.91 190.21,-129.3"/>
<polygon fill="#63b8ff" stroke="#63b8ff" points="190.61,-125.81 180.15,-127.48 189.37,-132.7 190.61,-125.81"/>
</a>
</g>
</g>
<!-- Node4 -->
<g id="Node000004" class="node">
<title>Node4</title>
<g id="a_Node000004"><a xlink:title=" ">
<polygon fill="#e0e0e0" stroke="#999999" points="261,-129 198,-129 198,-110 261,-110 261,-129"/>
<text text-anchor="middle" x="229.5" y="-117" font-family="Helvetica,sans-Serif" font-size="10.00">QLineEdit</text>
</a>
</g>
</g>
<!-- Node1&#45;&gt;Node4 -->
<g id="edge3_Node000001_Node000004" class="edge">
<title>Node1&#45;&gt;Node4</title>
<g id="a_edge3_Node000001_Node000004"><a xlink:title=" ">
<path fill="none" stroke="#63b8ff" d="M444.23,-169.43C386.86,-156.36 315.32,-140.06 271.02,-129.96"/>
<polygon fill="#63b8ff" stroke="#63b8ff" points="271.72,-126.53 261.19,-127.72 270.16,-133.36 271.72,-126.53"/>
</a>
</g>
</g>
<!-- Node5 -->
<g id="Node000005" class="node">
<title>Node5</title>
<g id="a_Node000005"><a xlink:title=" ">
<polygon fill="#e0e0e0" stroke="#999999" points="342,-129 279,-129 279,-110 342,-110 342,-129"/>
<text text-anchor="middle" x="310.5" y="-117" font-family="Helvetica,sans-Serif" font-size="10.00">QTextEdit</text>
</a>
</g>
</g>
<!-- Node1&#45;&gt;Node5 -->
<g id="edge4_Node000001_Node000005" class="edge">
<title>Node1&#45;&gt;Node5</title>
<g id="a_edge4_Node000001_Node000005"><a xlink:title=" ">
<path fill="none" stroke="#63b8ff" d="M453.63,-164.91C417.42,-153.67 376.5,-140.98 347.71,-132.05"/>
<polygon fill="#63b8ff" stroke="#63b8ff" points="348.65,-128.67 338.06,-129.05 346.58,-135.36 348.65,-128.67"/>
</a>
</g>
</g>
<!-- Node6 -->
<g id="Node000006" class="node">
<title>Node6</title>
<g id="a_Node000006"><a xlink:title=" ">
<polygon fill="#e0e0e0" stroke="#999999" points="437,-129 360,-129 360,-110 437,-110 437,-129"/>
<text text-anchor="middle" x="398.5" y="-117" font-family="Helvetica,sans-Serif" font-size="10.00">QComboBox</text>
</a>
</g>
</g>
<!-- Node1&#45;&gt;Node6 -->
<g id="edge5_Node000001_Node000006" class="edge">
<title>Node1&#45;&gt;Node6</title>
<g id="a_edge5_Node000001_Node000006"><a xlink:title=" ">
<path fill="none" stroke="#63b8ff" d="M485.4,-164.91C464.92,-154.44 441.96,-142.71 424.78,-133.93"/>
<polygon fill="#63b8ff" stroke="#63b8ff" points="425.9,-130.57 415.4,-129.14 422.71,-136.8 425.9,-130.57"/>
</a>
</g>
</g>
<!-- Node7 -->
<g id="Node000007" class="node">
<title>Node7</title>
<g id="a_Node000007"><a xlink:title=" ">
<polygon fill="#e0e0e0" stroke="#999999" points="521.5,-129 455.5,-129 455.5,-110 521.5,-110 521.5,-129"/>
<text text-anchor="middle" x="488.5" y="-117" font-family="Helvetica,sans-Serif" font-size="10.00">QDateEdit</text>
</a>
</g>
</g>
<!-- Node1&#45;&gt;Node7 -->
<g id="edge6_Node000001_Node000007" class="edge">
<title>Node1&#45;&gt;Node7</title>
<g id="a_edge6_Node000001_Node000007"><a xlink:title=" ">
<path fill="none" stroke="#63b8ff" d="M517.89,-164.91C511.91,-155.87 505.3,-145.88 499.87,-137.67"/>
<polygon fill="#63b8ff" stroke="#63b8ff" points="502.76,-135.71 494.33,-129.3 496.93,-139.57 502.76,-135.71"/>
</a>
</g>
</g>
<!-- Node8 -->
<g id="Node000008" class="node">
<title>Node8</title>
<g id="a_Node000008"><a xlink:title=" ">
<polygon fill="#e0e0e0" stroke="#999999" points="623.5,-129 539.5,-129 539.5,-110 623.5,-110 623.5,-129"/>
<text text-anchor="middle" x="581.5" y="-117" font-family="Helvetica,sans-Serif" font-size="10.00">QTableWidget</text>
</a>
</g>
</g>
<!-- Node1&#45;&gt;Node8 -->
<g id="edge7_Node000001_Node000008" class="edge">
<title>Node1&#45;&gt;Node8</title>
<g id="a_edge7_Node000001_Node000008"><a xlink:title=" ">
<path fill="none" stroke="#63b8ff" d="M551.47,-164.91C557.58,-155.87 564.34,-145.88 569.89,-137.67"/>
<polygon fill="#63b8ff" stroke="#63b8ff" points="572.84,-139.55 575.55,-129.3 567.05,-135.63 572.84,-139.55"/>
</a>
</g>
</g>
<!-- Node9 -->
<g id="Node000009" class="node">
<title>Node9</title>
<g id="a_Node000009"><a xlink:title=" ">
<polygon fill="#e0e0e0" stroke="#999999" points="715,-129 642,-129 642,-110 715,-110 715,-129"/>
<text text-anchor="middle" x="678.5" y="-117" font-family="Helvetica,sans-Serif" font-size="10.00">QCheckBox</text>
</a>
</g>
</g>
<!-- Node1&#45;&gt;Node9 -->
<g id="edge8_Node000001_Node000009" class="edge">
<title>Node1&#45;&gt;Node9</title>
<g id="a_edge8_Node000001_Node000009"><a xlink:title=" ">
<path fill="none" stroke="#63b8ff" d="M586.49,-164.91C608.48,-154.3 633.17,-142.38 651.44,-133.56"/>
<polygon fill="#63b8ff" stroke="#63b8ff" points="653.12,-136.63 660.61,-129.14 650.08,-130.33 653.12,-136.63"/>
</a>
</g>
</g>
<!-- Node10 -->
<g id="Node000010" class="node">
<title>Node10</title>
<g id="a_Node000010"><a xlink:title=" ">
<polygon fill="#e0e0e0" stroke="#999999" points="817.5,-129 733.5,-129 733.5,-110 817.5,-110 817.5,-129"/>
<text text-anchor="middle" x="775.5" y="-117" font-family="Helvetica,sans-Serif" font-size="10.00">QRadioButton</text>
</a>
</g>
</g>
<!-- Node1&#45;&gt;Node10 -->
<g id="edge9_Node000001_Node000010" class="edge">
<title>Node1&#45;&gt;Node10</title>
<g id="a_edge9_Node000001_Node000010"><a xlink:title=" ">
<path fill="none" stroke="#63b8ff" d="M621.51,-164.91C660.63,-153.63 704.88,-140.87 735.87,-131.93"/>
<polygon fill="#63b8ff" stroke="#63b8ff" points="737.2,-135.19 745.84,-129.05 735.26,-128.46 737.2,-135.19"/>
</a>
</g>
</g>
<!-- Node11 -->
<g id="Node000011" class="node">
<title>Node11</title>
<g id="a_Node000011"><a xlink:title=" ">
<polygon fill="#e0e0e0" stroke="#999999" points="921.5,-129 835.5,-129 835.5,-110 921.5,-110 921.5,-129"/>
<text text-anchor="middle" x="878.5" y="-117" font-family="Helvetica,sans-Serif" font-size="10.00">QButtonGroup</text>
</a>
</g>
</g>
<!-- Node1&#45;&gt;Node11 -->
<g id="edge10_Node000001_Node000011" class="edge">
<title>Node1&#45;&gt;Node11</title>
<g id="a_edge10_Node000001_Node000011"><a xlink:title=" ">
<path fill="none" stroke="#63b8ff" d="M624.88,-171.74C689.03,-158.78 772.89,-141.84 826.24,-131.06"/>
<polygon fill="#63b8ff" stroke="#63b8ff" points="827.05,-134.46 836.16,-129.05 825.67,-127.6 827.05,-134.46"/>
</a>
</g>
</g>
<!-- Node12 -->
<g id="Node000012" class="node">
<title>Node12</title>
<g id="a_Node000012"><a xlink:href="os__controller_8h.html" target="_top" xlink:title="Cabeçalho da classe OSController.">
<polygon fill="white" stroke="#666666" points="1027.5,-129 939.5,-129 939.5,-110 1027.5,-110 1027.5,-129"/>
<text text-anchor="middle" x="983.5" y="-117" font-family="Helvetica,sans-Serif" font-size="10.00">os_controller.h</text>
</a>
</g>
</g>
<!-- Node1&#45;&gt;Node12 -->
<g id="edge11_Node000001_Node000012" class="edge">
<title>Node1&#45;&gt;Node12</title>
<g id="a_edge11_Node000001_Node000012"><a xlink:title=" ">
<path fill="none" stroke="#63b8ff" d="M624.56,-176.29C702.49,-164.39 818.5,-146.58 929.25,-129.19"/>
<polygon fill="#63b8ff" stroke="#63b8ff" points="929.92,-132.63 939.26,-127.62 928.83,-125.71 929.92,-132.63"/>
</a>
</g>
</g>
<!-- Node18 -->
<g id="Node000018" class="node">
<title>Node18</title>
<g id="a_Node000018"><a xlink:href="auth__controller_8h.html" target="_top" xlink:title="Regras de negócio de autenticação, autorização e usuários.">
<polygon fill="white" stroke="#666666" points="1174.5,-129 1076.5,-129 1076.5,-110 1174.5,-110 1174.5,-129"/>
<text text-anchor="middle" x="1125.5" y="-117" font-family="Helvetica,sans-Serif" font-size="10.00">auth_controller.h</text>
</a>
</g>
</g>
<!-- Node1&#45;&gt;Node18 -->
<g id="edge18_Node000001_Node000018" class="edge">
<title>Node1&#45;&gt;Node18</title>
<g id="a_edge18_Node000001_Node000018"><a xlink:title=" ">
<path fill="none" stroke="#63b8ff" d="M624.58,-179.41C747.01,-165.01 962.55,-139.66 1066.35,-127.46"/>
<polygon fill="#63b8ff" stroke="#63b8ff" points="1066.82,-130.92 1076.34,-126.28 1066,-123.97 1066.82,-130.92"/>
</a>
</g>
</g>
<!-- Node13 -->
<g id="Node000013" class="node">
<title>Node13</title>
<g id="a_Node000013"><a xlink:href="os__model_8h.html" target="_top" xlink:title="Estruturas de dados para OS e Histórico.">
<polygon fill="white" stroke="#666666" points="1020,-74 947,-74 947,-55 1020,-55 1020,-74"/>
<text text-anchor="middle" x="983.5" y="-62" font-family="Helvetica,sans-Serif" font-size="10.00">os_model.h</text>
</a>
</g>
</g>
<!-- Node12&#45;&gt;Node13 -->
<g id="edge12_Node000012_Node000013" class="edge">
<title>Node12&#45;&gt;Node13</title>
<g id="a_edge12_Node000012_Node000013"><a xlink:title=" ">
<path fill="none" stroke="#63b8ff" d="M983.5,-109.75C983.5,-102.8 983.5,-92.85 983.5,-84.13"/>
<polygon fill="#63b8ff" stroke="#63b8ff" points="987,-84.09 983.5,-74.09 980,-84.09 987,-84.09"/>
</a>
</g>
</g>
<!-- Node14 -->
<g id="Node000014" class="node">
<title>Node14</title>
<g id="a_Node000014"><a xlink:title=" ">
<polygon fill="#e0e0e0" stroke="#999999" points="1010,-19 957,-19 957,0 1010,0 1010,-19"/>
<text text-anchor="middle" x="983.5" y="-7" font-family="Helvetica,sans-Serif" font-size="10.00">QString</text>
</a>
</g>
</g>
<!-- Node12&#45;&gt;Node14 -->
<g id="edge16_Node000012_Node000014" class="edge">
<title>Node12&#45;&gt;Node14</title>
<g id="a_edge16_Node000012_Node000014"><a xlink:title=" ">
<path fill="none" stroke="#63b8ff" d="M969.52,-109.84C952.83,-98.31 928.25,-76.81 937.5,-55 942.48,-43.25 952.25,-33.09 961.51,-25.45"/>
<polygon fill="#63b8ff" stroke="#63b8ff" points="963.9,-28.03 969.72,-19.18 959.65,-22.47 963.9,-28.03"/>
</a>
</g>
</g>
<!-- Node16 -->
<g id="Node000016" class="node">
<title>Node16</title>
<g id="a_Node000016"><a xlink:title=" ">
<polygon fill="#e0e0e0" stroke="#999999" points="1096.5,-74 1038.5,-74 1038.5,-55 1096.5,-55 1096.5,-74"/>
<text text-anchor="middle" x="1067.5" y="-62" font-family="Helvetica,sans-Serif" font-size="10.00">memory</text>
</a>
</g>
</g>
<!-- Node12&#45;&gt;Node16 -->
<g id="edge15_Node000012_Node000016" class="edge">
<title>Node12&#45;&gt;Node16</title>
<g id="a_edge15_Node000012_Node000016"><a xlink:title=" ">
<path fill="none" stroke="#63b8ff" d="M997,-109.98C1009.9,-101.84 1029.6,-89.41 1044.9,-79.76"/>
<polygon fill="#63b8ff" stroke="#63b8ff" points="1047.17,-82.47 1053.76,-74.17 1043.43,-76.55 1047.17,-82.47"/>
</a>
</g>
</g>
<!-- Node17 -->
<g id="Node000017" class="node">
<title>Node17</title>
<g id="a_Node000017"><a xlink:title=" ">
<polygon fill="#e0e0e0" stroke="#999999" points="890,-74 825,-74 825,-55 890,-55 890,-74"/>
<text text-anchor="middle" x="857.5" y="-62" font-family="Helvetica,sans-Serif" font-size="10.00">stdexcept</text>
</a>
</g>
</g>
<!-- Node12&#45;&gt;Node17 -->
<g id="edge17_Node000012_Node000017" class="edge">
<title>Node12&#45;&gt;Node17</title>
<g id="a_edge17_Node000012_Node000017"><a xlink:title=" ">
<path fill="none" stroke="#63b8ff" d="M963.26,-109.98C942.8,-101.38 910.97,-87.99 887.57,-78.15"/>
<polygon fill="#63b8ff" stroke="#63b8ff" points="888.69,-74.82 878.11,-74.17 885.97,-81.27 888.69,-74.82"/>
</a>
</g>
</g>
<!-- Node13&#45;&gt;Node14 -->
<g id="edge13_Node000013_Node000014" class="edge">
<title>Node13&#45;&gt;Node14</title>
<g id="a_edge13_Node000013_Node000014"><a xlink:title=" ">
<path fill="none" stroke="#63b8ff" d="M983.5,-54.75C983.5,-47.8 983.5,-37.85 983.5,-29.13"/>
<polygon fill="#63b8ff" stroke="#63b8ff" points="987,-29.09 983.5,-19.09 980,-29.09 987,-29.09"/>
</a>
</g>
</g>
<!-- Node15 -->
<g id="Node000015" class="node">
<title>Node15</title>
<g id="a_Node000015"><a xlink:title=" ">
<polygon fill="#e0e0e0" stroke="#999999" points="1168,-19 1113,-19 1113,0 1168,0 1168,-19"/>
<text text-anchor="middle" x="1140.5" y="-7" font-family="Helvetica,sans-Serif" font-size="10.00">QVector</text>
</a>
</g>
</g>
<!-- Node13&#45;&gt;Node15 -->
<g id="edge14_Node000013_Node000015" class="edge">
<title>Node13&#45;&gt;Node15</title>
<g id="a_edge14_Node000013_Node000015"><a xlink:title=" ">
<path fill="none" stroke="#63b8ff" d="M1008.72,-54.98C1034.86,-46.16 1075.9,-32.31 1105.23,-22.41"/>
<polygon fill="#63b8ff" stroke="#63b8ff" points="1106.72,-25.6 1115.08,-19.08 1104.48,-18.96 1106.72,-25.6"/>
</a>
</g>
</g>
<!-- Node18&#45;&gt;Node15 -->
<g id="edge22_Node000018_Node000015" class="edge">
<title>Node18&#45;&gt;Node15</title>
<g id="a_edge22_Node000018_Node000015"><a xlink:title=" ">
<path fill="none" stroke="#63b8ff" d="M1157.71,-109.92C1175.75,-103.29 1196.73,-92.09 1207.5,-74 1219.82,-53.3 1194.58,-35.02 1171.64,-23.45"/>
<polygon fill="#63b8ff" stroke="#63b8ff" points="1172.92,-20.19 1162.39,-19.06 1169.92,-26.51 1172.92,-20.19"/>
</a>
</g>
</g>
<!-- Node18&#45;&gt;Node16 -->
<g id="edge21_Node000018_Node000016" class="edge">
<title>Node18&#45;&gt;Node16</title>
<g id="a_edge21_Node000018_Node000016"><a xlink:title=" ">
<path fill="none" stroke="#63b8ff" d="M1116.18,-109.98C1107.69,-102.23 1094.94,-90.58 1084.62,-81.14"/>
<polygon fill="#63b8ff" stroke="#63b8ff" points="1086.73,-78.33 1076.99,-74.17 1082.01,-83.5 1086.73,-78.33"/>
</a>
</g>
</g>
<!-- Node19 -->
<g id="Node000019" class="node">
<title>Node19</title>
<g id="a_Node000019"><a xlink:href="user__model_8h.html" target="_top" xlink:title="Contratos de dados compartilhados para autenticação e sessão.">
<polygon fill="white" stroke="#666666" points="1198,-74 1115,-74 1115,-55 1198,-55 1198,-74"/>
<text text-anchor="middle" x="1156.5" y="-62" font-family="Helvetica,sans-Serif" font-size="10.00">user_model.h</text>
</a>
</g>
</g>
<!-- Node18&#45;&gt;Node19 -->
<g id="edge19_Node000018_Node000019" class="edge">
<title>Node18&#45;&gt;Node19</title>
<g id="a_edge19_Node000018_Node000019"><a xlink:title=" ">
<path fill="none" stroke="#63b8ff" d="M1130.62,-109.75C1134.86,-102.49 1141.03,-91.95 1146.28,-82.98"/>
<polygon fill="#63b8ff" stroke="#63b8ff" points="1149.45,-84.49 1151.48,-74.09 1143.41,-80.95 1149.45,-84.49"/>
</a>
</g>
</g>
<!-- Node19&#45;&gt;Node14 -->
<g id="edge20_Node000019_Node000014" class="edge">
<title>Node19&#45;&gt;Node14</title>
<g id="a_edge20_Node000019_Node000014"><a xlink:title=" ">
<path fill="none" stroke="#63b8ff" d="M1128.7,-54.98C1099.1,-45.92 1052.13,-31.53 1019.66,-21.58"/>
<polygon fill="#63b8ff" stroke="#63b8ff" points="1020.68,-18.23 1010.09,-18.65 1018.63,-24.92 1020.68,-18.23"/>
</a>
</g>
</g>
</g>
</svg>

<g id="navigator" transform="translate(0 0)" fill="#404254">
  <rect fill="#f2f5e9" fill-opacity="0.5" stroke="#606060" stroke-width=".5" x="0" y="0" width="60" height="60"/>
  <use id="zoomplus" xlink:href="#zoomPlus" x="17" y="9" onmousedown="handleZoom(evt,'in')"/>
  <use id="zoomminus" xlink:href="#zoomMin" x="42" y="9" onmousedown="handleZoom(evt,'out')"/>
  <use id="reset" xlink:href="#resetDef" x="30" y="36" onmousedown="handleReset()"/>
   <use id="arrowup" xlink:href="#arrowUp" x="0" y="0" onmousedown="handlePan(0,-1)"/>
  <use id="arrowright" xlink:href="#arrowRight" x="0" y="0" onmousedown="handlePan(1,0)"/>
  <use id="arrowdown" xlink:href="#arrowDown" x="0" y="0" onmousedown="handlePan(0,1)"/>
  <use id="arrowleft" xlink:href="#arrowLeft" x="0" y="0" onmousedown="handlePan(-1,0)"/>
</g>
<svg viewBox="0 0 15 15" width="100%" height="30px" preserveAspectRatio="xMaxYMin meet">
 <g id="arrow_out" transform="scale(0.3 0.3)">
  <a xlink:href="main__window_8h__incl_org.svg" target="_base">
   <rect id="button" ry="5" rx="5" y="6" x="6" height="38" width="38"
        fill="#f2f5e9" fill-opacity="0.5" stroke="#606060" stroke-width="1.0"/>
   <path id="arrow"
     d="M 11.500037,31.436501 C 11.940474,20.09759 22.043105,11.32322 32.158766,21.979434 L 37.068811,17.246167 C 37.068811,17.246167 37.088388,32 37.088388,32 L 22.160133,31.978069 C 22.160133,31.978069 26.997745,27.140456 26.997745,27.140456 C 18.528582,18.264221 13.291696,25.230495 11.500037,31.436501 z"
     style="fill:#404040;"/>
  </a>
 </g>
</svg>

<style type='text/css'>
<![CDATA[
[data-mouse-over-selected='false'] { opacity: 0.7; }
[data-mouse-over-selected='true']  { opacity: 1.0; }
]]>
</style>
<script type="application/ecmascript"><![CDATA[
document.addEventListener('DOMContentLoaded', (event) => {
  highlightEdges();
  highlightAdjacentNodes();
});
]]></script>
</svg>
