<?xml version="1.0" encoding="UTF-8" standalone="no"?>
<!DOCTYPE svg PUBLIC "-//W3C//DTD SVG 1.1//EN"
 "http://www.w3.org/Graphics/SVG/1.1/DTD/svg11.dtd">
<!-- Generated by graphviz version 14.1.4 (20260321.0153)
 -->
<!-- Title: main Pages: 1 -->
<svg width="359pt" height="66pt"
 viewBox="0.00 0.00 359.00 66.00" xmlns="http://www.w3.org/2000/svg" xmlns:xlink="http://www.w3.org/1999/xlink">
<g id="graph0" class="graph" transform="scale(1 1) rotate(0) translate(4 62)">
<title>main</title>
<!-- Node1 -->
<g id="Node000001" class="node">
<title>Node1</title>
<g id="a_Node000001"><a xlink:title=" ">
<polygon fill="#999999" stroke="#666666" points="37,-39 0,-39 0,-19 37,-19 37,-39"/>
<text xml:space="preserve" text-anchor="middle" x="18.5" y="-25.5" font-family="Helvetica,sans-Serif" font-size="10.00">main</text>
</a>
</g>
</g>
<!-- Node2 -->
<g id="Node000002" class="node">
<title>Node2</title>
<g id="a_Node000002"><a xlink:href="classDatabase.html#aa04e547554cc34fa4b6c5a9390021eab" target="_top" xlink:title="Obtém a instância única do Banco de Dados.">
<polygon fill="white" stroke="#666666" points="188,-58 73,-58 73,-38 188,-38 188,-58"/>
<text xml:space="preserve" text-anchor="middle" x="130.5" y="-44.5" font-family="Helvetica,sans-Serif" font-size="10.00">Database::getInstance</text>
</a>
</g>
</g>
<!-- Node1&#45;&gt;Node2 -->
<g id="edge1_Node000001_Node000002" class="edge">
<title>Node1&#45;&gt;Node2</title>
<g id="a_edge1_Node000001_Node000002"><a xlink:title=" ">
<path fill="none" stroke="#63b8ff" d="M37.17,-32.05C44.17,-33.26 52.69,-34.73 61.69,-36.29"/>
<polygon fill="#63b8ff" stroke="#63b8ff" points="60.9,-39.7 71.35,-37.96 62.1,-32.81 60.9,-39.7"/>
</a>
</g>
</g>
<!-- Node4 -->
<g id="Node000004" class="node">
<title>Node4</title>
<g id="a_Node000004"><a xlink:href="classDatabase.html#a6747ce1b1f980cd917c9c006545e2b2a" target="_top" xlink:title="Inicializa o banco de dados criando as tabelas necessárias.">
<polygon fill="white" stroke="#666666" points="175.25,-20 85.75,-20 85.75,0 175.25,0 175.25,-20"/>
<text xml:space="preserve" text-anchor="middle" x="130.5" y="-6.5" font-family="Helvetica,sans-Serif" font-size="10.00">Database::initDb</text>
</a>
</g>
</g>
<!-- Node1&#45;&gt;Node4 -->
<g id="edge3_Node000001_Node000004" class="edge">
<title>Node1&#45;&gt;Node4</title>
<g id="a_edge3_Node000001_Node000004"><a xlink:title=" ">
<path fill="none" stroke="#63b8ff" d="M37.17,-25.95C47.33,-24.19 60.69,-21.88 74.09,-19.57"/>
<polygon fill="#63b8ff" stroke="#63b8ff" points="74.54,-23.05 83.79,-17.89 73.34,-16.15 74.54,-23.05"/>
</a>
</g>
</g>
<!-- Node3 -->
<g id="Node000003" class="node">
<title>Node3</title>
<g id="a_Node000003"><a xlink:href="classDatabase.html#a4703c80e6969d33565ea340f768fdadf" target="_top" xlink:title=" ">
<polygon fill="white" stroke="#666666" points="340.5,-58 234.5,-58 234.5,-38 340.5,-38 340.5,-58"/>
<text xml:space="preserve" text-anchor="middle" x="287.5" y="-44.5" font-family="Helvetica,sans-Serif" font-size="10.00">Database::Database</text>
</a>
</g>
</g>
<!-- Node2&#45;&gt;Node3 -->
<g id="edge2_Node000002_Node000003" class="edge">
<title>Node2&#45;&gt;Node3</title>
<g id="a_edge2_Node000002_Node000003"><a xlink:title=" ">
<path fill="none" stroke="#63b8ff" d="M188.34,-48C199.55,-48 211.38,-48 222.8,-48"/>
<polygon fill="#63b8ff" stroke="#63b8ff" points="222.53,-51.5 232.53,-48 222.53,-44.5 222.53,-51.5"/>
</a>
</g>
</g>
<!-- Node5 -->
<g id="Node000005" class="node">
<title>Node5</title>
<g id="a_Node000005"><a xlink:href="classDatabase.html#aaf21db9254c8ed77d4d800802c987d87" target="_top" xlink:title="Recupera o objeto de conexão QSqlDatabase.">
<polygon fill="white" stroke="#666666" points="351,-20 224,-20 224,0 351,0 351,-20"/>
<text xml:space="preserve" text-anchor="middle" x="287.5" y="-6.5" font-family="Helvetica,sans-Serif" font-size="10.00">Database::getConnection</text>
</a>
</g>
</g>
<!-- Node4&#45;&gt;Node5 -->
<g id="edge4_Node000004_Node000005" class="edge">
<title>Node4&#45;&gt;Node5</title>
<g id="a_edge4_Node000004_Node000005"><a xlink:title=" ">
<path fill="none" stroke="#63b8ff" d="M175.5,-10C186.95,-10 199.6,-10 212.14,-10"/>
<polygon fill="#63b8ff" stroke="#63b8ff" points="212.07,-13.5 222.07,-10 212.07,-6.5 212.07,-13.5"/>
</a>
</g>
</g>
</g>
</svg>
