<?xml version="1.0" encoding="UTF-8" standalone="no"?>
<!DOCTYPE svg PUBLIC "-//W3C//DTD SVG 1.1//EN"
 "http://www.w3.org/Graphics/SVG/1.1/DTD/svg11.dtd">
<!-- Generated by graphviz version 14.1.4 (20260321.0153)
 -->
<!-- Title: /home/arthurteixeira/Músicas/trabalho&#45;grupo&#45;eng&#45;soft/trabalho&#45;grupo&#45;eng&#45;soft/marmomanager_cpp/src/ui/main_window.cpp Pages: 1 -->
<svg width="1777pt" height="356pt"
 viewBox="0.00 0.00 1777.00 356.00" xmlns="http://www.w3.org/2000/svg" xmlns:xlink="http://www.w3.org/1999/xlink">
<g id="graph0" class="graph" transform="scale(1 1) rotate(0) translate(4 352)">
<title>/home/arthurteixeira/Músicas/trabalho&#45;grupo&#45;eng&#45;soft/trabalho&#45;grupo&#45;eng&#45;soft/marmomanager_cpp/src/ui/main_window.cpp</title>
<!-- Node1 -->
<g id="Node000001" class="node">
<title>Node1</title>
<g id="a_Node000001"><a xlink:title=" ">
<polygon fill="#999999" stroke="#666666" points="1389.62,-348 1243.88,-348 1243.88,-280 1389.62,-280 1389.62,-348"/>
<text xml:space="preserve" text-anchor="start" x="1251.88" y="-334.5" font-family="Helvetica,sans-Serif" font-size="10.00">/home/arthurteixeira</text>
<text xml:space="preserve" text-anchor="start" x="1251.88" y="-322.5" font-family="Helvetica,sans-Serif" font-size="10.00">/Músicas/trabalho&#45;grupo</text>
<text xml:space="preserve" text-anchor="start" x="1251.88" y="-310.5" font-family="Helvetica,sans-Serif" font-size="10.00">&#45;eng&#45;soft/trabalho&#45;grupo</text>
<text xml:space="preserve" text-anchor="start" x="1251.88" y="-298.5" font-family="Helvetica,sans-Serif" font-size="10.00">&#45;eng&#45;soft/marmomanager_cpp</text>
<text xml:space="preserve" text-anchor="middle" x="1316.75" y="-286.5" font-family="Helvetica,sans-Serif" font-size="10.00">/src/ui/main_window.cpp</text>
</a>
</g>
</g>
<!-- Node2 -->
<g id="Node000002" class="node">
<title>Node2</title>
<g id="a_Node000002"><a xlink:href="main__window_8h.html" target="_top" xlink:title="Cabeçalho para a view principal MarmoManagerApp.">
<polygon fill="white" stroke="#666666" points="560.12,-244 477.38,-244 477.38,-224 560.12,-224 560.12,-244"/>
<text xml:space="preserve" text-anchor="middle" x="518.75" y="-230.5" font-family="Helvetica,sans-Serif" font-size="10.00">main_window.h</text>
</a>
</g>
</g>
<!-- Node1&#45;&gt;Node2 -->
<g id="edge1_Node000001_Node000002" class="edge">
<title>Node1&#45;&gt;Node2</title>
<g id="a_edge1_Node000001_Node000002"><a xlink:title=" ">
<path fill="none" stroke="#63b8ff" d="M1243.46,-305.84C1084.19,-290.27 709.69,-253.66 571.33,-240.14"/>
<polygon fill="#63b8ff" stroke="#63b8ff" points="572.03,-236.69 561.74,-239.2 571.35,-243.66 572.03,-236.69"/>
</a>
</g>
</g>
<!-- Node19 -->
<g id="Node000019" class="node">
<title>Node19</title>
<g id="a_Node000019"><a xlink:title=" ">
<polygon fill="#e0e0e0" stroke="#999999" points="1037.12,-132 978.38,-132 978.38,-112 1037.12,-112 1037.12,-132"/>
<text xml:space="preserve" text-anchor="middle" x="1007.75" y="-118.5" font-family="Helvetica,sans-Serif" font-size="10.00">stdexcept</text>
</a>
</g>
</g>
<!-- Node1&#45;&gt;Node19 -->
<g id="edge35_Node000001_Node000019" class="edge">
<title>Node1&#45;&gt;Node19</title>
<g id="a_edge35_Node000001_Node000019"><a xlink:title=" ">
<path fill="none" stroke="#63b8ff" d="M1243.55,-306.93C1192.9,-299.35 1126.62,-282.31 1080.75,-244 1051.76,-219.79 1062.89,-199.95 1042.75,-168 1036.9,-158.71 1029.55,-149.03 1023.09,-141.03"/>
<polygon fill="#63b8ff" stroke="#63b8ff" points="1025.87,-138.89 1016.8,-133.42 1020.48,-143.36 1025.87,-138.89"/>
</a>
</g>
</g>
<!-- Node20 -->
<g id="Node000020" class="node">
<title>Node20</title>
<g id="a_Node000020"><a xlink:href="history__dialog_8h.html" target="_top" xlink:title="Cabeçalho para a view StatusHistoryDialog.">
<polygon fill="white" stroke="#666666" points="1000.88,-244 916.62,-244 916.62,-224 1000.88,-224 1000.88,-244"/>
<text xml:space="preserve" text-anchor="middle" x="958.75" y="-230.5" font-family="Helvetica,sans-Serif" font-size="10.00">history_dialog.h</text>
</a>
</g>
</g>
<!-- Node1&#45;&gt;Node20 -->
<g id="edge23_Node000001_Node000020" class="edge">
<title>Node1&#45;&gt;Node20</title>
<g id="a_edge23_Node000001_Node000020"><a xlink:title=" ">
<path fill="none" stroke="#63b8ff" d="M1243.44,-297.03C1174.69,-282.05 1073.53,-260.01 1012.13,-246.63"/>
<polygon fill="#63b8ff" stroke="#63b8ff" points="1013.14,-243.27 1002.63,-244.56 1011.65,-250.11 1013.14,-243.27"/>
</a>
</g>
</g>
<!-- Node22 -->
<g id="Node000022" class="node">
<title>Node22</title>
<g id="a_Node000022"><a xlink:title=" ">
<polygon fill="#e0e0e0" stroke="#999999" points="1166.12,-244 1089.38,-244 1089.38,-224 1166.12,-224 1166.12,-244"/>
<text xml:space="preserve" text-anchor="middle" x="1127.75" y="-230.5" font-family="Helvetica,sans-Serif" font-size="10.00">QVBoxLayout</text>
</a>
</g>
</g>
<!-- Node1&#45;&gt;Node22 -->
<g id="edge27_Node000001_Node000022" class="edge">
<title>Node1&#45;&gt;Node22</title>
<g id="a_edge27_Node000001_Node000022"><a xlink:title=" ">
<path fill="none" stroke="#63b8ff" d="M1243.41,-282.73C1214.87,-270.96 1183.62,-258.06 1160.81,-248.64"/>
<polygon fill="#63b8ff" stroke="#63b8ff" points="1162.31,-245.48 1151.74,-244.9 1159.64,-251.95 1162.31,-245.48"/>
</a>
</g>
</g>
<!-- Node23 -->
<g id="Node000023" class="node">
<title>Node23</title>
<g id="a_Node000023"><a xlink:title=" ">
<polygon fill="#e0e0e0" stroke="#999999" points="1261.5,-244 1184,-244 1184,-224 1261.5,-224 1261.5,-244"/>
<text xml:space="preserve" text-anchor="middle" x="1222.75" y="-230.5" font-family="Helvetica,sans-Serif" font-size="10.00">QHBoxLayout</text>
</a>
</g>
</g>
<!-- Node1&#45;&gt;Node23 -->
<g id="edge28_Node000001_Node000023" class="edge">
<title>Node1&#45;&gt;Node23</title>
<g id="a_edge28_Node000001_Node000023"><a xlink:title=" ">
<path fill="none" stroke="#63b8ff" d="M1276.61,-279.69C1264.81,-269.9 1252.43,-259.63 1242.51,-251.4"/>
<polygon fill="#63b8ff" stroke="#63b8ff" points="1244.95,-248.88 1235.02,-245.18 1240.48,-254.26 1244.95,-248.88"/>
</a>
</g>
</g>
<!-- Node24 -->
<g id="Node000024" class="node">
<title>Node24</title>
<g id="a_Node000024"><a xlink:title=" ">
<polygon fill="#e0e0e0" stroke="#999999" points="1354.38,-244 1279.12,-244 1279.12,-224 1354.38,-224 1354.38,-244"/>
<text xml:space="preserve" text-anchor="middle" x="1316.75" y="-230.5" font-family="Helvetica,sans-Serif" font-size="10.00">QFormLayout</text>
</a>
</g>
</g>
<!-- Node1&#45;&gt;Node24 -->
<g id="edge29_Node000001_Node000024" class="edge">
<title>Node1&#45;&gt;Node24</title>
<g id="a_edge29_Node000001_Node000024"><a xlink:title=" ">
<path fill="none" stroke="#63b8ff" d="M1316.75,-279.92C1316.75,-271.72 1316.75,-263.17 1316.75,-255.75"/>
<polygon fill="#63b8ff" stroke="#63b8ff" points="1320.25,-255.79 1316.75,-245.79 1313.25,-255.79 1320.25,-255.79"/>
</a>
</g>
</g>
<!-- Node25 -->
<g id="Node000025" class="node">
<title>Node25</title>
<g id="a_Node000025"><a xlink:title=" ">
<polygon fill="#e0e0e0" stroke="#999999" points="1419.12,-244 1372.38,-244 1372.38,-224 1419.12,-224 1419.12,-244"/>
<text xml:space="preserve" text-anchor="middle" x="1395.75" y="-230.5" font-family="Helvetica,sans-Serif" font-size="10.00">QLabel</text>
</a>
</g>
</g>
<!-- Node1&#45;&gt;Node25 -->
<g id="edge30_Node000001_Node000025" class="edge">
<title>Node1&#45;&gt;Node25</title>
<g id="a_edge30_Node000001_Node000025"><a xlink:title=" ">
<path fill="none" stroke="#63b8ff" d="M1350.25,-279.92C1359.89,-270.41 1370.01,-260.41 1378.26,-252.27"/>
<polygon fill="#63b8ff" stroke="#63b8ff" points="1380.62,-254.86 1385.28,-245.34 1375.7,-249.88 1380.62,-254.86"/>
</a>
</g>
</g>
<!-- Node26 -->
<g id="Node000026" class="node">
<title>Node26</title>
<g id="a_Node000026"><a xlink:title=" ">
<polygon fill="#e0e0e0" stroke="#999999" points="1512,-244 1437.5,-244 1437.5,-224 1512,-224 1512,-244"/>
<text xml:space="preserve" text-anchor="middle" x="1474.75" y="-230.5" font-family="Helvetica,sans-Serif" font-size="10.00">QPushButton</text>
</a>
</g>
</g>
<!-- Node1&#45;&gt;Node26 -->
<g id="edge31_Node000001_Node000026" class="edge">
<title>Node1&#45;&gt;Node26</title>
<g id="a_edge31_Node000001_Node000026"><a xlink:title=" ">
<path fill="none" stroke="#63b8ff" d="M1384.21,-279.69C1405.75,-269.06 1428.45,-257.86 1445.73,-249.33"/>
<polygon fill="#63b8ff" stroke="#63b8ff" points="1446.96,-252.62 1454.38,-245.06 1443.86,-246.35 1446.96,-252.62"/>
</a>
</g>
</g>
<!-- Node27 -->
<g id="Node000027" class="node">
<title>Node27</title>
<g id="a_Node000027"><a xlink:title=" ">
<polygon fill="#e0e0e0" stroke="#999999" points="1607.12,-244 1530.38,-244 1530.38,-224 1607.12,-224 1607.12,-244"/>
<text xml:space="preserve" text-anchor="middle" x="1568.75" y="-230.5" font-family="Helvetica,sans-Serif" font-size="10.00">QHeaderView</text>
</a>
</g>
</g>
<!-- Node1&#45;&gt;Node27 -->
<g id="edge32_Node000001_Node000027" class="edge">
<title>Node1&#45;&gt;Node27</title>
<g id="a_edge32_Node000001_Node000027"><a xlink:title=" ">
<path fill="none" stroke="#63b8ff" d="M1389.98,-290.33C1434.62,-276.52 1490.06,-259.36 1527.26,-247.84"/>
<polygon fill="#63b8ff" stroke="#63b8ff" points="1528.22,-251.21 1536.74,-244.91 1526.15,-244.52 1528.22,-251.21"/>
</a>
</g>
</g>
<!-- Node28 -->
<g id="Node000028" class="node">
<title>Node28</title>
<g id="a_Node000028"><a xlink:title=" ">
<polygon fill="#e0e0e0" stroke="#999999" points="1706,-244 1625.5,-244 1625.5,-224 1706,-224 1706,-244"/>
<text xml:space="preserve" text-anchor="middle" x="1665.75" y="-230.5" font-family="Helvetica,sans-Serif" font-size="10.00">QMessageBox</text>
</a>
</g>
</g>
<!-- Node1&#45;&gt;Node28 -->
<g id="edge33_Node000001_Node000028" class="edge">
<title>Node1&#45;&gt;Node28</title>
<g id="a_edge33_Node000001_Node000028"><a xlink:title=" ">
<path fill="none" stroke="#63b8ff" d="M1389.91,-296.65C1457.14,-281.62 1555.07,-259.74 1614.36,-246.49"/>
<polygon fill="#63b8ff" stroke="#63b8ff" points="1614.85,-249.96 1623.84,-244.37 1613.32,-243.13 1614.85,-249.96"/>
</a>
</g>
</g>
<!-- Node29 -->
<g id="Node000029" class="node">
<title>Node29</title>
<g id="a_Node000029"><a xlink:title=" ">
<polygon fill="#e0e0e0" stroke="#999999" points="1769,-244 1724.5,-244 1724.5,-224 1769,-224 1769,-244"/>
<text xml:space="preserve" text-anchor="middle" x="1746.75" y="-230.5" font-family="Helvetica,sans-Serif" font-size="10.00">QDate</text>
</a>
</g>
</g>
<!-- Node1&#45;&gt;Node29 -->
<g id="edge34_Node000001_Node000029" class="edge">
<title>Node1&#45;&gt;Node29</title>
<g id="a_edge34_Node000001_Node000029"><a xlink:title=" ">
<path fill="none" stroke="#63b8ff" d="M1389.82,-302.63C1467.56,-291.08 1594.28,-270.78 1713,-244.19"/>
<polygon fill="#63b8ff" stroke="#63b8ff" points="1713.64,-247.63 1722.62,-242.01 1712.1,-240.81 1713.64,-247.63"/>
</a>
</g>
</g>
<!-- Node3 -->
<g id="Node000003" class="node">
<title>Node3</title>
<g id="a_Node000003"><a xlink:title=" ">
<polygon fill="#e0e0e0" stroke="#999999" points="606.62,-188 526.88,-188 526.88,-168 606.62,-168 606.62,-188"/>
<text xml:space="preserve" text-anchor="middle" x="566.75" y="-174.5" font-family="Helvetica,sans-Serif" font-size="10.00">QMainWindow</text>
</a>
</g>
</g>
<!-- Node2&#45;&gt;Node3 -->
<g id="edge2_Node000002_Node000003" class="edge">
<title>Node2&#45;&gt;Node3</title>
<g id="a_edge2_Node000002_Node000003"><a xlink:title=" ">
<path fill="none" stroke="#63b8ff" d="M527.11,-223.59C533.65,-216.24 542.93,-205.8 550.87,-196.87"/>
<polygon fill="#63b8ff" stroke="#63b8ff" points="553.45,-199.23 557.48,-189.43 548.22,-194.58 553.45,-199.23"/>
</a>
</g>
</g>
<!-- Node4 -->
<g id="Node000004" class="node">
<title>Node4</title>
<g id="a_Node000004"><a xlink:title=" ">
<polygon fill="#e0e0e0" stroke="#999999" points="694.75,-188 624.75,-188 624.75,-168 694.75,-168 694.75,-188"/>
<text xml:space="preserve" text-anchor="middle" x="659.75" y="-174.5" font-family="Helvetica,sans-Serif" font-size="10.00">QTabWidget</text>
</a>
</g>
</g>
<!-- Node2&#45;&gt;Node4 -->
<g id="edge3_Node000002_Node000004" class="edge">
<title>Node2&#45;&gt;Node4</title>
<g id="a_edge3_Node000002_Node000004"><a xlink:title=" ">
<path fill="none" stroke="#63b8ff" d="M543.31,-223.59C565.72,-215.01 599.09,-202.23 624.37,-192.55"/>
<polygon fill="#63b8ff" stroke="#63b8ff" points="625.5,-195.87 633.58,-189.02 622.99,-189.33 625.5,-195.87"/>
</a>
</g>
</g>
<!-- Node5 -->
<g id="Node000005" class="node">
<title>Node5</title>
<g id="a_Node000005"><a xlink:title=" ">
<polygon fill="#e0e0e0" stroke="#999999" points="771.12,-188 712.38,-188 712.38,-168 771.12,-168 771.12,-188"/>
<text xml:space="preserve" text-anchor="middle" x="741.75" y="-174.5" font-family="Helvetica,sans-Serif" font-size="10.00">QLineEdit</text>
</a>
</g>
</g>
<!-- Node2&#45;&gt;Node5 -->
<g id="edge4_Node000002_Node000005" class="edge">
<title>Node2&#45;&gt;Node5</title>
<g id="a_edge4_Node000002_Node000005"><a xlink:title=" ">
<path fill="none" stroke="#63b8ff" d="M557.85,-223.53C597.95,-213.82 660.08,-198.78 700.83,-188.91"/>
<polygon fill="#63b8ff" stroke="#63b8ff" points="701.61,-192.32 710.51,-186.57 699.96,-185.52 701.61,-192.32"/>
</a>
</g>
</g>
<!-- Node6 -->
<g id="Node000006" class="node">
<title>Node6</title>
<g id="a_Node000006"><a xlink:title=" ">
<polygon fill="#e0e0e0" stroke="#999999" points="59.5,-188 0,-188 0,-168 59.5,-168 59.5,-188"/>
<text xml:space="preserve" text-anchor="middle" x="29.75" y="-174.5" font-family="Helvetica,sans-Serif" font-size="10.00">QTextEdit</text>
</a>
</g>
</g>
<!-- Node2&#45;&gt;Node6 -->
<g id="edge5_Node000002_Node000006" class="edge">
<title>Node2&#45;&gt;Node6</title>
<g id="a_edge5_Node000002_Node000006"><a xlink:title=" ">
<path fill="none" stroke="#63b8ff" d="M476.95,-230.6C399.05,-225.75 226.23,-213.17 71.05,-188.18"/>
<polygon fill="#63b8ff" stroke="#63b8ff" points="71.84,-184.76 61.4,-186.6 70.71,-191.67 71.84,-184.76"/>
</a>
</g>
</g>
<!-- Node7 -->
<g id="Node000007" class="node">
<title>Node7</title>
<g id="a_Node000007"><a xlink:title=" ">
<polygon fill="#e0e0e0" stroke="#999999" points="149.88,-188 77.62,-188 77.62,-168 149.88,-168 149.88,-188"/>
<text xml:space="preserve" text-anchor="middle" x="113.75" y="-174.5" font-family="Helvetica,sans-Serif" font-size="10.00">QComboBox</text>
</a>
</g>
</g>
<!-- Node2&#45;&gt;Node7 -->
<g id="edge6_Node000002_Node000007" class="edge">
<title>Node2&#45;&gt;Node7</title>
<g id="a_edge6_Node000002_Node000007"><a xlink:title=" ">
<path fill="none" stroke="#63b8ff" d="M477.03,-228.79C411.85,-221.98 281.65,-207.53 161.3,-188.31"/>
<polygon fill="#63b8ff" stroke="#63b8ff" points="161.98,-184.88 151.55,-186.74 160.87,-191.79 161.98,-184.88"/>
</a>
</g>
</g>
<!-- Node8 -->
<g id="Node000008" class="node">
<title>Node8</title>
<g id="a_Node000008"><a xlink:title=" ">
<polygon fill="#e0e0e0" stroke="#999999" points="229.62,-188 167.88,-188 167.88,-168 229.62,-168 229.62,-188"/>
<text xml:space="preserve" text-anchor="middle" x="198.75" y="-174.5" font-family="Helvetica,sans-Serif" font-size="10.00">QDateEdit</text>
</a>
</g>
</g>
<!-- Node2&#45;&gt;Node8 -->
<g id="edge7_Node000002_Node000008" class="edge">
<title>Node2&#45;&gt;Node8</title>
<g id="a_edge7_Node000002_Node000008"><a xlink:title=" ">
<path fill="none" stroke="#63b8ff" d="M477.33,-227.16C424.76,-219.57 331.01,-205.44 240.96,-188.32"/>
<polygon fill="#63b8ff" stroke="#63b8ff" points="241.69,-184.9 231.21,-186.45 240.37,-191.77 241.69,-184.9"/>
</a>
</g>
</g>
<!-- Node9 -->
<g id="Node000009" class="node">
<title>Node9</title>
<g id="a_Node000009"><a xlink:title=" ">
<polygon fill="#e0e0e0" stroke="#999999" points="964.5,-188 887,-188 887,-168 964.5,-168 964.5,-188"/>
<text xml:space="preserve" text-anchor="middle" x="925.75" y="-174.5" font-family="Helvetica,sans-Serif" font-size="10.00">QTableWidget</text>
</a>
</g>
</g>
<!-- Node2&#45;&gt;Node9 -->
<g id="edge8_Node000002_Node000009" class="edge">
<title>Node2&#45;&gt;Node9</title>
<g id="a_edge8_Node000002_Node000009"><a xlink:title=" ">
<path fill="none" stroke="#63b8ff" d="M560.6,-228.59C625.66,-221.55 755.25,-206.8 875.52,-188.26"/>
<polygon fill="#63b8ff" stroke="#63b8ff" points="875.91,-191.74 885.26,-186.75 874.84,-184.83 875.91,-191.74"/>
</a>
</g>
</g>
<!-- Node10 -->
<g id="Node000010" class="node">
<title>Node10</title>
<g id="a_Node000010"><a xlink:title=" ">
<polygon fill="#e0e0e0" stroke="#999999" points="317.38,-188 248.12,-188 248.12,-168 317.38,-168 317.38,-188"/>
<text xml:space="preserve" text-anchor="middle" x="282.75" y="-174.5" font-family="Helvetica,sans-Serif" font-size="10.00">QCheckBox</text>
</a>
</g>
</g>
<!-- Node2&#45;&gt;Node10 -->
<g id="edge9_Node000002_Node000010" class="edge">
<title>Node2&#45;&gt;Node10</title>
<g id="a_edge9_Node000002_Node000010"><a xlink:title=" ">
<path fill="none" stroke="#63b8ff" d="M477.37,-223.53C435.75,-214.01 371.72,-199.36 328.58,-189.49"/>
<polygon fill="#63b8ff" stroke="#63b8ff" points="329.55,-186.12 319.02,-187.3 327.99,-192.94 329.55,-186.12"/>
</a>
</g>
</g>
<!-- Node11 -->
<g id="Node000011" class="node">
<title>Node11</title>
<g id="a_Node000011"><a xlink:title=" ">
<polygon fill="#e0e0e0" stroke="#999999" points="412.5,-188 335,-188 335,-168 412.5,-168 412.5,-188"/>
<text xml:space="preserve" text-anchor="middle" x="373.75" y="-174.5" font-family="Helvetica,sans-Serif" font-size="10.00">QRadioButton</text>
</a>
</g>
</g>
<!-- Node2&#45;&gt;Node11 -->
<g id="edge10_Node000002_Node000011" class="edge">
<title>Node2&#45;&gt;Node11</title>
<g id="a_edge10_Node000002_Node000011"><a xlink:title=" ">
<path fill="none" stroke="#63b8ff" d="M493.49,-223.59C470.35,-214.97 435.83,-202.12 409.79,-192.42"/>
<polygon fill="#63b8ff" stroke="#63b8ff" points="411.22,-189.22 400.62,-189.01 408.77,-195.78 411.22,-189.22"/>
</a>
</g>
</g>
<!-- Node12 -->
<g id="Node000012" class="node">
<title>Node12</title>
<g id="a_Node000012"><a xlink:title=" ">
<polygon fill="#e0e0e0" stroke="#999999" points="508.88,-188 430.62,-188 430.62,-168 508.88,-168 508.88,-188"/>
<text xml:space="preserve" text-anchor="middle" x="469.75" y="-174.5" font-family="Helvetica,sans-Serif" font-size="10.00">QButtonGroup</text>
</a>
</g>
</g>
<!-- Node2&#45;&gt;Node12 -->
<g id="edge11_Node000002_Node000012" class="edge">
<title>Node2&#45;&gt;Node12</title>
<g id="a_edge11_Node000002_Node000012"><a xlink:title=" ">
<path fill="none" stroke="#63b8ff" d="M510.21,-223.59C503.47,-216.16 493.86,-205.58 485.71,-196.58"/>
<polygon fill="#63b8ff" stroke="#63b8ff" points="488.52,-194.47 479.2,-189.42 483.33,-199.18 488.52,-194.47"/>
</a>
</g>
</g>
<!-- Node13 -->
<g id="Node000013" class="node">
<title>Node13</title>
<g id="a_Node000013"><a xlink:href="os__controller_8h.html" target="_top" xlink:title="Cabeçalho da classe OSController.">
<polygon fill="white" stroke="#666666" points="868.62,-188 788.88,-188 788.88,-168 868.62,-168 868.62,-188"/>
<text xml:space="preserve" text-anchor="middle" x="828.75" y="-174.5" font-family="Helvetica,sans-Serif" font-size="10.00">os_controller.h</text>
</a>
</g>
</g>
<!-- Node2&#45;&gt;Node13 -->
<g id="edge12_Node000002_Node000013" class="edge">
<title>Node2&#45;&gt;Node13</title>
<g id="a_edge12_Node000002_Node000013"><a xlink:title=" ">
<path fill="none" stroke="#63b8ff" d="M560.36,-225.97C609.68,-217.61 694.64,-203.1 777.27,-188.43"/>
<polygon fill="#63b8ff" stroke="#63b8ff" points="777.66,-191.91 786.89,-186.72 776.43,-185.02 777.66,-191.91"/>
</a>
</g>
</g>
<!-- Node14 -->
<g id="Node000014" class="node">
<title>Node14</title>
<g id="a_Node000014"><a xlink:href="os__repository_8h.html" target="_top" xlink:title="Cabeçalho para a classe OSRepository.">
<polygon fill="white" stroke="#666666" points="869.75,-132 787.75,-132 787.75,-112 869.75,-112 869.75,-132"/>
<text xml:space="preserve" text-anchor="middle" x="828.75" y="-118.5" font-family="Helvetica,sans-Serif" font-size="10.00">os_repository.h</text>
</a>
</g>
</g>
<!-- Node13&#45;&gt;Node14 -->
<g id="edge13_Node000013_Node000014" class="edge">
<title>Node13&#45;&gt;Node14</title>
<g id="a_edge13_Node000013_Node000014"><a xlink:title=" ">
<path fill="none" stroke="#63b8ff" d="M828.75,-167.59C828.75,-161.01 828.75,-151.96 828.75,-143.73"/>
<polygon fill="#63b8ff" stroke="#63b8ff" points="832.25,-143.81 828.75,-133.81 825.25,-143.81 832.25,-143.81"/>
</a>
</g>
</g>
<!-- Node16 -->
<g id="Node000016" class="node">
<title>Node16</title>
<g id="a_Node000016"><a xlink:title=" ">
<polygon fill="#e0e0e0" stroke="#999999" points="895.25,-20 846.25,-20 846.25,0 895.25,0 895.25,-20"/>
<text xml:space="preserve" text-anchor="middle" x="870.75" y="-6.5" font-family="Helvetica,sans-Serif" font-size="10.00">QString</text>
</a>
</g>
</g>
<!-- Node13&#45;&gt;Node16 -->
<g id="edge21_Node000013_Node000016" class="edge">
<title>Node13&#45;&gt;Node16</title>
<g id="a_edge21_Node000013_Node000016"><a xlink:title=" ">
<path fill="none" stroke="#63b8ff" d="M845.16,-167.52C856.94,-159.68 871.91,-147.36 878.75,-132 893.4,-99.1 884.9,-56.13 877.64,-31.24"/>
<polygon fill="#63b8ff" stroke="#63b8ff" points="881,-30.24 874.65,-21.76 874.32,-32.35 881,-30.24"/>
</a>
</g>
</g>
<!-- Node18 -->
<g id="Node000018" class="node">
<title>Node18</title>
<g id="a_Node000018"><a xlink:href="historico__repository_8h.html" target="_top" xlink:title="Cabeçalho da classe HistoricoRepository.">
<polygon fill="white" stroke="#666666" points="769.88,-132 661.62,-132 661.62,-112 769.88,-112 769.88,-132"/>
<text xml:space="preserve" text-anchor="middle" x="715.75" y="-118.5" font-family="Helvetica,sans-Serif" font-size="10.00">historico_repository.h</text>
</a>
</g>
</g>
<!-- Node13&#45;&gt;Node18 -->
<g id="edge18_Node000013_Node000018" class="edge">
<title>Node13&#45;&gt;Node18</title>
<g id="a_edge18_Node000013_Node000018"><a xlink:title=" ">
<path fill="none" stroke="#63b8ff" d="M809.07,-167.59C791.59,-159.24 765.8,-146.92 745.75,-137.34"/>
<polygon fill="#63b8ff" stroke="#63b8ff" points="747.48,-134.29 736.95,-133.13 744.47,-140.6 747.48,-134.29"/>
</a>
</g>
</g>
<!-- Node13&#45;&gt;Node19 -->
<g id="edge22_Node000013_Node000019" class="edge">
<title>Node13&#45;&gt;Node19</title>
<g id="a_edge22_Node000013_Node000019"><a xlink:title=" ">
<path fill="none" stroke="#63b8ff" d="M859.93,-167.59C889.68,-158.62 934.65,-145.05 967.18,-135.24"/>
<polygon fill="#63b8ff" stroke="#63b8ff" points="968.1,-138.62 976.67,-132.38 966.08,-131.91 968.1,-138.62"/>
</a>
</g>
</g>
<!-- Node15 -->
<g id="Node000015" class="node">
<title>Node15</title>
<g id="a_Node000015"><a xlink:href="os__model_8h.html" target="_top" xlink:title="Estruturas de dados para OS e Histórico.">
<polygon fill="white" stroke="#666666" points="809.88,-76 743.62,-76 743.62,-56 809.88,-56 809.88,-76"/>
<text xml:space="preserve" text-anchor="middle" x="776.75" y="-62.5" font-family="Helvetica,sans-Serif" font-size="10.00">os_model.h</text>
</a>
</g>
</g>
<!-- Node14&#45;&gt;Node15 -->
<g id="edge14_Node000014_Node000015" class="edge">
<title>Node14&#45;&gt;Node15</title>
<g id="a_edge14_Node000014_Node000015"><a xlink:title=" ">
<path fill="none" stroke="#63b8ff" d="M819.69,-111.59C812.53,-104.16 802.34,-93.58 793.68,-84.58"/>
<polygon fill="#63b8ff" stroke="#63b8ff" points="796.21,-82.16 786.75,-77.39 791.17,-87.02 796.21,-82.16"/>
</a>
</g>
</g>
<!-- Node17 -->
<g id="Node000017" class="node">
<title>Node17</title>
<g id="a_Node000017"><a xlink:title=" ">
<polygon fill="#e0e0e0" stroke="#999999" points="802.38,-20 751.12,-20 751.12,0 802.38,0 802.38,-20"/>
<text xml:space="preserve" text-anchor="middle" x="776.75" y="-6.5" font-family="Helvetica,sans-Serif" font-size="10.00">QVector</text>
</a>
</g>
</g>
<!-- Node14&#45;&gt;Node17 -->
<g id="edge17_Node000014_Node000017" class="edge">
<title>Node14&#45;&gt;Node17</title>
<g id="a_edge17_Node000014_Node000017"><a xlink:title=" ">
<path fill="none" stroke="#63b8ff" d="M829,-111.67C828.99,-98.57 827.62,-74.28 818.75,-56 813.61,-45.41 805.12,-35.6 797.11,-27.86"/>
<polygon fill="#63b8ff" stroke="#63b8ff" points="799.68,-25.47 789.91,-21.35 794.98,-30.66 799.68,-25.47"/>
</a>
</g>
</g>
<!-- Node15&#45;&gt;Node16 -->
<g id="edge15_Node000015_Node000016" class="edge">
<title>Node15&#45;&gt;Node16</title>
<g id="a_edge15_Node000015_Node000016"><a xlink:title=" ">
<path fill="none" stroke="#63b8ff" d="M793.12,-55.59C807.32,-47.44 828.13,-35.48 844.63,-26"/>
<polygon fill="#63b8ff" stroke="#63b8ff" points="846.01,-29.25 852.94,-21.23 842.52,-23.18 846.01,-29.25"/>
</a>
</g>
</g>
<!-- Node15&#45;&gt;Node17 -->
<g id="edge16_Node000015_Node000017" class="edge">
<title>Node15&#45;&gt;Node17</title>
<g id="a_edge16_Node000015_Node000017"><a xlink:title=" ">
<path fill="none" stroke="#63b8ff" d="M776.75,-55.59C776.75,-49.01 776.75,-39.96 776.75,-31.73"/>
<polygon fill="#63b8ff" stroke="#63b8ff" points="780.25,-31.81 776.75,-21.81 773.25,-31.81 780.25,-31.81"/>
</a>
</g>
</g>
<!-- Node18&#45;&gt;Node15 -->
<g id="edge19_Node000018_Node000015" class="edge">
<title>Node18&#45;&gt;Node15</title>
<g id="a_edge19_Node000018_Node000015"><a xlink:title=" ">
<path fill="none" stroke="#63b8ff" d="M726.38,-111.59C735.03,-103.93 747.48,-92.91 757.83,-83.75"/>
<polygon fill="#63b8ff" stroke="#63b8ff" points="759.95,-86.55 765.11,-77.3 755.31,-81.31 759.95,-86.55"/>
</a>
</g>
</g>
<!-- Node18&#45;&gt;Node17 -->
<g id="edge20_Node000018_Node000017" class="edge">
<title>Node18&#45;&gt;Node17</title>
<g id="a_edge20_Node000018_Node000017"><a xlink:title=" ">
<path fill="none" stroke="#63b8ff" d="M717.08,-111.64C719.25,-98.51 724.39,-74.19 734.75,-56 740.65,-45.63 749.39,-35.75 757.37,-27.9"/>
<polygon fill="#63b8ff" stroke="#63b8ff" points="759.54,-30.67 764.46,-21.29 754.76,-25.55 759.54,-30.67"/>
</a>
</g>
</g>
<!-- Node20&#45;&gt;Node9 -->
<g id="edge25_Node000020_Node000009" class="edge">
<title>Node20&#45;&gt;Node9</title>
<g id="a_edge25_Node000020_Node000009"><a xlink:title=" ">
<path fill="none" stroke="#63b8ff" d="M953,-223.59C948.7,-216.55 942.66,-206.67 937.36,-198"/>
<polygon fill="#63b8ff" stroke="#63b8ff" points="940.42,-196.3 932.22,-189.59 934.45,-199.95 940.42,-196.3"/>
</a>
</g>
</g>
<!-- Node20&#45;&gt;Node13 -->
<g id="edge26_Node000020_Node000013" class="edge">
<title>Node20&#45;&gt;Node13</title>
<g id="a_edge26_Node000020_Node000013"><a xlink:title=" ">
<path fill="none" stroke="#63b8ff" d="M936.11,-223.59C915.63,-215.09 885.23,-202.46 862,-192.81"/>
<polygon fill="#63b8ff" stroke="#63b8ff" points="863.55,-189.66 852.97,-189.06 860.86,-196.13 863.55,-189.66"/>
</a>
</g>
</g>
<!-- Node21 -->
<g id="Node000021" class="node">
<title>Node21</title>
<g id="a_Node000021"><a xlink:title=" ">
<polygon fill="#e0e0e0" stroke="#999999" points="1033.38,-188 982.12,-188 982.12,-168 1033.38,-168 1033.38,-188"/>
<text xml:space="preserve" text-anchor="middle" x="1007.75" y="-174.5" font-family="Helvetica,sans-Serif" font-size="10.00">QDialog</text>
</a>
</g>
</g>
<!-- Node20&#45;&gt;Node21 -->
<g id="edge24_Node000020_Node000021" class="edge">
<title>Node20&#45;&gt;Node21</title>
<g id="a_edge24_Node000020_Node000021"><a xlink:title=" ">
<path fill="none" stroke="#63b8ff" d="M967.29,-223.59C974.03,-216.16 983.64,-205.58 991.79,-196.58"/>
<polygon fill="#63b8ff" stroke="#63b8ff" points="994.17,-199.18 998.3,-189.42 988.98,-194.47 994.17,-199.18"/>
</a>
</g>
</g>
</g>
</svg>
