<?xml version="1.0" encoding="UTF-8" standalone="no"?>
<!DOCTYPE svg PUBLIC "-//W3C//DTD SVG 1.1//EN"
 "http://www.w3.org/Graphics/SVG/1.1/DTD/svg11.dtd">
<!-- Generated by graphviz version 14.1.4 (20260321.0153)
 -->
<!-- Title: /home/arthurteixeira/Músicas/trabalho&#45;grupo&#45;eng&#45;soft/trabalho&#45;grupo&#45;eng&#45;soft/marmomanager_cpp/src/os_repository.cpp Pages: 1 -->
<svg width="476pt" height="244pt"
 viewBox="0.00 0.00 476.00 244.00" xmlns="http://www.w3.org/2000/svg" xmlns:xlink="http://www.w3.org/1999/xlink">

<svg id="main" version="1.1" xmlns="http://www.w3.org/2000/svg" xmlns:xlink="http://www.w3.org/1999/xlink" xml:space="preserve">

<style type="text/css"><![CDATA[
.node, .edge {opacity: 0.7;}
.node.selected, .edge.selected {opacity: 1;}
.edge:hover path { stroke: red; }
.edge:hover polygon { stroke: red; fill: red; }
]]></style>
<script type="application/ecmascript" xlink:href="svg.min.js"/>
<svg id="graph" class="graph">
<g id="graph0" class="graph" transform="scale(1 1) rotate(0) translate(4 240)">
<title>/home/arthurteixeira/Músicas/trabalho&#45;grupo&#45;eng&#45;soft/trabalho&#45;grupo&#45;eng&#45;soft/marmomanager_cpp/src/os_repository.cpp</title>
<!-- Node1 -->
<g id="Node000001" class="node">
<title>Node1</title>
<g id="a_Node000001"><a xlink:title=" ">
<polygon fill="#999999" stroke="#666666" points="328.5,-236 182.75,-236 182.75,-168 328.5,-168 328.5,-236"/>
<text xml:space="preserve" text-anchor="start" x="190.75" y="-222.5" font-family="Helvetica,sans-Serif" font-size="10.00">/home/arthurteixeira</text>
<text xml:space="preserve" text-anchor="start" x="190.75" y="-210.5" font-family="Helvetica,sans-Serif" font-size="10.00">/Músicas/trabalho&#45;grupo</text>
<text xml:space="preserve" text-anchor="start" x="190.75" y="-198.5" font-family="Helvetica,sans-Serif" font-size="10.00">&#45;eng&#45;soft/trabalho&#45;grupo</text>
<text xml:space="preserve" text-anchor="start" x="190.75" y="-186.5" font-family="Helvetica,sans-Serif" font-size="10.00">&#45;eng&#45;soft/marmomanager_cpp</text>
<text xml:space="preserve" text-anchor="middle" x="255.62" y="-174.5" font-family="Helvetica,sans-Serif" font-size="10.00">/src/os_repository.cpp</text>
</a>
</g>
</g>
<!-- Node2 -->
<g id="Node000002" class="node">
<title>Node2</title>
<g id="a_Node000002"><a xlink:href="os__repository_8h.html" target="_top" xlink:title="Cabeçalho para a classe OSRepository.">
<polygon fill="white" stroke="#666666" points="85.62,-132 3.62,-132 3.62,-112 85.62,-112 85.62,-132"/>
<text xml:space="preserve" text-anchor="middle" x="44.62" y="-118.5" font-family="Helvetica,sans-Serif" font-size="10.00">os_repository.h</text>
</a>
</g>
</g>
<!-- Node1&#45;&gt;Node2 -->
<g id="edge1_Node000001_Node000002" class="edge">
<title>Node1&#45;&gt;Node2</title>
<g id="a_edge1_Node000001_Node000002"><a xlink:title=" ">
<path fill="none" stroke="#63b8ff" d="M182.42,-173.94C147.95,-161.2 108.4,-146.58 80.54,-136.27"/>
<polygon fill="#63b8ff" stroke="#63b8ff" points="82.11,-133.13 71.52,-132.94 79.68,-139.69 82.11,-133.13"/>
</a>
</g>
</g>
<!-- Node6 -->
<g id="Node000006" class="node">
<title>Node6</title>
<g id="a_Node000006"><a xlink:href="database_8h.html" target="_top" xlink:title="Arquivo de cabeçalho para o Singleton do Banco de Dados.">
<polygon fill="white" stroke="#666666" points="167.62,-132 103.62,-132 103.62,-112 167.62,-112 167.62,-132"/>
<text xml:space="preserve" text-anchor="middle" x="135.62" y="-118.5" font-family="Helvetica,sans-Serif" font-size="10.00">database.h</text>
</a>
</g>
</g>
<!-- Node1&#45;&gt;Node6 -->
<g id="edge6_Node000001_Node000006" class="edge">
<title>Node1&#45;&gt;Node6</title>
<g id="a_edge6_Node000001_Node000006"><a xlink:title=" ">
<path fill="none" stroke="#63b8ff" d="M204.39,-167.69C188.8,-157.57 172.42,-146.91 159.55,-138.55"/>
<polygon fill="#63b8ff" stroke="#63b8ff" points="161.63,-135.73 151.34,-133.21 157.81,-141.6 161.63,-135.73"/>
</a>
</g>
</g>
<!-- Node8 -->
<g id="Node000008" class="node">
<title>Node8</title>
<g id="a_Node000008"><a xlink:title=" ">
<polygon fill="#e0e0e0" stroke="#999999" points="249.62,-132 185.62,-132 185.62,-112 249.62,-112 249.62,-132"/>
<text xml:space="preserve" text-anchor="middle" x="217.62" y="-118.5" font-family="Helvetica,sans-Serif" font-size="10.00">QSqlQuery</text>
</a>
</g>
</g>
<!-- Node1&#45;&gt;Node8 -->
<g id="edge9_Node000001_Node000008" class="edge">
<title>Node1&#45;&gt;Node8</title>
<g id="a_edge9_Node000001_Node000008"><a xlink:title=" ">
<path fill="none" stroke="#63b8ff" d="M239.51,-167.92C235.27,-159.22 230.83,-150.11 227.07,-142.39"/>
<polygon fill="#63b8ff" stroke="#63b8ff" points="230.33,-141.1 222.81,-133.64 224.04,-144.16 230.33,-141.1"/>
</a>
</g>
</g>
<!-- Node9 -->
<g id="Node000009" class="node">
<title>Node9</title>
<g id="a_Node000009"><a xlink:title=" ">
<polygon fill="#e0e0e0" stroke="#999999" points="321.38,-132 267.88,-132 267.88,-112 321.38,-112 321.38,-132"/>
<text xml:space="preserve" text-anchor="middle" x="294.62" y="-118.5" font-family="Helvetica,sans-Serif" font-size="10.00">QVariant</text>
</a>
</g>
</g>
<!-- Node1&#45;&gt;Node9 -->
<g id="edge10_Node000001_Node000009" class="edge">
<title>Node1&#45;&gt;Node9</title>
<g id="a_edge10_Node000001_Node000009"><a xlink:title=" ">
<path fill="none" stroke="#63b8ff" d="M272.16,-167.92C276.52,-159.22 281.07,-150.11 284.93,-142.39"/>
<polygon fill="#63b8ff" stroke="#63b8ff" points="287.97,-144.14 289.31,-133.63 281.71,-141.01 287.97,-144.14"/>
</a>
</g>
</g>
<!-- Node10 -->
<g id="Node000010" class="node">
<title>Node10</title>
<g id="a_Node000010"><a xlink:title=" ">
<polygon fill="#e0e0e0" stroke="#999999" points="398,-132 339.25,-132 339.25,-112 398,-112 398,-132"/>
<text xml:space="preserve" text-anchor="middle" x="368.62" y="-118.5" font-family="Helvetica,sans-Serif" font-size="10.00">QSqlError</text>
</a>
</g>
</g>
<!-- Node1&#45;&gt;Node10 -->
<g id="edge11_Node000001_Node000010" class="edge">
<title>Node1&#45;&gt;Node10</title>
<g id="a_edge11_Node000001_Node000010"><a xlink:title=" ">
<path fill="none" stroke="#63b8ff" d="M303.87,-167.69C318.5,-157.6 333.87,-146.99 345.97,-138.64"/>
<polygon fill="#63b8ff" stroke="#63b8ff" points="347.78,-141.64 354.03,-133.08 343.81,-135.88 347.78,-141.64"/>
</a>
</g>
</g>
<!-- Node11 -->
<g id="Node000011" class="node">
<title>Node11</title>
<g id="a_Node000011"><a xlink:title=" ">
<polygon fill="#e0e0e0" stroke="#999999" points="467.62,-132 415.62,-132 415.62,-112 467.62,-112 467.62,-132"/>
<text xml:space="preserve" text-anchor="middle" x="441.62" y="-118.5" font-family="Helvetica,sans-Serif" font-size="10.00">QDebug</text>
</a>
</g>
</g>
<!-- Node1&#45;&gt;Node11 -->
<g id="edge12_Node000001_Node000011" class="edge">
<title>Node1&#45;&gt;Node11</title>
<g id="a_edge12_Node000001_Node000011"><a xlink:title=" ">
<path fill="none" stroke="#63b8ff" d="M328.87,-170.28C356.53,-158.69 386.62,-146.06 408.76,-136.78"/>
<polygon fill="#63b8ff" stroke="#63b8ff" points="409.99,-140.06 417.86,-132.97 407.28,-133.61 409.99,-140.06"/>
</a>
</g>
</g>
<!-- Node3 -->
<g id="Node000003" class="node">
<title>Node3</title>
<g id="a_Node000003"><a xlink:href="os__model_8h.html" target="_top" xlink:title="Estruturas de dados para OS e Histórico.">
<polygon fill="white" stroke="#666666" points="92.75,-76 26.5,-76 26.5,-56 92.75,-56 92.75,-76"/>
<text xml:space="preserve" text-anchor="middle" x="59.62" y="-62.5" font-family="Helvetica,sans-Serif" font-size="10.00">os_model.h</text>
</a>
</g>
</g>
<!-- Node2&#45;&gt;Node3 -->
<g id="edge2_Node000002_Node000003" class="edge">
<title>Node2&#45;&gt;Node3</title>
<g id="a_edge2_Node000002_Node000003"><a xlink:title=" ">
<path fill="none" stroke="#63b8ff" d="M47.24,-111.59C49.11,-104.86 51.7,-95.53 54.03,-87.15"/>
<polygon fill="#63b8ff" stroke="#63b8ff" points="57.33,-88.33 56.64,-77.76 50.59,-86.46 57.33,-88.33"/>
</a>
</g>
</g>
<!-- Node5 -->
<g id="Node000005" class="node">
<title>Node5</title>
<g id="a_Node000005"><a xlink:title=" ">
<polygon fill="#e0e0e0" stroke="#999999" points="51.25,-20 0,-20 0,0 51.25,0 51.25,-20"/>
<text xml:space="preserve" text-anchor="middle" x="25.62" y="-6.5" font-family="Helvetica,sans-Serif" font-size="10.00">QVector</text>
</a>
</g>
</g>
<!-- Node2&#45;&gt;Node5 -->
<g id="edge5_Node000002_Node000005" class="edge">
<title>Node2&#45;&gt;Node5</title>
<g id="a_edge5_Node000002_Node000005"><a xlink:title=" ">
<path fill="none" stroke="#63b8ff" d="M36.97,-111.7C30.38,-103.06 21.37,-89.52 17.62,-76 13.58,-61.39 15.92,-44.36 19.09,-31.39"/>
<polygon fill="#63b8ff" stroke="#63b8ff" points="22.43,-32.46 21.79,-21.88 15.69,-30.55 22.43,-32.46"/>
</a>
</g>
</g>
<!-- Node4 -->
<g id="Node000004" class="node">
<title>Node4</title>
<g id="a_Node000004"><a xlink:title=" ">
<polygon fill="#e0e0e0" stroke="#999999" points="131.12,-20 82.12,-20 82.12,0 131.12,0 131.12,-20"/>
<text xml:space="preserve" text-anchor="middle" x="106.62" y="-6.5" font-family="Helvetica,sans-Serif" font-size="10.00">QString</text>
</a>
</g>
</g>
<!-- Node3&#45;&gt;Node4 -->
<g id="edge3_Node000003_Node000004" class="edge">
<title>Node3&#45;&gt;Node4</title>
<g id="a_edge3_Node000003_Node000004"><a xlink:title=" ">
<path fill="none" stroke="#63b8ff" d="M67.81,-55.59C74.21,-48.24 83.3,-37.8 91.08,-28.87"/>
<polygon fill="#63b8ff" stroke="#63b8ff" points="93.61,-31.28 97.54,-21.44 88.33,-26.69 93.61,-31.28"/>
</a>
</g>
</g>
<!-- Node3&#45;&gt;Node5 -->
<g id="edge4_Node000003_Node000005" class="edge">
<title>Node3&#45;&gt;Node5</title>
<g id="a_edge4_Node000003_Node000005"><a xlink:title=" ">
<path fill="none" stroke="#63b8ff" d="M53.7,-55.59C49.27,-48.55 43.05,-38.67 37.59,-30"/>
<polygon fill="#63b8ff" stroke="#63b8ff" points="40.58,-28.18 32.29,-21.58 34.65,-31.91 40.58,-28.18"/>
</a>
</g>
</g>
<!-- Node6&#45;&gt;Node4 -->
<g id="edge8_Node000006_Node000004" class="edge">
<title>Node6&#45;&gt;Node4</title>
<g id="a_edge8_Node000006_Node000004"><a xlink:title=" ">
<path fill="none" stroke="#63b8ff" d="M133.15,-111.62C128.49,-93.92 118.29,-55.24 111.98,-31.32"/>
<polygon fill="#63b8ff" stroke="#63b8ff" points="115.41,-30.6 109.48,-21.82 108.64,-32.38 115.41,-30.6"/>
</a>
</g>
</g>
<!-- Node7 -->
<g id="Node000007" class="node">
<title>Node7</title>
<g id="a_Node000007"><a xlink:title=" ">
<polygon fill="#e0e0e0" stroke="#999999" points="228.5,-76 148.75,-76 148.75,-56 228.5,-56 228.5,-76"/>
<text xml:space="preserve" text-anchor="middle" x="188.62" y="-62.5" font-family="Helvetica,sans-Serif" font-size="10.00">QSqlDatabase</text>
</a>
</g>
</g>
<!-- Node6&#45;&gt;Node7 -->
<g id="edge7_Node000006_Node000007" class="edge">
<title>Node6&#45;&gt;Node7</title>
<g id="a_edge7_Node000006_Node000007"><a xlink:title=" ">
<path fill="none" stroke="#63b8ff" d="M144.86,-111.59C152.23,-104.08 162.76,-93.35 171.64,-84.3"/>
<polygon fill="#63b8ff" stroke="#63b8ff" points="173.93,-86.97 178.44,-77.38 168.94,-82.06 173.93,-86.97"/>
</a>
</g>
</g>
</g>
</svg>
</svg>

<style type='text/css'>
<![CDATA[
[data-mouse-over-selected='false'] { opacity: 0.7; }
[data-mouse-over-selected='true']  { opacity: 1.0; }
]]>
</style>
<script type="application/ecmascript"><![CDATA[
document.addEventListener('DOMContentLoaded', (event) => {
  highlightEdges();
  highlightAdjacentNodes();
});
]]></script>
</svg>
