<?xml version="1.0" encoding="UTF-8" standalone="no"?>
<!DOCTYPE svg PUBLIC "-//W3C//DTD SVG 1.1//EN"
 "http://www.w3.org/Graphics/SVG/1.1/DTD/svg11.dtd">
<!-- Generated by graphviz version 2.43.0 (0)
 -->
<!-- Title: /home/daniel/Área de trabalho/Engenharia_1/Sprint1&#45;Grupo/marmomanager_cpp/includes/os_model.h Pages: 1 -->
<svg width="980pt" height="324pt"
 viewBox="0.00 0.00 980.00 324.00" xmlns="http://www.w3.org/2000/svg" xmlns:xlink="http://www.w3.org/1999/xlink">
<g id="graph0" class="graph" transform="scale(1 1) rotate(0) translate(4 320)">
<title>/home/daniel/Área de trabalho/Engenharia_1/Sprint1&#45;Grupo/marmomanager_cpp/includes/os_model.h</title>
<!-- Node1 -->
<g id="Node000001" class="node">
<title>Node1</title>
<g id="a_Node000001"><a xlink:title="Estruturas de dados para OS e Histórico.">
<polygon fill="#999999" stroke="#666666" points="576,-316 396,-316 396,-264 576,-264 576,-316"/>
<text text-anchor="start" x="404" y="-304" font-family="Helvetica,sans-Serif" font-size="10.00">/home/daniel/Área</text>
<text text-anchor="start" x="404" y="-293" font-family="Helvetica,sans-Serif" font-size="10.00"> de trabalho/Engenharia</text>
<text text-anchor="start" x="404" y="-282" font-family="Helvetica,sans-Serif" font-size="10.00">_1/Sprint1&#45;Grupo/marmomanager</text>
<text text-anchor="middle" x="486" y="-271" font-family="Helvetica,sans-Serif" font-size="10.00">_cpp/includes/os_model.h</text>
</a>
</g>
</g>
<!-- Node2 -->
<g id="Node000002" class="node">
<title>Node2</title>
<g id="a_Node000002"><a xlink:href="historico__repository_8h.html" target="_top" xlink:title="Cabeçalho da classe HistoricoRepository.">
<polygon fill="white" stroke="#666666" points="378,-228 188,-228 188,-176 378,-176 378,-228"/>
<text text-anchor="start" x="196" y="-216" font-family="Helvetica,sans-Serif" font-size="10.00">/home/daniel/Área</text>
<text text-anchor="start" x="196" y="-205" font-family="Helvetica,sans-Serif" font-size="10.00"> de trabalho/Engenharia</text>
<text text-anchor="start" x="196" y="-194" font-family="Helvetica,sans-Serif" font-size="10.00">_1/Sprint1&#45;Grupo/marmomanager</text>
<text text-anchor="middle" x="283" y="-183" font-family="Helvetica,sans-Serif" font-size="10.00">_cpp/includes/historico_repository.h</text>
</a>
</g>
</g>
<!-- Node1&#45;&gt;Node2 -->
<g id="edge1_Node000001_Node000002" class="edge">
<title>Node1&#45;&gt;Node2</title>
<g id="a_edge1_Node000001_Node000002"><a xlink:title=" ">
<path fill="none" stroke="#63b8ff" d="M417.22,-259.86C392.91,-249.56 365.8,-238.08 342.34,-228.14"/>
<polygon fill="#63b8ff" stroke="#63b8ff" points="416.17,-263.22 426.74,-263.89 418.9,-256.77 416.17,-263.22"/>
</a>
</g>
</g>
<!-- Node5 -->
<g id="Node000005" class="node">
<title>Node5</title>
<g id="a_Node000005"><a xlink:href="os__controller_8h.html" target="_top" xlink:title="Cabeçalho da classe OSController.">
<polygon fill="white" stroke="#666666" points="576,-228 396,-228 396,-176 576,-176 576,-228"/>
<text text-anchor="start" x="404" y="-216" font-family="Helvetica,sans-Serif" font-size="10.00">/home/daniel/Área</text>
<text text-anchor="start" x="404" y="-205" font-family="Helvetica,sans-Serif" font-size="10.00"> de trabalho/Engenharia</text>
<text text-anchor="start" x="404" y="-194" font-family="Helvetica,sans-Serif" font-size="10.00">_1/Sprint1&#45;Grupo/marmomanager</text>
<text text-anchor="middle" x="486" y="-183" font-family="Helvetica,sans-Serif" font-size="10.00">_cpp/includes/os_controller.h</text>
</a>
</g>
</g>
<!-- Node1&#45;&gt;Node5 -->
<g id="edge4_Node000001_Node000005" class="edge">
<title>Node1&#45;&gt;Node5</title>
<g id="a_edge4_Node000001_Node000005"><a xlink:title=" ">
<path fill="none" stroke="#63b8ff" d="M486,-253.56C486,-245.04 486,-236.1 486,-228.16"/>
<polygon fill="#63b8ff" stroke="#63b8ff" points="482.5,-253.66 486,-263.66 489.5,-253.66 482.5,-253.66"/>
</a>
</g>
</g>
<!-- Node11 -->
<g id="Node000011" class="node">
<title>Node11</title>
<g id="a_Node000011"><a xlink:href="os__repository_8h.html" target="_top" xlink:title="Cabeçalho para a classe OSRepository.">
<polygon fill="white" stroke="#666666" points="774,-228 594,-228 594,-176 774,-176 774,-228"/>
<text text-anchor="start" x="602" y="-216" font-family="Helvetica,sans-Serif" font-size="10.00">/home/daniel/Área</text>
<text text-anchor="start" x="602" y="-205" font-family="Helvetica,sans-Serif" font-size="10.00"> de trabalho/Engenharia</text>
<text text-anchor="start" x="602" y="-194" font-family="Helvetica,sans-Serif" font-size="10.00">_1/Sprint1&#45;Grupo/marmomanager</text>
<text text-anchor="middle" x="684" y="-183" font-family="Helvetica,sans-Serif" font-size="10.00">_cpp/includes/os_repository.h</text>
</a>
</g>
</g>
<!-- Node1&#45;&gt;Node11 -->
<g id="edge12_Node000001_Node000011" class="edge">
<title>Node1&#45;&gt;Node11</title>
<g id="a_edge12_Node000001_Node000011"><a xlink:title=" ">
<path fill="none" stroke="#63b8ff" d="M553.09,-259.86C576.8,-249.56 603.24,-238.08 626.13,-228.14"/>
<polygon fill="#63b8ff" stroke="#63b8ff" points="551.58,-256.7 543.8,-263.89 554.37,-263.12 551.58,-256.7"/>
</a>
</g>
</g>
<!-- Node3 -->
<g id="Node000003" class="node">
<title>Node3</title>
<g id="a_Node000003"><a xlink:href="historico__repository_8cpp_source.html" target="_top" xlink:title=" ">
<polygon fill="white" stroke="#666666" points="180,-140 0,-140 0,-88 180,-88 180,-140"/>
<text text-anchor="start" x="8" y="-128" font-family="Helvetica,sans-Serif" font-size="10.00">/home/daniel/Área</text>
<text text-anchor="start" x="8" y="-117" font-family="Helvetica,sans-Serif" font-size="10.00"> de trabalho/Engenharia</text>
<text text-anchor="start" x="8" y="-106" font-family="Helvetica,sans-Serif" font-size="10.00">_1/Sprint1&#45;Grupo/marmomanager</text>
<text text-anchor="middle" x="90" y="-95" font-family="Helvetica,sans-Serif" font-size="10.00">_cpp/src/historico_repository.cpp</text>
</a>
</g>
</g>
<!-- Node2&#45;&gt;Node3 -->
<g id="edge2_Node000002_Node000003" class="edge">
<title>Node2&#45;&gt;Node3</title>
<g id="a_edge2_Node000002_Node000003"><a xlink:title=" ">
<path fill="none" stroke="#63b8ff" d="M217.3,-171.73C194.27,-161.46 168.62,-150.03 146.41,-140.14"/>
<polygon fill="#63b8ff" stroke="#63b8ff" points="216.1,-175.02 226.66,-175.89 218.95,-168.63 216.1,-175.02"/>
</a>
</g>
</g>
<!-- Node4 -->
<g id="Node000004" class="node">
<title>Node4</title>
<g id="a_Node000004"><a xlink:href="os__controller_8cpp_source.html" target="_top" xlink:title=" ">
<polygon fill="white" stroke="#666666" points="378,-140 198,-140 198,-88 378,-88 378,-140"/>
<text text-anchor="start" x="206" y="-128" font-family="Helvetica,sans-Serif" font-size="10.00">/home/daniel/Área</text>
<text text-anchor="start" x="206" y="-117" font-family="Helvetica,sans-Serif" font-size="10.00"> de trabalho/Engenharia</text>
<text text-anchor="start" x="206" y="-106" font-family="Helvetica,sans-Serif" font-size="10.00">_1/Sprint1&#45;Grupo/marmomanager</text>
<text text-anchor="middle" x="288" y="-95" font-family="Helvetica,sans-Serif" font-size="10.00">_cpp/src/os_controller.cpp</text>
</a>
</g>
</g>
<!-- Node2&#45;&gt;Node4 -->
<g id="edge3_Node000002_Node000004" class="edge">
<title>Node2&#45;&gt;Node4</title>
<g id="a_edge3_Node000002_Node000004"><a xlink:title=" ">
<path fill="none" stroke="#63b8ff" d="M285.06,-165.56C285.56,-157.04 286.08,-148.1 286.54,-140.16"/>
<polygon fill="#63b8ff" stroke="#63b8ff" points="281.56,-165.48 284.47,-175.66 288.55,-165.88 281.56,-165.48"/>
</a>
</g>
</g>
<!-- Node5&#45;&gt;Node4 -->
<g id="edge5_Node000005_Node000004" class="edge">
<title>Node5&#45;&gt;Node4</title>
<g id="a_edge5_Node000005_Node000004"><a xlink:title=" ">
<path fill="none" stroke="#63b8ff" d="M418.91,-171.86C395.2,-161.56 368.76,-150.08 345.87,-140.14"/>
<polygon fill="#63b8ff" stroke="#63b8ff" points="417.63,-175.12 428.2,-175.89 420.42,-168.7 417.63,-175.12"/>
</a>
</g>
</g>
<!-- Node6 -->
<g id="Node000006" class="node">
<title>Node6</title>
<g id="a_Node000006"><a xlink:href="history__dialog_8h.html" target="_top" xlink:title="Cabeçalho para a view StatusHistoryDialog.">
<polygon fill="white" stroke="#666666" points="576,-140 396,-140 396,-88 576,-88 576,-140"/>
<text text-anchor="start" x="404" y="-128" font-family="Helvetica,sans-Serif" font-size="10.00">/home/daniel/Área</text>
<text text-anchor="start" x="404" y="-117" font-family="Helvetica,sans-Serif" font-size="10.00"> de trabalho/Engenharia</text>
<text text-anchor="start" x="404" y="-106" font-family="Helvetica,sans-Serif" font-size="10.00">_1/Sprint1&#45;Grupo/marmomanager</text>
<text text-anchor="middle" x="486" y="-95" font-family="Helvetica,sans-Serif" font-size="10.00">_cpp/src/ui/history_dialog.h</text>
</a>
</g>
</g>
<!-- Node5&#45;&gt;Node6 -->
<g id="edge6_Node000005_Node000006" class="edge">
<title>Node5&#45;&gt;Node6</title>
<g id="a_edge6_Node000005_Node000006"><a xlink:title=" ">
<path fill="none" stroke="#63b8ff" d="M486,-165.56C486,-157.04 486,-148.1 486,-140.16"/>
<polygon fill="#63b8ff" stroke="#63b8ff" points="482.5,-165.66 486,-175.66 489.5,-165.66 482.5,-165.66"/>
</a>
</g>
</g>
<!-- Node9 -->
<g id="Node000009" class="node">
<title>Node9</title>
<g id="a_Node000009"><a xlink:href="main__window_8h.html" target="_top" xlink:title="Cabeçalho para a view principal MarmoManagerApp.">
<polygon fill="white" stroke="#666666" points="774,-140 594,-140 594,-88 774,-88 774,-140"/>
<text text-anchor="start" x="602" y="-128" font-family="Helvetica,sans-Serif" font-size="10.00">/home/daniel/Área</text>
<text text-anchor="start" x="602" y="-117" font-family="Helvetica,sans-Serif" font-size="10.00"> de trabalho/Engenharia</text>
<text text-anchor="start" x="602" y="-106" font-family="Helvetica,sans-Serif" font-size="10.00">_1/Sprint1&#45;Grupo/marmomanager</text>
<text text-anchor="middle" x="684" y="-95" font-family="Helvetica,sans-Serif" font-size="10.00">_cpp/src/ui/main_window.h</text>
</a>
</g>
</g>
<!-- Node5&#45;&gt;Node9 -->
<g id="edge9_Node000005_Node000009" class="edge">
<title>Node5&#45;&gt;Node9</title>
<g id="a_edge9_Node000005_Node000009"><a xlink:title=" ">
<path fill="none" stroke="#63b8ff" d="M553.09,-171.86C576.8,-161.56 603.24,-150.08 626.13,-140.14"/>
<polygon fill="#63b8ff" stroke="#63b8ff" points="551.58,-168.7 543.8,-175.89 554.37,-175.12 551.58,-168.7"/>
</a>
</g>
</g>
<!-- Node7 -->
<g id="Node000007" class="node">
<title>Node7</title>
<g id="a_Node000007"><a xlink:href="history__dialog_8cpp_source.html" target="_top" xlink:title=" ">
<polygon fill="white" stroke="#666666" points="477,-52 297,-52 297,0 477,0 477,-52"/>
<text text-anchor="start" x="305" y="-40" font-family="Helvetica,sans-Serif" font-size="10.00">/home/daniel/Área</text>
<text text-anchor="start" x="305" y="-29" font-family="Helvetica,sans-Serif" font-size="10.00"> de trabalho/Engenharia</text>
<text text-anchor="start" x="305" y="-18" font-family="Helvetica,sans-Serif" font-size="10.00">_1/Sprint1&#45;Grupo/marmomanager</text>
<text text-anchor="middle" x="387" y="-7" font-family="Helvetica,sans-Serif" font-size="10.00">_cpp/src/ui/history_dialog.cpp</text>
</a>
</g>
</g>
<!-- Node6&#45;&gt;Node7 -->
<g id="edge7_Node000006_Node000007" class="edge">
<title>Node6&#45;&gt;Node7</title>
<g id="a_edge7_Node000006_Node000007"><a xlink:title=" ">
<path fill="none" stroke="#63b8ff" d="M449.32,-81.13C438.36,-71.62 426.51,-61.32 416.11,-52.29"/>
<polygon fill="#63b8ff" stroke="#63b8ff" points="447.25,-83.98 457.1,-87.89 451.84,-78.69 447.25,-83.98"/>
</a>
</g>
</g>
<!-- Node8 -->
<g id="Node000008" class="node">
<title>Node8</title>
<g id="a_Node000008"><a xlink:href="main__window_8cpp_source.html" target="_top" xlink:title=" ">
<polygon fill="white" stroke="#666666" points="675,-52 495,-52 495,0 675,0 675,-52"/>
<text text-anchor="start" x="503" y="-40" font-family="Helvetica,sans-Serif" font-size="10.00">/home/daniel/Área</text>
<text text-anchor="start" x="503" y="-29" font-family="Helvetica,sans-Serif" font-size="10.00"> de trabalho/Engenharia</text>
<text text-anchor="start" x="503" y="-18" font-family="Helvetica,sans-Serif" font-size="10.00">_1/Sprint1&#45;Grupo/marmomanager</text>
<text text-anchor="middle" x="585" y="-7" font-family="Helvetica,sans-Serif" font-size="10.00">_cpp/src/ui/main_window.cpp</text>
</a>
</g>
</g>
<!-- Node6&#45;&gt;Node8 -->
<g id="edge8_Node000006_Node000008" class="edge">
<title>Node6&#45;&gt;Node8</title>
<g id="a_edge8_Node000006_Node000008"><a xlink:title=" ">
<path fill="none" stroke="#63b8ff" d="M522.68,-81.13C533.64,-71.62 545.49,-61.32 555.89,-52.29"/>
<polygon fill="#63b8ff" stroke="#63b8ff" points="520.16,-78.69 514.9,-87.89 524.75,-83.98 520.16,-78.69"/>
</a>
</g>
</g>
<!-- Node9&#45;&gt;Node8 -->
<g id="edge11_Node000009_Node000008" class="edge">
<title>Node9&#45;&gt;Node8</title>
<g id="a_edge11_Node000009_Node000008"><a xlink:title=" ">
<path fill="none" stroke="#63b8ff" d="M647.32,-81.13C636.36,-71.62 624.51,-61.32 614.11,-52.29"/>
<polygon fill="#63b8ff" stroke="#63b8ff" points="645.25,-83.98 655.1,-87.89 649.84,-78.69 645.25,-83.98"/>
</a>
</g>
</g>
<!-- Node10 -->
<g id="Node000010" class="node">
<title>Node10</title>
<g id="a_Node000010"><a xlink:href="application__coordinator_8cpp_source.html" target="_top" xlink:title=" ">
<polygon fill="white" stroke="#666666" points="899,-52 693,-52 693,0 899,0 899,-52"/>
<text text-anchor="start" x="701" y="-40" font-family="Helvetica,sans-Serif" font-size="10.00">/home/daniel/Área</text>
<text text-anchor="start" x="701" y="-29" font-family="Helvetica,sans-Serif" font-size="10.00"> de trabalho/Engenharia</text>
<text text-anchor="start" x="701" y="-18" font-family="Helvetica,sans-Serif" font-size="10.00">_1/Sprint1&#45;Grupo/marmomanager</text>
<text text-anchor="middle" x="796" y="-7" font-family="Helvetica,sans-Serif" font-size="10.00">_cpp/src/ui/application_coordinator.cpp</text>
</a>
</g>
</g>
<!-- Node9&#45;&gt;Node10 -->
<g id="edge10_Node000009_Node000010" class="edge">
<title>Node9&#45;&gt;Node10</title>
<g id="a_edge10_Node000009_Node000010"><a xlink:title=" ">
<path fill="none" stroke="#63b8ff" d="M724.78,-81.69C737.37,-72.02 751.08,-61.49 763.07,-52.29"/>
<polygon fill="#63b8ff" stroke="#63b8ff" points="722.5,-79.03 716.7,-87.89 726.76,-84.58 722.5,-79.03"/>
</a>
</g>
</g>
<!-- Node11&#45;&gt;Node4 -->
<g id="edge13_Node000011_Node000004" class="edge">
<title>Node11&#45;&gt;Node4</title>
<g id="a_edge13_Node000011_Node000004"><a xlink:title=" ">
<path fill="none" stroke="#63b8ff" d="M584.05,-175.86C495.88,-157.15 471.34,-158.29 387,-140 384.05,-139.36 381.06,-138.7 378.05,-138.01"/>
<polygon fill="#63b8ff" stroke="#63b8ff" points="583.44,-179.31 593.95,-177.99 584.91,-172.46 583.44,-179.31"/>
</a>
</g>
</g>
<!-- Node12 -->
<g id="Node000012" class="node">
<title>Node12</title>
<g id="a_Node000012"><a xlink:href="os__repository_8cpp_source.html" target="_top" xlink:title=" ">
<polygon fill="white" stroke="#666666" points="972,-140 792,-140 792,-88 972,-88 972,-140"/>
<text text-anchor="start" x="800" y="-128" font-family="Helvetica,sans-Serif" font-size="10.00">/home/daniel/Área</text>
<text text-anchor="start" x="800" y="-117" font-family="Helvetica,sans-Serif" font-size="10.00"> de trabalho/Engenharia</text>
<text text-anchor="start" x="800" y="-106" font-family="Helvetica,sans-Serif" font-size="10.00">_1/Sprint1&#45;Grupo/marmomanager</text>
<text text-anchor="middle" x="882" y="-95" font-family="Helvetica,sans-Serif" font-size="10.00">_cpp/src/os_repository.cpp</text>
</a>
</g>
</g>
<!-- Node11&#45;&gt;Node12 -->
<g id="edge14_Node000011_Node000012" class="edge">
<title>Node11&#45;&gt;Node12</title>
<g id="a_edge14_Node000011_Node000012"><a xlink:title=" ">
<path fill="none" stroke="#63b8ff" d="M751.09,-171.86C774.8,-161.56 801.24,-150.08 824.13,-140.14"/>
<polygon fill="#63b8ff" stroke="#63b8ff" points="749.58,-168.7 741.8,-175.89 752.37,-175.12 749.58,-168.7"/>
</a>
</g>
</g>
</g>
</svg>
