<?xml version="1.0" encoding="UTF-8" standalone="no"?>
<!DOCTYPE svg PUBLIC "-//W3C//DTD SVG 1.1//EN"
 "http://www.w3.org/Graphics/SVG/1.1/DTD/svg11.dtd">
<!-- Generated by graphviz version 14.1.4 (20260321.0153)
 -->
<!-- Title: /home/arthurteixeira/Músicas/trabalho&#45;grupo&#45;eng&#45;soft/trabalho&#45;grupo&#45;eng&#45;soft/marmomanager_cpp/src/os_controller.cpp Pages: 1 -->
<svg width="319pt" height="300pt"
 viewBox="0.00 0.00 319.00 300.00" xmlns="http://www.w3.org/2000/svg" xmlns:xlink="http://www.w3.org/1999/xlink">

<svg id="main" version="1.1" xmlns="http://www.w3.org/2000/svg" xmlns:xlink="http://www.w3.org/1999/xlink" xml:space="preserve">

<style type="text/css"><![CDATA[
.node, .edge {opacity: 0.7;}
.node.selected, .edge.selected {opacity: 1;}
.edge:hover path { stroke: red; }
.edge:hover polygon { stroke: red; fill: red; }
]]></style>
<script type="application/ecmascript" xlink:href="svg.min.js"/>
<svg id="graph" class="graph">
<g id="graph0" class="graph" transform="scale(1 1) rotate(0) translate(4 296)">
<title>/home/arthurteixeira/Músicas/trabalho&#45;grupo&#45;eng&#45;soft/trabalho&#45;grupo&#45;eng&#45;soft/marmomanager_cpp/src/os_controller.cpp</title>
<!-- Node1 -->
<g id="Node000001" class="node">
<title>Node1</title>
<g id="a_Node000001"><a xlink:title=" ">
<polygon fill="#999999" stroke="#666666" points="240.38,-292 94.62,-292 94.62,-224 240.38,-224 240.38,-292"/>
<text xml:space="preserve" text-anchor="start" x="102.62" y="-278.5" font-family="Helvetica,sans-Serif" font-size="10.00">/home/arthurteixeira</text>
<text xml:space="preserve" text-anchor="start" x="102.62" y="-266.5" font-family="Helvetica,sans-Serif" font-size="10.00">/Músicas/trabalho&#45;grupo</text>
<text xml:space="preserve" text-anchor="start" x="102.62" y="-254.5" font-family="Helvetica,sans-Serif" font-size="10.00">&#45;eng&#45;soft/trabalho&#45;grupo</text>
<text xml:space="preserve" text-anchor="start" x="102.62" y="-242.5" font-family="Helvetica,sans-Serif" font-size="10.00">&#45;eng&#45;soft/marmomanager_cpp</text>
<text xml:space="preserve" text-anchor="middle" x="167.5" y="-230.5" font-family="Helvetica,sans-Serif" font-size="10.00">/src/os_controller.cpp</text>
</a>
</g>
</g>
<!-- Node2 -->
<g id="Node000002" class="node">
<title>Node2</title>
<g id="a_Node000002"><a xlink:href="os__controller_8h.html" target="_top" xlink:title="Cabeçalho da classe OSController.">
<polygon fill="white" stroke="#666666" points="162.38,-188 82.62,-188 82.62,-168 162.38,-168 162.38,-188"/>
<text xml:space="preserve" text-anchor="middle" x="122.5" y="-174.5" font-family="Helvetica,sans-Serif" font-size="10.00">os_controller.h</text>
</a>
</g>
</g>
<!-- Node1&#45;&gt;Node2 -->
<g id="edge1_Node000001_Node000002" class="edge">
<title>Node1&#45;&gt;Node2</title>
<g id="a_edge1_Node000001_Node000002"><a xlink:title=" ">
<path fill="none" stroke="#63b8ff" d="M148.42,-223.92C143.34,-215.12 138.02,-205.9 133.53,-198.12"/>
<polygon fill="#63b8ff" stroke="#63b8ff" points="136.64,-196.5 128.61,-189.59 130.57,-200 136.64,-196.5"/>
</a>
</g>
</g>
<!-- Node9 -->
<g id="Node000009" class="node">
<title>Node9</title>
<g id="a_Node000009"><a xlink:title=" ">
<polygon fill="#e0e0e0" stroke="#999999" points="246.62,-188 180.38,-188 180.38,-168 246.62,-168 246.62,-188"/>
<text xml:space="preserve" text-anchor="middle" x="213.5" y="-174.5" font-family="Helvetica,sans-Serif" font-size="10.00">QDateTime</text>
</a>
</g>
</g>
<!-- Node1&#45;&gt;Node9 -->
<g id="edge12_Node000001_Node000009" class="edge">
<title>Node1&#45;&gt;Node9</title>
<g id="a_edge12_Node000001_Node000009"><a xlink:title=" ">
<path fill="none" stroke="#63b8ff" d="M187.01,-223.92C192.2,-215.12 197.64,-205.9 202.22,-198.12"/>
<polygon fill="#63b8ff" stroke="#63b8ff" points="205.19,-199.97 207.26,-189.58 199.16,-196.42 205.19,-199.97"/>
</a>
</g>
</g>
<!-- Node3 -->
<g id="Node000003" class="node">
<title>Node3</title>
<g id="a_Node000003"><a xlink:href="os__repository_8h.html" target="_top" xlink:title="Cabeçalho para a classe OSRepository.">
<polygon fill="white" stroke="#666666" points="107.5,-132 25.5,-132 25.5,-112 107.5,-112 107.5,-132"/>
<text xml:space="preserve" text-anchor="middle" x="66.5" y="-118.5" font-family="Helvetica,sans-Serif" font-size="10.00">os_repository.h</text>
</a>
</g>
</g>
<!-- Node2&#45;&gt;Node3 -->
<g id="edge2_Node000002_Node000003" class="edge">
<title>Node2&#45;&gt;Node3</title>
<g id="a_edge2_Node000002_Node000003"><a xlink:title=" ">
<path fill="none" stroke="#63b8ff" d="M112.75,-167.59C104.88,-160.01 93.6,-149.13 84.15,-140.02"/>
<polygon fill="#63b8ff" stroke="#63b8ff" points="86.86,-137.77 77.23,-133.35 82,-142.81 86.86,-137.77"/>
</a>
</g>
</g>
<!-- Node5 -->
<g id="Node000005" class="node">
<title>Node5</title>
<g id="a_Node000005"><a xlink:title=" ">
<polygon fill="#e0e0e0" stroke="#999999" points="49,-20 0,-20 0,0 49,0 49,-20"/>
<text xml:space="preserve" text-anchor="middle" x="24.5" y="-6.5" font-family="Helvetica,sans-Serif" font-size="10.00">QString</text>
</a>
</g>
</g>
<!-- Node2&#45;&gt;Node5 -->
<g id="edge10_Node000002_Node000005" class="edge">
<title>Node2&#45;&gt;Node5</title>
<g id="a_edge10_Node000002_Node000005"><a xlink:title=" ">
<path fill="none" stroke="#63b8ff" d="M82.24,-171.04C58.79,-165.28 31.07,-154.01 16.5,-132 -3.66,-101.54 7.18,-56.78 16.26,-31.1"/>
<polygon fill="#63b8ff" stroke="#63b8ff" points="19.49,-32.47 19.78,-21.88 12.95,-29.98 19.49,-32.47"/>
</a>
</g>
</g>
<!-- Node7 -->
<g id="Node000007" class="node">
<title>Node7</title>
<g id="a_Node000007"><a xlink:href="historico__repository_8h.html" target="_top" xlink:title="Cabeçalho da classe HistoricoRepository.">
<polygon fill="white" stroke="#666666" points="233.62,-132 125.38,-132 125.38,-112 233.62,-112 233.62,-132"/>
<text xml:space="preserve" text-anchor="middle" x="179.5" y="-118.5" font-family="Helvetica,sans-Serif" font-size="10.00">historico_repository.h</text>
</a>
</g>
</g>
<!-- Node2&#45;&gt;Node7 -->
<g id="edge7_Node000002_Node000007" class="edge">
<title>Node2&#45;&gt;Node7</title>
<g id="a_edge7_Node000002_Node000007"><a xlink:title=" ">
<path fill="none" stroke="#63b8ff" d="M132.43,-167.59C140.44,-160.01 151.92,-149.13 161.53,-140.02"/>
<polygon fill="#63b8ff" stroke="#63b8ff" points="163.73,-142.76 168.59,-133.34 158.92,-137.68 163.73,-142.76"/>
</a>
</g>
</g>
<!-- Node8 -->
<g id="Node000008" class="node">
<title>Node8</title>
<g id="a_Node000008"><a xlink:title=" ">
<polygon fill="#e0e0e0" stroke="#999999" points="310.88,-132 252.12,-132 252.12,-112 310.88,-112 310.88,-132"/>
<text xml:space="preserve" text-anchor="middle" x="281.5" y="-118.5" font-family="Helvetica,sans-Serif" font-size="10.00">stdexcept</text>
</a>
</g>
</g>
<!-- Node2&#45;&gt;Node8 -->
<g id="edge11_Node000002_Node000008" class="edge">
<title>Node2&#45;&gt;Node8</title>
<g id="a_edge11_Node000002_Node000008"><a xlink:title=" ">
<path fill="none" stroke="#63b8ff" d="M150.2,-167.59C175.8,-158.9 214.11,-145.89 242.75,-136.16"/>
<polygon fill="#63b8ff" stroke="#63b8ff" points="243.81,-139.5 252.16,-132.97 241.56,-132.87 243.81,-139.5"/>
</a>
</g>
</g>
<!-- Node4 -->
<g id="Node000004" class="node">
<title>Node4</title>
<g id="a_Node000004"><a xlink:href="os__model_8h.html" target="_top" xlink:title="Estruturas de dados para OS e Histórico.">
<polygon fill="white" stroke="#666666" points="151.62,-76 85.38,-76 85.38,-56 151.62,-56 151.62,-76"/>
<text xml:space="preserve" text-anchor="middle" x="118.5" y="-62.5" font-family="Helvetica,sans-Serif" font-size="10.00">os_model.h</text>
</a>
</g>
</g>
<!-- Node3&#45;&gt;Node4 -->
<g id="edge3_Node000003_Node000004" class="edge">
<title>Node3&#45;&gt;Node4</title>
<g id="a_edge3_Node000003_Node000004"><a xlink:title=" ">
<path fill="none" stroke="#63b8ff" d="M75.56,-111.59C82.72,-104.16 92.91,-93.58 101.57,-84.58"/>
<polygon fill="#63b8ff" stroke="#63b8ff" points="104.08,-87.02 108.5,-77.39 99.04,-82.16 104.08,-87.02"/>
</a>
</g>
</g>
<!-- Node6 -->
<g id="Node000006" class="node">
<title>Node6</title>
<g id="a_Node000006"><a xlink:title=" ">
<polygon fill="#e0e0e0" stroke="#999999" points="144.12,-20 92.88,-20 92.88,0 144.12,0 144.12,-20"/>
<text xml:space="preserve" text-anchor="middle" x="118.5" y="-6.5" font-family="Helvetica,sans-Serif" font-size="10.00">QVector</text>
</a>
</g>
</g>
<!-- Node3&#45;&gt;Node6 -->
<g id="edge6_Node000003_Node000006" class="edge">
<title>Node3&#45;&gt;Node6</title>
<g id="a_edge6_Node000003_Node000006"><a xlink:title=" ">
<path fill="none" stroke="#63b8ff" d="M66.25,-111.67C66.26,-98.57 67.63,-74.28 76.5,-56 81.64,-45.41 90.13,-35.6 98.14,-27.86"/>
<polygon fill="#63b8ff" stroke="#63b8ff" points="100.27,-30.66 105.34,-21.35 95.57,-25.47 100.27,-30.66"/>
</a>
</g>
</g>
<!-- Node4&#45;&gt;Node5 -->
<g id="edge4_Node000004_Node000005" class="edge">
<title>Node4&#45;&gt;Node5</title>
<g id="a_edge4_Node000004_Node000005"><a xlink:title=" ">
<path fill="none" stroke="#63b8ff" d="M102.13,-55.59C87.93,-47.44 67.12,-35.48 50.62,-26"/>
<polygon fill="#63b8ff" stroke="#63b8ff" points="52.73,-23.18 42.31,-21.23 49.24,-29.25 52.73,-23.18"/>
</a>
</g>
</g>
<!-- Node4&#45;&gt;Node6 -->
<g id="edge5_Node000004_Node000006" class="edge">
<title>Node4&#45;&gt;Node6</title>
<g id="a_edge5_Node000004_Node000006"><a xlink:title=" ">
<path fill="none" stroke="#63b8ff" d="M118.5,-55.59C118.5,-49.01 118.5,-39.96 118.5,-31.73"/>
<polygon fill="#63b8ff" stroke="#63b8ff" points="122,-31.81 118.5,-21.81 115,-31.81 122,-31.81"/>
</a>
</g>
</g>
<!-- Node7&#45;&gt;Node4 -->
<g id="edge8_Node000007_Node000004" class="edge">
<title>Node7&#45;&gt;Node4</title>
<g id="a_edge8_Node000007_Node000004"><a xlink:title=" ">
<path fill="none" stroke="#63b8ff" d="M168.87,-111.59C160.22,-103.93 147.77,-92.91 137.42,-83.75"/>
<polygon fill="#63b8ff" stroke="#63b8ff" points="139.94,-81.31 130.14,-77.3 135.3,-86.55 139.94,-81.31"/>
</a>
</g>
</g>
<!-- Node7&#45;&gt;Node6 -->
<g id="edge9_Node000007_Node000006" class="edge">
<title>Node7&#45;&gt;Node6</title>
<g id="a_edge9_Node000007_Node000006"><a xlink:title=" ">
<path fill="none" stroke="#63b8ff" d="M178.17,-111.64C176,-98.51 170.86,-74.19 160.5,-56 154.6,-45.63 145.86,-35.75 137.88,-27.9"/>
<polygon fill="#63b8ff" stroke="#63b8ff" points="140.49,-25.55 130.79,-21.29 135.71,-30.67 140.49,-25.55"/>
</a>
</g>
</g>
</g>
</svg>
</svg>

<style type='text/css'>
<![CDATA[
[data-mouse-over-selected='false'] { opacity: 0.7; }
[data-mouse-over-selected='true']  { opacity: 1.0; }
]]>
</style>
<script type="application/ecmascript"><![CDATA[
document.addEventListener('DOMContentLoaded', (event) => {
  highlightEdges();
  highlightAdjacentNodes();
});
]]></script>
</svg>
