<?xml version="1.0" encoding="UTF-8" standalone="no"?>
<!DOCTYPE svg PUBLIC "-//W3C//DTD SVG 1.1//EN"
 "http://www.w3.org/Graphics/SVG/1.1/DTD/svg11.dtd">
<!-- Generated by graphviz version 2.43.0 (0)
 -->
<!-- Title: /home/daniel/Área de trabalho/Engenharia_1/Sprint1&#45;Grupo/marmomanager_cpp/includes/os_controller.h Pages: 1 -->
<svg width="709pt" height="236pt"
 viewBox="0.00 0.00 709.00 236.00" xmlns="http://www.w3.org/2000/svg" xmlns:xlink="http://www.w3.org/1999/xlink">
<g id="graph0" class="graph" transform="scale(1 1) rotate(0) translate(4 232)">
<title>/home/daniel/Área de trabalho/Engenharia_1/Sprint1&#45;Grupo/marmomanager_cpp/includes/os_controller.h</title>
<!-- Node1 -->
<g id="Node000001" class="node">
<title>Node1</title>
<g id="a_Node000001"><a xlink:title="Cabeçalho da classe OSController.">
<polygon fill="#999999" stroke="#666666" points="378,-228 198,-228 198,-176 378,-176 378,-228"/>
<text text-anchor="start" x="206" y="-216" font-family="Helvetica,sans-Serif" font-size="10.00">/home/daniel/Área</text>
<text text-anchor="start" x="206" y="-205" font-family="Helvetica,sans-Serif" font-size="10.00"> de trabalho/Engenharia</text>
<text text-anchor="start" x="206" y="-194" font-family="Helvetica,sans-Serif" font-size="10.00">_1/Sprint1&#45;Grupo/marmomanager</text>
<text text-anchor="middle" x="288" y="-183" font-family="Helvetica,sans-Serif" font-size="10.00">_cpp/includes/os_controller.h</text>
</a>
</g>
</g>
<!-- Node2 -->
<g id="Node000002" class="node">
<title>Node2</title>
<g id="a_Node000002"><a xlink:href="os__controller_8cpp_source.html" target="_top" xlink:title=" ">
<polygon fill="white" stroke="#666666" points="180,-140 0,-140 0,-88 180,-88 180,-140"/>
<text text-anchor="start" x="8" y="-128" font-family="Helvetica,sans-Serif" font-size="10.00">/home/daniel/Área</text>
<text text-anchor="start" x="8" y="-117" font-family="Helvetica,sans-Serif" font-size="10.00"> de trabalho/Engenharia</text>
<text text-anchor="start" x="8" y="-106" font-family="Helvetica,sans-Serif" font-size="10.00">_1/Sprint1&#45;Grupo/marmomanager</text>
<text text-anchor="middle" x="90" y="-95" font-family="Helvetica,sans-Serif" font-size="10.00">_cpp/src/os_controller.cpp</text>
</a>
</g>
</g>
<!-- Node1&#45;&gt;Node2 -->
<g id="edge1_Node000001_Node000002" class="edge">
<title>Node1&#45;&gt;Node2</title>
<g id="a_edge1_Node000001_Node000002"><a xlink:title=" ">
<path fill="none" stroke="#63b8ff" d="M220.91,-171.86C197.2,-161.56 170.76,-150.08 147.87,-140.14"/>
<polygon fill="#63b8ff" stroke="#63b8ff" points="219.63,-175.12 230.2,-175.89 222.42,-168.7 219.63,-175.12"/>
</a>
</g>
</g>
<!-- Node3 -->
<g id="Node000003" class="node">
<title>Node3</title>
<g id="a_Node000003"><a xlink:href="history__dialog_8h.html" target="_top" xlink:title="Cabeçalho para a view StatusHistoryDialog.">
<polygon fill="white" stroke="#666666" points="378,-140 198,-140 198,-88 378,-88 378,-140"/>
<text text-anchor="start" x="206" y="-128" font-family="Helvetica,sans-Serif" font-size="10.00">/home/daniel/Área</text>
<text text-anchor="start" x="206" y="-117" font-family="Helvetica,sans-Serif" font-size="10.00"> de trabalho/Engenharia</text>
<text text-anchor="start" x="206" y="-106" font-family="Helvetica,sans-Serif" font-size="10.00">_1/Sprint1&#45;Grupo/marmomanager</text>
<text text-anchor="middle" x="288" y="-95" font-family="Helvetica,sans-Serif" font-size="10.00">_cpp/src/ui/history_dialog.h</text>
</a>
</g>
</g>
<!-- Node1&#45;&gt;Node3 -->
<g id="edge2_Node000001_Node000003" class="edge">
<title>Node1&#45;&gt;Node3</title>
<g id="a_edge2_Node000001_Node000003"><a xlink:title=" ">
<path fill="none" stroke="#63b8ff" d="M288,-165.56C288,-157.04 288,-148.1 288,-140.16"/>
<polygon fill="#63b8ff" stroke="#63b8ff" points="284.5,-165.66 288,-175.66 291.5,-165.66 284.5,-165.66"/>
</a>
</g>
</g>
<!-- Node6 -->
<g id="Node000006" class="node">
<title>Node6</title>
<g id="a_Node000006"><a xlink:href="main__window_8h.html" target="_top" xlink:title="Cabeçalho para a view principal MarmoManagerApp.">
<polygon fill="white" stroke="#666666" points="576,-140 396,-140 396,-88 576,-88 576,-140"/>
<text text-anchor="start" x="404" y="-128" font-family="Helvetica,sans-Serif" font-size="10.00">/home/daniel/Área</text>
<text text-anchor="start" x="404" y="-117" font-family="Helvetica,sans-Serif" font-size="10.00"> de trabalho/Engenharia</text>
<text text-anchor="start" x="404" y="-106" font-family="Helvetica,sans-Serif" font-size="10.00">_1/Sprint1&#45;Grupo/marmomanager</text>
<text text-anchor="middle" x="486" y="-95" font-family="Helvetica,sans-Serif" font-size="10.00">_cpp/src/ui/main_window.h</text>
</a>
</g>
</g>
<!-- Node1&#45;&gt;Node6 -->
<g id="edge5_Node000001_Node000006" class="edge">
<title>Node1&#45;&gt;Node6</title>
<g id="a_edge5_Node000001_Node000006"><a xlink:title=" ">
<path fill="none" stroke="#63b8ff" d="M355.09,-171.86C378.8,-161.56 405.24,-150.08 428.13,-140.14"/>
<polygon fill="#63b8ff" stroke="#63b8ff" points="353.58,-168.7 345.8,-175.89 356.37,-175.12 353.58,-168.7"/>
</a>
</g>
</g>
<!-- Node4 -->
<g id="Node000004" class="node">
<title>Node4</title>
<g id="a_Node000004"><a xlink:href="history__dialog_8cpp_source.html" target="_top" xlink:title=" ">
<polygon fill="white" stroke="#666666" points="279,-52 99,-52 99,0 279,0 279,-52"/>
<text text-anchor="start" x="107" y="-40" font-family="Helvetica,sans-Serif" font-size="10.00">/home/daniel/Área</text>
<text text-anchor="start" x="107" y="-29" font-family="Helvetica,sans-Serif" font-size="10.00"> de trabalho/Engenharia</text>
<text text-anchor="start" x="107" y="-18" font-family="Helvetica,sans-Serif" font-size="10.00">_1/Sprint1&#45;Grupo/marmomanager</text>
<text text-anchor="middle" x="189" y="-7" font-family="Helvetica,sans-Serif" font-size="10.00">_cpp/src/ui/history_dialog.cpp</text>
</a>
</g>
</g>
<!-- Node3&#45;&gt;Node4 -->
<g id="edge3_Node000003_Node000004" class="edge">
<title>Node3&#45;&gt;Node4</title>
<g id="a_edge3_Node000003_Node000004"><a xlink:title=" ">
<path fill="none" stroke="#63b8ff" d="M251.32,-81.13C240.36,-71.62 228.51,-61.32 218.11,-52.29"/>
<polygon fill="#63b8ff" stroke="#63b8ff" points="249.25,-83.98 259.1,-87.89 253.84,-78.69 249.25,-83.98"/>
</a>
</g>
</g>
<!-- Node5 -->
<g id="Node000005" class="node">
<title>Node5</title>
<g id="a_Node000005"><a xlink:href="main__window_8cpp_source.html" target="_top" xlink:title=" ">
<polygon fill="white" stroke="#666666" points="477,-52 297,-52 297,0 477,0 477,-52"/>
<text text-anchor="start" x="305" y="-40" font-family="Helvetica,sans-Serif" font-size="10.00">/home/daniel/Área</text>
<text text-anchor="start" x="305" y="-29" font-family="Helvetica,sans-Serif" font-size="10.00"> de trabalho/Engenharia</text>
<text text-anchor="start" x="305" y="-18" font-family="Helvetica,sans-Serif" font-size="10.00">_1/Sprint1&#45;Grupo/marmomanager</text>
<text text-anchor="middle" x="387" y="-7" font-family="Helvetica,sans-Serif" font-size="10.00">_cpp/src/ui/main_window.cpp</text>
</a>
</g>
</g>
<!-- Node3&#45;&gt;Node5 -->
<g id="edge4_Node000003_Node000005" class="edge">
<title>Node3&#45;&gt;Node5</title>
<g id="a_edge4_Node000003_Node000005"><a xlink:title=" ">
<path fill="none" stroke="#63b8ff" d="M324.68,-81.13C335.64,-71.62 347.49,-61.32 357.89,-52.29"/>
<polygon fill="#63b8ff" stroke="#63b8ff" points="322.16,-78.69 316.9,-87.89 326.75,-83.98 322.16,-78.69"/>
</a>
</g>
</g>
<!-- Node6&#45;&gt;Node5 -->
<g id="edge7_Node000006_Node000005" class="edge">
<title>Node6&#45;&gt;Node5</title>
<g id="a_edge7_Node000006_Node000005"><a xlink:title=" ">
<path fill="none" stroke="#63b8ff" d="M449.32,-81.13C438.36,-71.62 426.51,-61.32 416.11,-52.29"/>
<polygon fill="#63b8ff" stroke="#63b8ff" points="447.25,-83.98 457.1,-87.89 451.84,-78.69 447.25,-83.98"/>
</a>
</g>
</g>
<!-- Node7 -->
<g id="Node000007" class="node">
<title>Node7</title>
<g id="a_Node000007"><a xlink:href="application__coordinator_8cpp_source.html" target="_top" xlink:title=" ">
<polygon fill="white" stroke="#666666" points="701,-52 495,-52 495,0 701,0 701,-52"/>
<text text-anchor="start" x="503" y="-40" font-family="Helvetica,sans-Serif" font-size="10.00">/home/daniel/Área</text>
<text text-anchor="start" x="503" y="-29" font-family="Helvetica,sans-Serif" font-size="10.00"> de trabalho/Engenharia</text>
<text text-anchor="start" x="503" y="-18" font-family="Helvetica,sans-Serif" font-size="10.00">_1/Sprint1&#45;Grupo/marmomanager</text>
<text text-anchor="middle" x="598" y="-7" font-family="Helvetica,sans-Serif" font-size="10.00">_cpp/src/ui/application_coordinator.cpp</text>
</a>
</g>
</g>
<!-- Node6&#45;&gt;Node7 -->
<g id="edge6_Node000006_Node000007" class="edge">
<title>Node6&#45;&gt;Node7</title>
<g id="a_edge6_Node000006_Node000007"><a xlink:title=" ">
<path fill="none" stroke="#63b8ff" d="M526.78,-81.69C539.37,-72.02 553.08,-61.49 565.07,-52.29"/>
<polygon fill="#63b8ff" stroke="#63b8ff" points="524.5,-79.03 518.7,-87.89 528.76,-84.58 524.5,-79.03"/>
</a>
</g>
</g>
</g>
</svg>
