<?xml version="1.0" encoding="UTF-8" standalone="no"?>
<!DOCTYPE svg PUBLIC "-//W3C//DTD SVG 1.1//EN"
 "http://www.w3.org/Graphics/SVG/1.1/DTD/svg11.dtd">
<!-- Generated by graphviz version 14.1.4 (20260321.0153)
 -->
<!-- Title: /home/arthurteixeira/Músicas/trabalho&#45;grupo&#45;eng&#45;soft/trabalho&#45;grupo&#45;eng&#45;soft/marmomanager_cpp/includes/os_controller.h Pages: 1 -->
<svg width="319pt" height="244pt"
 viewBox="0.00 0.00 319.00 244.00" xmlns="http://www.w3.org/2000/svg" xmlns:xlink="http://www.w3.org/1999/xlink">

<svg id="main" version="1.1" xmlns="http://www.w3.org/2000/svg" xmlns:xlink="http://www.w3.org/1999/xlink" xml:space="preserve">

<style type="text/css"><![CDATA[
.node, .edge {opacity: 0.7;}
.node.selected, .edge.selected {opacity: 1;}
.edge:hover path { stroke: red; }
.edge:hover polygon { stroke: red; fill: red; }
]]></style>
<script type="application/ecmascript" xlink:href="svg.min.js"/>
<svg id="graph" class="graph">
<g id="graph0" class="graph" transform="scale(1 1) rotate(0) translate(4 240)">
<title>/home/arthurteixeira/Músicas/trabalho&#45;grupo&#45;eng&#45;soft/trabalho&#45;grupo&#45;eng&#45;soft/marmomanager_cpp/includes/os_controller.h</title>
<!-- Node1 -->
<g id="Node000001" class="node">
<title>Node1</title>
<g id="a_Node000001"><a xlink:title="Cabeçalho da classe OSController.">
<polygon fill="#999999" stroke="#666666" points="195.38,-236 49.62,-236 49.62,-168 195.38,-168 195.38,-236"/>
<text xml:space="preserve" text-anchor="start" x="57.62" y="-222.5" font-family="Helvetica,sans-Serif" font-size="10.00">/home/arthurteixeira</text>
<text xml:space="preserve" text-anchor="start" x="57.62" y="-210.5" font-family="Helvetica,sans-Serif" font-size="10.00">/Músicas/trabalho&#45;grupo</text>
<text xml:space="preserve" text-anchor="start" x="57.62" y="-198.5" font-family="Helvetica,sans-Serif" font-size="10.00">&#45;eng&#45;soft/trabalho&#45;grupo</text>
<text xml:space="preserve" text-anchor="start" x="57.62" y="-186.5" font-family="Helvetica,sans-Serif" font-size="10.00">&#45;eng&#45;soft/marmomanager_cpp</text>
<text xml:space="preserve" text-anchor="middle" x="122.5" y="-174.5" font-family="Helvetica,sans-Serif" font-size="10.00">/includes/os_controller.h</text>
</a>
</g>
</g>
<!-- Node2 -->
<g id="Node000002" class="node">
<title>Node2</title>
<g id="a_Node000002"><a xlink:href="os__repository_8h.html" target="_top" xlink:title="Cabeçalho para a classe OSRepository.">
<polygon fill="white" stroke="#666666" points="107.5,-132 25.5,-132 25.5,-112 107.5,-112 107.5,-132"/>
<text xml:space="preserve" text-anchor="middle" x="66.5" y="-118.5" font-family="Helvetica,sans-Serif" font-size="10.00">os_repository.h</text>
</a>
</g>
</g>
<!-- Node1&#45;&gt;Node2 -->
<g id="edge1_Node000001_Node000002" class="edge">
<title>Node1&#45;&gt;Node2</title>
<g id="a_edge1_Node000001_Node000002"><a xlink:title=" ">
<path fill="none" stroke="#63b8ff" d="M98.75,-167.92C92.28,-158.91 85.51,-149.47 79.84,-141.59"/>
<polygon fill="#63b8ff" stroke="#63b8ff" points="82.72,-139.59 74.04,-133.51 77.03,-143.67 82.72,-139.59"/>
</a>
</g>
</g>
<!-- Node4 -->
<g id="Node000004" class="node">
<title>Node4</title>
<g id="a_Node000004"><a xlink:title=" ">
<polygon fill="#e0e0e0" stroke="#999999" points="49,-20 0,-20 0,0 49,0 49,-20"/>
<text xml:space="preserve" text-anchor="middle" x="24.5" y="-6.5" font-family="Helvetica,sans-Serif" font-size="10.00">QString</text>
</a>
</g>
</g>
<!-- Node1&#45;&gt;Node4 -->
<g id="edge9_Node000001_Node000004" class="edge">
<title>Node1&#45;&gt;Node4</title>
<g id="a_edge9_Node000001_Node000004"><a xlink:title=" ">
<path fill="none" stroke="#63b8ff" d="M49.7,-167.62C36.37,-158.08 24.25,-146.28 16.5,-132 -0.83,-100.03 8.87,-56.12 17.01,-30.93"/>
<polygon fill="#63b8ff" stroke="#63b8ff" points="20.26,-32.23 20.26,-21.63 13.66,-29.92 20.26,-32.23"/>
</a>
</g>
</g>
<!-- Node6 -->
<g id="Node000006" class="node">
<title>Node6</title>
<g id="a_Node000006"><a xlink:href="historico__repository_8h.html" target="_top" xlink:title="Cabeçalho da classe HistoricoRepository.">
<polygon fill="white" stroke="#666666" points="233.62,-132 125.38,-132 125.38,-112 233.62,-112 233.62,-132"/>
<text xml:space="preserve" text-anchor="middle" x="179.5" y="-118.5" font-family="Helvetica,sans-Serif" font-size="10.00">historico_repository.h</text>
</a>
</g>
</g>
<!-- Node1&#45;&gt;Node6 -->
<g id="edge6_Node000001_Node000006" class="edge">
<title>Node1&#45;&gt;Node6</title>
<g id="a_edge6_Node000001_Node000006"><a xlink:title=" ">
<path fill="none" stroke="#63b8ff" d="M146.67,-167.92C153.33,-158.81 160.31,-149.26 166.11,-141.32"/>
<polygon fill="#63b8ff" stroke="#63b8ff" points="168.75,-143.64 171.83,-133.5 163.1,-139.51 168.75,-143.64"/>
</a>
</g>
</g>
<!-- Node7 -->
<g id="Node000007" class="node">
<title>Node7</title>
<g id="a_Node000007"><a xlink:title=" ">
<polygon fill="#e0e0e0" stroke="#999999" points="310.88,-132 252.12,-132 252.12,-112 310.88,-112 310.88,-132"/>
<text xml:space="preserve" text-anchor="middle" x="281.5" y="-118.5" font-family="Helvetica,sans-Serif" font-size="10.00">stdexcept</text>
</a>
</g>
</g>
<!-- Node1&#45;&gt;Node7 -->
<g id="edge10_Node000001_Node000007" class="edge">
<title>Node1&#45;&gt;Node7</title>
<g id="a_edge10_Node000001_Node000007"><a xlink:title=" ">
<path fill="none" stroke="#63b8ff" d="M190.39,-167.69C212.06,-157.06 234.9,-145.86 252.3,-137.33"/>
<polygon fill="#63b8ff" stroke="#63b8ff" points="253.57,-140.6 261.01,-133.05 250.49,-134.32 253.57,-140.6"/>
</a>
</g>
</g>
<!-- Node3 -->
<g id="Node000003" class="node">
<title>Node3</title>
<g id="a_Node000003"><a xlink:href="os__model_8h.html" target="_top" xlink:title="Estruturas de dados para OS e Histórico.">
<polygon fill="white" stroke="#666666" points="151.62,-76 85.38,-76 85.38,-56 151.62,-56 151.62,-76"/>
<text xml:space="preserve" text-anchor="middle" x="118.5" y="-62.5" font-family="Helvetica,sans-Serif" font-size="10.00">os_model.h</text>
</a>
</g>
</g>
<!-- Node2&#45;&gt;Node3 -->
<g id="edge2_Node000002_Node000003" class="edge">
<title>Node2&#45;&gt;Node3</title>
<g id="a_edge2_Node000002_Node000003"><a xlink:title=" ">
<path fill="none" stroke="#63b8ff" d="M75.56,-111.59C82.72,-104.16 92.91,-93.58 101.57,-84.58"/>
<polygon fill="#63b8ff" stroke="#63b8ff" points="104.08,-87.02 108.5,-77.39 99.04,-82.16 104.08,-87.02"/>
</a>
</g>
</g>
<!-- Node5 -->
<g id="Node000005" class="node">
<title>Node5</title>
<g id="a_Node000005"><a xlink:title=" ">
<polygon fill="#e0e0e0" stroke="#999999" points="144.12,-20 92.88,-20 92.88,0 144.12,0 144.12,-20"/>
<text xml:space="preserve" text-anchor="middle" x="118.5" y="-6.5" font-family="Helvetica,sans-Serif" font-size="10.00">QVector</text>
</a>
</g>
</g>
<!-- Node2&#45;&gt;Node5 -->
<g id="edge5_Node000002_Node000005" class="edge">
<title>Node2&#45;&gt;Node5</title>
<g id="a_edge5_Node000002_Node000005"><a xlink:title=" ">
<path fill="none" stroke="#63b8ff" d="M66.25,-111.67C66.26,-98.57 67.63,-74.28 76.5,-56 81.64,-45.41 90.13,-35.6 98.14,-27.86"/>
<polygon fill="#63b8ff" stroke="#63b8ff" points="100.27,-30.66 105.34,-21.35 95.57,-25.47 100.27,-30.66"/>
</a>
</g>
</g>
<!-- Node3&#45;&gt;Node4 -->
<g id="edge3_Node000003_Node000004" class="edge">
<title>Node3&#45;&gt;Node4</title>
<g id="a_edge3_Node000003_Node000004"><a xlink:title=" ">
<path fill="none" stroke="#63b8ff" d="M102.13,-55.59C87.93,-47.44 67.12,-35.48 50.62,-26"/>
<polygon fill="#63b8ff" stroke="#63b8ff" points="52.73,-23.18 42.31,-21.23 49.24,-29.25 52.73,-23.18"/>
</a>
</g>
</g>
<!-- Node3&#45;&gt;Node5 -->
<g id="edge4_Node000003_Node000005" class="edge">
<title>Node3&#45;&gt;Node5</title>
<g id="a_edge4_Node000003_Node000005"><a xlink:title=" ">
<path fill="none" stroke="#63b8ff" d="M118.5,-55.59C118.5,-49.01 118.5,-39.96 118.5,-31.73"/>
<polygon fill="#63b8ff" stroke="#63b8ff" points="122,-31.81 118.5,-21.81 115,-31.81 122,-31.81"/>
</a>
</g>
</g>
<!-- Node6&#45;&gt;Node3 -->
<g id="edge7_Node000006_Node000003" class="edge">
<title>Node6&#45;&gt;Node3</title>
<g id="a_edge7_Node000006_Node000003"><a xlink:title=" ">
<path fill="none" stroke="#63b8ff" d="M168.87,-111.59C160.22,-103.93 147.77,-92.91 137.42,-83.75"/>
<polygon fill="#63b8ff" stroke="#63b8ff" points="139.94,-81.31 130.14,-77.3 135.3,-86.55 139.94,-81.31"/>
</a>
</g>
</g>
<!-- Node6&#45;&gt;Node5 -->
<g id="edge8_Node000006_Node000005" class="edge">
<title>Node6&#45;&gt;Node5</title>
<g id="a_edge8_Node000006_Node000005"><a xlink:title=" ">
<path fill="none" stroke="#63b8ff" d="M178.17,-111.64C176,-98.51 170.86,-74.19 160.5,-56 154.6,-45.63 145.86,-35.75 137.88,-27.9"/>
<polygon fill="#63b8ff" stroke="#63b8ff" points="140.49,-25.55 130.79,-21.29 135.71,-30.67 140.49,-25.55"/>
</a>
</g>
</g>
</g>
</svg>
</svg>

<style type='text/css'>
<![CDATA[
[data-mouse-over-selected='false'] { opacity: 0.7; }
[data-mouse-over-selected='true']  { opacity: 1.0; }
]]>
</style>
<script type="application/ecmascript"><![CDATA[
document.addEventListener('DOMContentLoaded', (event) => {
  highlightEdges();
  highlightAdjacentNodes();
});
]]></script>
</svg>
