<?xml version="1.0" encoding="UTF-8" standalone="no"?>
<!DOCTYPE svg PUBLIC "-//W3C//DTD SVG 1.1//EN"
 "http://www.w3.org/Graphics/SVG/1.1/DTD/svg11.dtd">
<!-- Generated by graphviz version 2.43.0 (0)
 -->
<!-- Title: /home/daniel/Área de trabalho/Engenharia_1/Sprint1&#45;Grupo/marmomanager_cpp/includes/password_hasher.h Pages: 1 -->
<svg width="584pt" height="148pt"
 viewBox="0.00 0.00 584.00 148.00" xmlns="http://www.w3.org/2000/svg" xmlns:xlink="http://www.w3.org/1999/xlink">
<g id="graph0" class="graph" transform="scale(1 1) rotate(0) translate(4 144)">
<title>/home/daniel/Área de trabalho/Engenharia_1/Sprint1&#45;Grupo/marmomanager_cpp/includes/password_hasher.h</title>
<!-- Node1 -->
<g id="Node000001" class="node">
<title>Node1</title>
<g id="a_Node000001"><a xlink:title="Derivação e verificação segura das senhas persistidas.">
<polygon fill="#999999" stroke="#666666" points="378,-140 198,-140 198,-88 378,-88 378,-140"/>
<text text-anchor="start" x="206" y="-128" font-family="Helvetica,sans-Serif" font-size="10.00">/home/daniel/Área</text>
<text text-anchor="start" x="206" y="-117" font-family="Helvetica,sans-Serif" font-size="10.00"> de trabalho/Engenharia</text>
<text text-anchor="start" x="206" y="-106" font-family="Helvetica,sans-Serif" font-size="10.00">_1/Sprint1&#45;Grupo/marmomanager</text>
<text text-anchor="middle" x="288" y="-95" font-family="Helvetica,sans-Serif" font-size="10.00">_cpp/includes/password_hasher.h</text>
</a>
</g>
</g>
<!-- Node2 -->
<g id="Node000002" class="node">
<title>Node2</title>
<g id="a_Node000002"><a xlink:href="database_8cpp_source.html" target="_top" xlink:title=" ">
<polygon fill="white" stroke="#666666" points="180,-52 0,-52 0,0 180,0 180,-52"/>
<text text-anchor="start" x="8" y="-40" font-family="Helvetica,sans-Serif" font-size="10.00">/home/daniel/Área</text>
<text text-anchor="start" x="8" y="-29" font-family="Helvetica,sans-Serif" font-size="10.00"> de trabalho/Engenharia</text>
<text text-anchor="start" x="8" y="-18" font-family="Helvetica,sans-Serif" font-size="10.00">_1/Sprint1&#45;Grupo/marmomanager</text>
<text text-anchor="middle" x="90" y="-7" font-family="Helvetica,sans-Serif" font-size="10.00">_cpp/src/database.cpp</text>
</a>
</g>
</g>
<!-- Node1&#45;&gt;Node2 -->
<g id="edge1_Node000001_Node000002" class="edge">
<title>Node1&#45;&gt;Node2</title>
<g id="a_edge1_Node000001_Node000002"><a xlink:title=" ">
<path fill="none" stroke="#63b8ff" d="M220.91,-83.86C197.2,-73.56 170.76,-62.08 147.87,-52.14"/>
<polygon fill="#63b8ff" stroke="#63b8ff" points="219.63,-87.12 230.2,-87.89 222.42,-80.7 219.63,-87.12"/>
</a>
</g>
</g>
<!-- Node3 -->
<g id="Node000003" class="node">
<title>Node3</title>
<g id="a_Node000003"><a xlink:href="password__hasher_8cpp_source.html" target="_top" xlink:title=" ">
<polygon fill="white" stroke="#666666" points="378,-52 198,-52 198,0 378,0 378,-52"/>
<text text-anchor="start" x="206" y="-40" font-family="Helvetica,sans-Serif" font-size="10.00">/home/daniel/Área</text>
<text text-anchor="start" x="206" y="-29" font-family="Helvetica,sans-Serif" font-size="10.00"> de trabalho/Engenharia</text>
<text text-anchor="start" x="206" y="-18" font-family="Helvetica,sans-Serif" font-size="10.00">_1/Sprint1&#45;Grupo/marmomanager</text>
<text text-anchor="middle" x="288" y="-7" font-family="Helvetica,sans-Serif" font-size="10.00">_cpp/src/password_hasher.cpp</text>
</a>
</g>
</g>
<!-- Node1&#45;&gt;Node3 -->
<g id="edge2_Node000001_Node000003" class="edge">
<title>Node1&#45;&gt;Node3</title>
<g id="a_edge2_Node000001_Node000003"><a xlink:title=" ">
<path fill="none" stroke="#63b8ff" d="M288,-77.56C288,-69.04 288,-60.1 288,-52.16"/>
<polygon fill="#63b8ff" stroke="#63b8ff" points="284.5,-77.66 288,-87.66 291.5,-77.66 284.5,-77.66"/>
</a>
</g>
</g>
<!-- Node4 -->
<g id="Node000004" class="node">
<title>Node4</title>
<g id="a_Node000004"><a xlink:href="user__repository_8cpp_source.html" target="_top" xlink:title=" ">
<polygon fill="white" stroke="#666666" points="576,-52 396,-52 396,0 576,0 576,-52"/>
<text text-anchor="start" x="404" y="-40" font-family="Helvetica,sans-Serif" font-size="10.00">/home/daniel/Área</text>
<text text-anchor="start" x="404" y="-29" font-family="Helvetica,sans-Serif" font-size="10.00"> de trabalho/Engenharia</text>
<text text-anchor="start" x="404" y="-18" font-family="Helvetica,sans-Serif" font-size="10.00">_1/Sprint1&#45;Grupo/marmomanager</text>
<text text-anchor="middle" x="486" y="-7" font-family="Helvetica,sans-Serif" font-size="10.00">_cpp/src/user_repository.cpp</text>
</a>
</g>
</g>
<!-- Node1&#45;&gt;Node4 -->
<g id="edge3_Node000001_Node000004" class="edge">
<title>Node1&#45;&gt;Node4</title>
<g id="a_edge3_Node000001_Node000004"><a xlink:title=" ">
<path fill="none" stroke="#63b8ff" d="M355.09,-83.86C378.8,-73.56 405.24,-62.08 428.13,-52.14"/>
<polygon fill="#63b8ff" stroke="#63b8ff" points="353.58,-80.7 345.8,-87.89 356.37,-87.12 353.58,-80.7"/>
</a>
</g>
</g>
</g>
</svg>
