<?xml version="1.0" encoding="UTF-8" standalone="no"?>
<!DOCTYPE svg PUBLIC "-//W3C//DTD SVG 1.1//EN"
 "http://www.w3.org/Graphics/SVG/1.1/DTD/svg11.dtd">
<!-- Generated by graphviz version 2.43.0 (0)
 -->
<!-- Title: AuthenticationResult Pages: 1 -->
<svg width="121pt" height="243pt"
 viewBox="0.00 0.00 121.00 243.00" xmlns="http://www.w3.org/2000/svg" xmlns:xlink="http://www.w3.org/1999/xlink">
<g id="graph0" class="graph" transform="scale(1 1) rotate(0) translate(4 239)">
<title>AuthenticationResult</title>
<!-- Node1 -->
<g id="Node000001" class="node">
<title>Node1</title>
<g id="a_Node000001"><a xlink:title="Resposta completa produzida pela autenticação.">
<polygon fill="#999999" stroke="transparent" points="113,-64 0,-64 0,0 113,0 113,-64"/>
<text text-anchor="start" x="5.5" y="-52" font-family="Helvetica,sans-Serif" font-size="10.00">AuthenticationResult</text>
<text text-anchor="start" x="16" y="-37" font-family="Helvetica,sans-Serif" font-size="10.00">+</text>
<text text-anchor="start" x="40.5" y="-37" font-family="Helvetica,sans-Serif" font-size="10.00">status</text>
<text text-anchor="start" x="16" y="-22" font-family="Helvetica,sans-Serif" font-size="10.00">+</text>
<text text-anchor="start" x="40.5" y="-22" font-family="Helvetica,sans-Serif" font-size="10.00">message</text>
<text text-anchor="start" x="55" y="-7" font-family="Helvetica,sans-Serif" font-size="10.00"> </text>
<polygon fill="#666666" stroke="#666666" points="0.5,-47 0.5,-47 113.5,-47 113.5,-47 0.5,-47"/>
<polygon fill="#666666" stroke="#666666" points="0.5,-17 0.5,-17 38.5,-17 38.5,-17 0.5,-17"/>
<polygon fill="#666666" stroke="#666666" points="38.5,-17 38.5,-17 113.5,-17 113.5,-17 38.5,-17"/>
<polygon fill="none" stroke="#666666" points="0,0 0,-64 113,-64 113,0 0,0"/>
</a>
</g>
</g>
<!-- Node2 -->
<g id="Node000002" class="node">
<title>Node2</title>
<g id="a_Node000002"><a xlink:href="structUserData.html" target="_top" xlink:title="Dados públicos de um usuário, sem informações sensíveis.">
<polygon fill="white" stroke="transparent" points="109.5,-235 3.5,-235 3.5,-111 109.5,-111 109.5,-235"/>
<text text-anchor="start" x="33.5" y="-223" font-family="Helvetica,sans-Serif" font-size="10.00">UserData</text>
<text text-anchor="start" x="7.5" y="-208" font-family="Helvetica,sans-Serif" font-size="10.00">+</text>
<text text-anchor="start" x="20.5" y="-208" font-family="Helvetica,sans-Serif" font-size="10.00">id</text>
<text text-anchor="start" x="7.5" y="-193" font-family="Helvetica,sans-Serif" font-size="10.00">+</text>
<text text-anchor="start" x="20.5" y="-193" font-family="Helvetica,sans-Serif" font-size="10.00">nome</text>
<text text-anchor="start" x="7.5" y="-178" font-family="Helvetica,sans-Serif" font-size="10.00">+</text>
<text text-anchor="start" x="20.5" y="-178" font-family="Helvetica,sans-Serif" font-size="10.00">username</text>
<text text-anchor="start" x="7.5" y="-163" font-family="Helvetica,sans-Serif" font-size="10.00">+</text>
<text text-anchor="start" x="20.5" y="-163" font-family="Helvetica,sans-Serif" font-size="10.00">perfil</text>
<text text-anchor="start" x="7.5" y="-148" font-family="Helvetica,sans-Serif" font-size="10.00">+</text>
<text text-anchor="start" x="20.5" y="-148" font-family="Helvetica,sans-Serif" font-size="10.00">ativo</text>
<text text-anchor="start" x="7.5" y="-133" font-family="Helvetica,sans-Serif" font-size="10.00">+</text>
<text text-anchor="start" x="20.5" y="-133" font-family="Helvetica,sans-Serif" font-size="10.00">isMaster()</text>
<text text-anchor="start" x="7.5" y="-118" font-family="Helvetica,sans-Serif" font-size="10.00">+</text>
<text text-anchor="start" x="20.5" y="-118" font-family="Helvetica,sans-Serif" font-size="10.00">isAuthenticated()</text>
<polygon fill="#666666" stroke="#666666" points="3.5,-218 3.5,-218 109.5,-218 109.5,-218 3.5,-218"/>
<polygon fill="#666666" stroke="#666666" points="3.5,-143 3.5,-143 18.5,-143 18.5,-143 3.5,-143"/>
<polygon fill="#666666" stroke="#666666" points="18.5,-143 18.5,-143 109.5,-143 109.5,-143 18.5,-143"/>
<polygon fill="none" stroke="#666666" points="3.5,-111 3.5,-235 109.5,-235 109.5,-111 3.5,-111"/>
</a>
</g>
</g>
<!-- Node2&#45;&gt;Node1 -->
<g id="edge1_Node000001_Node000002" class="edge">
<title>Node2&#45;&gt;Node1</title>
<g id="a_edge1_Node000001_Node000002"><a xlink:title=" ">
<path fill="none" stroke="#63b8ff" d="M56.5,-110.63C56.5,-99.13 56.5,-87.33 56.5,-76.51"/>
<polygon fill="none" stroke="#63b8ff" points="56.5,-76.34 52.5,-70.34 56.5,-64.34 60.5,-70.34 56.5,-76.34"/>
</a>
</g>
<text text-anchor="middle" x="73" y="-85" font-family="Helvetica,sans-Serif" font-size="10.00" fill="grey"> +user</text>
</g>
</g>
</svg>
